M48
; DRILL file {KiCad 7.0.1} date Wed 22 Mar 2023 04:33:00 PM CET
; FORMAT={-:-/ absolute / metric / decimal}
; #@! TF.CreationDate,2023-03-22T16:33:00+01:00
; #@! TF.GenerationSoftware,Kicad,Pcbnew,7.0.1
; #@! TF.FileFunction,Plated,1,2,PTH
FMAT,2
METRIC
; #@! TA.AperFunction,Plated,PTH,ViaDrill
T1C0.400
; #@! TA.AperFunction,Plated,PTH,ComponentDrill
T2C0.700
; #@! TA.AperFunction,Plated,PTH,ComponentDrill
T3C1.000
; #@! TA.AperFunction,Plated,PTH,ComponentDrill
T4C1.100
%
G90
G05
T1
X100.5Y-96.39
X103.886Y-83.566
X104.013Y-100.203
X106.631Y-100.251
X107.315Y-93.345
X109.601Y-83.566
X111.37Y-81.23
X112.9Y-76.25
X113.792Y-92.202
X114.3Y-76.2
X115.01Y-108.41
X116.13Y-109.43
X116.5Y-85.0
X118.764Y-105.947
X118.764Y-107.471
X119.126Y-76.2
X119.67Y-99.48
X120.5Y-82.25
X121.44Y-104.36
X121.54Y-103.37
X122.0Y-90.25
X122.762Y-100.082
X123.0Y-85.0
X124.09Y-82.53
X124.968Y-98.425
X125.5Y-115.0
X127.0Y-96.75
X136.45Y-102.77
X140.25Y-79.0
X142.12Y-89.04
X142.5Y-94.0
X145.034Y-96.139
X158.75Y-113.25
X164.5Y-91.25
T2
X106.07Y-82.21
X106.07Y-83.48
X106.07Y-84.75
X106.07Y-86.02
X106.07Y-87.29
X107.34Y-82.21
X107.34Y-83.48
X107.34Y-84.75
X107.34Y-86.02
X107.34Y-87.29
T3
X151.33Y-104.882
X153.87Y-104.882
X155.32Y-101.4
X156.41Y-104.882
X157.86Y-101.4
X158.95Y-104.882
X160.4Y-101.4
X162.51Y-104.64
X162.51Y-107.18
X162.51Y-109.72
X162.51Y-112.26
X162.94Y-101.4
T4
X151.23Y-77.672
X151.23Y-80.212
X151.23Y-82.752
X151.23Y-85.292
X151.23Y-87.832
X151.23Y-90.373
X151.23Y-92.912
T0
M30
