%TF.GenerationSoftware,KiCad,Pcbnew,7.0.1*%
%TF.CreationDate,2023-03-22T16:32:40+01:00*%
%TF.ProjectId,iaq_device,6961715f-6465-4766-9963-652e6b696361,rev?*%
%TF.SameCoordinates,Original*%
%TF.FileFunction,Copper,L1,Top*%
%TF.FilePolarity,Positive*%
%FSLAX46Y46*%
G04 Gerber Fmt 4.6, Leading zero omitted, Abs format (unit mm)*
G04 Created by KiCad (PCBNEW 7.0.1) date 2023-03-22 16:32:40*
%MOMM*%
%LPD*%
G01*
G04 APERTURE LIST*
G04 Aperture macros list*
%AMRoundRect*
0 Rectangle with rounded corners*
0 $1 Rounding radius*
0 $2 $3 $4 $5 $6 $7 $8 $9 X,Y pos of 4 corners*
0 Add a 4 corners polygon primitive as box body*
4,1,4,$2,$3,$4,$5,$6,$7,$8,$9,$2,$3,0*
0 Add four circle primitives for the rounded corners*
1,1,$1+$1,$2,$3*
1,1,$1+$1,$4,$5*
1,1,$1+$1,$6,$7*
1,1,$1+$1,$8,$9*
0 Add four rect primitives between the rounded corners*
20,1,$1+$1,$2,$3,$4,$5,0*
20,1,$1+$1,$4,$5,$6,$7,0*
20,1,$1+$1,$6,$7,$8,$9,0*
20,1,$1+$1,$8,$9,$2,$3,0*%
%AMFreePoly0*
4,1,19,0.550000,-0.750000,0.000000,-0.750000,0.000000,-0.744911,-0.071157,-0.744911,-0.207708,-0.704816,-0.327430,-0.627875,-0.420627,-0.520320,-0.479746,-0.390866,-0.500000,-0.250000,-0.500000,0.250000,-0.479746,0.390866,-0.420627,0.520320,-0.327430,0.627875,-0.207708,0.704816,-0.071157,0.744911,0.000000,0.744911,0.000000,0.750000,0.550000,0.750000,0.550000,-0.750000,0.550000,-0.750000,
$1*%
%AMFreePoly1*
4,1,19,0.000000,0.744911,0.071157,0.744911,0.207708,0.704816,0.327430,0.627875,0.420627,0.520320,0.479746,0.390866,0.500000,0.250000,0.500000,-0.250000,0.479746,-0.390866,0.420627,-0.520320,0.327430,-0.627875,0.207708,-0.704816,0.071157,-0.744911,0.000000,-0.744911,0.000000,-0.750000,-0.550000,-0.750000,-0.550000,0.750000,0.000000,0.750000,0.000000,0.744911,0.000000,0.744911,
$1*%
G04 Aperture macros list end*
%TA.AperFunction,SMDPad,CuDef*%
%ADD10R,1.000000X2.510000*%
%TD*%
%TA.AperFunction,ComponentPad*%
%ADD11R,1.000000X1.000000*%
%TD*%
%TA.AperFunction,ComponentPad*%
%ADD12O,1.000000X1.000000*%
%TD*%
%TA.AperFunction,SMDPad,CuDef*%
%ADD13RoundRect,0.250000X-0.250000X-0.475000X0.250000X-0.475000X0.250000X0.475000X-0.250000X0.475000X0*%
%TD*%
%TA.AperFunction,SMDPad,CuDef*%
%ADD14FreePoly0,90.000000*%
%TD*%
%TA.AperFunction,SMDPad,CuDef*%
%ADD15R,1.500000X1.000000*%
%TD*%
%TA.AperFunction,SMDPad,CuDef*%
%ADD16FreePoly1,90.000000*%
%TD*%
%TA.AperFunction,SMDPad,CuDef*%
%ADD17R,1.300000X0.700000*%
%TD*%
%TA.AperFunction,SMDPad,CuDef*%
%ADD18R,1.550000X1.300000*%
%TD*%
%TA.AperFunction,SMDPad,CuDef*%
%ADD19R,1.900000X1.000000*%
%TD*%
%TA.AperFunction,ComponentPad*%
%ADD20R,1.700000X1.700000*%
%TD*%
%TA.AperFunction,ComponentPad*%
%ADD21C,1.700000*%
%TD*%
%TA.AperFunction,ComponentPad*%
%ADD22O,1.700000X1.700000*%
%TD*%
%TA.AperFunction,ComponentPad*%
%ADD23R,1.650000X1.650000*%
%TD*%
%TA.AperFunction,ComponentPad*%
%ADD24C,1.650000*%
%TD*%
%TA.AperFunction,ViaPad*%
%ADD25C,0.800000*%
%TD*%
%TA.AperFunction,Conductor*%
%ADD26C,0.254000*%
%TD*%
G04 APERTURE END LIST*
D10*
X126619000Y-77090000D03*
X124079000Y-80390000D03*
X121539000Y-77090000D03*
X118999000Y-80390000D03*
X116459000Y-77090000D03*
X113919000Y-80390000D03*
X111379000Y-77090000D03*
X108839000Y-80390000D03*
X108839000Y-103250000D03*
X111379000Y-99950000D03*
X113919000Y-103250000D03*
X116459000Y-99950000D03*
X118999000Y-103250000D03*
X121539000Y-99950000D03*
X124079000Y-103250000D03*
X126619000Y-99950000D03*
D11*
X106070000Y-82210000D03*
D12*
X107340000Y-82210000D03*
X106070000Y-83480000D03*
X107340000Y-83480000D03*
X106070000Y-84750000D03*
X107340000Y-84750000D03*
X106070000Y-86020000D03*
X107340000Y-86020000D03*
X106070000Y-87290000D03*
X107340000Y-87290000D03*
D13*
X111591000Y-106836000D03*
X113491000Y-106836000D03*
D14*
X104013000Y-98679000D03*
D15*
X104013000Y-97379000D03*
D16*
X104013000Y-96079000D03*
D17*
X110872000Y-110064000D03*
X110872000Y-111014000D03*
X110872000Y-111964000D03*
X114172000Y-111964000D03*
X114172000Y-111014000D03*
X114172000Y-110064000D03*
D15*
X118862000Y-109300000D03*
X118862000Y-112500000D03*
X123762000Y-112500000D03*
X123762000Y-109300000D03*
X128252000Y-109300000D03*
X128252000Y-112500000D03*
X133152000Y-112500000D03*
X133152000Y-109300000D03*
X137750000Y-109300000D03*
X137750000Y-112500000D03*
X142650000Y-112500000D03*
X142650000Y-109300000D03*
D13*
X120283500Y-106836000D03*
X122183500Y-106836000D03*
X129576500Y-106836000D03*
X131476500Y-106836000D03*
X139328500Y-106836000D03*
X141228500Y-106836000D03*
D18*
X100535000Y-107700000D03*
X108485000Y-107700000D03*
X100535000Y-112200000D03*
X108485000Y-112200000D03*
D19*
X136462500Y-83693000D03*
X139762500Y-86233000D03*
X136462500Y-88773000D03*
X139762500Y-91313000D03*
X136462500Y-93853000D03*
X139762500Y-96393000D03*
X136462500Y-98933000D03*
X139762500Y-101473000D03*
D20*
X162940000Y-101400000D03*
D21*
X160400000Y-101400000D03*
X157860000Y-101400000D03*
X155320000Y-101400000D03*
D20*
X158950000Y-104882000D03*
D22*
X156410000Y-104882000D03*
X153870000Y-104882000D03*
X151330000Y-104882000D03*
D20*
X162510000Y-112260000D03*
D21*
X162510000Y-109720000D03*
X162510000Y-107180000D03*
D20*
X162510000Y-104640000D03*
D23*
X151230000Y-77672500D03*
D24*
X151230000Y-80212500D03*
X151230000Y-82752500D03*
X151230000Y-85292500D03*
X151230000Y-87832500D03*
X151230000Y-90372500D03*
X151230000Y-92912500D03*
D25*
X124090000Y-82530000D03*
X111370000Y-81230000D03*
X119670000Y-99480000D03*
X121540000Y-103370000D03*
X121440000Y-104360000D03*
X136450000Y-102770000D03*
X100500000Y-96390000D03*
X112900000Y-76250000D03*
X122762273Y-100082273D03*
X140250000Y-79000000D03*
X114300000Y-76200000D03*
X120500000Y-82250000D03*
X145034000Y-96139000D03*
X125500000Y-115000000D03*
X107315000Y-93345000D03*
X116500000Y-85000000D03*
X158750000Y-113250000D03*
X123000000Y-85000000D03*
X113792000Y-92202000D03*
X124968000Y-98425000D03*
X164500000Y-91250000D03*
X103886000Y-83566000D03*
X122000000Y-90250000D03*
X119126000Y-76200000D03*
X104013000Y-100203000D03*
X106631500Y-100251500D03*
X109601000Y-83566000D03*
X142120000Y-89040000D03*
X115010000Y-108410000D03*
X116130000Y-109430000D03*
X142500000Y-94000000D03*
X118764000Y-107471000D03*
X118764000Y-105947000D03*
X127000000Y-96750000D03*
D26*
X121831886Y-100053100D02*
G75*
G03*
X121539000Y-100760214I707114J-707100D01*
G01*
X126799214Y-95500010D02*
G75*
G03*
X126092107Y-95792893I-14J-999990D01*
G01*
X121539000Y-103369000D02*
X121539000Y-100760214D01*
X137585786Y-95499990D02*
G75*
G03*
X138292893Y-95207107I14J999990D01*
G01*
X139469614Y-94030400D02*
G75*
G03*
X139762500Y-93323286I-707114J707100D01*
G01*
X121540000Y-103370000D02*
X121539000Y-103369000D01*
X121831893Y-100053107D02*
X126092107Y-95792893D01*
X126799214Y-95500000D02*
X137585786Y-95500000D01*
X138292893Y-95207107D02*
X139469607Y-94030393D01*
X139762500Y-93323286D02*
X139762500Y-91313000D01*
X111370000Y-81230000D02*
X111379000Y-81221000D01*
X111379000Y-81221000D02*
X111379000Y-77090000D01*
X124079000Y-82519000D02*
X124090000Y-82530000D01*
X124079000Y-80390000D02*
X124079000Y-82519000D01*
X110400005Y-81822893D02*
G75*
G03*
X110546447Y-82176447I499995J-7D01*
G01*
X110399995Y-81087107D02*
G75*
G03*
X110253554Y-80733554I-499995J7D01*
G01*
X110056450Y-80536444D02*
G75*
G03*
X109702893Y-80390000I-353550J-353556D01*
G01*
X110056447Y-80536447D02*
X110253554Y-80733554D01*
X108839000Y-80390000D02*
X109702893Y-80390000D01*
X110400000Y-81087107D02*
X110400000Y-81822893D01*
X110546447Y-82176447D02*
X111770107Y-83400107D01*
X111770100Y-83400114D02*
G75*
G03*
X112477214Y-83693000I707100J707114D01*
G01*
X112477214Y-83693000D02*
X136462500Y-83693000D01*
X119291886Y-99858100D02*
G75*
G03*
X118999000Y-100565214I707114J-707100D01*
G01*
X118999000Y-103250000D02*
X118999000Y-100565214D01*
X119291893Y-99858107D02*
X119670000Y-99480000D01*
X119936893Y-99213107D02*
X119670000Y-99480000D01*
X119962893Y-99213107D02*
X119936893Y-99213107D01*
X120325786Y-105059990D02*
G75*
G03*
X121032893Y-104767107I14J999990D01*
G01*
X118203100Y-104767114D02*
G75*
G03*
X118910214Y-105060000I707100J707114D01*
G01*
X116459010Y-102608786D02*
G75*
G03*
X116751893Y-103315893I999990J-14D01*
G01*
X116459000Y-99950000D02*
X116459000Y-102608786D01*
X121032893Y-104767107D02*
X121440000Y-104360000D01*
X116751893Y-103315893D02*
X118203107Y-104767107D01*
X118910214Y-105060000D02*
X120325786Y-105060000D01*
X111164886Y-107262100D02*
G75*
G03*
X110872000Y-107969214I707114J-707100D01*
G01*
X110872000Y-110064000D02*
X110872000Y-107969214D01*
X111164893Y-107262107D02*
X111591000Y-106836000D01*
X125737214Y-93853000D02*
X136462500Y-93853000D01*
X125737214Y-93853010D02*
G75*
G03*
X125030107Y-94145893I-14J-999990D01*
G01*
X119962893Y-99213107D02*
X125030107Y-94145893D01*
X136462500Y-102757500D02*
X136462500Y-98933000D01*
X136450000Y-102770000D02*
X136462500Y-102757500D01*
X113919000Y-80390000D02*
X113919000Y-77269000D01*
X113919000Y-77269000D02*
X112900000Y-76250000D01*
X100500000Y-96390000D02*
X100535000Y-96425000D01*
X100535000Y-96425000D02*
X100535000Y-107700000D01*
X109951450Y-105196444D02*
G75*
G03*
X109597893Y-105050000I-353550J-353556D01*
G01*
X108179551Y-104903557D02*
G75*
G03*
X108533107Y-105050000I353549J353557D01*
G01*
X106631505Y-103148393D02*
G75*
G03*
X106777947Y-103501947I499995J-7D01*
G01*
X109386444Y-109433550D02*
G75*
G03*
X109240000Y-109787107I353556J-353550D01*
G01*
X109240005Y-110078893D02*
G75*
G03*
X109386446Y-110432446I499995J-7D01*
G01*
X108654449Y-105886443D02*
G75*
G03*
X108300893Y-105740000I-353549J-353557D01*
G01*
X107683550Y-105593556D02*
G75*
G03*
X108037107Y-105740000I353550J353556D01*
G01*
X105760005Y-103462893D02*
G75*
G03*
X105906446Y-103816446I499995J-7D01*
G01*
X109821550Y-110867556D02*
G75*
G03*
X110175107Y-111014000I353550J353556D01*
G01*
X109789995Y-107229107D02*
G75*
G03*
X109643553Y-106875553I-499995J7D01*
G01*
X109643557Y-109176449D02*
G75*
G03*
X109790000Y-108822893I-353557J353549D01*
G01*
X105759990Y-98536214D02*
G75*
G03*
X105467107Y-97829107I-999990J14D01*
G01*
X105309900Y-97671886D02*
G75*
G03*
X104602786Y-97379000I-707100J-707114D01*
G01*
X104602786Y-97379000D02*
X104013000Y-97379000D01*
X110872000Y-111014000D02*
X110175107Y-111014000D01*
X109821553Y-110867553D02*
X109386446Y-110432446D01*
X109240000Y-110078893D02*
X109240000Y-109787107D01*
X109386447Y-109433553D02*
X109643554Y-109176446D01*
X109790000Y-108822893D02*
X109790000Y-107229107D01*
X109643553Y-106875553D02*
X108654446Y-105886446D01*
X108300893Y-105740000D02*
X108037107Y-105740000D01*
X105467107Y-97829107D02*
X105309893Y-97671893D01*
X107683553Y-105593553D02*
X105906446Y-103816446D01*
X105760000Y-103462893D02*
X105760000Y-98536214D01*
X106631500Y-100251500D02*
X106631500Y-103148393D01*
X106777947Y-103501947D02*
X108179554Y-104903554D01*
X108533107Y-105050000D02*
X109597893Y-105050000D01*
X109951447Y-105196447D02*
X111591000Y-106836000D01*
X112336100Y-105097114D02*
G75*
G03*
X113043214Y-105390000I707100J707114D01*
G01*
X116127107Y-105682893D02*
G75*
G03*
X115420000Y-105390000I-707107J-707107D01*
G01*
X110781900Y-103542886D02*
G75*
G03*
X110074786Y-103250000I-707100J-707114D01*
G01*
X116791307Y-106347121D02*
G75*
G03*
X117498428Y-106640000I707093J707121D01*
G01*
X112336107Y-105097107D02*
X110781893Y-103542893D01*
X110074786Y-103250000D02*
X108839000Y-103250000D01*
X109308114Y-98691900D02*
G75*
G03*
X109601000Y-97984786I-707114J707100D01*
G01*
X109131886Y-98868100D02*
G75*
G03*
X108839000Y-99575214I707114J-707100D01*
G01*
X109601000Y-83566000D02*
X109601000Y-97984786D01*
X109308107Y-98691893D02*
X109131893Y-98868107D01*
X108839000Y-99575214D02*
X108839000Y-103250000D01*
X116127107Y-105682893D02*
X116791321Y-106347107D01*
X117498428Y-106640000D02*
X120087500Y-106640000D01*
X113043214Y-105390000D02*
X115420000Y-105390000D01*
X120087500Y-106640000D02*
X120283500Y-106836000D01*
X116359900Y-103542886D02*
G75*
G03*
X115652786Y-103250000I-707100J-707114D01*
G01*
X118764000Y-105947000D02*
X116359893Y-103542893D01*
X115652786Y-103250000D02*
X113919000Y-103250000D01*
X124078990Y-101813214D02*
G75*
G03*
X123786107Y-101106107I-999990J14D01*
G01*
X122762273Y-100082273D02*
X123786107Y-101106107D01*
X124079000Y-101813214D02*
X124079000Y-102844000D01*
X106594214Y-75070010D02*
G75*
G03*
X105887107Y-75362893I-14J-999990D01*
G01*
X119811900Y-75362886D02*
G75*
G03*
X119104786Y-75070000I-707100J-707114D01*
G01*
X107047114Y-88452900D02*
G75*
G03*
X107340000Y-87745786I-707114J707100D01*
G01*
X106085786Y-89000000D02*
X104914214Y-89000000D01*
X106085786Y-88999990D02*
G75*
G03*
X106792893Y-88707107I14J999990D01*
G01*
X104207100Y-88707114D02*
G75*
G03*
X104914214Y-89000000I707100J707114D01*
G01*
X103000010Y-87085786D02*
G75*
G03*
X103292893Y-87792893I999990J-14D01*
G01*
X107340000Y-87290000D02*
X107340000Y-87745786D01*
X103292886Y-77957100D02*
G75*
G03*
X103000000Y-78664214I707114J-707100D01*
G01*
X107047107Y-88452893D02*
X106792893Y-88707107D01*
X104207107Y-88707107D02*
X103292893Y-87792893D01*
X103000000Y-87085786D02*
X103000000Y-78664214D01*
X103292893Y-77957107D02*
X105887107Y-75362893D01*
X106594214Y-75070000D02*
X119104786Y-75070000D01*
X119811893Y-75362893D02*
X121539000Y-77090000D01*
X129576510Y-108510286D02*
G75*
G03*
X129869393Y-109217393I999990J-14D01*
G01*
X128251990Y-112160214D02*
G75*
G03*
X127959107Y-111453107I-999990J14D01*
G01*
X126098900Y-109592886D02*
G75*
G03*
X125391786Y-109300000I-707100J-707114D01*
G01*
X136530400Y-97042886D02*
G75*
G03*
X135823286Y-96750000I-707100J-707114D01*
G01*
X139762490Y-100689214D02*
G75*
G03*
X139469607Y-99982107I-999990J14D01*
G01*
X139614214Y-89040010D02*
G75*
G03*
X138907107Y-89332893I-14J-999990D01*
G01*
X136755386Y-91484600D02*
G75*
G03*
X136462500Y-92191714I707114J-707100D01*
G01*
X149081714Y-77672510D02*
G75*
G03*
X148374607Y-77965393I-14J-999990D01*
G01*
X142232786Y-83692990D02*
G75*
G03*
X142939893Y-83400107I14J999990D01*
G01*
X155172900Y-98712886D02*
G75*
G03*
X154465786Y-98420000I-707100J-707114D01*
G01*
X149483600Y-98127114D02*
G75*
G03*
X150190714Y-98420000I707100J707114D01*
G01*
X161642900Y-103772886D02*
G75*
G03*
X160935786Y-103480000I-707100J-707114D01*
G01*
X153146214Y-103480010D02*
G75*
G03*
X152439107Y-103772893I-14J-999990D01*
G01*
X155875100Y-106887114D02*
G75*
G03*
X156582214Y-107180000I707100J707114D01*
G01*
X158505786Y-102879990D02*
G75*
G03*
X159212893Y-102587107I14J999990D01*
G01*
X143698714Y-102880010D02*
G75*
G03*
X142991607Y-103172893I-14J-999990D01*
G01*
X137949400Y-105456886D02*
G75*
G03*
X137242286Y-105164000I-707100J-707114D01*
G01*
X131386214Y-105164010D02*
G75*
G03*
X130679107Y-105456893I-14J-999990D01*
G01*
X128197400Y-105456886D02*
G75*
G03*
X127490286Y-105164000I-707100J-707114D01*
G01*
X139328510Y-108764286D02*
G75*
G03*
X139621393Y-109471393I999990J-14D01*
G01*
X137749990Y-112160214D02*
G75*
G03*
X137457107Y-111453107I-999990J14D01*
G01*
X135596900Y-109592886D02*
G75*
G03*
X134889786Y-109300000I-707100J-707114D01*
G01*
X121886214Y-105164010D02*
G75*
G03*
X121179107Y-105456893I-14J-999990D01*
G01*
X122465100Y-112207114D02*
G75*
G03*
X123172214Y-112500000I707100J707114D01*
G01*
X120296010Y-109623786D02*
G75*
G03*
X120588893Y-110330893I999990J-14D01*
G01*
X117162886Y-107837100D02*
G75*
G03*
X116870000Y-108544214I707114J-707100D01*
G01*
X117943214Y-107471010D02*
G75*
G03*
X117236107Y-107763893I-14J-999990D01*
G01*
X117137100Y-112207114D02*
G75*
G03*
X117844214Y-112500000I707100J707114D01*
G01*
X114464886Y-108955100D02*
G75*
G03*
X114172000Y-109662214I707114J-707100D01*
G01*
X115837114Y-111202900D02*
G75*
G03*
X116130000Y-110495786I-707114J707100D01*
G01*
X114661786Y-111963990D02*
G75*
G03*
X115368893Y-111671107I14J999990D01*
G01*
X108546114Y-98336900D02*
G75*
G03*
X108839000Y-97629786I-707114J707100D01*
G01*
X111095900Y-83858886D02*
G75*
G03*
X110388786Y-83566000I-707100J-707114D01*
G01*
X113177100Y-85940114D02*
G75*
G03*
X113884214Y-86233000I707100J707114D01*
G01*
X100535000Y-107700000D02*
X108485000Y-107700000D01*
X103886000Y-83566000D02*
X106094000Y-83566000D01*
X110890000Y-111982000D02*
X110872000Y-111964000D01*
X106094000Y-83566000D02*
X106180000Y-83480000D01*
X142939893Y-83400107D02*
X148374607Y-77965393D01*
X108546107Y-98336893D02*
X106631500Y-100251500D01*
X104013000Y-98679000D02*
X104013000Y-100203000D01*
X149081714Y-77672500D02*
X151230000Y-77672500D01*
X108839000Y-81145000D02*
X108839000Y-97629786D01*
X136462500Y-83693000D02*
X142232786Y-83693000D01*
X123762000Y-109300000D02*
X125391786Y-109300000D01*
X126098893Y-109592893D02*
X127959107Y-111453107D01*
X128252000Y-112160214D02*
X128252000Y-112500000D01*
X133152000Y-109300000D02*
X134889786Y-109300000D01*
X135596893Y-109592893D02*
X137457107Y-111453107D01*
X137750000Y-112160214D02*
X137750000Y-112500000D01*
X129576500Y-106559500D02*
X130679107Y-105456893D01*
X129576500Y-106836000D02*
X129576500Y-108510286D01*
X137949393Y-105456893D02*
X139328500Y-106836000D01*
X139328500Y-106836000D02*
X142991607Y-103172893D01*
X120588893Y-110330893D02*
X122465107Y-112207107D01*
X106180000Y-82210000D02*
X107340000Y-82210000D01*
X121886214Y-105164000D02*
X127490286Y-105164000D01*
X139762500Y-86233000D02*
X113884214Y-86233000D01*
X159212893Y-102587107D02*
X160400000Y-101400000D01*
X123172214Y-112500000D02*
X123762000Y-112500000D01*
X131386214Y-105164000D02*
X137242286Y-105164000D01*
X139621393Y-109471393D02*
X142650000Y-112500000D01*
X139328500Y-106836000D02*
X139328500Y-108764286D01*
X128197393Y-105456893D02*
X129576500Y-106836000D01*
X111095893Y-83858893D02*
X113177107Y-85940107D01*
X109601000Y-83566000D02*
X110388786Y-83566000D01*
X143698714Y-102880000D02*
X158505786Y-102880000D01*
X120283500Y-106352500D02*
X121179107Y-105456893D01*
X120296000Y-106836000D02*
X120296000Y-109623786D01*
X129869393Y-109217393D02*
X133152000Y-112500000D01*
X129576500Y-106836000D02*
X129576500Y-106559500D01*
X120283500Y-106836000D02*
X120283500Y-106352500D01*
X136462500Y-93853000D02*
X136462500Y-92191714D01*
X114172000Y-110064000D02*
X114172000Y-109662214D01*
X151330000Y-104882000D02*
X152439107Y-103772893D01*
X139614214Y-89040000D02*
X142120000Y-89040000D01*
X114464893Y-108955107D02*
X115010000Y-108410000D01*
X153146214Y-103480000D02*
X160935786Y-103480000D01*
X161642893Y-103772893D02*
X162510000Y-104640000D01*
X136755393Y-91484607D02*
X138907107Y-89332893D01*
X142669500Y-91313000D02*
X149483607Y-98127107D01*
X142669500Y-91313000D02*
X151230000Y-82752500D01*
X153870000Y-104882000D02*
X155875107Y-106887107D01*
X115368893Y-111671107D02*
X115837107Y-111202893D01*
X114172000Y-111964000D02*
X114661786Y-111964000D01*
X116130000Y-110495786D02*
X116130000Y-109430000D01*
X139762500Y-91313000D02*
X142669500Y-91313000D01*
X156582214Y-107180000D02*
X162510000Y-107180000D01*
X150190714Y-98420000D02*
X154465786Y-98420000D01*
X155172893Y-98712893D02*
X157860000Y-101400000D01*
X139762500Y-96393000D02*
X140107000Y-96393000D01*
X140107000Y-96393000D02*
X142500000Y-94000000D01*
X117844214Y-112500000D02*
X118862000Y-112500000D01*
X117236107Y-107763893D02*
X117162893Y-107837107D01*
X118764000Y-107471000D02*
X117943214Y-107471000D01*
X116870000Y-108544214D02*
X116870000Y-111940000D01*
X116870000Y-111940000D02*
X117137107Y-112207107D01*
X139469607Y-99982107D02*
X136530393Y-97042893D01*
X135823286Y-96750000D02*
X127000000Y-96750000D01*
X139762500Y-101473000D02*
X139762500Y-100689214D01*
%TA.AperFunction,Conductor*%
G36*
X126187000Y-74266881D02*
G01*
X126233119Y-74313000D01*
X126250000Y-74376000D01*
X126250000Y-75454501D01*
X126233119Y-75517501D01*
X126187000Y-75563620D01*
X126124000Y-75580501D01*
X126093932Y-75580501D01*
X126019699Y-75595265D01*
X125935515Y-75651515D01*
X125879266Y-75735698D01*
X125864500Y-75809933D01*
X125864500Y-78370068D01*
X125879265Y-78444300D01*
X125935515Y-78528484D01*
X125976542Y-78555897D01*
X126019699Y-78584734D01*
X126093933Y-78599500D01*
X126124000Y-78599500D01*
X126187000Y-78616381D01*
X126233119Y-78662500D01*
X126250000Y-78725500D01*
X126250000Y-83185500D01*
X126233119Y-83248500D01*
X126187000Y-83294619D01*
X126124000Y-83311500D01*
X124520542Y-83311500D01*
X124456665Y-83294108D01*
X124410422Y-83246734D01*
X124394579Y-83182455D01*
X124413509Y-83119017D01*
X124461986Y-83073933D01*
X124464529Y-83072599D01*
X124583498Y-82967201D01*
X124673787Y-82836395D01*
X124730149Y-82687782D01*
X124749307Y-82530000D01*
X124730149Y-82372218D01*
X124673787Y-82223605D01*
X124583498Y-82092799D01*
X124583497Y-82092798D01*
X124577556Y-82084191D01*
X124556007Y-82026384D01*
X124564483Y-81965276D01*
X124600953Y-81915517D01*
X124656673Y-81889036D01*
X124670191Y-81886347D01*
X124678301Y-81884734D01*
X124762484Y-81828484D01*
X124818734Y-81744301D01*
X124833500Y-81670067D01*
X124833499Y-79109934D01*
X124833499Y-79109932D01*
X124833499Y-79109931D01*
X124818734Y-79035699D01*
X124762484Y-78951515D01*
X124678301Y-78895266D01*
X124678300Y-78895265D01*
X124604066Y-78880500D01*
X123553931Y-78880500D01*
X123479699Y-78895265D01*
X123395515Y-78951515D01*
X123339266Y-79035698D01*
X123324500Y-79109933D01*
X123324500Y-81670068D01*
X123339265Y-81744300D01*
X123395515Y-81828484D01*
X123448310Y-81863760D01*
X123479699Y-81884734D01*
X123520673Y-81892884D01*
X123576392Y-81919366D01*
X123612861Y-81969126D01*
X123621336Y-82030233D01*
X123599787Y-82088039D01*
X123506212Y-82223605D01*
X123449850Y-82372219D01*
X123430693Y-82529999D01*
X123449850Y-82687780D01*
X123506212Y-82836394D01*
X123594637Y-82964500D01*
X123596502Y-82967201D01*
X123715471Y-83072599D01*
X123718013Y-83073933D01*
X123766491Y-83119017D01*
X123785421Y-83182455D01*
X123769578Y-83246734D01*
X123723335Y-83294108D01*
X123659458Y-83311500D01*
X112552509Y-83311500D01*
X112552503Y-83311499D01*
X112483393Y-83311499D01*
X112471045Y-83310892D01*
X112368897Y-83300833D01*
X112344671Y-83296015D01*
X112252392Y-83268024D01*
X112229575Y-83258573D01*
X112144529Y-83213117D01*
X112123992Y-83199395D01*
X112044715Y-83134335D01*
X112035553Y-83126030D01*
X110921402Y-82011879D01*
X110887465Y-81949973D01*
X110892154Y-81879530D01*
X110933995Y-81822667D01*
X110999853Y-81797234D01*
X111069051Y-81811216D01*
X111136207Y-81846463D01*
X111290529Y-81884500D01*
X111449469Y-81884500D01*
X111449471Y-81884500D01*
X111603793Y-81846463D01*
X111744529Y-81772599D01*
X111863498Y-81667201D01*
X111953787Y-81536395D01*
X112010149Y-81387782D01*
X112029307Y-81230000D01*
X112010149Y-81072218D01*
X111953787Y-80923605D01*
X111863498Y-80792799D01*
X111802946Y-80739154D01*
X111771600Y-80696554D01*
X111760500Y-80644842D01*
X111760500Y-78725499D01*
X111777381Y-78662499D01*
X111823500Y-78616380D01*
X111886500Y-78599499D01*
X111904068Y-78599499D01*
X111953555Y-78589655D01*
X111978301Y-78584734D01*
X112062484Y-78528484D01*
X112118734Y-78444301D01*
X112133500Y-78370067D01*
X112133499Y-76696034D01*
X112149379Y-76634802D01*
X112193016Y-76589003D01*
X112253411Y-76570183D01*
X112315341Y-76583086D01*
X112363195Y-76624460D01*
X112390498Y-76664016D01*
X112406502Y-76687201D01*
X112525471Y-76792599D01*
X112666207Y-76866463D01*
X112820529Y-76904500D01*
X112820531Y-76904500D01*
X112962787Y-76904500D01*
X113011005Y-76914091D01*
X113051882Y-76941404D01*
X113295732Y-77185255D01*
X113500596Y-77390119D01*
X113527909Y-77430996D01*
X113537500Y-77479214D01*
X113537500Y-78754501D01*
X113520619Y-78817501D01*
X113474500Y-78863620D01*
X113411500Y-78880501D01*
X113393932Y-78880501D01*
X113319699Y-78895265D01*
X113235515Y-78951515D01*
X113179266Y-79035698D01*
X113164500Y-79109933D01*
X113164500Y-81670068D01*
X113179265Y-81744300D01*
X113235515Y-81828484D01*
X113288310Y-81863760D01*
X113319699Y-81884734D01*
X113393933Y-81899500D01*
X114444066Y-81899499D01*
X114444068Y-81899499D01*
X114493556Y-81889655D01*
X114518301Y-81884734D01*
X114602484Y-81828484D01*
X114658734Y-81744301D01*
X114673500Y-81670068D01*
X118244500Y-81670068D01*
X118259265Y-81744300D01*
X118315515Y-81828484D01*
X118368310Y-81863760D01*
X118399699Y-81884734D01*
X118473933Y-81899500D01*
X119524066Y-81899499D01*
X119524068Y-81899499D01*
X119573556Y-81889655D01*
X119598301Y-81884734D01*
X119682484Y-81828484D01*
X119738734Y-81744301D01*
X119753500Y-81670067D01*
X119753499Y-79109934D01*
X119753499Y-79109932D01*
X119753499Y-79109931D01*
X119738734Y-79035699D01*
X119682484Y-78951515D01*
X119598301Y-78895266D01*
X119598300Y-78895265D01*
X119524066Y-78880500D01*
X118473931Y-78880500D01*
X118399699Y-78895265D01*
X118315515Y-78951515D01*
X118259266Y-79035698D01*
X118244500Y-79109933D01*
X118244500Y-81670068D01*
X114673500Y-81670068D01*
X114673500Y-81670067D01*
X114673499Y-79109934D01*
X114673499Y-79109932D01*
X114673499Y-79109931D01*
X114658734Y-79035699D01*
X114602484Y-78951515D01*
X114518301Y-78895266D01*
X114518300Y-78895265D01*
X114444067Y-78880500D01*
X114444066Y-78880500D01*
X114426500Y-78880500D01*
X114363500Y-78863619D01*
X114317381Y-78817500D01*
X114300500Y-78754500D01*
X114300500Y-77321634D01*
X114303182Y-77295776D01*
X114304182Y-77291009D01*
X114305445Y-77284984D01*
X114301467Y-77253078D01*
X114300500Y-77237493D01*
X114300500Y-77237388D01*
X114297025Y-77216571D01*
X114296276Y-77211439D01*
X114289696Y-77158640D01*
X114289695Y-77158638D01*
X114288703Y-77150678D01*
X114288637Y-77150471D01*
X114259508Y-77096644D01*
X114257138Y-77092040D01*
X114233777Y-77044254D01*
X114233776Y-77044253D01*
X114230253Y-77037046D01*
X114230122Y-77036871D01*
X114185092Y-76995418D01*
X114181335Y-76991812D01*
X113589717Y-76400194D01*
X113559704Y-76352199D01*
X113553731Y-76295915D01*
X113559307Y-76250000D01*
X113540149Y-76092218D01*
X113483787Y-75943605D01*
X113393498Y-75812799D01*
X113274529Y-75707401D01*
X113239595Y-75689066D01*
X113191119Y-75643982D01*
X113172189Y-75580544D01*
X113188032Y-75516266D01*
X113234275Y-75468892D01*
X113298152Y-75451500D01*
X115673433Y-75451500D01*
X115738210Y-75469426D01*
X115784555Y-75518104D01*
X115799281Y-75583683D01*
X115778198Y-75647502D01*
X115719266Y-75735698D01*
X115704500Y-75809933D01*
X115704500Y-78370068D01*
X115719265Y-78444300D01*
X115775515Y-78528484D01*
X115816542Y-78555897D01*
X115859699Y-78584734D01*
X115933933Y-78599500D01*
X116984066Y-78599499D01*
X116984068Y-78599499D01*
X117033555Y-78589655D01*
X117058301Y-78584734D01*
X117142484Y-78528484D01*
X117198734Y-78444301D01*
X117213500Y-78370067D01*
X117213499Y-75809934D01*
X117213499Y-75809933D01*
X117213499Y-75809931D01*
X117198734Y-75735699D01*
X117139802Y-75647502D01*
X117118719Y-75583683D01*
X117133445Y-75518104D01*
X117179790Y-75469426D01*
X117244567Y-75451500D01*
X119049937Y-75451500D01*
X119049940Y-75451501D01*
X119098606Y-75451500D01*
X119110954Y-75452107D01*
X119123614Y-75453353D01*
X119213106Y-75462166D01*
X119237323Y-75466983D01*
X119329612Y-75494977D01*
X119352419Y-75504423D01*
X119437472Y-75549883D01*
X119458006Y-75563604D01*
X119537280Y-75628661D01*
X119546443Y-75636966D01*
X119560991Y-75651514D01*
X119560994Y-75651516D01*
X120747595Y-76838117D01*
X120774909Y-76878994D01*
X120784500Y-76927212D01*
X120784500Y-78370068D01*
X120799265Y-78444300D01*
X120855515Y-78528484D01*
X120896542Y-78555897D01*
X120939699Y-78584734D01*
X121013933Y-78599500D01*
X122064066Y-78599499D01*
X122064068Y-78599499D01*
X122113555Y-78589655D01*
X122138301Y-78584734D01*
X122222484Y-78528484D01*
X122278734Y-78444301D01*
X122293500Y-78370067D01*
X122293499Y-75809934D01*
X122293499Y-75809933D01*
X122293499Y-75809931D01*
X122278734Y-75735699D01*
X122222484Y-75651515D01*
X122138301Y-75595266D01*
X122138296Y-75595265D01*
X122064066Y-75580500D01*
X121013931Y-75580500D01*
X120939699Y-75595265D01*
X120855515Y-75651515D01*
X120854504Y-75653030D01*
X120814516Y-75691101D01*
X120762089Y-75708419D01*
X120707291Y-75701660D01*
X120660645Y-75672122D01*
X120118563Y-75130041D01*
X120118532Y-75129995D01*
X120017628Y-75029094D01*
X119873956Y-74918853D01*
X119717115Y-74828303D01*
X119549805Y-74759003D01*
X119374878Y-74712135D01*
X119195330Y-74688499D01*
X119195329Y-74688499D01*
X119104781Y-74688500D01*
X106552944Y-74688500D01*
X106552827Y-74688509D01*
X106503669Y-74688509D01*
X106324124Y-74712144D01*
X106149197Y-74759012D01*
X105981885Y-74828313D01*
X105825051Y-74918858D01*
X105681376Y-75029103D01*
X105668692Y-75041786D01*
X105668664Y-75041811D01*
X103058052Y-77652424D01*
X103058009Y-77652453D01*
X102959094Y-77751371D01*
X102848853Y-77895043D01*
X102758303Y-78051884D01*
X102689003Y-78219194D01*
X102642135Y-78394121D01*
X102618499Y-78573669D01*
X102618500Y-78632603D01*
X102618500Y-87127225D01*
X102618509Y-87127340D01*
X102618509Y-87176331D01*
X102642144Y-87355875D01*
X102689012Y-87530802D01*
X102758313Y-87698114D01*
X102848858Y-87854948D01*
X102891174Y-87910095D01*
X102959103Y-87998623D01*
X102969295Y-88008815D01*
X102969302Y-88008824D01*
X102978116Y-88017638D01*
X102978117Y-88017639D01*
X103005405Y-88044927D01*
X103005410Y-88044934D01*
X103076368Y-88115892D01*
X103076374Y-88115896D01*
X103496358Y-88535881D01*
X103898561Y-88938084D01*
X103902424Y-88941947D01*
X103902455Y-88941992D01*
X104001371Y-89040905D01*
X104145035Y-89151140D01*
X104145046Y-89151148D01*
X104301882Y-89241695D01*
X104301884Y-89241696D01*
X104469194Y-89310996D01*
X104508731Y-89321589D01*
X104644122Y-89357865D01*
X104823671Y-89381501D01*
X104914219Y-89381500D01*
X106085781Y-89381500D01*
X106117397Y-89381500D01*
X106128311Y-89381500D01*
X106128421Y-89381490D01*
X106176329Y-89381491D01*
X106355876Y-89357856D01*
X106530802Y-89310987D01*
X106698114Y-89241686D01*
X106854949Y-89151140D01*
X106998623Y-89040897D01*
X107007263Y-89032256D01*
X107007268Y-89032253D01*
X107017637Y-89021883D01*
X107017639Y-89021883D01*
X107044928Y-88994593D01*
X107044932Y-88994591D01*
X107119156Y-88920367D01*
X107119159Y-88920361D01*
X107281950Y-88757572D01*
X107281993Y-88757543D01*
X107316877Y-88722657D01*
X107316878Y-88722658D01*
X107380904Y-88658630D01*
X107491148Y-88514954D01*
X107581695Y-88358118D01*
X107650996Y-88190805D01*
X107697865Y-88015878D01*
X107698695Y-88009571D01*
X107717561Y-87957983D01*
X107756580Y-87919325D01*
X107813400Y-87883624D01*
X107933624Y-87763400D01*
X108024082Y-87619437D01*
X108080237Y-87458954D01*
X108099274Y-87290000D01*
X108080237Y-87121046D01*
X108024082Y-86960563D01*
X107933624Y-86816600D01*
X107933623Y-86816599D01*
X107933622Y-86816597D01*
X107861120Y-86744095D01*
X107828508Y-86687611D01*
X107828508Y-86622389D01*
X107861120Y-86565905D01*
X107933622Y-86493402D01*
X107933622Y-86493401D01*
X107933624Y-86493400D01*
X108024082Y-86349437D01*
X108080237Y-86188954D01*
X108099274Y-86020000D01*
X108080237Y-85851046D01*
X108024082Y-85690563D01*
X107933624Y-85546600D01*
X107933623Y-85546599D01*
X107933622Y-85546597D01*
X107861120Y-85474095D01*
X107828508Y-85417611D01*
X107828508Y-85352389D01*
X107861120Y-85295905D01*
X107933622Y-85223402D01*
X107933621Y-85223402D01*
X107933624Y-85223400D01*
X108024082Y-85079437D01*
X108080237Y-84918954D01*
X108099274Y-84750000D01*
X108080237Y-84581046D01*
X108024082Y-84420563D01*
X108001071Y-84383941D01*
X107982157Y-84326910D01*
X107991806Y-84267602D01*
X108027826Y-84219507D01*
X108056212Y-84196211D01*
X108182176Y-84042723D01*
X108220378Y-83971254D01*
X108265665Y-83923217D01*
X108329026Y-83904674D01*
X108393066Y-83920716D01*
X108440205Y-83966937D01*
X108457500Y-84030650D01*
X108457500Y-97554491D01*
X108457499Y-97554497D01*
X108457499Y-97623606D01*
X108456892Y-97635954D01*
X108446833Y-97738102D01*
X108442015Y-97762328D01*
X108414024Y-97854607D01*
X108404572Y-97877428D01*
X108359118Y-97962469D01*
X108345395Y-97983007D01*
X108280335Y-98062284D01*
X108272036Y-98071441D01*
X108264401Y-98079077D01*
X108264395Y-98079083D01*
X106783380Y-99560096D01*
X106742503Y-99587409D01*
X106694285Y-99597000D01*
X106552029Y-99597000D01*
X106397707Y-99635037D01*
X106397706Y-99635037D01*
X106397704Y-99635038D01*
X106326055Y-99672643D01*
X106263695Y-99687019D01*
X106202315Y-99668904D01*
X106157752Y-99622974D01*
X106141500Y-99561076D01*
X106141500Y-98493877D01*
X106141490Y-98493760D01*
X106141490Y-98479995D01*
X106141491Y-98445671D01*
X106117856Y-98266124D01*
X106070987Y-98091198D01*
X106065967Y-98079079D01*
X106001686Y-97923885D01*
X105911141Y-97767051D01*
X105800897Y-97623377D01*
X105796339Y-97618819D01*
X105796331Y-97618808D01*
X105754595Y-97577072D01*
X105754594Y-97577070D01*
X105683630Y-97506106D01*
X105683623Y-97506101D01*
X105616563Y-97439041D01*
X105616532Y-97438995D01*
X105515628Y-97338094D01*
X105371956Y-97227853D01*
X105215115Y-97137303D01*
X105095282Y-97087668D01*
X105054404Y-97060355D01*
X105027090Y-97019477D01*
X105017499Y-96971259D01*
X105017499Y-96853932D01*
X105002734Y-96779699D01*
X104946484Y-96695515D01*
X104862301Y-96639266D01*
X104862296Y-96639265D01*
X104788066Y-96624500D01*
X103237931Y-96624500D01*
X103163699Y-96639265D01*
X103079515Y-96695515D01*
X103023266Y-96779698D01*
X103008500Y-96853933D01*
X103008500Y-97904068D01*
X103023488Y-97979419D01*
X103023488Y-98028578D01*
X103003514Y-98128998D01*
X103003514Y-98750892D01*
X103014024Y-98823992D01*
X103054531Y-98961946D01*
X103054532Y-98961949D01*
X103085213Y-99029132D01*
X103085215Y-99029135D01*
X103162945Y-99150088D01*
X103211308Y-99205902D01*
X103276581Y-99262460D01*
X103319974Y-99300060D01*
X103382105Y-99339988D01*
X103462801Y-99376841D01*
X103512885Y-99399714D01*
X103512886Y-99399714D01*
X103512890Y-99399716D01*
X103541000Y-99407970D01*
X103588013Y-99433642D01*
X103620114Y-99476524D01*
X103631500Y-99528866D01*
X103631500Y-99609869D01*
X103620399Y-99661581D01*
X103589054Y-99704181D01*
X103519501Y-99765799D01*
X103429212Y-99896605D01*
X103372850Y-100045219D01*
X103353693Y-100203000D01*
X103372850Y-100360780D01*
X103429212Y-100509394D01*
X103505601Y-100620063D01*
X103519502Y-100640201D01*
X103638471Y-100745599D01*
X103779207Y-100819463D01*
X103933529Y-100857500D01*
X104092469Y-100857500D01*
X104092471Y-100857500D01*
X104246793Y-100819463D01*
X104387529Y-100745599D01*
X104506498Y-100640201D01*
X104596787Y-100509395D01*
X104653149Y-100360782D01*
X104672307Y-100203000D01*
X104653149Y-100045218D01*
X104596787Y-99896605D01*
X104506498Y-99765799D01*
X104436946Y-99704181D01*
X104405601Y-99661581D01*
X104394500Y-99609869D01*
X104394500Y-99528866D01*
X104405886Y-99476524D01*
X104437987Y-99433642D01*
X104484999Y-99407970D01*
X104513110Y-99399716D01*
X104643895Y-99339988D01*
X104706026Y-99300060D01*
X104814687Y-99205906D01*
X104814688Y-99205903D01*
X104814691Y-99205902D01*
X104863054Y-99150088D01*
X104890008Y-99108146D01*
X104940787Y-99029132D01*
X104971468Y-98961949D01*
X105011975Y-98823994D01*
X105017065Y-98788595D01*
X105022486Y-98750892D01*
X105022486Y-98237949D01*
X105037364Y-98178552D01*
X105078485Y-98133183D01*
X105136138Y-98112556D01*
X105196707Y-98121541D01*
X105245885Y-98158016D01*
X105262535Y-98178305D01*
X105266384Y-98182995D01*
X105280106Y-98203531D01*
X105325563Y-98288577D01*
X105335015Y-98311397D01*
X105363005Y-98403671D01*
X105367822Y-98427892D01*
X105370519Y-98455265D01*
X105377893Y-98530150D01*
X105378499Y-98542498D01*
X105378499Y-98611503D01*
X105378500Y-98611509D01*
X105378500Y-103503760D01*
X105378504Y-103503814D01*
X105378504Y-103532264D01*
X105400207Y-103669307D01*
X105443080Y-103801262D01*
X105443081Y-103801265D01*
X105443082Y-103801266D01*
X105506072Y-103924895D01*
X105587626Y-104037148D01*
X105636682Y-104086204D01*
X105657781Y-104107304D01*
X105689924Y-104139447D01*
X105689927Y-104139449D01*
X107375007Y-105824530D01*
X107376886Y-105826409D01*
X107376900Y-105826430D01*
X107462842Y-105912372D01*
X107462845Y-105912374D01*
X107462847Y-105912376D01*
X107575101Y-105993931D01*
X107698731Y-106056922D01*
X107698733Y-106056922D01*
X107698734Y-106056923D01*
X107830688Y-106099796D01*
X107830689Y-106099796D01*
X107830692Y-106099797D01*
X107967736Y-106121501D01*
X108037112Y-106121500D01*
X108246044Y-106121500D01*
X108246047Y-106121501D01*
X108292638Y-106121500D01*
X108309065Y-106122575D01*
X108313957Y-106123218D01*
X108374233Y-106148182D01*
X108378123Y-106151167D01*
X108390502Y-106162024D01*
X108808882Y-106580405D01*
X108839619Y-106630564D01*
X108844235Y-106689211D01*
X108821722Y-106743561D01*
X108776989Y-106781767D01*
X108719786Y-106795500D01*
X107684931Y-106795500D01*
X107610699Y-106810265D01*
X107526515Y-106866515D01*
X107470266Y-106950698D01*
X107462882Y-106987816D01*
X107455947Y-107022689D01*
X107455500Y-107024934D01*
X107455500Y-107192500D01*
X107438619Y-107255500D01*
X107392500Y-107301619D01*
X107329500Y-107318500D01*
X101690499Y-107318500D01*
X101627499Y-107301619D01*
X101581380Y-107255500D01*
X101564499Y-107192500D01*
X101564499Y-107024932D01*
X101549734Y-106950699D01*
X101493484Y-106866515D01*
X101409301Y-106810266D01*
X101409300Y-106810265D01*
X101335067Y-106795500D01*
X101335066Y-106795500D01*
X101042500Y-106795500D01*
X100979500Y-106778619D01*
X100933381Y-106732500D01*
X100916500Y-106669500D01*
X100916500Y-96952124D01*
X100927600Y-96900413D01*
X100958946Y-96857813D01*
X100993496Y-96827203D01*
X100993496Y-96827202D01*
X100993498Y-96827201D01*
X101083787Y-96696395D01*
X101140149Y-96547782D01*
X101159307Y-96390000D01*
X101140149Y-96232218D01*
X101083787Y-96083605D01*
X100993498Y-95952799D01*
X100874529Y-95847401D01*
X100733793Y-95773537D01*
X100579471Y-95735500D01*
X100420529Y-95735500D01*
X100266207Y-95773537D01*
X100266206Y-95773537D01*
X100266204Y-95773538D01*
X100125472Y-95847400D01*
X100006501Y-95952799D01*
X99916212Y-96083605D01*
X99859850Y-96232219D01*
X99840693Y-96390000D01*
X99859850Y-96547780D01*
X99916212Y-96696394D01*
X99994625Y-96809995D01*
X100006502Y-96827201D01*
X100111055Y-96919827D01*
X100142399Y-96962426D01*
X100153500Y-97014138D01*
X100153500Y-106669501D01*
X100136619Y-106732501D01*
X100090500Y-106778620D01*
X100027500Y-106795501D01*
X99734932Y-106795501D01*
X99660699Y-106810265D01*
X99576515Y-106866515D01*
X99520266Y-106950698D01*
X99505500Y-107024933D01*
X99505500Y-108375068D01*
X99520265Y-108449300D01*
X99576515Y-108533484D01*
X99627841Y-108567779D01*
X99660699Y-108589734D01*
X99734933Y-108604500D01*
X101335066Y-108604499D01*
X101335068Y-108604499D01*
X101384555Y-108594655D01*
X101409301Y-108589734D01*
X101493484Y-108533484D01*
X101549734Y-108449301D01*
X101564500Y-108375067D01*
X101564500Y-108207500D01*
X101581381Y-108144500D01*
X101627500Y-108098381D01*
X101690500Y-108081500D01*
X107329501Y-108081500D01*
X107392501Y-108098381D01*
X107438620Y-108144500D01*
X107455501Y-108207500D01*
X107455501Y-108375068D01*
X107470265Y-108449300D01*
X107526515Y-108533484D01*
X107577841Y-108567779D01*
X107610699Y-108589734D01*
X107684933Y-108604500D01*
X109282500Y-108604499D01*
X109345500Y-108621380D01*
X109391619Y-108667499D01*
X109408500Y-108730499D01*
X109408500Y-108747598D01*
X109408499Y-108747604D01*
X109408499Y-108814638D01*
X109407423Y-108831071D01*
X109406780Y-108835959D01*
X109381821Y-108896226D01*
X109378844Y-108900106D01*
X109367974Y-108912501D01*
X109153589Y-109126886D01*
X109153573Y-109126896D01*
X109067627Y-109212842D01*
X108986069Y-109325100D01*
X108923076Y-109448734D01*
X108880203Y-109580688D01*
X108858499Y-109717736D01*
X108858500Y-109754652D01*
X108858500Y-110119760D01*
X108858504Y-110119814D01*
X108858504Y-110148264D01*
X108880207Y-110285307D01*
X108923080Y-110417262D01*
X108923081Y-110417265D01*
X108923082Y-110417266D01*
X108986072Y-110540895D01*
X109067626Y-110653148D01*
X109116682Y-110702204D01*
X109116683Y-110702205D01*
X109169924Y-110755447D01*
X109169928Y-110755450D01*
X109241383Y-110826905D01*
X109272121Y-110877064D01*
X109276737Y-110935711D01*
X109254224Y-110990061D01*
X109209491Y-111028267D01*
X109152288Y-111042000D01*
X108739000Y-111042000D01*
X108739000Y-111946000D01*
X109674000Y-111946000D01*
X109674000Y-111836000D01*
X109690881Y-111773000D01*
X109737000Y-111726881D01*
X109800000Y-111710000D01*
X112030000Y-111710000D01*
X112030000Y-111565411D01*
X112023494Y-111504906D01*
X111972445Y-111368037D01*
X111884905Y-111251096D01*
X111826991Y-111207743D01*
X111789827Y-111163274D01*
X111776499Y-111106876D01*
X111776499Y-110638934D01*
X111776498Y-110638931D01*
X111761511Y-110563579D01*
X111761511Y-110514417D01*
X111761732Y-110513303D01*
X111761734Y-110513301D01*
X111776500Y-110439067D01*
X111776499Y-109688934D01*
X111776499Y-109688933D01*
X111776499Y-109688931D01*
X111761734Y-109614699D01*
X111705484Y-109530515D01*
X111621301Y-109474266D01*
X111621300Y-109474265D01*
X111547067Y-109459500D01*
X111547066Y-109459500D01*
X111379500Y-109459500D01*
X111316500Y-109442619D01*
X111270381Y-109396500D01*
X111253500Y-109333500D01*
X111253500Y-108024063D01*
X111253501Y-108024060D01*
X111253500Y-107975392D01*
X111254105Y-107963063D01*
X111257445Y-107929146D01*
X111278070Y-107871500D01*
X111323440Y-107830378D01*
X111382833Y-107815499D01*
X111889254Y-107815499D01*
X111889258Y-107815499D01*
X111919298Y-107812269D01*
X111949342Y-107809040D01*
X112085267Y-107758342D01*
X112201404Y-107671404D01*
X112288342Y-107555267D01*
X112288342Y-107555266D01*
X112294766Y-107546685D01*
X112322630Y-107506256D01*
X112377321Y-107478169D01*
X112438793Y-107479306D01*
X112492408Y-107509397D01*
X112525402Y-107561276D01*
X112549343Y-107633525D01*
X112642367Y-107784342D01*
X112767657Y-107909632D01*
X112918477Y-108002659D01*
X113086671Y-108058393D01*
X113190497Y-108069000D01*
X113237000Y-108069000D01*
X113237000Y-107090000D01*
X113745000Y-107090000D01*
X113745000Y-108069000D01*
X113791503Y-108069000D01*
X113895328Y-108058393D01*
X114063522Y-108002659D01*
X114214342Y-107909632D01*
X114339632Y-107784342D01*
X114432659Y-107633522D01*
X114488393Y-107465328D01*
X114499000Y-107361503D01*
X114499000Y-107090000D01*
X113745000Y-107090000D01*
X113237000Y-107090000D01*
X113237000Y-106708000D01*
X113253881Y-106645000D01*
X113300000Y-106598881D01*
X113363000Y-106582000D01*
X114499000Y-106582000D01*
X114499000Y-106310497D01*
X114488393Y-106206671D01*
X114432659Y-106038477D01*
X114386503Y-105963647D01*
X114367774Y-105900248D01*
X114383720Y-105836094D01*
X114429952Y-105788842D01*
X114493744Y-105771500D01*
X115365149Y-105771500D01*
X115413813Y-105771500D01*
X115426162Y-105772107D01*
X115442887Y-105773754D01*
X115528317Y-105782168D01*
X115552531Y-105786984D01*
X115644813Y-105814978D01*
X115667630Y-105824428D01*
X115752678Y-105869887D01*
X115773210Y-105883606D01*
X115850459Y-105947002D01*
X115852567Y-105948732D01*
X115861729Y-105957037D01*
X116471806Y-106567114D01*
X116471817Y-106567128D01*
X116483677Y-106578988D01*
X116483729Y-106579066D01*
X116521551Y-106616886D01*
X116521551Y-106616887D01*
X116577879Y-106673212D01*
X116585581Y-106680914D01*
X116729257Y-106791157D01*
X116807677Y-106836429D01*
X116886096Y-106881702D01*
X117053411Y-106951002D01*
X117053412Y-106951002D01*
X117053414Y-106951003D01*
X117147383Y-106976179D01*
X117228340Y-106997869D01*
X117270272Y-107003388D01*
X117327885Y-107026371D01*
X117367552Y-107074063D01*
X117379655Y-107134903D01*
X117361261Y-107194145D01*
X117316827Y-107237430D01*
X117174048Y-107319861D01*
X117030377Y-107430102D01*
X117011364Y-107449114D01*
X117011363Y-107449115D01*
X117011361Y-107449117D01*
X116995150Y-107465328D01*
X116984072Y-107476406D01*
X116984060Y-107476415D01*
X116940320Y-107520157D01*
X116940316Y-107520159D01*
X116940317Y-107520160D01*
X116928043Y-107532432D01*
X116928003Y-107532459D01*
X116829094Y-107631371D01*
X116718853Y-107775043D01*
X116628303Y-107931884D01*
X116559003Y-108099194D01*
X116512135Y-108274121D01*
X116488499Y-108453669D01*
X116488500Y-108510281D01*
X116488500Y-108683448D01*
X116475785Y-108738607D01*
X116440206Y-108782633D01*
X116388945Y-108806642D01*
X116332350Y-108805787D01*
X116209471Y-108775500D01*
X116050529Y-108775500D01*
X115896207Y-108813537D01*
X115766813Y-108881448D01*
X115708258Y-108895880D01*
X115649703Y-108881447D01*
X115604563Y-108841456D01*
X115583178Y-108785067D01*
X115590447Y-108725199D01*
X115593784Y-108716398D01*
X115593787Y-108716395D01*
X115650149Y-108567782D01*
X115669307Y-108410000D01*
X115650149Y-108252218D01*
X115593787Y-108103605D01*
X115503498Y-107972799D01*
X115384529Y-107867401D01*
X115282199Y-107813694D01*
X115243795Y-107793538D01*
X115243794Y-107793537D01*
X115243793Y-107793537D01*
X115089471Y-107755500D01*
X114930529Y-107755500D01*
X114776207Y-107793537D01*
X114776206Y-107793537D01*
X114776204Y-107793538D01*
X114635472Y-107867400D01*
X114516501Y-107972799D01*
X114426212Y-108103605D01*
X114369850Y-108252219D01*
X114350693Y-108410000D01*
X114356267Y-108455912D01*
X114350294Y-108512200D01*
X114320282Y-108560193D01*
X114230052Y-108650424D01*
X114230009Y-108650453D01*
X114131094Y-108749371D01*
X114020853Y-108893043D01*
X113930303Y-109049884D01*
X113861004Y-109217192D01*
X113821104Y-109366110D01*
X113795919Y-109414490D01*
X113752648Y-109447694D01*
X113699398Y-109459500D01*
X113496932Y-109459500D01*
X113422699Y-109474265D01*
X113338515Y-109530515D01*
X113282266Y-109614698D01*
X113267500Y-109688933D01*
X113267500Y-110439068D01*
X113282488Y-110514419D01*
X113282488Y-110563578D01*
X113267500Y-110638931D01*
X113267500Y-111389068D01*
X113282488Y-111464420D01*
X113282488Y-111513580D01*
X113267500Y-111588932D01*
X113267500Y-112339068D01*
X113282265Y-112413300D01*
X113338515Y-112497484D01*
X113394765Y-112535068D01*
X113422699Y-112553734D01*
X113496933Y-112568500D01*
X114847066Y-112568499D01*
X114847068Y-112568499D01*
X114896556Y-112558655D01*
X114921301Y-112553734D01*
X115005484Y-112497484D01*
X115061734Y-112413301D01*
X115074531Y-112348964D01*
X115100710Y-112293614D01*
X115149892Y-112257139D01*
X115274114Y-112205686D01*
X115430949Y-112115140D01*
X115574623Y-112004897D01*
X115583263Y-111996256D01*
X115583268Y-111996253D01*
X115593637Y-111985883D01*
X115593639Y-111985883D01*
X115620928Y-111958593D01*
X115620932Y-111958591D01*
X115691890Y-111887633D01*
X115691893Y-111887628D01*
X116071950Y-111507571D01*
X116071993Y-111507543D01*
X116106877Y-111472657D01*
X116106878Y-111472658D01*
X116170904Y-111408630D01*
X116230530Y-111330922D01*
X116262537Y-111289210D01*
X116311250Y-111250807D01*
X116372385Y-111240301D01*
X116431124Y-111260240D01*
X116473231Y-111305791D01*
X116488500Y-111365913D01*
X116488500Y-111887367D01*
X116485818Y-111913225D01*
X116483554Y-111924017D01*
X116487532Y-111955922D01*
X116488500Y-111971508D01*
X116488500Y-111971614D01*
X116491975Y-111992443D01*
X116492725Y-111997589D01*
X116500294Y-112058302D01*
X116500371Y-112058542D01*
X116504181Y-112065583D01*
X116504182Y-112065586D01*
X116521689Y-112097936D01*
X116529492Y-112112355D01*
X116531874Y-112116984D01*
X116558742Y-112171943D01*
X116558884Y-112172134D01*
X116564779Y-112177561D01*
X116564780Y-112177562D01*
X116603931Y-112213603D01*
X116607663Y-112217185D01*
X116819735Y-112429257D01*
X116819744Y-112429268D01*
X116832424Y-112441948D01*
X116832453Y-112441990D01*
X116931371Y-112540905D01*
X116967334Y-112568500D01*
X117075046Y-112651148D01*
X117231882Y-112741695D01*
X117231884Y-112741696D01*
X117399194Y-112810996D01*
X117429497Y-112819115D01*
X117574122Y-112857865D01*
X117747947Y-112880747D01*
X117803771Y-112902455D01*
X117843264Y-112947488D01*
X117857501Y-113005669D01*
X117857501Y-113025068D01*
X117872265Y-113099300D01*
X117928515Y-113183484D01*
X117984764Y-113221068D01*
X118012699Y-113239734D01*
X118086933Y-113254500D01*
X119637066Y-113254499D01*
X119637068Y-113254499D01*
X119686555Y-113244655D01*
X119711301Y-113239734D01*
X119795484Y-113183484D01*
X119851734Y-113099301D01*
X119866500Y-113025067D01*
X119866499Y-111974934D01*
X119866499Y-111974933D01*
X119866499Y-111974931D01*
X119851734Y-111900699D01*
X119795484Y-111816515D01*
X119711301Y-111760266D01*
X119672218Y-111752492D01*
X119637066Y-111745500D01*
X118086931Y-111745500D01*
X118012699Y-111760265D01*
X117928515Y-111816515D01*
X117872266Y-111900698D01*
X117872265Y-111900699D01*
X117872266Y-111900699D01*
X117857501Y-111974931D01*
X117857500Y-111974934D01*
X117857500Y-111977361D01*
X117844046Y-112034012D01*
X117806559Y-112078565D01*
X117753042Y-112101506D01*
X117694926Y-112097936D01*
X117619392Y-112075024D01*
X117596575Y-112065573D01*
X117511529Y-112020117D01*
X117490993Y-112006395D01*
X117411720Y-111941339D01*
X117402557Y-111933034D01*
X117391003Y-111921480D01*
X117391002Y-111921480D01*
X117288404Y-111818881D01*
X117261091Y-111778004D01*
X117251500Y-111729786D01*
X117251500Y-109554000D01*
X117604000Y-109554000D01*
X117604000Y-109848589D01*
X117610505Y-109909093D01*
X117661554Y-110045962D01*
X117749095Y-110162904D01*
X117866037Y-110250445D01*
X118002906Y-110301494D01*
X118063411Y-110308000D01*
X118608000Y-110308000D01*
X118608000Y-109554000D01*
X117604000Y-109554000D01*
X117251500Y-109554000D01*
X117251500Y-108599063D01*
X117251501Y-108599060D01*
X117251500Y-108550392D01*
X117252107Y-108538045D01*
X117255460Y-108503999D01*
X117262167Y-108435891D01*
X117266982Y-108411678D01*
X117294978Y-108319383D01*
X117304423Y-108296580D01*
X117349887Y-108211519D01*
X117363596Y-108191002D01*
X117428666Y-108111711D01*
X117436956Y-108102567D01*
X117458020Y-108081502D01*
X117489840Y-108049682D01*
X117501491Y-108038032D01*
X117510645Y-108029734D01*
X117589999Y-107964612D01*
X117610526Y-107950895D01*
X117695581Y-107905434D01*
X117718391Y-107895986D01*
X117810681Y-107867991D01*
X117834882Y-107863178D01*
X117937164Y-107853105D01*
X117949497Y-107852500D01*
X117998060Y-107852501D01*
X117998063Y-107852500D01*
X118165924Y-107852500D01*
X118224477Y-107866932D01*
X118269618Y-107906921D01*
X118270500Y-107908199D01*
X118270501Y-107908200D01*
X118270502Y-107908201D01*
X118389471Y-108013599D01*
X118467276Y-108054434D01*
X118515752Y-108099517D01*
X118534682Y-108162955D01*
X118518839Y-108227234D01*
X118472596Y-108274608D01*
X118408719Y-108292000D01*
X118063411Y-108292000D01*
X118002906Y-108298505D01*
X117866037Y-108349554D01*
X117749095Y-108437095D01*
X117661554Y-108554037D01*
X117610505Y-108690906D01*
X117604000Y-108751411D01*
X117604000Y-109046000D01*
X118990000Y-109046000D01*
X119053000Y-109062881D01*
X119099119Y-109109000D01*
X119116000Y-109172000D01*
X119116000Y-110308000D01*
X119660589Y-110308000D01*
X119721093Y-110301494D01*
X119857960Y-110250446D01*
X119887188Y-110228566D01*
X119952712Y-110203829D01*
X120021323Y-110217901D01*
X120071819Y-110266435D01*
X120144858Y-110392948D01*
X120219026Y-110489606D01*
X120255103Y-110536623D01*
X120265295Y-110546815D01*
X120265302Y-110546824D01*
X120274116Y-110555638D01*
X120274117Y-110555639D01*
X120301405Y-110582927D01*
X120301410Y-110582934D01*
X120372369Y-110653893D01*
X120372377Y-110653899D01*
X122147735Y-112429257D01*
X122147744Y-112429268D01*
X122160424Y-112441948D01*
X122160453Y-112441990D01*
X122259371Y-112540905D01*
X122295334Y-112568500D01*
X122403046Y-112651148D01*
X122559882Y-112741695D01*
X122679720Y-112791332D01*
X122720594Y-112818642D01*
X122747908Y-112859520D01*
X122757500Y-112907738D01*
X122757500Y-113025067D01*
X122772265Y-113099300D01*
X122828515Y-113183484D01*
X122884764Y-113221068D01*
X122912699Y-113239734D01*
X122986933Y-113254500D01*
X124537066Y-113254499D01*
X124537068Y-113254499D01*
X124586555Y-113244655D01*
X124611301Y-113239734D01*
X124695484Y-113183484D01*
X124751734Y-113099301D01*
X124766500Y-113025067D01*
X124766499Y-111974934D01*
X124766499Y-111974933D01*
X124766499Y-111974931D01*
X124751734Y-111900699D01*
X124695484Y-111816515D01*
X124611301Y-111760266D01*
X124572218Y-111752492D01*
X124537066Y-111745500D01*
X122986931Y-111745500D01*
X122912699Y-111760265D01*
X122828515Y-111816515D01*
X122827905Y-111817430D01*
X122787917Y-111855502D01*
X122735490Y-111872821D01*
X122680692Y-111866063D01*
X122634045Y-111836523D01*
X121761632Y-110964110D01*
X120863035Y-110065512D01*
X120854730Y-110056349D01*
X120789616Y-109977005D01*
X120775893Y-109956468D01*
X120730436Y-109871422D01*
X120720984Y-109848602D01*
X120718967Y-109841953D01*
X120713845Y-109825068D01*
X122757500Y-109825068D01*
X122772265Y-109899300D01*
X122828515Y-109983484D01*
X122884764Y-110021068D01*
X122912699Y-110039734D01*
X122986933Y-110054500D01*
X124537066Y-110054499D01*
X124537068Y-110054499D01*
X124586556Y-110044655D01*
X124611301Y-110039734D01*
X124695484Y-109983484D01*
X124751734Y-109899301D01*
X124766500Y-109825067D01*
X124766500Y-109807500D01*
X124783381Y-109744500D01*
X124829500Y-109698381D01*
X124892500Y-109681500D01*
X125336937Y-109681500D01*
X125336940Y-109681501D01*
X125385606Y-109681500D01*
X125397954Y-109682107D01*
X125410614Y-109683353D01*
X125500106Y-109692166D01*
X125524323Y-109696983D01*
X125616612Y-109724977D01*
X125639419Y-109734423D01*
X125724472Y-109779883D01*
X125745006Y-109793604D01*
X125824280Y-109858661D01*
X125833443Y-109866966D01*
X125847882Y-109881405D01*
X125847885Y-109881407D01*
X127506295Y-111539818D01*
X127539424Y-111598298D01*
X127537774Y-111665489D01*
X127501816Y-111722273D01*
X127441781Y-111752492D01*
X127402699Y-111760265D01*
X127318515Y-111816515D01*
X127262266Y-111900698D01*
X127247500Y-111974933D01*
X127247500Y-113025068D01*
X127262265Y-113099300D01*
X127318515Y-113183484D01*
X127374764Y-113221068D01*
X127402699Y-113239734D01*
X127476933Y-113254500D01*
X129027066Y-113254499D01*
X129027068Y-113254499D01*
X129076555Y-113244655D01*
X129101301Y-113239734D01*
X129185484Y-113183484D01*
X129241734Y-113099301D01*
X129256500Y-113025067D01*
X129256499Y-111974934D01*
X129256499Y-111974933D01*
X129256499Y-111974931D01*
X129241734Y-111900699D01*
X129185484Y-111816515D01*
X129101301Y-111760266D01*
X129062218Y-111752492D01*
X129027067Y-111745500D01*
X129027066Y-111745500D01*
X128659730Y-111745500D01*
X128611512Y-111735909D01*
X128570634Y-111708595D01*
X128543321Y-111667717D01*
X128493686Y-111547885D01*
X128403141Y-111391051D01*
X128292897Y-111247377D01*
X128288339Y-111242819D01*
X128288331Y-111242808D01*
X128246595Y-111201072D01*
X128246594Y-111201070D01*
X128181268Y-111135744D01*
X128181257Y-111135735D01*
X127568617Y-110523095D01*
X127537879Y-110472936D01*
X127533263Y-110414289D01*
X127555776Y-110359939D01*
X127600509Y-110321733D01*
X127657712Y-110308000D01*
X127998000Y-110308000D01*
X127998000Y-109554000D01*
X126994000Y-109554000D01*
X126994000Y-109644288D01*
X126980267Y-109701491D01*
X126942061Y-109746224D01*
X126887711Y-109768737D01*
X126829064Y-109764121D01*
X126778905Y-109733383D01*
X126405563Y-109360041D01*
X126405532Y-109359995D01*
X126304628Y-109259094D01*
X126160956Y-109148853D01*
X126004115Y-109058303D01*
X125974412Y-109046000D01*
X126994000Y-109046000D01*
X127998000Y-109046000D01*
X127998000Y-108292000D01*
X127453411Y-108292000D01*
X127392906Y-108298505D01*
X127256037Y-108349554D01*
X127139095Y-108437095D01*
X127051554Y-108554037D01*
X127000505Y-108690906D01*
X126994000Y-108751411D01*
X126994000Y-109046000D01*
X125974412Y-109046000D01*
X125836805Y-108989003D01*
X125661878Y-108942135D01*
X125482330Y-108918499D01*
X125482329Y-108918499D01*
X125391781Y-108918500D01*
X124892499Y-108918500D01*
X124829499Y-108901619D01*
X124783380Y-108855500D01*
X124766499Y-108792500D01*
X124766499Y-108774932D01*
X124751734Y-108700699D01*
X124695484Y-108616515D01*
X124611301Y-108560266D01*
X124594178Y-108556860D01*
X124537066Y-108545500D01*
X122986931Y-108545500D01*
X122912699Y-108560265D01*
X122828515Y-108616515D01*
X122772266Y-108700698D01*
X122757500Y-108774933D01*
X122757500Y-109825068D01*
X120713845Y-109825068D01*
X120692992Y-109756320D01*
X120688177Y-109732115D01*
X120678105Y-109629836D01*
X120677500Y-109617499D01*
X120677500Y-109599776D01*
X120677501Y-109568940D01*
X120677500Y-109568937D01*
X120677500Y-107883223D01*
X120687673Y-107833623D01*
X120716550Y-107792032D01*
X120759467Y-107765167D01*
X120777767Y-107758342D01*
X120893904Y-107671404D01*
X120980842Y-107555267D01*
X120980842Y-107555266D01*
X120987266Y-107546685D01*
X121015130Y-107506256D01*
X121069821Y-107478169D01*
X121131293Y-107479306D01*
X121184908Y-107509397D01*
X121217902Y-107561276D01*
X121241843Y-107633525D01*
X121334867Y-107784342D01*
X121460157Y-107909632D01*
X121610977Y-108002659D01*
X121779171Y-108058393D01*
X121882997Y-108069000D01*
X121929500Y-108069000D01*
X121929500Y-107090000D01*
X122437500Y-107090000D01*
X122437500Y-108069000D01*
X122484003Y-108069000D01*
X122587828Y-108058393D01*
X122756022Y-108002659D01*
X122906842Y-107909632D01*
X123032132Y-107784342D01*
X123125159Y-107633522D01*
X123180893Y-107465328D01*
X123191500Y-107361503D01*
X123191500Y-107090000D01*
X122437500Y-107090000D01*
X121929500Y-107090000D01*
X121929500Y-106708000D01*
X121946381Y-106645000D01*
X121992500Y-106598881D01*
X122055500Y-106582000D01*
X123191500Y-106582000D01*
X123191500Y-106310497D01*
X123180893Y-106206671D01*
X123125159Y-106038477D01*
X123032132Y-105887657D01*
X122905070Y-105760595D01*
X122874332Y-105710436D01*
X122869716Y-105651789D01*
X122892229Y-105597439D01*
X122936962Y-105559233D01*
X122994165Y-105545500D01*
X127435437Y-105545500D01*
X127435440Y-105545501D01*
X127484106Y-105545500D01*
X127496454Y-105546107D01*
X127509114Y-105547353D01*
X127598606Y-105556166D01*
X127622823Y-105560983D01*
X127715112Y-105588977D01*
X127737919Y-105598423D01*
X127822972Y-105643883D01*
X127843506Y-105657604D01*
X127922779Y-105722660D01*
X127931942Y-105730965D01*
X127940970Y-105739993D01*
X127940973Y-105739995D01*
X128785095Y-106584117D01*
X128812409Y-106624994D01*
X128822000Y-106673212D01*
X128822000Y-107359257D01*
X128828459Y-107419338D01*
X128828459Y-107419340D01*
X128828460Y-107419342D01*
X128850402Y-107478169D01*
X128879158Y-107555268D01*
X128966095Y-107671404D01*
X129082233Y-107758342D01*
X129113034Y-107769831D01*
X129155951Y-107796696D01*
X129184827Y-107838286D01*
X129195000Y-107887886D01*
X129195000Y-108167253D01*
X129175801Y-108234107D01*
X129124056Y-108280588D01*
X129055533Y-108292531D01*
X129050593Y-108292000D01*
X128506000Y-108292000D01*
X128506000Y-110308000D01*
X129050589Y-110308000D01*
X129111093Y-110301494D01*
X129247962Y-110250445D01*
X129364904Y-110162904D01*
X129452445Y-110045962D01*
X129503494Y-109909093D01*
X129510000Y-109848589D01*
X129510000Y-109701712D01*
X129523733Y-109644509D01*
X129561939Y-109599776D01*
X129616289Y-109577263D01*
X129674936Y-109581879D01*
X129725095Y-109612617D01*
X132110595Y-111998117D01*
X132137909Y-112038994D01*
X132147500Y-112087212D01*
X132147500Y-113025068D01*
X132162265Y-113099300D01*
X132218515Y-113183484D01*
X132274764Y-113221068D01*
X132302699Y-113239734D01*
X132376933Y-113254500D01*
X133927066Y-113254499D01*
X133927068Y-113254499D01*
X133976555Y-113244655D01*
X134001301Y-113239734D01*
X134085484Y-113183484D01*
X134141734Y-113099301D01*
X134156500Y-113025067D01*
X134156499Y-111974934D01*
X134156499Y-111974933D01*
X134156499Y-111974931D01*
X134141734Y-111900699D01*
X134085484Y-111816515D01*
X134001301Y-111760266D01*
X133962218Y-111752492D01*
X133927067Y-111745500D01*
X133927066Y-111745500D01*
X132989212Y-111745500D01*
X132940994Y-111735909D01*
X132900117Y-111708595D01*
X131016591Y-109825068D01*
X132147500Y-109825068D01*
X132162265Y-109899300D01*
X132218515Y-109983484D01*
X132274764Y-110021068D01*
X132302699Y-110039734D01*
X132376933Y-110054500D01*
X133927066Y-110054499D01*
X133927068Y-110054499D01*
X133976556Y-110044655D01*
X134001301Y-110039734D01*
X134085484Y-109983484D01*
X134141734Y-109899301D01*
X134156500Y-109825067D01*
X134156500Y-109807500D01*
X134173381Y-109744500D01*
X134219500Y-109698381D01*
X134282500Y-109681500D01*
X134834937Y-109681500D01*
X134834940Y-109681501D01*
X134883606Y-109681500D01*
X134895954Y-109682107D01*
X134908614Y-109683353D01*
X134998106Y-109692166D01*
X135022323Y-109696983D01*
X135114612Y-109724977D01*
X135137419Y-109734423D01*
X135222472Y-109779883D01*
X135243006Y-109793604D01*
X135322280Y-109858661D01*
X135331443Y-109866966D01*
X135345882Y-109881405D01*
X135345885Y-109881407D01*
X137004295Y-111539818D01*
X137037424Y-111598298D01*
X137035774Y-111665489D01*
X136999816Y-111722273D01*
X136939781Y-111752492D01*
X136900699Y-111760265D01*
X136816515Y-111816515D01*
X136760266Y-111900698D01*
X136745500Y-111974933D01*
X136745500Y-113025068D01*
X136760265Y-113099300D01*
X136816515Y-113183484D01*
X136872764Y-113221068D01*
X136900699Y-113239734D01*
X136974933Y-113254500D01*
X138525066Y-113254499D01*
X138525068Y-113254499D01*
X138574555Y-113244655D01*
X138599301Y-113239734D01*
X138683484Y-113183484D01*
X138739734Y-113099301D01*
X138754500Y-113025067D01*
X138754499Y-111974934D01*
X138754499Y-111974933D01*
X138754499Y-111974931D01*
X138739734Y-111900699D01*
X138683484Y-111816515D01*
X138599301Y-111760266D01*
X138560218Y-111752492D01*
X138525067Y-111745500D01*
X138525066Y-111745500D01*
X138157730Y-111745500D01*
X138109512Y-111735909D01*
X138068634Y-111708595D01*
X138041321Y-111667717D01*
X137991686Y-111547885D01*
X137901141Y-111391051D01*
X137790897Y-111247377D01*
X137786339Y-111242819D01*
X137786331Y-111242808D01*
X137744595Y-111201072D01*
X137744594Y-111201070D01*
X137679268Y-111135744D01*
X137679257Y-111135735D01*
X137066617Y-110523095D01*
X137035879Y-110472936D01*
X137031263Y-110414289D01*
X137053776Y-110359939D01*
X137098509Y-110321733D01*
X137155712Y-110308000D01*
X137496000Y-110308000D01*
X137496000Y-109554000D01*
X136492000Y-109554000D01*
X136492000Y-109644288D01*
X136478267Y-109701491D01*
X136440061Y-109746224D01*
X136385711Y-109768737D01*
X136327064Y-109764121D01*
X136276905Y-109733383D01*
X135903563Y-109360041D01*
X135903532Y-109359995D01*
X135802628Y-109259094D01*
X135658956Y-109148853D01*
X135502115Y-109058303D01*
X135472412Y-109046000D01*
X136492000Y-109046000D01*
X137496000Y-109046000D01*
X137496000Y-108292000D01*
X136951411Y-108292000D01*
X136890906Y-108298505D01*
X136754037Y-108349554D01*
X136637095Y-108437095D01*
X136549554Y-108554037D01*
X136498505Y-108690906D01*
X136492000Y-108751411D01*
X136492000Y-109046000D01*
X135472412Y-109046000D01*
X135334805Y-108989003D01*
X135159878Y-108942135D01*
X134980330Y-108918499D01*
X134980329Y-108918499D01*
X134889781Y-108918500D01*
X134282499Y-108918500D01*
X134219499Y-108901619D01*
X134173380Y-108855500D01*
X134156499Y-108792500D01*
X134156499Y-108774932D01*
X134141734Y-108700699D01*
X134085484Y-108616515D01*
X134001301Y-108560266D01*
X133984178Y-108556860D01*
X133927066Y-108545500D01*
X132376931Y-108545500D01*
X132302699Y-108560265D01*
X132218515Y-108616515D01*
X132162266Y-108700698D01*
X132147500Y-108774933D01*
X132147500Y-109825068D01*
X131016591Y-109825068D01*
X130143535Y-108952012D01*
X130135230Y-108942849D01*
X130101394Y-108901619D01*
X130070115Y-108863504D01*
X130056393Y-108842968D01*
X130010936Y-108757922D01*
X130001484Y-108735102D01*
X129998480Y-108725199D01*
X129973492Y-108642820D01*
X129968677Y-108618615D01*
X129958605Y-108516336D01*
X129958000Y-108503999D01*
X129958001Y-108455440D01*
X129958000Y-108455437D01*
X129958000Y-107887886D01*
X129968173Y-107838286D01*
X129997049Y-107796696D01*
X130039966Y-107769831D01*
X130060956Y-107762001D01*
X130070767Y-107758342D01*
X130186904Y-107671404D01*
X130273842Y-107555267D01*
X130273842Y-107555266D01*
X130280266Y-107546685D01*
X130308130Y-107506256D01*
X130362821Y-107478169D01*
X130424293Y-107479306D01*
X130477908Y-107509397D01*
X130510902Y-107561276D01*
X130534843Y-107633525D01*
X130627867Y-107784342D01*
X130753157Y-107909632D01*
X130903977Y-108002659D01*
X131072171Y-108058393D01*
X131175997Y-108069000D01*
X131222500Y-108069000D01*
X131222500Y-107090000D01*
X131730500Y-107090000D01*
X131730500Y-108069000D01*
X131777003Y-108069000D01*
X131880828Y-108058393D01*
X132049022Y-108002659D01*
X132199842Y-107909632D01*
X132325132Y-107784342D01*
X132418159Y-107633522D01*
X132473893Y-107465328D01*
X132484500Y-107361503D01*
X132484500Y-107090000D01*
X131730500Y-107090000D01*
X131222500Y-107090000D01*
X131222500Y-106708000D01*
X131239381Y-106645000D01*
X131285500Y-106598881D01*
X131348500Y-106582000D01*
X132484500Y-106582000D01*
X132484500Y-106310497D01*
X132473893Y-106206671D01*
X132418159Y-106038477D01*
X132325132Y-105887657D01*
X132198070Y-105760595D01*
X132167332Y-105710436D01*
X132162716Y-105651789D01*
X132185229Y-105597439D01*
X132229962Y-105559233D01*
X132287165Y-105545500D01*
X137187437Y-105545500D01*
X137187440Y-105545501D01*
X137236106Y-105545500D01*
X137248454Y-105546107D01*
X137261114Y-105547353D01*
X137350606Y-105556166D01*
X137374823Y-105560983D01*
X137467112Y-105588977D01*
X137489919Y-105598423D01*
X137574972Y-105643883D01*
X137595506Y-105657604D01*
X137674779Y-105722660D01*
X137683942Y-105730965D01*
X137692970Y-105739993D01*
X137692973Y-105739995D01*
X138537095Y-106584117D01*
X138564409Y-106624994D01*
X138574000Y-106673212D01*
X138574000Y-107359257D01*
X138580459Y-107419338D01*
X138580459Y-107419340D01*
X138580460Y-107419342D01*
X138602402Y-107478169D01*
X138631158Y-107555268D01*
X138718095Y-107671404D01*
X138834233Y-107758342D01*
X138865034Y-107769831D01*
X138907951Y-107796696D01*
X138936827Y-107838286D01*
X138947000Y-107887886D01*
X138947000Y-108248333D01*
X138928197Y-108314551D01*
X138877400Y-108361005D01*
X138809770Y-108373832D01*
X138762820Y-108355841D01*
X138609093Y-108298505D01*
X138548589Y-108292000D01*
X138004000Y-108292000D01*
X138004000Y-110308000D01*
X138548589Y-110308000D01*
X138609093Y-110301494D01*
X138745962Y-110250445D01*
X138862904Y-110162904D01*
X138950445Y-110045962D01*
X139001494Y-109909093D01*
X139008000Y-109848589D01*
X139008000Y-109683920D01*
X139023269Y-109623798D01*
X139065376Y-109578247D01*
X139124114Y-109558308D01*
X139185249Y-109568813D01*
X139233961Y-109607214D01*
X139287603Y-109677123D01*
X139297795Y-109687315D01*
X139297802Y-109687324D01*
X139306616Y-109696138D01*
X139306617Y-109696139D01*
X139333905Y-109723427D01*
X139333910Y-109723434D01*
X139404869Y-109794393D01*
X139404877Y-109794399D01*
X141608595Y-111998117D01*
X141635909Y-112038994D01*
X141645500Y-112087212D01*
X141645500Y-113025068D01*
X141660265Y-113099300D01*
X141716515Y-113183484D01*
X141772764Y-113221068D01*
X141800699Y-113239734D01*
X141874933Y-113254500D01*
X143425066Y-113254499D01*
X143425068Y-113254499D01*
X143474555Y-113244655D01*
X143499301Y-113239734D01*
X143583484Y-113183484D01*
X143615835Y-113135068D01*
X161405500Y-113135068D01*
X161420265Y-113209300D01*
X161476515Y-113293484D01*
X161532764Y-113331068D01*
X161560699Y-113349734D01*
X161634933Y-113364500D01*
X163385066Y-113364499D01*
X163385068Y-113364499D01*
X163435308Y-113354506D01*
X163459301Y-113349734D01*
X163543484Y-113293484D01*
X163599734Y-113209301D01*
X163614500Y-113135067D01*
X163614499Y-111384934D01*
X163614499Y-111384933D01*
X163614499Y-111384931D01*
X163599734Y-111310699D01*
X163543484Y-111226515D01*
X163459301Y-111170266D01*
X163459296Y-111170265D01*
X163385066Y-111155500D01*
X163208246Y-111155500D01*
X163144646Y-111138270D01*
X163098439Y-111091293D01*
X163082263Y-111027417D01*
X163100542Y-110964110D01*
X163148277Y-110918686D01*
X163255303Y-110860766D01*
X163275688Y-110844899D01*
X163275689Y-110844898D01*
X162510001Y-110079210D01*
X162510000Y-110079210D01*
X161744310Y-110844899D01*
X161764697Y-110860766D01*
X161871723Y-110918686D01*
X161919458Y-110964109D01*
X161937737Y-111027416D01*
X161921561Y-111091293D01*
X161875355Y-111138270D01*
X161811755Y-111155500D01*
X161634932Y-111155500D01*
X161560699Y-111170265D01*
X161476515Y-111226515D01*
X161420266Y-111310698D01*
X161405500Y-111384933D01*
X161405500Y-113135068D01*
X143615835Y-113135068D01*
X143639734Y-113099301D01*
X143654500Y-113025067D01*
X143654499Y-111974934D01*
X143654499Y-111974933D01*
X143654499Y-111974931D01*
X143639734Y-111900699D01*
X143583484Y-111816515D01*
X143499301Y-111760266D01*
X143460218Y-111752492D01*
X143425067Y-111745500D01*
X143425066Y-111745500D01*
X142487212Y-111745500D01*
X142438994Y-111735909D01*
X142398117Y-111708595D01*
X141162458Y-110472936D01*
X140514591Y-109825068D01*
X141645500Y-109825068D01*
X141660265Y-109899300D01*
X141716515Y-109983484D01*
X141772764Y-110021068D01*
X141800699Y-110039734D01*
X141874933Y-110054500D01*
X143425066Y-110054499D01*
X143425068Y-110054499D01*
X143474556Y-110044655D01*
X143499301Y-110039734D01*
X143583484Y-109983484D01*
X143639734Y-109899301D01*
X143654500Y-109825067D01*
X143654500Y-109720000D01*
X161147346Y-109720000D01*
X161165931Y-109944283D01*
X161221180Y-110162456D01*
X161311580Y-110368548D01*
X161386922Y-110483866D01*
X162150789Y-109720001D01*
X162869210Y-109720001D01*
X163633076Y-110483867D01*
X163633077Y-110483866D01*
X163708418Y-110368551D01*
X163798819Y-110162457D01*
X163854068Y-109944283D01*
X163872653Y-109720000D01*
X163854068Y-109495716D01*
X163798819Y-109277543D01*
X163708417Y-109071446D01*
X163633076Y-108956132D01*
X162869210Y-109720000D01*
X162869210Y-109720001D01*
X162150789Y-109720001D01*
X162150790Y-109720000D01*
X161386922Y-108956133D01*
X161311580Y-109071451D01*
X161221180Y-109277543D01*
X161165931Y-109495716D01*
X161147346Y-109720000D01*
X143654500Y-109720000D01*
X143654499Y-108774934D01*
X143654499Y-108774932D01*
X143654499Y-108774931D01*
X143639734Y-108700699D01*
X143583484Y-108616515D01*
X143499301Y-108560266D01*
X143482178Y-108556860D01*
X143425066Y-108545500D01*
X141874931Y-108545500D01*
X141800699Y-108560265D01*
X141716515Y-108616515D01*
X141660266Y-108700698D01*
X141645500Y-108774933D01*
X141645500Y-109825068D01*
X140514591Y-109825068D01*
X139895535Y-109206012D01*
X139887230Y-109196849D01*
X139822116Y-109117505D01*
X139808393Y-109096968D01*
X139762936Y-109011922D01*
X139753484Y-108989102D01*
X139725492Y-108896820D01*
X139720677Y-108872615D01*
X139710605Y-108770336D01*
X139710000Y-108757999D01*
X139710000Y-108738607D01*
X139710001Y-108709440D01*
X139710000Y-108709437D01*
X139710000Y-107887886D01*
X139720173Y-107838286D01*
X139749049Y-107796696D01*
X139791966Y-107769831D01*
X139812956Y-107762001D01*
X139822767Y-107758342D01*
X139938904Y-107671404D01*
X140025842Y-107555267D01*
X140025842Y-107555266D01*
X140032266Y-107546685D01*
X140060130Y-107506256D01*
X140114821Y-107478169D01*
X140176293Y-107479306D01*
X140229908Y-107509397D01*
X140262902Y-107561276D01*
X140286843Y-107633525D01*
X140379867Y-107784342D01*
X140505157Y-107909632D01*
X140655977Y-108002659D01*
X140824171Y-108058393D01*
X140927997Y-108069000D01*
X140974500Y-108069000D01*
X140974500Y-107090000D01*
X141482500Y-107090000D01*
X141482500Y-108069000D01*
X141529003Y-108069000D01*
X141632828Y-108058393D01*
X141801022Y-108002659D01*
X141951842Y-107909632D01*
X142077132Y-107784342D01*
X142170159Y-107633522D01*
X142225893Y-107465328D01*
X142236500Y-107361503D01*
X142236500Y-107090000D01*
X141482500Y-107090000D01*
X140974500Y-107090000D01*
X140974500Y-106708000D01*
X140991381Y-106645000D01*
X141037500Y-106598881D01*
X141100500Y-106582000D01*
X142236500Y-106582000D01*
X142236500Y-106310497D01*
X142225893Y-106206671D01*
X142170159Y-106038477D01*
X142077132Y-105887657D01*
X141951842Y-105762367D01*
X141801022Y-105669340D01*
X141632828Y-105613606D01*
X141529003Y-105603000D01*
X141405211Y-105603000D01*
X141348008Y-105589267D01*
X141303275Y-105551061D01*
X141280762Y-105496711D01*
X141285378Y-105438064D01*
X141316116Y-105387905D01*
X141671884Y-105032137D01*
X143256990Y-103447031D01*
X143266144Y-103438735D01*
X143345499Y-103373613D01*
X143366031Y-103359893D01*
X143451081Y-103314434D01*
X143473891Y-103304986D01*
X143566181Y-103276991D01*
X143590382Y-103272178D01*
X143692664Y-103262105D01*
X143704997Y-103261500D01*
X143753560Y-103261501D01*
X143753563Y-103261500D01*
X152106788Y-103261500D01*
X152163992Y-103275234D01*
X152208726Y-103313441D01*
X152231237Y-103367793D01*
X152226619Y-103426442D01*
X152195879Y-103476598D01*
X152187068Y-103485409D01*
X152187068Y-103485410D01*
X152187062Y-103485414D01*
X152169348Y-103503129D01*
X152130562Y-103541915D01*
X152130560Y-103541917D01*
X151988050Y-103684427D01*
X151852925Y-103819552D01*
X151812943Y-103846490D01*
X151765770Y-103856441D01*
X151718316Y-103847948D01*
X151633556Y-103815112D01*
X151432347Y-103777500D01*
X151227653Y-103777500D01*
X151100515Y-103801266D01*
X151026444Y-103815112D01*
X150835571Y-103889056D01*
X150661539Y-103996813D01*
X150661537Y-103996814D01*
X150661538Y-103996814D01*
X150516757Y-104128800D01*
X150510267Y-104134716D01*
X150386910Y-104298066D01*
X150295672Y-104481297D01*
X150239654Y-104678180D01*
X150220767Y-104881999D01*
X150239654Y-105085819D01*
X150295672Y-105282702D01*
X150386910Y-105465933D01*
X150443709Y-105541146D01*
X150510268Y-105629285D01*
X150661538Y-105767186D01*
X150760439Y-105828423D01*
X150816799Y-105863320D01*
X150835573Y-105874944D01*
X151026444Y-105948888D01*
X151227653Y-105986500D01*
X151432345Y-105986500D01*
X151432347Y-105986500D01*
X151633556Y-105948888D01*
X151824427Y-105874944D01*
X151998462Y-105767186D01*
X152149732Y-105629285D01*
X152273088Y-105465935D01*
X152364328Y-105282701D01*
X152420345Y-105085821D01*
X152439232Y-104882000D01*
X152438826Y-104877624D01*
X152420345Y-104678180D01*
X152420263Y-104677893D01*
X152395556Y-104591053D01*
X152363747Y-104479255D01*
X152362983Y-104413101D01*
X152395840Y-104355680D01*
X152697913Y-104053609D01*
X152697913Y-104053610D01*
X152704490Y-104047033D01*
X152713646Y-104038733D01*
X152792999Y-103973612D01*
X152813526Y-103959895D01*
X152898581Y-103914434D01*
X152921396Y-103904985D01*
X152924654Y-103903996D01*
X152958873Y-103893616D01*
X153025991Y-103891949D01*
X153084439Y-103924992D01*
X153117617Y-103983362D01*
X153116106Y-104050486D01*
X153080335Y-104107304D01*
X153050268Y-104134714D01*
X152926910Y-104298066D01*
X152835672Y-104481297D01*
X152779654Y-104678180D01*
X152760767Y-104881999D01*
X152779654Y-105085819D01*
X152835672Y-105282702D01*
X152926910Y-105465933D01*
X152983709Y-105541146D01*
X153050268Y-105629285D01*
X153201538Y-105767186D01*
X153300439Y-105828423D01*
X153356799Y-105863320D01*
X153375573Y-105874944D01*
X153566444Y-105948888D01*
X153767653Y-105986500D01*
X153972345Y-105986500D01*
X153972347Y-105986500D01*
X154173556Y-105948888D01*
X154258315Y-105916051D01*
X154305769Y-105907558D01*
X154352943Y-105917509D01*
X154392925Y-105944448D01*
X155570424Y-107121947D01*
X155570455Y-107121992D01*
X155669371Y-107220905D01*
X155798334Y-107319860D01*
X155813046Y-107331148D01*
X155969882Y-107421695D01*
X155969884Y-107421696D01*
X156137194Y-107490996D01*
X156184062Y-107503553D01*
X156312122Y-107537865D01*
X156491671Y-107561501D01*
X156582219Y-107561500D01*
X161388095Y-107561500D01*
X161454425Y-107580373D01*
X161500885Y-107631337D01*
X161566910Y-107763933D01*
X161604488Y-107813694D01*
X161690268Y-107927285D01*
X161841538Y-108065186D01*
X161967198Y-108142991D01*
X162006381Y-108167253D01*
X162015573Y-108172944D01*
X162078407Y-108197286D01*
X162128203Y-108232367D01*
X162155724Y-108286706D01*
X162154539Y-108347606D01*
X162124926Y-108400834D01*
X162073804Y-108433951D01*
X161962627Y-108472118D01*
X161764700Y-108579231D01*
X161744310Y-108595099D01*
X161744310Y-108595101D01*
X162509999Y-109360790D01*
X162510000Y-109360790D01*
X163275689Y-108595100D01*
X163275688Y-108595099D01*
X163255302Y-108579232D01*
X163057371Y-108472117D01*
X162946196Y-108433951D01*
X162895073Y-108400834D01*
X162865460Y-108347606D01*
X162864275Y-108286706D01*
X162891796Y-108232366D01*
X162941590Y-108197287D01*
X163004427Y-108172944D01*
X163178462Y-108065186D01*
X163329732Y-107927285D01*
X163453088Y-107763935D01*
X163544328Y-107580701D01*
X163600345Y-107383821D01*
X163619232Y-107180000D01*
X163617805Y-107164605D01*
X163600345Y-106976180D01*
X163593182Y-106951003D01*
X163544328Y-106779299D01*
X163538255Y-106767102D01*
X163453089Y-106596066D01*
X163422886Y-106556072D01*
X163329732Y-106432715D01*
X163178462Y-106294814D01*
X163102587Y-106247834D01*
X163004428Y-106187056D01*
X162876186Y-106137375D01*
X162813556Y-106113112D01*
X162612347Y-106075500D01*
X162407653Y-106075500D01*
X162219224Y-106110723D01*
X162206444Y-106113112D01*
X162015571Y-106187056D01*
X161841539Y-106294813D01*
X161690267Y-106432716D01*
X161566910Y-106596066D01*
X161500885Y-106728663D01*
X161454425Y-106779627D01*
X161388095Y-106798500D01*
X156657509Y-106798500D01*
X156657503Y-106798499D01*
X156588393Y-106798499D01*
X156576045Y-106797892D01*
X156473897Y-106787833D01*
X156449671Y-106783015D01*
X156357392Y-106755024D01*
X156334575Y-106745573D01*
X156249529Y-106700117D01*
X156228992Y-106686395D01*
X156149715Y-106621335D01*
X156140553Y-106613030D01*
X155935228Y-106407705D01*
X155902179Y-106349541D01*
X155903561Y-106282658D01*
X155938986Y-106225909D01*
X155998466Y-106195292D01*
X156065235Y-106199437D01*
X156075485Y-106202955D01*
X156156000Y-106216391D01*
X156156000Y-104754000D01*
X156172881Y-104691000D01*
X156219000Y-104644881D01*
X156282000Y-104628000D01*
X156538000Y-104628000D01*
X156601000Y-104644881D01*
X156647119Y-104691000D01*
X156664000Y-104754000D01*
X156664000Y-106216391D01*
X156744514Y-106202955D01*
X156957368Y-106129883D01*
X157155302Y-106022766D01*
X157332903Y-105884533D01*
X157485323Y-105718960D01*
X157614017Y-105521980D01*
X157661371Y-105479105D01*
X157723666Y-105464964D01*
X157784890Y-105483191D01*
X157829307Y-105529101D01*
X157845500Y-105590894D01*
X157845500Y-105757067D01*
X157860265Y-105831300D01*
X157916515Y-105915484D01*
X157966506Y-105948887D01*
X158000699Y-105971734D01*
X158074933Y-105986500D01*
X159825066Y-105986499D01*
X159825068Y-105986499D01*
X159874556Y-105976655D01*
X159899301Y-105971734D01*
X159983484Y-105915484D01*
X160039734Y-105831301D01*
X160054500Y-105757067D01*
X160054499Y-104006934D01*
X160054499Y-104006933D01*
X160054499Y-103994525D01*
X160055953Y-103994525D01*
X160056879Y-103956880D01*
X160081705Y-103907564D01*
X160125231Y-103873597D01*
X160179102Y-103861500D01*
X160880937Y-103861500D01*
X160880940Y-103861501D01*
X160929606Y-103861500D01*
X160941954Y-103862107D01*
X160954614Y-103863353D01*
X161044106Y-103872166D01*
X161068323Y-103876983D01*
X161160612Y-103904977D01*
X161183419Y-103914423D01*
X161268472Y-103959883D01*
X161289007Y-103973604D01*
X161312285Y-103992707D01*
X161347966Y-104021990D01*
X161359433Y-104031400D01*
X161393402Y-104074927D01*
X161405500Y-104128800D01*
X161405500Y-105515068D01*
X161420265Y-105589300D01*
X161476515Y-105673484D01*
X161511608Y-105696932D01*
X161560699Y-105729734D01*
X161634933Y-105744500D01*
X163385066Y-105744499D01*
X163385068Y-105744499D01*
X163434556Y-105734655D01*
X163459301Y-105729734D01*
X163543484Y-105673484D01*
X163599734Y-105589301D01*
X163614500Y-105515067D01*
X163614499Y-103764934D01*
X163614499Y-103764931D01*
X163599734Y-103690699D01*
X163543484Y-103606515D01*
X163459301Y-103550266D01*
X163441288Y-103546683D01*
X163385067Y-103535500D01*
X163385066Y-103535500D01*
X161997227Y-103535500D01*
X161949010Y-103525909D01*
X161908133Y-103498597D01*
X161848628Y-103439094D01*
X161704956Y-103328853D01*
X161548115Y-103238303D01*
X161380805Y-103169003D01*
X161205878Y-103122135D01*
X161026330Y-103098499D01*
X161026329Y-103098499D01*
X160935781Y-103098500D01*
X159545212Y-103098500D01*
X159488009Y-103084767D01*
X159443276Y-103046561D01*
X159420763Y-102992211D01*
X159425379Y-102933564D01*
X159456117Y-102883405D01*
X159464927Y-102874595D01*
X159464932Y-102874591D01*
X159531805Y-102807718D01*
X159531812Y-102807708D01*
X159877076Y-102462444D01*
X159917055Y-102435508D01*
X159964229Y-102425557D01*
X160011680Y-102434050D01*
X160096444Y-102466888D01*
X160297653Y-102504500D01*
X160502345Y-102504500D01*
X160502347Y-102504500D01*
X160703556Y-102466888D01*
X160894427Y-102392944D01*
X161068462Y-102285186D01*
X161219732Y-102147285D01*
X161343088Y-101983935D01*
X161343089Y-101983933D01*
X161343210Y-101983691D01*
X161343609Y-101983244D01*
X161350124Y-101974618D01*
X161350842Y-101975160D01*
X161387701Y-101933971D01*
X161451344Y-101913940D01*
X161516293Y-101929216D01*
X161564335Y-101975515D01*
X161582000Y-102039854D01*
X161582000Y-102298589D01*
X161588505Y-102359093D01*
X161639554Y-102495962D01*
X161727095Y-102612904D01*
X161844037Y-102700445D01*
X161980906Y-102751494D01*
X162041411Y-102758000D01*
X162686000Y-102758000D01*
X162686000Y-101654000D01*
X163194000Y-101654000D01*
X163194000Y-102758000D01*
X163838589Y-102758000D01*
X163899093Y-102751494D01*
X164035962Y-102700445D01*
X164152904Y-102612904D01*
X164240445Y-102495962D01*
X164291494Y-102359093D01*
X164298000Y-102298589D01*
X164298000Y-101654000D01*
X163194000Y-101654000D01*
X162686000Y-101654000D01*
X162686000Y-100042000D01*
X163194000Y-100042000D01*
X163194000Y-101146000D01*
X164298000Y-101146000D01*
X164298000Y-100650000D01*
X170124610Y-100650000D01*
X170144120Y-100848093D01*
X170201902Y-101038571D01*
X170295734Y-101214119D01*
X170422011Y-101367988D01*
X170554087Y-101476380D01*
X170575880Y-101494265D01*
X170751427Y-101588097D01*
X170803255Y-101603819D01*
X170941906Y-101645879D01*
X171140000Y-101665389D01*
X171338093Y-101645879D01*
X171528573Y-101588097D01*
X171704120Y-101494265D01*
X171857988Y-101367988D01*
X171984265Y-101214120D01*
X172078097Y-101038573D01*
X172135879Y-100848093D01*
X172155389Y-100650000D01*
X172137109Y-100464397D01*
X172135879Y-100451906D01*
X172088318Y-100295121D01*
X172078097Y-100261427D01*
X171984265Y-100085880D01*
X171950895Y-100045219D01*
X171857988Y-99932011D01*
X171704119Y-99805734D01*
X171529407Y-99712349D01*
X171528573Y-99711903D01*
X171528572Y-99711902D01*
X171528571Y-99711902D01*
X171338093Y-99654120D01*
X171140000Y-99634610D01*
X170941906Y-99654120D01*
X170751428Y-99711902D01*
X170575880Y-99805734D01*
X170422011Y-99932011D01*
X170295734Y-100085880D01*
X170201902Y-100261428D01*
X170144120Y-100451906D01*
X170124610Y-100650000D01*
X164298000Y-100650000D01*
X164298000Y-100501411D01*
X164291494Y-100440906D01*
X164240445Y-100304037D01*
X164152904Y-100187095D01*
X164035962Y-100099554D01*
X163899093Y-100048505D01*
X163838589Y-100042000D01*
X163194000Y-100042000D01*
X162686000Y-100042000D01*
X162041411Y-100042000D01*
X161980906Y-100048505D01*
X161844037Y-100099554D01*
X161727095Y-100187095D01*
X161639554Y-100304037D01*
X161588505Y-100440906D01*
X161582000Y-100501411D01*
X161582000Y-100760146D01*
X161564335Y-100824485D01*
X161516293Y-100870784D01*
X161451344Y-100886060D01*
X161387701Y-100866029D01*
X161350842Y-100824839D01*
X161350124Y-100825382D01*
X161343609Y-100816755D01*
X161343210Y-100816309D01*
X161343089Y-100816066D01*
X161290452Y-100746364D01*
X161219732Y-100652715D01*
X161068462Y-100514814D01*
X160987036Y-100464397D01*
X160894428Y-100407056D01*
X160764007Y-100356531D01*
X160703556Y-100333112D01*
X160502347Y-100295500D01*
X160297653Y-100295500D01*
X160096444Y-100333111D01*
X160096444Y-100333112D01*
X159905571Y-100407056D01*
X159731539Y-100514813D01*
X159731537Y-100514814D01*
X159731538Y-100514814D01*
X159616086Y-100620063D01*
X159580267Y-100652716D01*
X159456910Y-100816066D01*
X159365672Y-100999297D01*
X159309654Y-101196180D01*
X159290767Y-101399999D01*
X159309654Y-101603819D01*
X159366252Y-101802741D01*
X159367016Y-101868895D01*
X159334158Y-101926317D01*
X158947508Y-102312968D01*
X158938344Y-102321273D01*
X158859005Y-102386383D01*
X158838468Y-102400106D01*
X158753422Y-102445563D01*
X158730601Y-102455015D01*
X158681793Y-102469820D01*
X158614673Y-102471486D01*
X158556226Y-102438442D01*
X158523048Y-102380071D01*
X158524561Y-102312947D01*
X158560332Y-102256131D01*
X158679732Y-102147285D01*
X158803088Y-101983935D01*
X158803210Y-101983691D01*
X158863046Y-101863523D01*
X158894328Y-101800701D01*
X158950345Y-101603821D01*
X158969232Y-101400000D01*
X158950345Y-101196179D01*
X158894328Y-100999299D01*
X158842801Y-100895819D01*
X158803089Y-100816066D01*
X158750452Y-100746364D01*
X158679732Y-100652715D01*
X158528462Y-100514814D01*
X158447036Y-100464397D01*
X158354428Y-100407056D01*
X158224007Y-100356531D01*
X158163556Y-100333112D01*
X157962347Y-100295500D01*
X157757653Y-100295500D01*
X157639582Y-100317571D01*
X157556443Y-100333112D01*
X157471684Y-100365948D01*
X157424227Y-100374441D01*
X157377055Y-100364490D01*
X157337073Y-100337551D01*
X155479563Y-98480041D01*
X155479532Y-98479995D01*
X155427433Y-98427898D01*
X155378630Y-98379096D01*
X155378628Y-98379094D01*
X155234956Y-98268853D01*
X155078115Y-98178303D01*
X154910805Y-98109003D01*
X154735878Y-98062135D01*
X154556330Y-98038499D01*
X154556329Y-98038499D01*
X154465781Y-98038500D01*
X150266009Y-98038500D01*
X150266003Y-98038499D01*
X150196893Y-98038499D01*
X150184545Y-98037892D01*
X150082397Y-98027833D01*
X150058171Y-98023015D01*
X149965892Y-97995024D01*
X149943075Y-97985573D01*
X149858029Y-97940117D01*
X149837492Y-97926395D01*
X149758215Y-97861335D01*
X149749053Y-97853030D01*
X145913573Y-94017550D01*
X150484160Y-94017550D01*
X150560952Y-94071321D01*
X150772345Y-94169895D01*
X150997641Y-94230262D01*
X151230000Y-94250591D01*
X151462358Y-94230262D01*
X151687654Y-94169895D01*
X151899043Y-94071322D01*
X151975838Y-94017549D01*
X151230000Y-93271710D01*
X151229999Y-93271710D01*
X150484160Y-94017548D01*
X150484160Y-94017550D01*
X145913573Y-94017550D01*
X144808522Y-92912499D01*
X149891908Y-92912499D01*
X149912237Y-93144858D01*
X149972604Y-93370154D01*
X150071180Y-93581549D01*
X150124948Y-93658338D01*
X150870789Y-92912500D01*
X151589210Y-92912500D01*
X152335049Y-93658338D01*
X152388822Y-93581543D01*
X152487395Y-93370154D01*
X152547762Y-93144858D01*
X152568091Y-92912499D01*
X152547762Y-92680141D01*
X152487395Y-92454845D01*
X152388821Y-92243452D01*
X152335050Y-92166660D01*
X152335048Y-92166660D01*
X151589210Y-92912499D01*
X151589210Y-92912500D01*
X150870789Y-92912500D01*
X150870789Y-92912499D01*
X150124949Y-92166659D01*
X150071180Y-92243450D01*
X149972604Y-92454845D01*
X149912237Y-92680141D01*
X149891908Y-92912499D01*
X144808522Y-92912499D01*
X143298117Y-91402094D01*
X143265505Y-91345610D01*
X143265505Y-91280388D01*
X143298117Y-91223904D01*
X144149521Y-90372500D01*
X150145874Y-90372500D01*
X150164333Y-90571704D01*
X150219083Y-90764129D01*
X150308259Y-90943220D01*
X150428820Y-91102868D01*
X150428822Y-91102870D01*
X150576669Y-91237650D01*
X150746764Y-91342969D01*
X150873797Y-91392181D01*
X150924717Y-91428581D01*
X150951839Y-91484995D01*
X150948467Y-91547499D01*
X150915434Y-91600667D01*
X150860891Y-91631378D01*
X150772350Y-91655103D01*
X150560950Y-91753680D01*
X150484159Y-91807449D01*
X151229999Y-92553289D01*
X151230000Y-92553289D01*
X151975838Y-91807448D01*
X151975838Y-91807447D01*
X151899049Y-91753680D01*
X151687655Y-91655105D01*
X151599108Y-91631379D01*
X151544566Y-91600667D01*
X151511532Y-91547499D01*
X151508160Y-91484995D01*
X151535282Y-91428581D01*
X151586202Y-91392181D01*
X151713236Y-91342969D01*
X151883331Y-91237650D01*
X152031178Y-91102870D01*
X152151742Y-90943218D01*
X152240916Y-90764131D01*
X152295666Y-90571707D01*
X152314125Y-90372500D01*
X152295666Y-90173293D01*
X152240916Y-89980869D01*
X152151742Y-89801782D01*
X152042000Y-89656461D01*
X152031179Y-89642131D01*
X152004124Y-89617467D01*
X151883331Y-89507350D01*
X151767988Y-89435932D01*
X151713237Y-89402031D01*
X151526685Y-89329761D01*
X151482968Y-89321589D01*
X151330030Y-89293000D01*
X151129970Y-89293000D01*
X150998866Y-89317507D01*
X150933314Y-89329761D01*
X150746762Y-89402031D01*
X150576670Y-89507349D01*
X150428820Y-89642131D01*
X150308259Y-89801779D01*
X150219083Y-89980870D01*
X150164333Y-90173295D01*
X150145874Y-90372500D01*
X144149521Y-90372500D01*
X146689522Y-87832499D01*
X150145874Y-87832499D01*
X150164333Y-88031704D01*
X150219083Y-88224129D01*
X150308259Y-88403220D01*
X150428820Y-88562868D01*
X150428822Y-88562870D01*
X150576669Y-88697650D01*
X150746764Y-88802969D01*
X150933315Y-88875239D01*
X151129970Y-88912000D01*
X151330028Y-88912000D01*
X151330030Y-88912000D01*
X151526685Y-88875239D01*
X151713236Y-88802969D01*
X151883331Y-88697650D01*
X152031178Y-88562870D01*
X152151742Y-88403218D01*
X152240916Y-88224131D01*
X152295666Y-88031707D01*
X152314125Y-87832500D01*
X152295666Y-87633293D01*
X152240916Y-87440869D01*
X152151742Y-87261782D01*
X152045460Y-87121043D01*
X152031179Y-87102131D01*
X151953086Y-87030940D01*
X151883331Y-86967350D01*
X151801180Y-86916484D01*
X151713237Y-86862031D01*
X151526685Y-86789761D01*
X151526684Y-86789760D01*
X151330030Y-86753000D01*
X151129970Y-86753000D01*
X150998866Y-86777507D01*
X150933314Y-86789761D01*
X150746762Y-86862031D01*
X150576670Y-86967349D01*
X150428820Y-87102131D01*
X150308259Y-87261779D01*
X150219083Y-87440870D01*
X150164333Y-87633295D01*
X150145874Y-87832499D01*
X146689522Y-87832499D01*
X147003677Y-87518344D01*
X149229520Y-85292500D01*
X150145874Y-85292500D01*
X150164333Y-85491704D01*
X150219083Y-85684129D01*
X150308259Y-85863220D01*
X150428820Y-86022868D01*
X150428822Y-86022870D01*
X150576669Y-86157650D01*
X150746764Y-86262969D01*
X150933315Y-86335239D01*
X151129970Y-86372000D01*
X151330028Y-86372000D01*
X151330030Y-86372000D01*
X151526685Y-86335239D01*
X151713236Y-86262969D01*
X151883331Y-86157650D01*
X152031178Y-86022870D01*
X152151742Y-85863218D01*
X152240916Y-85684131D01*
X152295666Y-85491707D01*
X152314125Y-85292500D01*
X152295666Y-85093293D01*
X152240916Y-84900869D01*
X152151742Y-84721782D01*
X152045460Y-84581043D01*
X152031179Y-84562131D01*
X151974541Y-84510499D01*
X151883331Y-84427350D01*
X151813227Y-84383943D01*
X151713237Y-84322031D01*
X151526685Y-84249761D01*
X151497904Y-84244381D01*
X151330030Y-84213000D01*
X151129970Y-84213000D01*
X150998866Y-84237507D01*
X150933314Y-84249761D01*
X150746762Y-84322031D01*
X150576670Y-84427349D01*
X150428820Y-84562131D01*
X150308259Y-84721779D01*
X150219083Y-84900870D01*
X150164333Y-85093295D01*
X150145874Y-85292500D01*
X149229520Y-85292500D01*
X150726400Y-83795620D01*
X150766379Y-83768684D01*
X150813552Y-83758733D01*
X150861006Y-83767226D01*
X150933315Y-83795239D01*
X151129970Y-83832000D01*
X151330028Y-83832000D01*
X151330030Y-83832000D01*
X151526685Y-83795239D01*
X151713236Y-83722969D01*
X151883331Y-83617650D01*
X152031178Y-83482870D01*
X152151742Y-83323218D01*
X152240916Y-83144131D01*
X152295666Y-82951707D01*
X152314125Y-82752500D01*
X152295666Y-82553293D01*
X152240916Y-82360869D01*
X152151742Y-82181782D01*
X152136250Y-82161268D01*
X152031179Y-82022131D01*
X152019933Y-82011879D01*
X151883331Y-81887350D01*
X151817297Y-81846463D01*
X151713237Y-81782031D01*
X151615843Y-81744301D01*
X151586203Y-81732818D01*
X151535282Y-81696417D01*
X151508160Y-81640003D01*
X151511532Y-81577499D01*
X151544566Y-81524331D01*
X151599110Y-81493620D01*
X151687653Y-81469895D01*
X151899043Y-81371322D01*
X151975838Y-81317549D01*
X151230000Y-80571710D01*
X151229999Y-80571710D01*
X150484160Y-81317548D01*
X150484160Y-81317550D01*
X150560952Y-81371321D01*
X150772345Y-81469894D01*
X150860890Y-81493620D01*
X150915433Y-81524331D01*
X150948467Y-81577500D01*
X150951839Y-81640003D01*
X150924717Y-81696417D01*
X150873795Y-81732819D01*
X150746762Y-81782031D01*
X150576670Y-81887349D01*
X150428820Y-82022131D01*
X150308259Y-82181779D01*
X150219083Y-82360870D01*
X150164333Y-82553295D01*
X150145874Y-82752500D01*
X150164333Y-82951704D01*
X150167974Y-82964499D01*
X150211938Y-83119017D01*
X150216488Y-83135006D01*
X150217252Y-83201161D01*
X150184393Y-83258583D01*
X142548382Y-90894595D01*
X142507505Y-90921909D01*
X142459287Y-90931500D01*
X141092999Y-90931500D01*
X141029999Y-90914619D01*
X140983880Y-90868500D01*
X140966999Y-90805500D01*
X140966999Y-90787932D01*
X140952234Y-90713699D01*
X140895984Y-90629515D01*
X140811801Y-90573266D01*
X140803948Y-90571704D01*
X140737566Y-90558500D01*
X138787431Y-90558500D01*
X138713199Y-90573265D01*
X138629015Y-90629515D01*
X138572766Y-90713698D01*
X138558000Y-90787933D01*
X138558000Y-91838068D01*
X138572765Y-91912300D01*
X138629015Y-91996484D01*
X138685264Y-92034068D01*
X138713199Y-92052734D01*
X138787433Y-92067500D01*
X139255000Y-92067500D01*
X139318000Y-92084381D01*
X139364119Y-92130500D01*
X139381000Y-92193500D01*
X139381000Y-93247991D01*
X139380999Y-93247997D01*
X139380999Y-93317106D01*
X139380392Y-93329454D01*
X139370333Y-93431602D01*
X139365515Y-93455828D01*
X139337524Y-93548107D01*
X139328072Y-93570928D01*
X139282618Y-93655969D01*
X139268894Y-93676507D01*
X139203834Y-93755783D01*
X139195539Y-93764937D01*
X139185286Y-93775192D01*
X139185285Y-93775191D01*
X139185282Y-93775195D01*
X139185281Y-93775197D01*
X138312998Y-94647479D01*
X138027512Y-94932965D01*
X138018349Y-94941269D01*
X137939005Y-95006383D01*
X137918468Y-95020106D01*
X137833422Y-95065563D01*
X137810602Y-95075015D01*
X137718328Y-95103005D01*
X137694105Y-95107823D01*
X137639278Y-95113222D01*
X137591849Y-95117893D01*
X137579501Y-95118499D01*
X137510497Y-95118499D01*
X137510491Y-95118500D01*
X136626000Y-95118500D01*
X136563000Y-95101619D01*
X136516881Y-95055500D01*
X136500000Y-94992500D01*
X136500000Y-94733499D01*
X136516881Y-94670499D01*
X136563000Y-94624380D01*
X136626000Y-94607499D01*
X137437568Y-94607499D01*
X137487056Y-94597655D01*
X137511801Y-94592734D01*
X137595984Y-94536484D01*
X137652234Y-94452301D01*
X137667000Y-94378067D01*
X137666999Y-93327934D01*
X137666999Y-93327931D01*
X137652234Y-93253699D01*
X137595984Y-93169515D01*
X137511801Y-93113266D01*
X137511800Y-93113265D01*
X137437567Y-93098500D01*
X137437566Y-93098500D01*
X136970000Y-93098500D01*
X136907000Y-93081619D01*
X136860881Y-93035500D01*
X136844000Y-92972500D01*
X136844000Y-92246563D01*
X136844001Y-92246560D01*
X136844000Y-92197892D01*
X136844607Y-92185545D01*
X136850028Y-92130499D01*
X136854667Y-92083391D01*
X136859482Y-92059178D01*
X136887478Y-91966883D01*
X136896923Y-91944080D01*
X136942387Y-91859019D01*
X136956096Y-91838502D01*
X137021165Y-91759212D01*
X137029447Y-91750074D01*
X137043991Y-91735530D01*
X139172490Y-89607031D01*
X139181644Y-89598735D01*
X139260999Y-89533613D01*
X139281531Y-89519893D01*
X139366581Y-89474434D01*
X139389391Y-89464986D01*
X139481681Y-89436991D01*
X139505882Y-89432178D01*
X139608164Y-89422105D01*
X139620497Y-89421500D01*
X139669060Y-89421501D01*
X139669063Y-89421500D01*
X141521924Y-89421500D01*
X141580477Y-89435932D01*
X141625618Y-89475921D01*
X141626500Y-89477199D01*
X141626501Y-89477200D01*
X141626502Y-89477201D01*
X141745471Y-89582599D01*
X141886207Y-89656463D01*
X142040529Y-89694500D01*
X142199469Y-89694500D01*
X142199471Y-89694500D01*
X142353793Y-89656463D01*
X142494529Y-89582599D01*
X142613498Y-89477201D01*
X142703787Y-89346395D01*
X142760149Y-89197782D01*
X142779307Y-89040000D01*
X142760149Y-88882218D01*
X142703787Y-88733605D01*
X142613498Y-88602799D01*
X142494529Y-88497401D01*
X142387710Y-88441338D01*
X142353795Y-88423538D01*
X142353794Y-88423537D01*
X142353793Y-88423537D01*
X142199471Y-88385500D01*
X142040529Y-88385500D01*
X141886207Y-88423537D01*
X141886206Y-88423537D01*
X141886204Y-88423538D01*
X141745472Y-88497400D01*
X141626500Y-88602800D01*
X141625618Y-88604079D01*
X141580477Y-88644068D01*
X141521924Y-88658500D01*
X139572944Y-88658500D01*
X139572827Y-88658509D01*
X139523669Y-88658509D01*
X139344124Y-88682144D01*
X139169197Y-88729012D01*
X139001885Y-88798313D01*
X138845051Y-88888858D01*
X138701377Y-88999102D01*
X138682363Y-89018114D01*
X138682363Y-89018115D01*
X138682361Y-89018117D01*
X138668225Y-89032253D01*
X138655072Y-89045406D01*
X138655066Y-89045410D01*
X138637348Y-89063129D01*
X138598562Y-89101915D01*
X138598560Y-89101917D01*
X138318987Y-89381490D01*
X138083010Y-89617467D01*
X138024203Y-89650676D01*
X137956694Y-89648748D01*
X137899878Y-89612235D01*
X137870080Y-89551627D01*
X137875859Y-89484338D01*
X137913994Y-89382091D01*
X137920500Y-89321589D01*
X137920500Y-89027000D01*
X136626000Y-89027000D01*
X136563000Y-89010119D01*
X136516881Y-88964000D01*
X136500000Y-88901000D01*
X136500000Y-88645000D01*
X136516881Y-88582000D01*
X136563000Y-88535881D01*
X136626000Y-88519000D01*
X137920500Y-88519000D01*
X137920500Y-88224411D01*
X137913994Y-88163906D01*
X137862945Y-88027037D01*
X137775404Y-87910095D01*
X137658462Y-87822554D01*
X137521593Y-87771505D01*
X137461089Y-87765000D01*
X136626000Y-87765000D01*
X136563000Y-87748119D01*
X136516881Y-87702000D01*
X136500000Y-87639000D01*
X136500000Y-86740500D01*
X136516881Y-86677500D01*
X136563000Y-86631381D01*
X136626000Y-86614500D01*
X138432001Y-86614500D01*
X138495001Y-86631381D01*
X138541120Y-86677500D01*
X138558001Y-86740500D01*
X138558001Y-86758068D01*
X138572765Y-86832300D01*
X138629015Y-86916484D01*
X138685265Y-86954068D01*
X138713199Y-86972734D01*
X138787433Y-86987500D01*
X140737566Y-86987499D01*
X140737568Y-86987499D01*
X140787055Y-86977655D01*
X140811801Y-86972734D01*
X140895984Y-86916484D01*
X140952234Y-86832301D01*
X140967000Y-86758067D01*
X140966999Y-85707934D01*
X140966999Y-85707933D01*
X140966999Y-85707931D01*
X140952234Y-85633699D01*
X140895984Y-85549515D01*
X140811801Y-85493266D01*
X140803948Y-85491704D01*
X140737566Y-85478500D01*
X138787431Y-85478500D01*
X138713199Y-85493265D01*
X138629015Y-85549515D01*
X138572766Y-85633698D01*
X138572765Y-85633699D01*
X138572766Y-85633699D01*
X138558001Y-85707931D01*
X138558000Y-85707934D01*
X138558000Y-85725500D01*
X138541119Y-85788500D01*
X138495000Y-85834619D01*
X138432000Y-85851500D01*
X136626000Y-85851500D01*
X136563000Y-85834619D01*
X136516881Y-85788500D01*
X136500000Y-85725500D01*
X136500000Y-84573499D01*
X136516881Y-84510499D01*
X136563000Y-84464380D01*
X136626000Y-84447499D01*
X137437568Y-84447499D01*
X137487056Y-84437655D01*
X137511801Y-84432734D01*
X137595984Y-84376484D01*
X137652234Y-84292301D01*
X137667000Y-84218067D01*
X137667000Y-84200500D01*
X137683881Y-84137500D01*
X137730000Y-84091381D01*
X137793000Y-84074500D01*
X142275311Y-84074500D01*
X142275421Y-84074490D01*
X142323329Y-84074491D01*
X142502876Y-84050856D01*
X142677802Y-84003987D01*
X142845114Y-83934686D01*
X142845113Y-83934686D01*
X143001944Y-83844143D01*
X143001944Y-83844142D01*
X143001949Y-83844140D01*
X143145623Y-83733897D01*
X143154263Y-83725256D01*
X143154268Y-83725253D01*
X143164637Y-83714883D01*
X143164639Y-83714883D01*
X143191928Y-83687593D01*
X143191932Y-83687591D01*
X143258805Y-83620718D01*
X143258812Y-83620708D01*
X146667021Y-80212500D01*
X149891908Y-80212500D01*
X149912237Y-80444858D01*
X149972604Y-80670154D01*
X150071180Y-80881549D01*
X150124948Y-80958338D01*
X150870789Y-80212500D01*
X151589210Y-80212500D01*
X152335049Y-80958338D01*
X152388822Y-80881543D01*
X152487395Y-80670154D01*
X152547762Y-80444858D01*
X152568091Y-80212500D01*
X152547762Y-79980141D01*
X152487395Y-79754845D01*
X152388821Y-79543452D01*
X152335050Y-79466660D01*
X152335048Y-79466660D01*
X151589210Y-80212499D01*
X151589210Y-80212500D01*
X150870789Y-80212500D01*
X150870789Y-80212499D01*
X150124949Y-79466659D01*
X150071180Y-79543450D01*
X149972604Y-79754845D01*
X149912237Y-79980141D01*
X149891908Y-80212500D01*
X146667021Y-80212500D01*
X148627273Y-78252249D01*
X148639991Y-78239532D01*
X148649145Y-78231234D01*
X148728499Y-78166112D01*
X148749026Y-78152395D01*
X148834081Y-78106934D01*
X148856891Y-78097486D01*
X148949181Y-78069491D01*
X148973382Y-78064678D01*
X149075664Y-78054605D01*
X149087997Y-78054000D01*
X149136560Y-78054001D01*
X149136563Y-78054000D01*
X150024501Y-78054000D01*
X150087501Y-78070881D01*
X150133620Y-78117000D01*
X150150501Y-78180000D01*
X150150501Y-78522568D01*
X150165265Y-78596800D01*
X150221515Y-78680984D01*
X150277764Y-78718568D01*
X150305699Y-78737234D01*
X150379933Y-78752000D01*
X150639559Y-78751999D01*
X150704450Y-78769996D01*
X150750807Y-78818845D01*
X150765383Y-78884593D01*
X150744015Y-78948457D01*
X150692807Y-78992193D01*
X150560953Y-79053678D01*
X150484159Y-79107449D01*
X151229999Y-79853289D01*
X151230000Y-79853289D01*
X151975838Y-79107448D01*
X151975838Y-79107447D01*
X151899049Y-79053680D01*
X151767192Y-78992194D01*
X151715983Y-78948457D01*
X151694615Y-78884593D01*
X151709191Y-78818846D01*
X151755547Y-78769996D01*
X151820441Y-78751999D01*
X152080066Y-78751999D01*
X152080068Y-78751999D01*
X152129556Y-78742155D01*
X152154301Y-78737234D01*
X152238484Y-78680984D01*
X152294734Y-78596801D01*
X152309500Y-78522567D01*
X152309499Y-76822434D01*
X152309499Y-76822433D01*
X152309499Y-76822431D01*
X152294734Y-76748199D01*
X152238484Y-76664015D01*
X152217507Y-76649999D01*
X170124610Y-76649999D01*
X170144120Y-76848093D01*
X170201902Y-77038571D01*
X170295734Y-77214119D01*
X170422011Y-77367988D01*
X170557540Y-77479214D01*
X170575880Y-77494265D01*
X170751427Y-77588097D01*
X170846666Y-77616987D01*
X170941906Y-77645879D01*
X171140000Y-77665389D01*
X171338093Y-77645879D01*
X171528573Y-77588097D01*
X171704120Y-77494265D01*
X171857988Y-77367988D01*
X171984265Y-77214120D01*
X172078097Y-77038573D01*
X172135879Y-76848093D01*
X172155389Y-76650000D01*
X172151229Y-76607766D01*
X172135879Y-76451906D01*
X172088557Y-76295909D01*
X172078097Y-76261427D01*
X171984265Y-76085880D01*
X171857988Y-75932011D01*
X171704119Y-75805734D01*
X171528571Y-75711902D01*
X171338093Y-75654120D01*
X171140000Y-75634610D01*
X170941906Y-75654120D01*
X170751428Y-75711902D01*
X170575880Y-75805734D01*
X170422011Y-75932011D01*
X170295734Y-76085880D01*
X170201902Y-76261428D01*
X170144120Y-76451906D01*
X170124610Y-76649999D01*
X152217507Y-76649999D01*
X152154301Y-76607766D01*
X152154296Y-76607765D01*
X152080066Y-76593000D01*
X150379931Y-76593000D01*
X150305699Y-76607765D01*
X150221515Y-76664015D01*
X150165266Y-76748198D01*
X150165265Y-76748199D01*
X150165266Y-76748199D01*
X150150501Y-76822431D01*
X150150500Y-76822434D01*
X150150500Y-77165000D01*
X150133619Y-77228000D01*
X150087500Y-77274119D01*
X150024500Y-77291000D01*
X149040444Y-77291000D01*
X149040327Y-77291009D01*
X148991169Y-77291009D01*
X148811624Y-77314644D01*
X148636697Y-77361512D01*
X148469385Y-77430813D01*
X148312551Y-77521358D01*
X148168877Y-77631602D01*
X148160979Y-77639500D01*
X148149863Y-77650615D01*
X148149861Y-77650617D01*
X148135089Y-77665389D01*
X148122572Y-77677906D01*
X148122566Y-77677910D01*
X148104848Y-77695629D01*
X148066062Y-77734415D01*
X148066060Y-77734417D01*
X142674512Y-83125964D01*
X142665349Y-83134269D01*
X142586005Y-83199383D01*
X142565468Y-83213106D01*
X142480422Y-83258563D01*
X142457602Y-83268015D01*
X142365328Y-83296005D01*
X142341105Y-83300823D01*
X142286278Y-83306222D01*
X142238849Y-83310893D01*
X142226501Y-83311499D01*
X142157497Y-83311499D01*
X142157491Y-83311500D01*
X137792999Y-83311500D01*
X137729999Y-83294619D01*
X137683880Y-83248500D01*
X137666999Y-83185500D01*
X137666999Y-83167932D01*
X137652234Y-83093699D01*
X137595984Y-83009515D01*
X137511801Y-82953266D01*
X137493054Y-82949537D01*
X137437567Y-82938500D01*
X137437566Y-82938500D01*
X136626000Y-82938500D01*
X136563000Y-82921619D01*
X136516881Y-82875500D01*
X136500000Y-82812500D01*
X136500000Y-74376000D01*
X136516881Y-74313000D01*
X136563000Y-74266881D01*
X136626000Y-74250000D01*
X177624000Y-74250000D01*
X177687000Y-74266881D01*
X177733119Y-74313000D01*
X177750000Y-74376000D01*
X177750000Y-116624000D01*
X177733119Y-116687000D01*
X177687000Y-116733119D01*
X177624000Y-116750000D01*
X99376000Y-116750000D01*
X99313000Y-116733119D01*
X99266881Y-116687000D01*
X99250000Y-116624000D01*
X99250000Y-113354506D01*
X99268803Y-113288288D01*
X99319600Y-113241834D01*
X99387230Y-113229007D01*
X99451509Y-113253638D01*
X99514037Y-113300445D01*
X99650906Y-113351494D01*
X99711411Y-113358000D01*
X100281000Y-113358000D01*
X100281000Y-112454000D01*
X100789000Y-112454000D01*
X100789000Y-113358000D01*
X101358589Y-113358000D01*
X101419093Y-113351494D01*
X101555962Y-113300445D01*
X101672904Y-113212904D01*
X101760445Y-113095962D01*
X101811494Y-112959093D01*
X101818000Y-112898589D01*
X101818000Y-112454000D01*
X107202000Y-112454000D01*
X107202000Y-112898589D01*
X107208505Y-112959093D01*
X107259554Y-113095962D01*
X107347095Y-113212904D01*
X107464037Y-113300445D01*
X107600906Y-113351494D01*
X107661411Y-113358000D01*
X108231000Y-113358000D01*
X108739000Y-113358000D01*
X109308589Y-113358000D01*
X109369093Y-113351494D01*
X109505962Y-113300445D01*
X109622904Y-113212904D01*
X109710445Y-113095962D01*
X109761494Y-112959093D01*
X109768000Y-112898589D01*
X109768000Y-112860427D01*
X109786803Y-112794209D01*
X109837600Y-112747755D01*
X109905230Y-112734928D01*
X109969508Y-112759558D01*
X109976037Y-112764445D01*
X110112906Y-112815494D01*
X110173411Y-112822000D01*
X110618000Y-112822000D01*
X110618000Y-112218000D01*
X111126000Y-112218000D01*
X111126000Y-112822000D01*
X111570589Y-112822000D01*
X111631093Y-112815494D01*
X111767962Y-112764445D01*
X111884904Y-112676904D01*
X111972445Y-112559962D01*
X112023494Y-112423093D01*
X112030000Y-112362589D01*
X112030000Y-112218000D01*
X111126000Y-112218000D01*
X110618000Y-112218000D01*
X109808000Y-112218000D01*
X109808000Y-112328000D01*
X109791119Y-112391000D01*
X109745000Y-112437119D01*
X109682000Y-112454000D01*
X108739000Y-112454000D01*
X108739000Y-113358000D01*
X108231000Y-113358000D01*
X108231000Y-112454000D01*
X107202000Y-112454000D01*
X101818000Y-112454000D01*
X100789000Y-112454000D01*
X100281000Y-112454000D01*
X100281000Y-111042000D01*
X100789000Y-111042000D01*
X100789000Y-111946000D01*
X101818000Y-111946000D01*
X107202000Y-111946000D01*
X108231000Y-111946000D01*
X108231000Y-111042000D01*
X107661411Y-111042000D01*
X107600906Y-111048505D01*
X107464037Y-111099554D01*
X107347095Y-111187095D01*
X107259554Y-111304037D01*
X107208505Y-111440906D01*
X107202000Y-111501411D01*
X107202000Y-111946000D01*
X101818000Y-111946000D01*
X101818000Y-111501411D01*
X101811494Y-111440906D01*
X101760445Y-111304037D01*
X101672904Y-111187095D01*
X101555962Y-111099554D01*
X101419093Y-111048505D01*
X101358589Y-111042000D01*
X100789000Y-111042000D01*
X100281000Y-111042000D01*
X99711411Y-111042000D01*
X99650906Y-111048505D01*
X99514037Y-111099554D01*
X99451509Y-111146362D01*
X99387230Y-111170993D01*
X99319600Y-111158166D01*
X99268803Y-111111712D01*
X99250000Y-111045494D01*
X99250000Y-74376000D01*
X99266881Y-74313000D01*
X99313000Y-74266881D01*
X99376000Y-74250000D01*
X126124000Y-74250000D01*
X126187000Y-74266881D01*
G37*
%TD.AperFunction*%
%TA.AperFunction,Conductor*%
G36*
X142507506Y-91704091D02*
G01*
X142548383Y-91731405D01*
X149175061Y-98358084D01*
X149178924Y-98361947D01*
X149178955Y-98361992D01*
X149277871Y-98460905D01*
X149384379Y-98542630D01*
X149421546Y-98571148D01*
X149550225Y-98645439D01*
X149578384Y-98661696D01*
X149745694Y-98730996D01*
X149792562Y-98743553D01*
X149920622Y-98777865D01*
X150100171Y-98801501D01*
X150190719Y-98801500D01*
X154410937Y-98801500D01*
X154410940Y-98801501D01*
X154459606Y-98801500D01*
X154471954Y-98802107D01*
X154484614Y-98803353D01*
X154574106Y-98812166D01*
X154598323Y-98816983D01*
X154690612Y-98844977D01*
X154713419Y-98854423D01*
X154798472Y-98899883D01*
X154819007Y-98913604D01*
X154898279Y-98978660D01*
X154907438Y-98986961D01*
X154920915Y-99000437D01*
X154920914Y-99000437D01*
X154920916Y-99000438D01*
X156794158Y-100873680D01*
X156827017Y-100931102D01*
X156826253Y-100997256D01*
X156769654Y-101196180D01*
X156750767Y-101399999D01*
X156769654Y-101603819D01*
X156825672Y-101800702D01*
X156916910Y-101983933D01*
X156959140Y-102039854D01*
X157040268Y-102147285D01*
X157185175Y-102279385D01*
X157218602Y-102329163D01*
X157225236Y-102388754D01*
X157203576Y-102444665D01*
X157158527Y-102484233D01*
X157100289Y-102498500D01*
X156079711Y-102498500D01*
X156021473Y-102484233D01*
X155976424Y-102444665D01*
X155954764Y-102388754D01*
X155961398Y-102329163D01*
X155994825Y-102279385D01*
X156139732Y-102147285D01*
X156263088Y-101983935D01*
X156263210Y-101983691D01*
X156323046Y-101863523D01*
X156354328Y-101800701D01*
X156410345Y-101603821D01*
X156429232Y-101400000D01*
X156410345Y-101196179D01*
X156354328Y-100999299D01*
X156302801Y-100895819D01*
X156263089Y-100816066D01*
X156210452Y-100746364D01*
X156139732Y-100652715D01*
X155988462Y-100514814D01*
X155907036Y-100464397D01*
X155814428Y-100407056D01*
X155684007Y-100356531D01*
X155623556Y-100333112D01*
X155422347Y-100295500D01*
X155217653Y-100295500D01*
X155016444Y-100333111D01*
X155016444Y-100333112D01*
X154825571Y-100407056D01*
X154651539Y-100514813D01*
X154651537Y-100514814D01*
X154651538Y-100514814D01*
X154536086Y-100620063D01*
X154500267Y-100652716D01*
X154376910Y-100816066D01*
X154285672Y-100999297D01*
X154229654Y-101196180D01*
X154210767Y-101399999D01*
X154229654Y-101603819D01*
X154285672Y-101800702D01*
X154376910Y-101983933D01*
X154419140Y-102039854D01*
X154500268Y-102147285D01*
X154645175Y-102279385D01*
X154678602Y-102329163D01*
X154685236Y-102388754D01*
X154663576Y-102444665D01*
X154618527Y-102484233D01*
X154560289Y-102498500D01*
X143657444Y-102498500D01*
X143657327Y-102498509D01*
X143608169Y-102498509D01*
X143428624Y-102522144D01*
X143253697Y-102569012D01*
X143086385Y-102638313D01*
X142929551Y-102728858D01*
X142785876Y-102839103D01*
X142773192Y-102851786D01*
X142773164Y-102851811D01*
X139797345Y-105827630D01*
X139750169Y-105857358D01*
X139694782Y-105863813D01*
X139626757Y-105856500D01*
X139030240Y-105856500D01*
X138962212Y-105863813D01*
X138906827Y-105857357D01*
X138859652Y-105827630D01*
X138256063Y-105224041D01*
X138256032Y-105223995D01*
X138205357Y-105173322D01*
X138155130Y-105123096D01*
X138155128Y-105123094D01*
X138011456Y-105012853D01*
X137854615Y-104922303D01*
X137687305Y-104853003D01*
X137512378Y-104806135D01*
X137332830Y-104782499D01*
X137332829Y-104782499D01*
X137242281Y-104782500D01*
X131344944Y-104782500D01*
X131344827Y-104782509D01*
X131295669Y-104782509D01*
X131116124Y-104806144D01*
X130941197Y-104853012D01*
X130773885Y-104922313D01*
X130617051Y-105012858D01*
X130473376Y-105123103D01*
X130460692Y-105135786D01*
X130460678Y-105135798D01*
X129776879Y-105819596D01*
X129736002Y-105846909D01*
X129687784Y-105856500D01*
X129278240Y-105856500D01*
X129210212Y-105863813D01*
X129154827Y-105857357D01*
X129107652Y-105827630D01*
X128504063Y-105224041D01*
X128504032Y-105223995D01*
X128453357Y-105173322D01*
X128403130Y-105123096D01*
X128403128Y-105123094D01*
X128259456Y-105012853D01*
X128102615Y-104922303D01*
X127935305Y-104853003D01*
X127760378Y-104806135D01*
X127580830Y-104782499D01*
X127580829Y-104782499D01*
X127490281Y-104782500D01*
X124935394Y-104782500D01*
X124870615Y-104764572D01*
X124824269Y-104715891D01*
X124809546Y-104650309D01*
X124816454Y-104629401D01*
X124813844Y-104628882D01*
X124818732Y-104604302D01*
X124818734Y-104604301D01*
X124833500Y-104530067D01*
X124833499Y-101969934D01*
X124833499Y-101969932D01*
X124833499Y-101969931D01*
X124818734Y-101895699D01*
X124762484Y-101811515D01*
X124678301Y-101755266D01*
X124678300Y-101755265D01*
X124604067Y-101740500D01*
X124604066Y-101740500D01*
X124573338Y-101740500D01*
X124515157Y-101726263D01*
X124470124Y-101686769D01*
X124448416Y-101630944D01*
X124436856Y-101543124D01*
X124395422Y-101388484D01*
X124389987Y-101368197D01*
X124320686Y-101200885D01*
X124230141Y-101044051D01*
X124119897Y-100900377D01*
X124115339Y-100895819D01*
X124115331Y-100895808D01*
X124073595Y-100854072D01*
X124073594Y-100854070D01*
X124008270Y-100788746D01*
X124008259Y-100788737D01*
X123451990Y-100232467D01*
X123421978Y-100184473D01*
X123416005Y-100128184D01*
X123419269Y-100101303D01*
X123421580Y-100082273D01*
X123402422Y-99924491D01*
X123346060Y-99775878D01*
X123255771Y-99645072D01*
X123136802Y-99539674D01*
X123135072Y-99538766D01*
X123123189Y-99532529D01*
X123079142Y-99494095D01*
X123057181Y-99439920D01*
X123062032Y-99381664D01*
X123092650Y-99331870D01*
X126034904Y-96389617D01*
X126085064Y-96358879D01*
X126143711Y-96354263D01*
X126198061Y-96376776D01*
X126236267Y-96421509D01*
X126250000Y-96478712D01*
X126250000Y-98314501D01*
X126233119Y-98377501D01*
X126187000Y-98423620D01*
X126124000Y-98440501D01*
X126093932Y-98440501D01*
X126019699Y-98455265D01*
X125935515Y-98511515D01*
X125879266Y-98595698D01*
X125864500Y-98669933D01*
X125864500Y-101230068D01*
X125879265Y-101304300D01*
X125935515Y-101388484D01*
X125991764Y-101426068D01*
X126019699Y-101444734D01*
X126093933Y-101459500D01*
X126124000Y-101459500D01*
X126187000Y-101476381D01*
X126233119Y-101522500D01*
X126250000Y-101585499D01*
X126250000Y-104000000D01*
X136500000Y-104000000D01*
X136500000Y-103530478D01*
X136512165Y-103476463D01*
X136546312Y-103432878D01*
X136595841Y-103408141D01*
X136683793Y-103386463D01*
X136824529Y-103312599D01*
X136943498Y-103207201D01*
X137033787Y-103076395D01*
X137090149Y-102927782D01*
X137109307Y-102770000D01*
X137090149Y-102612218D01*
X137033787Y-102463605D01*
X136943498Y-102332799D01*
X136886446Y-102282255D01*
X136855100Y-102239655D01*
X136844000Y-102187943D01*
X136844000Y-99813499D01*
X136860881Y-99750499D01*
X136907000Y-99704380D01*
X136970000Y-99687499D01*
X137437568Y-99687499D01*
X137487055Y-99677655D01*
X137511801Y-99672734D01*
X137595984Y-99616484D01*
X137652234Y-99532301D01*
X137667000Y-99458067D01*
X137666999Y-99023209D01*
X137680732Y-98966008D01*
X137718938Y-98921275D01*
X137773288Y-98898762D01*
X137831935Y-98903378D01*
X137882094Y-98934116D01*
X139176782Y-100228804D01*
X139195470Y-100247493D01*
X139203772Y-100256654D01*
X139268883Y-100335994D01*
X139282606Y-100356531D01*
X139328063Y-100441577D01*
X139337515Y-100464397D01*
X139365279Y-100555925D01*
X139368849Y-100614042D01*
X139345908Y-100667558D01*
X139301355Y-100705046D01*
X139244704Y-100718500D01*
X138787431Y-100718500D01*
X138713199Y-100733265D01*
X138629015Y-100789515D01*
X138572766Y-100873698D01*
X138558000Y-100947933D01*
X138558000Y-101998068D01*
X138572765Y-102072300D01*
X138629015Y-102156484D01*
X138676097Y-102187943D01*
X138713199Y-102212734D01*
X138787433Y-102227500D01*
X140737566Y-102227499D01*
X140737568Y-102227499D01*
X140787055Y-102217655D01*
X140811801Y-102212734D01*
X140895984Y-102156484D01*
X140952234Y-102072301D01*
X140967000Y-101998067D01*
X140966999Y-100947934D01*
X140966999Y-100947933D01*
X140966999Y-100947931D01*
X140952234Y-100873699D01*
X140895984Y-100789515D01*
X140811801Y-100733266D01*
X140794130Y-100729751D01*
X140737567Y-100718500D01*
X140737566Y-100718500D01*
X140269991Y-100718500D01*
X140206991Y-100701619D01*
X140160872Y-100655500D01*
X140147744Y-100606507D01*
X140145069Y-100606860D01*
X140132952Y-100514813D01*
X140120356Y-100419124D01*
X140078103Y-100261427D01*
X140073487Y-100244197D01*
X140004186Y-100076885D01*
X139913641Y-99920051D01*
X139803397Y-99776377D01*
X139798839Y-99771819D01*
X139798831Y-99771808D01*
X139757095Y-99730072D01*
X139757094Y-99730070D01*
X139691768Y-99664744D01*
X139691757Y-99664735D01*
X136837063Y-96810041D01*
X136837032Y-96809995D01*
X136736128Y-96709094D01*
X136592453Y-96598851D01*
X136563002Y-96581848D01*
X136516881Y-96535729D01*
X136500000Y-96472728D01*
X136500000Y-96007500D01*
X136516881Y-95944500D01*
X136563000Y-95898381D01*
X136626000Y-95881500D01*
X137628311Y-95881500D01*
X137628421Y-95881490D01*
X137676329Y-95881491D01*
X137855876Y-95857856D01*
X138030802Y-95810987D01*
X138198114Y-95741686D01*
X138354949Y-95651140D01*
X138391964Y-95622737D01*
X138457135Y-95597230D01*
X138525867Y-95610433D01*
X138576950Y-95658276D01*
X138594623Y-95725997D01*
X138573433Y-95792701D01*
X138572766Y-95793698D01*
X138558000Y-95867933D01*
X138558000Y-96918068D01*
X138572765Y-96992300D01*
X138629015Y-97076484D01*
X138685265Y-97114068D01*
X138713199Y-97132734D01*
X138787433Y-97147500D01*
X140737566Y-97147499D01*
X140737568Y-97147499D01*
X140788829Y-97137303D01*
X140811801Y-97132734D01*
X140895984Y-97076484D01*
X140952234Y-96992301D01*
X140967000Y-96918067D01*
X140966999Y-96124711D01*
X140976590Y-96076494D01*
X141003901Y-96035620D01*
X142348116Y-94691405D01*
X142388994Y-94664091D01*
X142437212Y-94654500D01*
X142579469Y-94654500D01*
X142579471Y-94654500D01*
X142733793Y-94616463D01*
X142874529Y-94542599D01*
X142993498Y-94437201D01*
X143083787Y-94306395D01*
X143140149Y-94157782D01*
X143159307Y-94000000D01*
X143140149Y-93842218D01*
X143083787Y-93693605D01*
X142993498Y-93562799D01*
X142874529Y-93457401D01*
X142733793Y-93383537D01*
X142579471Y-93345500D01*
X142420529Y-93345500D01*
X142266207Y-93383537D01*
X142266206Y-93383537D01*
X142266204Y-93383538D01*
X142125472Y-93457400D01*
X142006501Y-93562799D01*
X141916212Y-93693605D01*
X141859850Y-93842219D01*
X141840693Y-93999997D01*
X141846268Y-94045914D01*
X141840293Y-94102202D01*
X141810281Y-94150195D01*
X140358880Y-95601595D01*
X140318003Y-95628909D01*
X140269785Y-95638500D01*
X138787435Y-95638500D01*
X138712458Y-95653413D01*
X138648941Y-95649665D01*
X138595353Y-95615359D01*
X138565360Y-95559243D01*
X138566612Y-95495627D01*
X138598786Y-95440736D01*
X138601438Y-95438085D01*
X138601438Y-95438083D01*
X138611807Y-95427715D01*
X138611810Y-95427710D01*
X139704451Y-94335071D01*
X139704493Y-94335043D01*
X139739377Y-94300157D01*
X139739378Y-94300158D01*
X139803404Y-94236130D01*
X139913648Y-94092454D01*
X140004195Y-93935618D01*
X140073496Y-93768305D01*
X140120365Y-93593378D01*
X140144001Y-93413829D01*
X140144000Y-93323281D01*
X140144000Y-92193499D01*
X140160881Y-92130499D01*
X140207000Y-92084380D01*
X140270000Y-92067499D01*
X140737568Y-92067499D01*
X140787056Y-92057655D01*
X140811801Y-92052734D01*
X140895984Y-91996484D01*
X140952234Y-91912301D01*
X140967000Y-91838067D01*
X140967000Y-91820500D01*
X140983881Y-91757500D01*
X141030000Y-91711381D01*
X141093000Y-91694500D01*
X142459288Y-91694500D01*
X142507506Y-91704091D01*
G37*
%TD.AperFunction*%
%TA.AperFunction,Conductor*%
G36*
X110333940Y-83947501D02*
G01*
X110382606Y-83947500D01*
X110394954Y-83948107D01*
X110407614Y-83949353D01*
X110497106Y-83958166D01*
X110521323Y-83962983D01*
X110613612Y-83990977D01*
X110636419Y-84000423D01*
X110721472Y-84045883D01*
X110742007Y-84059604D01*
X110821279Y-84124660D01*
X110830438Y-84132961D01*
X110842977Y-84145499D01*
X110842976Y-84145499D01*
X110842978Y-84145500D01*
X112868561Y-86171084D01*
X112872424Y-86174947D01*
X112872455Y-86174992D01*
X112971371Y-86273905D01*
X113069808Y-86349437D01*
X113115046Y-86384148D01*
X113271882Y-86474695D01*
X113271884Y-86474696D01*
X113439194Y-86543996D01*
X113486062Y-86556553D01*
X113614122Y-86590865D01*
X113793671Y-86614501D01*
X113884219Y-86614500D01*
X126124000Y-86614500D01*
X126187000Y-86631381D01*
X126233119Y-86677500D01*
X126250000Y-86740500D01*
X126250000Y-93345500D01*
X126233119Y-93408500D01*
X126187000Y-93454619D01*
X126124000Y-93471500D01*
X125695944Y-93471500D01*
X125695827Y-93471509D01*
X125646669Y-93471509D01*
X125467124Y-93495144D01*
X125292197Y-93542012D01*
X125124885Y-93611313D01*
X124968051Y-93701858D01*
X124824376Y-93812103D01*
X124811692Y-93824786D01*
X124811664Y-93824811D01*
X119847881Y-98788595D01*
X119807004Y-98815909D01*
X119758786Y-98825500D01*
X119749471Y-98825500D01*
X119590529Y-98825500D01*
X119436207Y-98863537D01*
X119436206Y-98863537D01*
X119436204Y-98863538D01*
X119295472Y-98937400D01*
X119176501Y-99042799D01*
X119086212Y-99173605D01*
X119029850Y-99322219D01*
X119010692Y-99480000D01*
X119016266Y-99525901D01*
X119010293Y-99582188D01*
X118980284Y-99630180D01*
X118958095Y-99652370D01*
X118847853Y-99796043D01*
X118757303Y-99952884D01*
X118688003Y-100120194D01*
X118641135Y-100295121D01*
X118617499Y-100474669D01*
X118617500Y-100522653D01*
X118617500Y-101614501D01*
X118600619Y-101677501D01*
X118554500Y-101723620D01*
X118491500Y-101740501D01*
X118473932Y-101740501D01*
X118399699Y-101755265D01*
X118315515Y-101811515D01*
X118259266Y-101895698D01*
X118259265Y-101895699D01*
X118259266Y-101895699D01*
X118244501Y-101969931D01*
X118244500Y-101969934D01*
X118244500Y-103964787D01*
X118230767Y-104021990D01*
X118192561Y-104066723D01*
X118138211Y-104089236D01*
X118079564Y-104084620D01*
X118029405Y-104053882D01*
X117026035Y-103050512D01*
X117017730Y-103041349D01*
X116952616Y-102962005D01*
X116938893Y-102941468D01*
X116937575Y-102939003D01*
X116893435Y-102856421D01*
X116883984Y-102833602D01*
X116882730Y-102829467D01*
X116855992Y-102741320D01*
X116851177Y-102717115D01*
X116841105Y-102614836D01*
X116840500Y-102602499D01*
X116840501Y-102553940D01*
X116840500Y-102553937D01*
X116840500Y-101585499D01*
X116857381Y-101522499D01*
X116903500Y-101476380D01*
X116966500Y-101459499D01*
X116984068Y-101459499D01*
X117033556Y-101449655D01*
X117058301Y-101444734D01*
X117142484Y-101388484D01*
X117198734Y-101304301D01*
X117213500Y-101230067D01*
X117213499Y-98669934D01*
X117213499Y-98669932D01*
X117213499Y-98669931D01*
X117198734Y-98595699D01*
X117142484Y-98511515D01*
X117058301Y-98455266D01*
X117058296Y-98455265D01*
X116984066Y-98440500D01*
X115933931Y-98440500D01*
X115859699Y-98455265D01*
X115775515Y-98511515D01*
X115719266Y-98595698D01*
X115704500Y-98669933D01*
X115704500Y-101230068D01*
X115719265Y-101304300D01*
X115775515Y-101388484D01*
X115831764Y-101426068D01*
X115859699Y-101444734D01*
X115933933Y-101459500D01*
X115951500Y-101459500D01*
X116014500Y-101476381D01*
X116060619Y-101522500D01*
X116077500Y-101585500D01*
X116077500Y-102650225D01*
X116077509Y-102650340D01*
X116077509Y-102699332D01*
X116084860Y-102755176D01*
X116077862Y-102816003D01*
X116043018Y-102866350D01*
X115988555Y-102894327D01*
X115927334Y-102893329D01*
X115922876Y-102892134D01*
X115743330Y-102868499D01*
X115743329Y-102868499D01*
X115652781Y-102868500D01*
X114799499Y-102868500D01*
X114736499Y-102851619D01*
X114690380Y-102805500D01*
X114673499Y-102742500D01*
X114673499Y-101969932D01*
X114658734Y-101895699D01*
X114602484Y-101811515D01*
X114518301Y-101755266D01*
X114518300Y-101755265D01*
X114444066Y-101740500D01*
X113393931Y-101740500D01*
X113319699Y-101755265D01*
X113235515Y-101811515D01*
X113179266Y-101895698D01*
X113164500Y-101969933D01*
X113164500Y-104530068D01*
X113179265Y-104604300D01*
X113235515Y-104688484D01*
X113276533Y-104715891D01*
X113319699Y-104744734D01*
X113391023Y-104758921D01*
X113446375Y-104785101D01*
X113482850Y-104834282D01*
X113491834Y-104894850D01*
X113471206Y-104952502D01*
X113425837Y-104993622D01*
X113366441Y-105008500D01*
X113118509Y-105008500D01*
X113118503Y-105008499D01*
X113049393Y-105008499D01*
X113037045Y-105007892D01*
X112934897Y-104997833D01*
X112910671Y-104993015D01*
X112818392Y-104965024D01*
X112795575Y-104955573D01*
X112710529Y-104910117D01*
X112689992Y-104896395D01*
X112610715Y-104831335D01*
X112601553Y-104823030D01*
X111086575Y-103308052D01*
X111086546Y-103308009D01*
X110987628Y-103209094D01*
X110843956Y-103098853D01*
X110687115Y-103008303D01*
X110519805Y-102939003D01*
X110344878Y-102892135D01*
X110165330Y-102868499D01*
X110165329Y-102868499D01*
X110074781Y-102868500D01*
X109719499Y-102868500D01*
X109656499Y-102851619D01*
X109610380Y-102805500D01*
X109593499Y-102742500D01*
X109593499Y-101969932D01*
X109578734Y-101895699D01*
X109522484Y-101811515D01*
X109438301Y-101755266D01*
X109438300Y-101755265D01*
X109364067Y-101740500D01*
X109364066Y-101740500D01*
X109346500Y-101740500D01*
X109283500Y-101723619D01*
X109237381Y-101677500D01*
X109220500Y-101614500D01*
X109220500Y-100204000D01*
X110371000Y-100204000D01*
X110371000Y-101253589D01*
X110377505Y-101314093D01*
X110428554Y-101450962D01*
X110516095Y-101567904D01*
X110633037Y-101655445D01*
X110769906Y-101706494D01*
X110830411Y-101713000D01*
X111125000Y-101713000D01*
X111125000Y-100204000D01*
X111633000Y-100204000D01*
X111633000Y-101713000D01*
X111927589Y-101713000D01*
X111988093Y-101706494D01*
X112124962Y-101655445D01*
X112241904Y-101567904D01*
X112329445Y-101450962D01*
X112380494Y-101314093D01*
X112387000Y-101253589D01*
X112387000Y-100204000D01*
X111633000Y-100204000D01*
X111125000Y-100204000D01*
X110371000Y-100204000D01*
X109220500Y-100204000D01*
X109220500Y-99696000D01*
X110371000Y-99696000D01*
X111125000Y-99696000D01*
X111125000Y-98187000D01*
X111633000Y-98187000D01*
X111633000Y-99696000D01*
X112387000Y-99696000D01*
X112387000Y-98646411D01*
X112380494Y-98585906D01*
X112329445Y-98449037D01*
X112241904Y-98332095D01*
X112124962Y-98244554D01*
X111988093Y-98193505D01*
X111927589Y-98187000D01*
X111633000Y-98187000D01*
X111125000Y-98187000D01*
X110830411Y-98187000D01*
X110769906Y-98193505D01*
X110633037Y-98244554D01*
X110516095Y-98332095D01*
X110428554Y-98449037D01*
X110377505Y-98585906D01*
X110371000Y-98646411D01*
X110371000Y-99696000D01*
X109220500Y-99696000D01*
X109220500Y-99630063D01*
X109220501Y-99630060D01*
X109220500Y-99581392D01*
X109221107Y-99569045D01*
X109223999Y-99539674D01*
X109231167Y-99466891D01*
X109235982Y-99442678D01*
X109263978Y-99350383D01*
X109273423Y-99327580D01*
X109318887Y-99242519D01*
X109332596Y-99222002D01*
X109397668Y-99142709D01*
X109405954Y-99133569D01*
X109430219Y-99109304D01*
X109430218Y-99109304D01*
X109528706Y-99010815D01*
X109528715Y-99010807D01*
X109539083Y-99000438D01*
X109539085Y-99000438D01*
X109542947Y-98996575D01*
X109542989Y-98996547D01*
X109577877Y-98961657D01*
X109577878Y-98961658D01*
X109641904Y-98897630D01*
X109752148Y-98753954D01*
X109842695Y-98597118D01*
X109911996Y-98429805D01*
X109958865Y-98254878D01*
X109982501Y-98075329D01*
X109982500Y-97984781D01*
X109982500Y-97963795D01*
X109982500Y-84159131D01*
X109993601Y-84107419D01*
X110024946Y-84064819D01*
X110039718Y-84051732D01*
X110094498Y-84003201D01*
X110095382Y-84001921D01*
X110140523Y-83961932D01*
X110199076Y-83947500D01*
X110333937Y-83947500D01*
X110333940Y-83947501D01*
G37*
%TD.AperFunction*%
%TA.AperFunction,Conductor*%
G36*
X110658210Y-75469426D02*
G01*
X110704555Y-75518104D01*
X110719281Y-75583683D01*
X110698198Y-75647502D01*
X110639266Y-75735698D01*
X110624500Y-75809933D01*
X110624500Y-78370068D01*
X110639265Y-78444300D01*
X110695515Y-78528484D01*
X110736542Y-78555897D01*
X110779699Y-78584734D01*
X110853933Y-78599500D01*
X110871500Y-78599500D01*
X110934500Y-78616381D01*
X110980619Y-78662500D01*
X110997500Y-78725500D01*
X110997500Y-80628896D01*
X110986399Y-80680609D01*
X110955053Y-80723208D01*
X110945801Y-80731405D01*
X110903908Y-80768518D01*
X110853822Y-80795678D01*
X110796893Y-80798000D01*
X110744762Y-80775009D01*
X110708089Y-80731407D01*
X110653928Y-80625105D01*
X110572374Y-80512852D01*
X110523318Y-80463796D01*
X110484533Y-80425010D01*
X110484532Y-80425009D01*
X110470075Y-80410552D01*
X110470074Y-80410552D01*
X110366873Y-80307351D01*
X110366860Y-80307330D01*
X110277157Y-80217627D01*
X110164899Y-80136069D01*
X110041265Y-80073076D01*
X109909311Y-80030203D01*
X109772264Y-80008499D01*
X109719500Y-80008499D01*
X109656500Y-79991620D01*
X109610380Y-79945501D01*
X109593499Y-79882500D01*
X109593499Y-79109932D01*
X109578734Y-79035699D01*
X109522484Y-78951515D01*
X109438301Y-78895266D01*
X109438300Y-78895265D01*
X109364066Y-78880500D01*
X108313931Y-78880500D01*
X108239699Y-78895265D01*
X108155515Y-78951515D01*
X108099266Y-79035698D01*
X108099265Y-79035699D01*
X108099266Y-79035699D01*
X108084501Y-79109931D01*
X108084500Y-79109934D01*
X108084500Y-81583285D01*
X108070767Y-81640488D01*
X108032561Y-81685221D01*
X107978211Y-81707734D01*
X107919564Y-81703118D01*
X107869405Y-81672380D01*
X107813402Y-81616377D01*
X107751529Y-81577500D01*
X107669437Y-81525918D01*
X107615942Y-81507199D01*
X107508956Y-81469763D01*
X107340000Y-81450726D01*
X107171043Y-81469763D01*
X107010564Y-81525917D01*
X106932955Y-81574682D01*
X106871808Y-81593856D01*
X106809137Y-81580474D01*
X106761155Y-81537996D01*
X106753484Y-81526515D01*
X106669301Y-81470266D01*
X106666772Y-81469763D01*
X106595066Y-81455500D01*
X105544931Y-81455500D01*
X105470699Y-81470265D01*
X105386515Y-81526515D01*
X105330266Y-81610698D01*
X105315500Y-81684933D01*
X105315500Y-82735071D01*
X105315943Y-82737294D01*
X105314586Y-82792486D01*
X105289764Y-82841800D01*
X105227823Y-82917277D01*
X105134223Y-83092390D01*
X105093692Y-83225999D01*
X105093693Y-83226000D01*
X107468000Y-83226000D01*
X107531000Y-83242881D01*
X107577119Y-83289000D01*
X107594000Y-83352000D01*
X107594000Y-83608000D01*
X107577119Y-83671000D01*
X107531000Y-83717119D01*
X107468000Y-83734000D01*
X105093693Y-83734000D01*
X105134223Y-83867609D01*
X105227823Y-84042723D01*
X105353788Y-84196213D01*
X105382173Y-84219508D01*
X105418192Y-84267602D01*
X105427841Y-84326909D01*
X105408927Y-84383941D01*
X105385920Y-84420557D01*
X105385917Y-84420563D01*
X105385918Y-84420563D01*
X105329763Y-84581046D01*
X105310725Y-84750000D01*
X105310726Y-84750000D01*
X105329763Y-84918956D01*
X105367199Y-85025942D01*
X105385918Y-85079437D01*
X105394626Y-85093295D01*
X105476377Y-85223402D01*
X105548880Y-85295905D01*
X105581492Y-85352389D01*
X105581492Y-85417611D01*
X105548880Y-85474095D01*
X105476377Y-85546597D01*
X105385918Y-85690563D01*
X105329763Y-85851043D01*
X105310726Y-86020000D01*
X105329763Y-86188956D01*
X105355661Y-86262968D01*
X105385918Y-86349437D01*
X105435000Y-86427550D01*
X105476377Y-86493402D01*
X105548880Y-86565905D01*
X105581492Y-86622389D01*
X105581492Y-86687611D01*
X105548880Y-86744095D01*
X105476377Y-86816597D01*
X105385918Y-86960563D01*
X105329763Y-87121043D01*
X105310726Y-87289999D01*
X105329763Y-87458956D01*
X105367199Y-87565942D01*
X105385918Y-87619437D01*
X105435000Y-87697550D01*
X105476377Y-87763402D01*
X105596597Y-87883622D01*
X105596599Y-87883623D01*
X105596600Y-87883624D01*
X105740563Y-87974082D01*
X105901046Y-88030237D01*
X106070000Y-88049274D01*
X106238954Y-88030237D01*
X106399437Y-87974082D01*
X106543400Y-87883624D01*
X106572076Y-87854948D01*
X106615905Y-87811120D01*
X106672389Y-87778508D01*
X106737611Y-87778508D01*
X106794095Y-87811120D01*
X106864167Y-87881192D01*
X106892996Y-87925903D01*
X106900802Y-87978527D01*
X106886195Y-88029680D01*
X106875723Y-88049274D01*
X106860117Y-88078472D01*
X106846393Y-88099011D01*
X106781336Y-88178283D01*
X106773036Y-88187440D01*
X106761613Y-88198864D01*
X106602362Y-88358115D01*
X106527512Y-88432965D01*
X106518349Y-88441269D01*
X106439005Y-88506383D01*
X106418468Y-88520106D01*
X106333422Y-88565563D01*
X106310602Y-88575015D01*
X106218328Y-88603005D01*
X106194105Y-88607823D01*
X106139278Y-88613222D01*
X106091849Y-88617893D01*
X106079501Y-88618499D01*
X106010497Y-88618499D01*
X106010491Y-88618500D01*
X104989509Y-88618500D01*
X104989503Y-88618499D01*
X104920393Y-88618499D01*
X104908045Y-88617892D01*
X104805897Y-88607833D01*
X104781671Y-88603015D01*
X104689392Y-88575024D01*
X104666575Y-88565573D01*
X104581529Y-88520117D01*
X104560992Y-88506395D01*
X104481719Y-88441338D01*
X104472560Y-88433037D01*
X104458724Y-88419202D01*
X104458720Y-88419198D01*
X103567030Y-87527507D01*
X103558726Y-87518344D01*
X103493616Y-87439005D01*
X103479893Y-87418468D01*
X103434436Y-87333422D01*
X103424984Y-87310602D01*
X103418735Y-87290000D01*
X103396992Y-87218320D01*
X103392177Y-87194115D01*
X103382105Y-87091836D01*
X103381500Y-87079499D01*
X103381501Y-87030940D01*
X103381500Y-87030937D01*
X103381500Y-78719063D01*
X103381501Y-78719060D01*
X103381500Y-78670392D01*
X103382107Y-78658045D01*
X103392167Y-78555891D01*
X103396982Y-78531678D01*
X103424978Y-78439383D01*
X103434423Y-78416580D01*
X103479887Y-78331519D01*
X103493596Y-78311002D01*
X103558665Y-78231712D01*
X103566954Y-78222569D01*
X103581581Y-78207940D01*
X104862309Y-76927212D01*
X106152490Y-75637031D01*
X106161644Y-75628735D01*
X106240999Y-75563613D01*
X106261531Y-75549893D01*
X106346581Y-75504434D01*
X106369391Y-75494986D01*
X106461681Y-75466991D01*
X106485882Y-75462178D01*
X106588164Y-75452105D01*
X106600497Y-75451500D01*
X106649060Y-75451501D01*
X106649063Y-75451500D01*
X110593433Y-75451500D01*
X110658210Y-75469426D01*
G37*
%TD.AperFunction*%
%TA.AperFunction,Conductor*%
G36*
X112207122Y-84050865D02*
G01*
X112386671Y-84074501D01*
X112477219Y-84074500D01*
X126124000Y-84074500D01*
X126187000Y-84091381D01*
X126233119Y-84137500D01*
X126250000Y-84200500D01*
X126250000Y-85725500D01*
X126233119Y-85788500D01*
X126187000Y-85834619D01*
X126124000Y-85851500D01*
X113959509Y-85851500D01*
X113959503Y-85851499D01*
X113890393Y-85851499D01*
X113878045Y-85850892D01*
X113775897Y-85840833D01*
X113751671Y-85836015D01*
X113659392Y-85808024D01*
X113636575Y-85798573D01*
X113551529Y-85753117D01*
X113530993Y-85739395D01*
X113451720Y-85674339D01*
X113442557Y-85666034D01*
X113420292Y-85643769D01*
X113420290Y-85643768D01*
X112020903Y-84244381D01*
X111988291Y-84187897D01*
X111988291Y-84122675D01*
X112020902Y-84066191D01*
X112077386Y-84033580D01*
X112142606Y-84033579D01*
X112207122Y-84050865D01*
G37*
%TD.AperFunction*%
M02*
