%TF.GenerationSoftware,KiCad,Pcbnew,7.0.1*%
%TF.CreationDate,2023-03-22T16:32:41+01:00*%
%TF.ProjectId,iaq_device,6961715f-6465-4766-9963-652e6b696361,rev?*%
%TF.SameCoordinates,Original*%
%TF.FileFunction,Legend,Bot*%
%TF.FilePolarity,Positive*%
%FSLAX46Y46*%
G04 Gerber Fmt 4.6, Leading zero omitted, Abs format (unit mm)*
G04 Created by KiCad (PCBNEW 7.0.1) date 2023-03-22 16:32:41*
%MOMM*%
%LPD*%
G01*
G04 APERTURE LIST*
%ADD10C,0.150000*%
%ADD11C,0.120000*%
%ADD12C,0.127000*%
%ADD13C,0.200000*%
%ADD14R,1.000000X1.000000*%
%ADD15O,1.000000X1.000000*%
%ADD16R,1.700000X1.700000*%
%ADD17C,1.700000*%
%ADD18O,1.700000X1.700000*%
%ADD19R,1.650000X1.650000*%
%ADD20C,1.650000*%
%ADD21C,0.800000*%
G04 APERTURE END LIST*
D10*
X154606666Y-79776904D02*
X154701904Y-79729285D01*
X154701904Y-79729285D02*
X154844761Y-79729285D01*
X154844761Y-79729285D02*
X154987618Y-79776904D01*
X154987618Y-79776904D02*
X155082856Y-79872142D01*
X155082856Y-79872142D02*
X155130475Y-79967380D01*
X155130475Y-79967380D02*
X155178094Y-80157856D01*
X155178094Y-80157856D02*
X155178094Y-80300713D01*
X155178094Y-80300713D02*
X155130475Y-80491189D01*
X155130475Y-80491189D02*
X155082856Y-80586427D01*
X155082856Y-80586427D02*
X154987618Y-80681666D01*
X154987618Y-80681666D02*
X154844761Y-80729285D01*
X154844761Y-80729285D02*
X154749523Y-80729285D01*
X154749523Y-80729285D02*
X154606666Y-80681666D01*
X154606666Y-80681666D02*
X154559047Y-80634046D01*
X154559047Y-80634046D02*
X154559047Y-80300713D01*
X154559047Y-80300713D02*
X154749523Y-80300713D01*
X154130475Y-80729285D02*
X154130475Y-79729285D01*
X154130475Y-79729285D02*
X153559047Y-80729285D01*
X153559047Y-80729285D02*
X153559047Y-79729285D01*
X153082856Y-80729285D02*
X153082856Y-79729285D01*
X153082856Y-79729285D02*
X152844761Y-79729285D01*
X152844761Y-79729285D02*
X152701904Y-79776904D01*
X152701904Y-79776904D02*
X152606666Y-79872142D01*
X152606666Y-79872142D02*
X152559047Y-79967380D01*
X152559047Y-79967380D02*
X152511428Y-80157856D01*
X152511428Y-80157856D02*
X152511428Y-80300713D01*
X152511428Y-80300713D02*
X152559047Y-80491189D01*
X152559047Y-80491189D02*
X152606666Y-80586427D01*
X152606666Y-80586427D02*
X152701904Y-80681666D01*
X152701904Y-80681666D02*
X152844761Y-80729285D01*
X152844761Y-80729285D02*
X153082856Y-80729285D01*
X155178094Y-83158332D02*
X155035237Y-83205951D01*
X155035237Y-83205951D02*
X154797142Y-83205951D01*
X154797142Y-83205951D02*
X154701904Y-83158332D01*
X154701904Y-83158332D02*
X154654285Y-83110712D01*
X154654285Y-83110712D02*
X154606666Y-83015474D01*
X154606666Y-83015474D02*
X154606666Y-82920236D01*
X154606666Y-82920236D02*
X154654285Y-82824998D01*
X154654285Y-82824998D02*
X154701904Y-82777379D01*
X154701904Y-82777379D02*
X154797142Y-82729760D01*
X154797142Y-82729760D02*
X154987618Y-82682141D01*
X154987618Y-82682141D02*
X155082856Y-82634522D01*
X155082856Y-82634522D02*
X155130475Y-82586903D01*
X155130475Y-82586903D02*
X155178094Y-82491665D01*
X155178094Y-82491665D02*
X155178094Y-82396427D01*
X155178094Y-82396427D02*
X155130475Y-82301189D01*
X155130475Y-82301189D02*
X155082856Y-82253570D01*
X155082856Y-82253570D02*
X154987618Y-82205951D01*
X154987618Y-82205951D02*
X154749523Y-82205951D01*
X154749523Y-82205951D02*
X154606666Y-82253570D01*
X153606666Y-83110712D02*
X153654285Y-83158332D01*
X153654285Y-83158332D02*
X153797142Y-83205951D01*
X153797142Y-83205951D02*
X153892380Y-83205951D01*
X153892380Y-83205951D02*
X154035237Y-83158332D01*
X154035237Y-83158332D02*
X154130475Y-83063093D01*
X154130475Y-83063093D02*
X154178094Y-82967855D01*
X154178094Y-82967855D02*
X154225713Y-82777379D01*
X154225713Y-82777379D02*
X154225713Y-82634522D01*
X154225713Y-82634522D02*
X154178094Y-82444046D01*
X154178094Y-82444046D02*
X154130475Y-82348808D01*
X154130475Y-82348808D02*
X154035237Y-82253570D01*
X154035237Y-82253570D02*
X153892380Y-82205951D01*
X153892380Y-82205951D02*
X153797142Y-82205951D01*
X153797142Y-82205951D02*
X153654285Y-82253570D01*
X153654285Y-82253570D02*
X153606666Y-82301189D01*
X152701904Y-83205951D02*
X153178094Y-83205951D01*
X153178094Y-83205951D02*
X153178094Y-82205951D01*
X139380571Y-74646619D02*
X139142476Y-75646619D01*
X139142476Y-75646619D02*
X138952000Y-74932333D01*
X138952000Y-74932333D02*
X138761524Y-75646619D01*
X138761524Y-75646619D02*
X138523429Y-74646619D01*
X137761524Y-75599000D02*
X137856762Y-75646619D01*
X137856762Y-75646619D02*
X138047238Y-75646619D01*
X138047238Y-75646619D02*
X138142476Y-75599000D01*
X138142476Y-75599000D02*
X138190095Y-75503761D01*
X138190095Y-75503761D02*
X138190095Y-75122809D01*
X138190095Y-75122809D02*
X138142476Y-75027571D01*
X138142476Y-75027571D02*
X138047238Y-74979952D01*
X138047238Y-74979952D02*
X137856762Y-74979952D01*
X137856762Y-74979952D02*
X137761524Y-75027571D01*
X137761524Y-75027571D02*
X137713905Y-75122809D01*
X137713905Y-75122809D02*
X137713905Y-75218047D01*
X137713905Y-75218047D02*
X138190095Y-75313285D01*
X137285333Y-75646619D02*
X137285333Y-74979952D01*
X137285333Y-75075190D02*
X137237714Y-75027571D01*
X137237714Y-75027571D02*
X137142476Y-74979952D01*
X137142476Y-74979952D02*
X136999619Y-74979952D01*
X136999619Y-74979952D02*
X136904381Y-75027571D01*
X136904381Y-75027571D02*
X136856762Y-75122809D01*
X136856762Y-75122809D02*
X136856762Y-75646619D01*
X136856762Y-75122809D02*
X136809143Y-75027571D01*
X136809143Y-75027571D02*
X136713905Y-74979952D01*
X136713905Y-74979952D02*
X136571048Y-74979952D01*
X136571048Y-74979952D02*
X136475809Y-75027571D01*
X136475809Y-75027571D02*
X136428190Y-75122809D01*
X136428190Y-75122809D02*
X136428190Y-75646619D01*
X135809143Y-75646619D02*
X135904381Y-75599000D01*
X135904381Y-75599000D02*
X135952000Y-75551380D01*
X135952000Y-75551380D02*
X135999619Y-75456142D01*
X135999619Y-75456142D02*
X135999619Y-75170428D01*
X135999619Y-75170428D02*
X135952000Y-75075190D01*
X135952000Y-75075190D02*
X135904381Y-75027571D01*
X135904381Y-75027571D02*
X135809143Y-74979952D01*
X135809143Y-74979952D02*
X135666286Y-74979952D01*
X135666286Y-74979952D02*
X135571048Y-75027571D01*
X135571048Y-75027571D02*
X135523429Y-75075190D01*
X135523429Y-75075190D02*
X135475810Y-75170428D01*
X135475810Y-75170428D02*
X135475810Y-75456142D01*
X135475810Y-75456142D02*
X135523429Y-75551380D01*
X135523429Y-75551380D02*
X135571048Y-75599000D01*
X135571048Y-75599000D02*
X135666286Y-75646619D01*
X135666286Y-75646619D02*
X135809143Y-75646619D01*
X135094857Y-75599000D02*
X134999619Y-75646619D01*
X134999619Y-75646619D02*
X134809143Y-75646619D01*
X134809143Y-75646619D02*
X134713905Y-75599000D01*
X134713905Y-75599000D02*
X134666286Y-75503761D01*
X134666286Y-75503761D02*
X134666286Y-75456142D01*
X134666286Y-75456142D02*
X134713905Y-75360904D01*
X134713905Y-75360904D02*
X134809143Y-75313285D01*
X134809143Y-75313285D02*
X134952000Y-75313285D01*
X134952000Y-75313285D02*
X135047238Y-75265666D01*
X135047238Y-75265666D02*
X135094857Y-75170428D01*
X135094857Y-75170428D02*
X135094857Y-75122809D01*
X135094857Y-75122809D02*
X135047238Y-75027571D01*
X135047238Y-75027571D02*
X134952000Y-74979952D01*
X134952000Y-74979952D02*
X134809143Y-74979952D01*
X134809143Y-74979952D02*
X134713905Y-75027571D01*
X133475809Y-75646619D02*
X133475809Y-74646619D01*
X133475809Y-74646619D02*
X133237714Y-74646619D01*
X133237714Y-74646619D02*
X133094857Y-74694238D01*
X133094857Y-74694238D02*
X132999619Y-74789476D01*
X132999619Y-74789476D02*
X132952000Y-74884714D01*
X132952000Y-74884714D02*
X132904381Y-75075190D01*
X132904381Y-75075190D02*
X132904381Y-75218047D01*
X132904381Y-75218047D02*
X132952000Y-75408523D01*
X132952000Y-75408523D02*
X132999619Y-75503761D01*
X132999619Y-75503761D02*
X133094857Y-75599000D01*
X133094857Y-75599000D02*
X133237714Y-75646619D01*
X133237714Y-75646619D02*
X133475809Y-75646619D01*
X131952000Y-75646619D02*
X132523428Y-75646619D01*
X132237714Y-75646619D02*
X132237714Y-74646619D01*
X132237714Y-74646619D02*
X132332952Y-74789476D01*
X132332952Y-74789476D02*
X132428190Y-74884714D01*
X132428190Y-74884714D02*
X132523428Y-74932333D01*
X130761523Y-75646619D02*
X130761523Y-74646619D01*
X130761523Y-74646619D02*
X130428190Y-75360904D01*
X130428190Y-75360904D02*
X130094857Y-74646619D01*
X130094857Y-74646619D02*
X130094857Y-75646619D01*
X129618666Y-75646619D02*
X129618666Y-74979952D01*
X129618666Y-74646619D02*
X129666285Y-74694238D01*
X129666285Y-74694238D02*
X129618666Y-74741857D01*
X129618666Y-74741857D02*
X129571047Y-74694238D01*
X129571047Y-74694238D02*
X129618666Y-74646619D01*
X129618666Y-74646619D02*
X129618666Y-74741857D01*
X129142476Y-74979952D02*
X129142476Y-75646619D01*
X129142476Y-75075190D02*
X129094857Y-75027571D01*
X129094857Y-75027571D02*
X128999619Y-74979952D01*
X128999619Y-74979952D02*
X128856762Y-74979952D01*
X128856762Y-74979952D02*
X128761524Y-75027571D01*
X128761524Y-75027571D02*
X128713905Y-75122809D01*
X128713905Y-75122809D02*
X128713905Y-75646619D01*
X128237714Y-75646619D02*
X128237714Y-74979952D01*
X128237714Y-74646619D02*
X128285333Y-74694238D01*
X128285333Y-74694238D02*
X128237714Y-74741857D01*
X128237714Y-74741857D02*
X128190095Y-74694238D01*
X128190095Y-74694238D02*
X128237714Y-74646619D01*
X128237714Y-74646619D02*
X128237714Y-74741857D01*
X127047238Y-75360904D02*
X126571048Y-75360904D01*
X127142476Y-75646619D02*
X126809143Y-74646619D01*
X126809143Y-74646619D02*
X126475810Y-75646619D01*
X126142476Y-75646619D02*
X126142476Y-74979952D01*
X126142476Y-74646619D02*
X126190095Y-74694238D01*
X126190095Y-74694238D02*
X126142476Y-74741857D01*
X126142476Y-74741857D02*
X126094857Y-74694238D01*
X126094857Y-74694238D02*
X126142476Y-74646619D01*
X126142476Y-74646619D02*
X126142476Y-74741857D01*
X125666286Y-75646619D02*
X125666286Y-74979952D01*
X125666286Y-75170428D02*
X125618667Y-75075190D01*
X125618667Y-75075190D02*
X125571048Y-75027571D01*
X125571048Y-75027571D02*
X125475810Y-74979952D01*
X125475810Y-74979952D02*
X125380572Y-74979952D01*
X123618667Y-75741857D02*
X123713905Y-75694238D01*
X123713905Y-75694238D02*
X123809143Y-75599000D01*
X123809143Y-75599000D02*
X123952000Y-75456142D01*
X123952000Y-75456142D02*
X124047238Y-75408523D01*
X124047238Y-75408523D02*
X124142476Y-75408523D01*
X124094857Y-75646619D02*
X124190095Y-75599000D01*
X124190095Y-75599000D02*
X124285333Y-75503761D01*
X124285333Y-75503761D02*
X124332952Y-75313285D01*
X124332952Y-75313285D02*
X124332952Y-74979952D01*
X124332952Y-74979952D02*
X124285333Y-74789476D01*
X124285333Y-74789476D02*
X124190095Y-74694238D01*
X124190095Y-74694238D02*
X124094857Y-74646619D01*
X124094857Y-74646619D02*
X123904381Y-74646619D01*
X123904381Y-74646619D02*
X123809143Y-74694238D01*
X123809143Y-74694238D02*
X123713905Y-74789476D01*
X123713905Y-74789476D02*
X123666286Y-74979952D01*
X123666286Y-74979952D02*
X123666286Y-75313285D01*
X123666286Y-75313285D02*
X123713905Y-75503761D01*
X123713905Y-75503761D02*
X123809143Y-75599000D01*
X123809143Y-75599000D02*
X123904381Y-75646619D01*
X123904381Y-75646619D02*
X124094857Y-75646619D01*
X122809143Y-74979952D02*
X122809143Y-75646619D01*
X123237714Y-74979952D02*
X123237714Y-75503761D01*
X123237714Y-75503761D02*
X123190095Y-75599000D01*
X123190095Y-75599000D02*
X123094857Y-75646619D01*
X123094857Y-75646619D02*
X122952000Y-75646619D01*
X122952000Y-75646619D02*
X122856762Y-75599000D01*
X122856762Y-75599000D02*
X122809143Y-75551380D01*
X121904381Y-75646619D02*
X121904381Y-75122809D01*
X121904381Y-75122809D02*
X121952000Y-75027571D01*
X121952000Y-75027571D02*
X122047238Y-74979952D01*
X122047238Y-74979952D02*
X122237714Y-74979952D01*
X122237714Y-74979952D02*
X122332952Y-75027571D01*
X121904381Y-75599000D02*
X121999619Y-75646619D01*
X121999619Y-75646619D02*
X122237714Y-75646619D01*
X122237714Y-75646619D02*
X122332952Y-75599000D01*
X122332952Y-75599000D02*
X122380571Y-75503761D01*
X122380571Y-75503761D02*
X122380571Y-75408523D01*
X122380571Y-75408523D02*
X122332952Y-75313285D01*
X122332952Y-75313285D02*
X122237714Y-75265666D01*
X122237714Y-75265666D02*
X121999619Y-75265666D01*
X121999619Y-75265666D02*
X121904381Y-75218047D01*
X121285333Y-75646619D02*
X121380571Y-75599000D01*
X121380571Y-75599000D02*
X121428190Y-75503761D01*
X121428190Y-75503761D02*
X121428190Y-74646619D01*
X120904380Y-75646619D02*
X120904380Y-74979952D01*
X120904380Y-74646619D02*
X120951999Y-74694238D01*
X120951999Y-74694238D02*
X120904380Y-74741857D01*
X120904380Y-74741857D02*
X120856761Y-74694238D01*
X120856761Y-74694238D02*
X120904380Y-74646619D01*
X120904380Y-74646619D02*
X120904380Y-74741857D01*
X120571047Y-74979952D02*
X120190095Y-74979952D01*
X120428190Y-74646619D02*
X120428190Y-75503761D01*
X120428190Y-75503761D02*
X120380571Y-75599000D01*
X120380571Y-75599000D02*
X120285333Y-75646619D01*
X120285333Y-75646619D02*
X120190095Y-75646619D01*
X119951999Y-74979952D02*
X119713904Y-75646619D01*
X119475809Y-74979952D02*
X119713904Y-75646619D01*
X119713904Y-75646619D02*
X119809142Y-75884714D01*
X119809142Y-75884714D02*
X119856761Y-75932333D01*
X119856761Y-75932333D02*
X119951999Y-75979952D01*
X117999618Y-75122809D02*
X117856761Y-75170428D01*
X117856761Y-75170428D02*
X117809142Y-75218047D01*
X117809142Y-75218047D02*
X117761523Y-75313285D01*
X117761523Y-75313285D02*
X117761523Y-75456142D01*
X117761523Y-75456142D02*
X117809142Y-75551380D01*
X117809142Y-75551380D02*
X117856761Y-75599000D01*
X117856761Y-75599000D02*
X117951999Y-75646619D01*
X117951999Y-75646619D02*
X118332951Y-75646619D01*
X118332951Y-75646619D02*
X118332951Y-74646619D01*
X118332951Y-74646619D02*
X117999618Y-74646619D01*
X117999618Y-74646619D02*
X117904380Y-74694238D01*
X117904380Y-74694238D02*
X117856761Y-74741857D01*
X117856761Y-74741857D02*
X117809142Y-74837095D01*
X117809142Y-74837095D02*
X117809142Y-74932333D01*
X117809142Y-74932333D02*
X117856761Y-75027571D01*
X117856761Y-75027571D02*
X117904380Y-75075190D01*
X117904380Y-75075190D02*
X117999618Y-75122809D01*
X117999618Y-75122809D02*
X118332951Y-75122809D01*
X117190094Y-75646619D02*
X117285332Y-75599000D01*
X117285332Y-75599000D02*
X117332951Y-75551380D01*
X117332951Y-75551380D02*
X117380570Y-75456142D01*
X117380570Y-75456142D02*
X117380570Y-75170428D01*
X117380570Y-75170428D02*
X117332951Y-75075190D01*
X117332951Y-75075190D02*
X117285332Y-75027571D01*
X117285332Y-75027571D02*
X117190094Y-74979952D01*
X117190094Y-74979952D02*
X117047237Y-74979952D01*
X117047237Y-74979952D02*
X116951999Y-75027571D01*
X116951999Y-75027571D02*
X116904380Y-75075190D01*
X116904380Y-75075190D02*
X116856761Y-75170428D01*
X116856761Y-75170428D02*
X116856761Y-75456142D01*
X116856761Y-75456142D02*
X116904380Y-75551380D01*
X116904380Y-75551380D02*
X116951999Y-75599000D01*
X116951999Y-75599000D02*
X117047237Y-75646619D01*
X117047237Y-75646619D02*
X117190094Y-75646619D01*
X115999618Y-75646619D02*
X115999618Y-75122809D01*
X115999618Y-75122809D02*
X116047237Y-75027571D01*
X116047237Y-75027571D02*
X116142475Y-74979952D01*
X116142475Y-74979952D02*
X116332951Y-74979952D01*
X116332951Y-74979952D02*
X116428189Y-75027571D01*
X115999618Y-75599000D02*
X116094856Y-75646619D01*
X116094856Y-75646619D02*
X116332951Y-75646619D01*
X116332951Y-75646619D02*
X116428189Y-75599000D01*
X116428189Y-75599000D02*
X116475808Y-75503761D01*
X116475808Y-75503761D02*
X116475808Y-75408523D01*
X116475808Y-75408523D02*
X116428189Y-75313285D01*
X116428189Y-75313285D02*
X116332951Y-75265666D01*
X116332951Y-75265666D02*
X116094856Y-75265666D01*
X116094856Y-75265666D02*
X115999618Y-75218047D01*
X115523427Y-75646619D02*
X115523427Y-74979952D01*
X115523427Y-75170428D02*
X115475808Y-75075190D01*
X115475808Y-75075190D02*
X115428189Y-75027571D01*
X115428189Y-75027571D02*
X115332951Y-74979952D01*
X115332951Y-74979952D02*
X115237713Y-74979952D01*
X114475808Y-75646619D02*
X114475808Y-74646619D01*
X114475808Y-75599000D02*
X114571046Y-75646619D01*
X114571046Y-75646619D02*
X114761522Y-75646619D01*
X114761522Y-75646619D02*
X114856760Y-75599000D01*
X114856760Y-75599000D02*
X114904379Y-75551380D01*
X114904379Y-75551380D02*
X114951998Y-75456142D01*
X114951998Y-75456142D02*
X114951998Y-75170428D01*
X114951998Y-75170428D02*
X114904379Y-75075190D01*
X114904379Y-75075190D02*
X114856760Y-75027571D01*
X114856760Y-75027571D02*
X114761522Y-74979952D01*
X114761522Y-74979952D02*
X114571046Y-74979952D01*
X114571046Y-74979952D02*
X114475808Y-75027571D01*
X113237712Y-75646619D02*
X113237712Y-74979952D01*
X113237712Y-75170428D02*
X113190093Y-75075190D01*
X113190093Y-75075190D02*
X113142474Y-75027571D01*
X113142474Y-75027571D02*
X113047236Y-74979952D01*
X113047236Y-74979952D02*
X112951998Y-74979952D01*
X112237712Y-75599000D02*
X112332950Y-75646619D01*
X112332950Y-75646619D02*
X112523426Y-75646619D01*
X112523426Y-75646619D02*
X112618664Y-75599000D01*
X112618664Y-75599000D02*
X112666283Y-75503761D01*
X112666283Y-75503761D02*
X112666283Y-75122809D01*
X112666283Y-75122809D02*
X112618664Y-75027571D01*
X112618664Y-75027571D02*
X112523426Y-74979952D01*
X112523426Y-74979952D02*
X112332950Y-74979952D01*
X112332950Y-74979952D02*
X112237712Y-75027571D01*
X112237712Y-75027571D02*
X112190093Y-75122809D01*
X112190093Y-75122809D02*
X112190093Y-75218047D01*
X112190093Y-75218047D02*
X112666283Y-75313285D01*
X111856759Y-74979952D02*
X111618664Y-75646619D01*
X111618664Y-75646619D02*
X111380569Y-74979952D01*
X110999616Y-75551380D02*
X110951997Y-75599000D01*
X110951997Y-75599000D02*
X110999616Y-75646619D01*
X110999616Y-75646619D02*
X111047235Y-75599000D01*
X111047235Y-75599000D02*
X110999616Y-75551380D01*
X110999616Y-75551380D02*
X110999616Y-75646619D01*
X110571045Y-74741857D02*
X110523426Y-74694238D01*
X110523426Y-74694238D02*
X110428188Y-74646619D01*
X110428188Y-74646619D02*
X110190093Y-74646619D01*
X110190093Y-74646619D02*
X110094855Y-74694238D01*
X110094855Y-74694238D02*
X110047236Y-74741857D01*
X110047236Y-74741857D02*
X109999617Y-74837095D01*
X109999617Y-74837095D02*
X109999617Y-74932333D01*
X109999617Y-74932333D02*
X110047236Y-75075190D01*
X110047236Y-75075190D02*
X110618664Y-75646619D01*
X110618664Y-75646619D02*
X109999617Y-75646619D01*
X109571045Y-75551380D02*
X109523426Y-75599000D01*
X109523426Y-75599000D02*
X109571045Y-75646619D01*
X109571045Y-75646619D02*
X109618664Y-75599000D01*
X109618664Y-75599000D02*
X109571045Y-75551380D01*
X109571045Y-75551380D02*
X109571045Y-75646619D01*
X108904379Y-74646619D02*
X108809141Y-74646619D01*
X108809141Y-74646619D02*
X108713903Y-74694238D01*
X108713903Y-74694238D02*
X108666284Y-74741857D01*
X108666284Y-74741857D02*
X108618665Y-74837095D01*
X108618665Y-74837095D02*
X108571046Y-75027571D01*
X108571046Y-75027571D02*
X108571046Y-75265666D01*
X108571046Y-75265666D02*
X108618665Y-75456142D01*
X108618665Y-75456142D02*
X108666284Y-75551380D01*
X108666284Y-75551380D02*
X108713903Y-75599000D01*
X108713903Y-75599000D02*
X108809141Y-75646619D01*
X108809141Y-75646619D02*
X108904379Y-75646619D01*
X108904379Y-75646619D02*
X108999617Y-75599000D01*
X108999617Y-75599000D02*
X109047236Y-75551380D01*
X109047236Y-75551380D02*
X109094855Y-75456142D01*
X109094855Y-75456142D02*
X109142474Y-75265666D01*
X109142474Y-75265666D02*
X109142474Y-75027571D01*
X109142474Y-75027571D02*
X109094855Y-74837095D01*
X109094855Y-74837095D02*
X109047236Y-74741857D01*
X109047236Y-74741857D02*
X108999617Y-74694238D01*
X108999617Y-74694238D02*
X108904379Y-74646619D01*
X155273332Y-77252619D02*
X154939999Y-78252619D01*
X154939999Y-78252619D02*
X154606666Y-77252619D01*
X153701904Y-78157380D02*
X153749523Y-78205000D01*
X153749523Y-78205000D02*
X153892380Y-78252619D01*
X153892380Y-78252619D02*
X153987618Y-78252619D01*
X153987618Y-78252619D02*
X154130475Y-78205000D01*
X154130475Y-78205000D02*
X154225713Y-78109761D01*
X154225713Y-78109761D02*
X154273332Y-78014523D01*
X154273332Y-78014523D02*
X154320951Y-77824047D01*
X154320951Y-77824047D02*
X154320951Y-77681190D01*
X154320951Y-77681190D02*
X154273332Y-77490714D01*
X154273332Y-77490714D02*
X154225713Y-77395476D01*
X154225713Y-77395476D02*
X154130475Y-77300238D01*
X154130475Y-77300238D02*
X153987618Y-77252619D01*
X153987618Y-77252619D02*
X153892380Y-77252619D01*
X153892380Y-77252619D02*
X153749523Y-77300238D01*
X153749523Y-77300238D02*
X153701904Y-77347857D01*
X152701904Y-78157380D02*
X152749523Y-78205000D01*
X152749523Y-78205000D02*
X152892380Y-78252619D01*
X152892380Y-78252619D02*
X152987618Y-78252619D01*
X152987618Y-78252619D02*
X153130475Y-78205000D01*
X153130475Y-78205000D02*
X153225713Y-78109761D01*
X153225713Y-78109761D02*
X153273332Y-78014523D01*
X153273332Y-78014523D02*
X153320951Y-77824047D01*
X153320951Y-77824047D02*
X153320951Y-77681190D01*
X153320951Y-77681190D02*
X153273332Y-77490714D01*
X153273332Y-77490714D02*
X153225713Y-77395476D01*
X153225713Y-77395476D02*
X153130475Y-77300238D01*
X153130475Y-77300238D02*
X152987618Y-77252619D01*
X152987618Y-77252619D02*
X152892380Y-77252619D01*
X152892380Y-77252619D02*
X152749523Y-77300238D01*
X152749523Y-77300238D02*
X152701904Y-77347857D01*
X155178095Y-85635000D02*
X155035238Y-85682619D01*
X155035238Y-85682619D02*
X154797143Y-85682619D01*
X154797143Y-85682619D02*
X154701905Y-85635000D01*
X154701905Y-85635000D02*
X154654286Y-85587380D01*
X154654286Y-85587380D02*
X154606667Y-85492142D01*
X154606667Y-85492142D02*
X154606667Y-85396904D01*
X154606667Y-85396904D02*
X154654286Y-85301666D01*
X154654286Y-85301666D02*
X154701905Y-85254047D01*
X154701905Y-85254047D02*
X154797143Y-85206428D01*
X154797143Y-85206428D02*
X154987619Y-85158809D01*
X154987619Y-85158809D02*
X155082857Y-85111190D01*
X155082857Y-85111190D02*
X155130476Y-85063571D01*
X155130476Y-85063571D02*
X155178095Y-84968333D01*
X155178095Y-84968333D02*
X155178095Y-84873095D01*
X155178095Y-84873095D02*
X155130476Y-84777857D01*
X155130476Y-84777857D02*
X155082857Y-84730238D01*
X155082857Y-84730238D02*
X154987619Y-84682619D01*
X154987619Y-84682619D02*
X154749524Y-84682619D01*
X154749524Y-84682619D02*
X154606667Y-84730238D01*
X154178095Y-85682619D02*
X154178095Y-84682619D01*
X154178095Y-84682619D02*
X153940000Y-84682619D01*
X153940000Y-84682619D02*
X153797143Y-84730238D01*
X153797143Y-84730238D02*
X153701905Y-84825476D01*
X153701905Y-84825476D02*
X153654286Y-84920714D01*
X153654286Y-84920714D02*
X153606667Y-85111190D01*
X153606667Y-85111190D02*
X153606667Y-85254047D01*
X153606667Y-85254047D02*
X153654286Y-85444523D01*
X153654286Y-85444523D02*
X153701905Y-85539761D01*
X153701905Y-85539761D02*
X153797143Y-85635000D01*
X153797143Y-85635000D02*
X153940000Y-85682619D01*
X153940000Y-85682619D02*
X154178095Y-85682619D01*
X153225714Y-85396904D02*
X152749524Y-85396904D01*
X153320952Y-85682619D02*
X152987619Y-84682619D01*
X152987619Y-84682619D02*
X152654286Y-85682619D01*
X138301238Y-116286619D02*
X138301238Y-115286619D01*
X137872667Y-116286619D02*
X137872667Y-115762809D01*
X137872667Y-115762809D02*
X137920286Y-115667571D01*
X137920286Y-115667571D02*
X138015524Y-115619952D01*
X138015524Y-115619952D02*
X138158381Y-115619952D01*
X138158381Y-115619952D02*
X138253619Y-115667571D01*
X138253619Y-115667571D02*
X138301238Y-115715190D01*
X137539333Y-115619952D02*
X137158381Y-115619952D01*
X137396476Y-115286619D02*
X137396476Y-116143761D01*
X137396476Y-116143761D02*
X137348857Y-116239000D01*
X137348857Y-116239000D02*
X137253619Y-116286619D01*
X137253619Y-116286619D02*
X137158381Y-116286619D01*
X136967904Y-115619952D02*
X136586952Y-115619952D01*
X136825047Y-115286619D02*
X136825047Y-116143761D01*
X136825047Y-116143761D02*
X136777428Y-116239000D01*
X136777428Y-116239000D02*
X136682190Y-116286619D01*
X136682190Y-116286619D02*
X136586952Y-116286619D01*
X136253618Y-115619952D02*
X136253618Y-116619952D01*
X136253618Y-115667571D02*
X136158380Y-115619952D01*
X136158380Y-115619952D02*
X135967904Y-115619952D01*
X135967904Y-115619952D02*
X135872666Y-115667571D01*
X135872666Y-115667571D02*
X135825047Y-115715190D01*
X135825047Y-115715190D02*
X135777428Y-115810428D01*
X135777428Y-115810428D02*
X135777428Y-116096142D01*
X135777428Y-116096142D02*
X135825047Y-116191380D01*
X135825047Y-116191380D02*
X135872666Y-116239000D01*
X135872666Y-116239000D02*
X135967904Y-116286619D01*
X135967904Y-116286619D02*
X136158380Y-116286619D01*
X136158380Y-116286619D02*
X136253618Y-116239000D01*
X135396475Y-116239000D02*
X135301237Y-116286619D01*
X135301237Y-116286619D02*
X135110761Y-116286619D01*
X135110761Y-116286619D02*
X135015523Y-116239000D01*
X135015523Y-116239000D02*
X134967904Y-116143761D01*
X134967904Y-116143761D02*
X134967904Y-116096142D01*
X134967904Y-116096142D02*
X135015523Y-116000904D01*
X135015523Y-116000904D02*
X135110761Y-115953285D01*
X135110761Y-115953285D02*
X135253618Y-115953285D01*
X135253618Y-115953285D02*
X135348856Y-115905666D01*
X135348856Y-115905666D02*
X135396475Y-115810428D01*
X135396475Y-115810428D02*
X135396475Y-115762809D01*
X135396475Y-115762809D02*
X135348856Y-115667571D01*
X135348856Y-115667571D02*
X135253618Y-115619952D01*
X135253618Y-115619952D02*
X135110761Y-115619952D01*
X135110761Y-115619952D02*
X135015523Y-115667571D01*
X134539332Y-116191380D02*
X134491713Y-116239000D01*
X134491713Y-116239000D02*
X134539332Y-116286619D01*
X134539332Y-116286619D02*
X134586951Y-116239000D01*
X134586951Y-116239000D02*
X134539332Y-116191380D01*
X134539332Y-116191380D02*
X134539332Y-116286619D01*
X134539332Y-115667571D02*
X134491713Y-115715190D01*
X134491713Y-115715190D02*
X134539332Y-115762809D01*
X134539332Y-115762809D02*
X134586951Y-115715190D01*
X134586951Y-115715190D02*
X134539332Y-115667571D01*
X134539332Y-115667571D02*
X134539332Y-115762809D01*
X133348857Y-115239000D02*
X134205999Y-116524714D01*
X132301238Y-115239000D02*
X133158380Y-116524714D01*
X131539333Y-115619952D02*
X131539333Y-116429476D01*
X131539333Y-116429476D02*
X131586952Y-116524714D01*
X131586952Y-116524714D02*
X131634571Y-116572333D01*
X131634571Y-116572333D02*
X131729809Y-116619952D01*
X131729809Y-116619952D02*
X131872666Y-116619952D01*
X131872666Y-116619952D02*
X131967904Y-116572333D01*
X131539333Y-116239000D02*
X131634571Y-116286619D01*
X131634571Y-116286619D02*
X131825047Y-116286619D01*
X131825047Y-116286619D02*
X131920285Y-116239000D01*
X131920285Y-116239000D02*
X131967904Y-116191380D01*
X131967904Y-116191380D02*
X132015523Y-116096142D01*
X132015523Y-116096142D02*
X132015523Y-115810428D01*
X132015523Y-115810428D02*
X131967904Y-115715190D01*
X131967904Y-115715190D02*
X131920285Y-115667571D01*
X131920285Y-115667571D02*
X131825047Y-115619952D01*
X131825047Y-115619952D02*
X131634571Y-115619952D01*
X131634571Y-115619952D02*
X131539333Y-115667571D01*
X131063142Y-116286619D02*
X131063142Y-115619952D01*
X131063142Y-115286619D02*
X131110761Y-115334238D01*
X131110761Y-115334238D02*
X131063142Y-115381857D01*
X131063142Y-115381857D02*
X131015523Y-115334238D01*
X131015523Y-115334238D02*
X131063142Y-115286619D01*
X131063142Y-115286619D02*
X131063142Y-115381857D01*
X130729809Y-115619952D02*
X130348857Y-115619952D01*
X130586952Y-115286619D02*
X130586952Y-116143761D01*
X130586952Y-116143761D02*
X130539333Y-116239000D01*
X130539333Y-116239000D02*
X130444095Y-116286619D01*
X130444095Y-116286619D02*
X130348857Y-116286619D01*
X130015523Y-116286619D02*
X130015523Y-115286619D01*
X129586952Y-116286619D02*
X129586952Y-115762809D01*
X129586952Y-115762809D02*
X129634571Y-115667571D01*
X129634571Y-115667571D02*
X129729809Y-115619952D01*
X129729809Y-115619952D02*
X129872666Y-115619952D01*
X129872666Y-115619952D02*
X129967904Y-115667571D01*
X129967904Y-115667571D02*
X130015523Y-115715190D01*
X128682190Y-115619952D02*
X128682190Y-116286619D01*
X129110761Y-115619952D02*
X129110761Y-116143761D01*
X129110761Y-116143761D02*
X129063142Y-116239000D01*
X129063142Y-116239000D02*
X128967904Y-116286619D01*
X128967904Y-116286619D02*
X128825047Y-116286619D01*
X128825047Y-116286619D02*
X128729809Y-116239000D01*
X128729809Y-116239000D02*
X128682190Y-116191380D01*
X128205999Y-116286619D02*
X128205999Y-115286619D01*
X128205999Y-115667571D02*
X128110761Y-115619952D01*
X128110761Y-115619952D02*
X127920285Y-115619952D01*
X127920285Y-115619952D02*
X127825047Y-115667571D01*
X127825047Y-115667571D02*
X127777428Y-115715190D01*
X127777428Y-115715190D02*
X127729809Y-115810428D01*
X127729809Y-115810428D02*
X127729809Y-116096142D01*
X127729809Y-116096142D02*
X127777428Y-116191380D01*
X127777428Y-116191380D02*
X127825047Y-116239000D01*
X127825047Y-116239000D02*
X127920285Y-116286619D01*
X127920285Y-116286619D02*
X128110761Y-116286619D01*
X128110761Y-116286619D02*
X128205999Y-116239000D01*
X127301237Y-116191380D02*
X127253618Y-116239000D01*
X127253618Y-116239000D02*
X127301237Y-116286619D01*
X127301237Y-116286619D02*
X127348856Y-116239000D01*
X127348856Y-116239000D02*
X127301237Y-116191380D01*
X127301237Y-116191380D02*
X127301237Y-116286619D01*
X126396476Y-116239000D02*
X126491714Y-116286619D01*
X126491714Y-116286619D02*
X126682190Y-116286619D01*
X126682190Y-116286619D02*
X126777428Y-116239000D01*
X126777428Y-116239000D02*
X126825047Y-116191380D01*
X126825047Y-116191380D02*
X126872666Y-116096142D01*
X126872666Y-116096142D02*
X126872666Y-115810428D01*
X126872666Y-115810428D02*
X126825047Y-115715190D01*
X126825047Y-115715190D02*
X126777428Y-115667571D01*
X126777428Y-115667571D02*
X126682190Y-115619952D01*
X126682190Y-115619952D02*
X126491714Y-115619952D01*
X126491714Y-115619952D02*
X126396476Y-115667571D01*
X125825047Y-116286619D02*
X125920285Y-116239000D01*
X125920285Y-116239000D02*
X125967904Y-116191380D01*
X125967904Y-116191380D02*
X126015523Y-116096142D01*
X126015523Y-116096142D02*
X126015523Y-115810428D01*
X126015523Y-115810428D02*
X125967904Y-115715190D01*
X125967904Y-115715190D02*
X125920285Y-115667571D01*
X125920285Y-115667571D02*
X125825047Y-115619952D01*
X125825047Y-115619952D02*
X125682190Y-115619952D01*
X125682190Y-115619952D02*
X125586952Y-115667571D01*
X125586952Y-115667571D02*
X125539333Y-115715190D01*
X125539333Y-115715190D02*
X125491714Y-115810428D01*
X125491714Y-115810428D02*
X125491714Y-116096142D01*
X125491714Y-116096142D02*
X125539333Y-116191380D01*
X125539333Y-116191380D02*
X125586952Y-116239000D01*
X125586952Y-116239000D02*
X125682190Y-116286619D01*
X125682190Y-116286619D02*
X125825047Y-116286619D01*
X125063142Y-116286619D02*
X125063142Y-115619952D01*
X125063142Y-115715190D02*
X125015523Y-115667571D01*
X125015523Y-115667571D02*
X124920285Y-115619952D01*
X124920285Y-115619952D02*
X124777428Y-115619952D01*
X124777428Y-115619952D02*
X124682190Y-115667571D01*
X124682190Y-115667571D02*
X124634571Y-115762809D01*
X124634571Y-115762809D02*
X124634571Y-116286619D01*
X124634571Y-115762809D02*
X124586952Y-115667571D01*
X124586952Y-115667571D02*
X124491714Y-115619952D01*
X124491714Y-115619952D02*
X124348857Y-115619952D01*
X124348857Y-115619952D02*
X124253618Y-115667571D01*
X124253618Y-115667571D02*
X124205999Y-115762809D01*
X124205999Y-115762809D02*
X124205999Y-116286619D01*
X123015524Y-115239000D02*
X123872666Y-116524714D01*
X122682190Y-116286619D02*
X122682190Y-115286619D01*
X122586952Y-115905666D02*
X122301238Y-116286619D01*
X122301238Y-115619952D02*
X122682190Y-116000904D01*
X121729809Y-116286619D02*
X121825047Y-116239000D01*
X121825047Y-116239000D02*
X121872666Y-116191380D01*
X121872666Y-116191380D02*
X121920285Y-116096142D01*
X121920285Y-116096142D02*
X121920285Y-115810428D01*
X121920285Y-115810428D02*
X121872666Y-115715190D01*
X121872666Y-115715190D02*
X121825047Y-115667571D01*
X121825047Y-115667571D02*
X121729809Y-115619952D01*
X121729809Y-115619952D02*
X121586952Y-115619952D01*
X121586952Y-115619952D02*
X121491714Y-115667571D01*
X121491714Y-115667571D02*
X121444095Y-115715190D01*
X121444095Y-115715190D02*
X121396476Y-115810428D01*
X121396476Y-115810428D02*
X121396476Y-116096142D01*
X121396476Y-116096142D02*
X121444095Y-116191380D01*
X121444095Y-116191380D02*
X121491714Y-116239000D01*
X121491714Y-116239000D02*
X121586952Y-116286619D01*
X121586952Y-116286619D02*
X121729809Y-116286619D01*
X120586952Y-116239000D02*
X120682190Y-116286619D01*
X120682190Y-116286619D02*
X120872666Y-116286619D01*
X120872666Y-116286619D02*
X120967904Y-116239000D01*
X120967904Y-116239000D02*
X121015523Y-116143761D01*
X121015523Y-116143761D02*
X121015523Y-115762809D01*
X121015523Y-115762809D02*
X120967904Y-115667571D01*
X120967904Y-115667571D02*
X120872666Y-115619952D01*
X120872666Y-115619952D02*
X120682190Y-115619952D01*
X120682190Y-115619952D02*
X120586952Y-115667571D01*
X120586952Y-115667571D02*
X120539333Y-115762809D01*
X120539333Y-115762809D02*
X120539333Y-115858047D01*
X120539333Y-115858047D02*
X121015523Y-115953285D01*
X120110761Y-116286619D02*
X120110761Y-115286619D01*
X120015523Y-115905666D02*
X119729809Y-116286619D01*
X119729809Y-115619952D02*
X120110761Y-116000904D01*
X119301237Y-116286619D02*
X119301237Y-115619952D01*
X119301237Y-115286619D02*
X119348856Y-115334238D01*
X119348856Y-115334238D02*
X119301237Y-115381857D01*
X119301237Y-115381857D02*
X119253618Y-115334238D01*
X119253618Y-115334238D02*
X119301237Y-115286619D01*
X119301237Y-115286619D02*
X119301237Y-115381857D01*
X118444095Y-116239000D02*
X118539333Y-116286619D01*
X118539333Y-116286619D02*
X118729809Y-116286619D01*
X118729809Y-116286619D02*
X118825047Y-116239000D01*
X118825047Y-116239000D02*
X118872666Y-116143761D01*
X118872666Y-116143761D02*
X118872666Y-115762809D01*
X118872666Y-115762809D02*
X118825047Y-115667571D01*
X118825047Y-115667571D02*
X118729809Y-115619952D01*
X118729809Y-115619952D02*
X118539333Y-115619952D01*
X118539333Y-115619952D02*
X118444095Y-115667571D01*
X118444095Y-115667571D02*
X118396476Y-115762809D01*
X118396476Y-115762809D02*
X118396476Y-115858047D01*
X118396476Y-115858047D02*
X118872666Y-115953285D01*
X117253619Y-115239000D02*
X118110761Y-116524714D01*
X116920285Y-116286619D02*
X116920285Y-115619952D01*
X116920285Y-115286619D02*
X116967904Y-115334238D01*
X116967904Y-115334238D02*
X116920285Y-115381857D01*
X116920285Y-115381857D02*
X116872666Y-115334238D01*
X116872666Y-115334238D02*
X116920285Y-115286619D01*
X116920285Y-115286619D02*
X116920285Y-115381857D01*
X116015524Y-116286619D02*
X116015524Y-115762809D01*
X116015524Y-115762809D02*
X116063143Y-115667571D01*
X116063143Y-115667571D02*
X116158381Y-115619952D01*
X116158381Y-115619952D02*
X116348857Y-115619952D01*
X116348857Y-115619952D02*
X116444095Y-115667571D01*
X116015524Y-116239000D02*
X116110762Y-116286619D01*
X116110762Y-116286619D02*
X116348857Y-116286619D01*
X116348857Y-116286619D02*
X116444095Y-116239000D01*
X116444095Y-116239000D02*
X116491714Y-116143761D01*
X116491714Y-116143761D02*
X116491714Y-116048523D01*
X116491714Y-116048523D02*
X116444095Y-115953285D01*
X116444095Y-115953285D02*
X116348857Y-115905666D01*
X116348857Y-115905666D02*
X116110762Y-115905666D01*
X116110762Y-115905666D02*
X116015524Y-115858047D01*
X115110762Y-115619952D02*
X115110762Y-116619952D01*
X115110762Y-116239000D02*
X115206000Y-116286619D01*
X115206000Y-116286619D02*
X115396476Y-116286619D01*
X115396476Y-116286619D02*
X115491714Y-116239000D01*
X115491714Y-116239000D02*
X115539333Y-116191380D01*
X115539333Y-116191380D02*
X115586952Y-116096142D01*
X115586952Y-116096142D02*
X115586952Y-115810428D01*
X115586952Y-115810428D02*
X115539333Y-115715190D01*
X115539333Y-115715190D02*
X115491714Y-115667571D01*
X115491714Y-115667571D02*
X115396476Y-115619952D01*
X115396476Y-115619952D02*
X115206000Y-115619952D01*
X115206000Y-115619952D02*
X115110762Y-115667571D01*
X114872667Y-116381857D02*
X114110762Y-116381857D01*
X113872666Y-116286619D02*
X113872666Y-115286619D01*
X113872666Y-115667571D02*
X113777428Y-115619952D01*
X113777428Y-115619952D02*
X113586952Y-115619952D01*
X113586952Y-115619952D02*
X113491714Y-115667571D01*
X113491714Y-115667571D02*
X113444095Y-115715190D01*
X113444095Y-115715190D02*
X113396476Y-115810428D01*
X113396476Y-115810428D02*
X113396476Y-116096142D01*
X113396476Y-116096142D02*
X113444095Y-116191380D01*
X113444095Y-116191380D02*
X113491714Y-116239000D01*
X113491714Y-116239000D02*
X113586952Y-116286619D01*
X113586952Y-116286619D02*
X113777428Y-116286619D01*
X113777428Y-116286619D02*
X113872666Y-116239000D01*
X112825047Y-116286619D02*
X112920285Y-116239000D01*
X112920285Y-116239000D02*
X112967904Y-116191380D01*
X112967904Y-116191380D02*
X113015523Y-116096142D01*
X113015523Y-116096142D02*
X113015523Y-115810428D01*
X113015523Y-115810428D02*
X112967904Y-115715190D01*
X112967904Y-115715190D02*
X112920285Y-115667571D01*
X112920285Y-115667571D02*
X112825047Y-115619952D01*
X112825047Y-115619952D02*
X112682190Y-115619952D01*
X112682190Y-115619952D02*
X112586952Y-115667571D01*
X112586952Y-115667571D02*
X112539333Y-115715190D01*
X112539333Y-115715190D02*
X112491714Y-115810428D01*
X112491714Y-115810428D02*
X112491714Y-116096142D01*
X112491714Y-116096142D02*
X112539333Y-116191380D01*
X112539333Y-116191380D02*
X112586952Y-116239000D01*
X112586952Y-116239000D02*
X112682190Y-116286619D01*
X112682190Y-116286619D02*
X112825047Y-116286619D01*
X111634571Y-116286619D02*
X111634571Y-115762809D01*
X111634571Y-115762809D02*
X111682190Y-115667571D01*
X111682190Y-115667571D02*
X111777428Y-115619952D01*
X111777428Y-115619952D02*
X111967904Y-115619952D01*
X111967904Y-115619952D02*
X112063142Y-115667571D01*
X111634571Y-116239000D02*
X111729809Y-116286619D01*
X111729809Y-116286619D02*
X111967904Y-116286619D01*
X111967904Y-116286619D02*
X112063142Y-116239000D01*
X112063142Y-116239000D02*
X112110761Y-116143761D01*
X112110761Y-116143761D02*
X112110761Y-116048523D01*
X112110761Y-116048523D02*
X112063142Y-115953285D01*
X112063142Y-115953285D02*
X111967904Y-115905666D01*
X111967904Y-115905666D02*
X111729809Y-115905666D01*
X111729809Y-115905666D02*
X111634571Y-115858047D01*
X111158380Y-116286619D02*
X111158380Y-115619952D01*
X111158380Y-115810428D02*
X111110761Y-115715190D01*
X111110761Y-115715190D02*
X111063142Y-115667571D01*
X111063142Y-115667571D02*
X110967904Y-115619952D01*
X110967904Y-115619952D02*
X110872666Y-115619952D01*
X110110761Y-116286619D02*
X110110761Y-115286619D01*
X110110761Y-116239000D02*
X110205999Y-116286619D01*
X110205999Y-116286619D02*
X110396475Y-116286619D01*
X110396475Y-116286619D02*
X110491713Y-116239000D01*
X110491713Y-116239000D02*
X110539332Y-116191380D01*
X110539332Y-116191380D02*
X110586951Y-116096142D01*
X110586951Y-116096142D02*
X110586951Y-115810428D01*
X110586951Y-115810428D02*
X110539332Y-115715190D01*
X110539332Y-115715190D02*
X110491713Y-115667571D01*
X110491713Y-115667571D02*
X110396475Y-115619952D01*
X110396475Y-115619952D02*
X110205999Y-115619952D01*
X110205999Y-115619952D02*
X110110761Y-115667571D01*
X127674285Y-95712619D02*
X127674285Y-94712619D01*
X127674285Y-94712619D02*
X127293333Y-94712619D01*
X127293333Y-94712619D02*
X127198095Y-94760238D01*
X127198095Y-94760238D02*
X127150476Y-94807857D01*
X127150476Y-94807857D02*
X127102857Y-94903095D01*
X127102857Y-94903095D02*
X127102857Y-95045952D01*
X127102857Y-95045952D02*
X127150476Y-95141190D01*
X127150476Y-95141190D02*
X127198095Y-95188809D01*
X127198095Y-95188809D02*
X127293333Y-95236428D01*
X127293333Y-95236428D02*
X127674285Y-95236428D01*
X126674285Y-95712619D02*
X126674285Y-94712619D01*
X126674285Y-94712619D02*
X126340952Y-95426904D01*
X126340952Y-95426904D02*
X126007619Y-94712619D01*
X126007619Y-94712619D02*
X126007619Y-95712619D01*
X125579047Y-95665000D02*
X125436190Y-95712619D01*
X125436190Y-95712619D02*
X125198095Y-95712619D01*
X125198095Y-95712619D02*
X125102857Y-95665000D01*
X125102857Y-95665000D02*
X125055238Y-95617380D01*
X125055238Y-95617380D02*
X125007619Y-95522142D01*
X125007619Y-95522142D02*
X125007619Y-95426904D01*
X125007619Y-95426904D02*
X125055238Y-95331666D01*
X125055238Y-95331666D02*
X125102857Y-95284047D01*
X125102857Y-95284047D02*
X125198095Y-95236428D01*
X125198095Y-95236428D02*
X125388571Y-95188809D01*
X125388571Y-95188809D02*
X125483809Y-95141190D01*
X125483809Y-95141190D02*
X125531428Y-95093571D01*
X125531428Y-95093571D02*
X125579047Y-94998333D01*
X125579047Y-94998333D02*
X125579047Y-94903095D01*
X125579047Y-94903095D02*
X125531428Y-94807857D01*
X125531428Y-94807857D02*
X125483809Y-94760238D01*
X125483809Y-94760238D02*
X125388571Y-94712619D01*
X125388571Y-94712619D02*
X125150476Y-94712619D01*
X125150476Y-94712619D02*
X125007619Y-94760238D01*
X124674285Y-94712619D02*
X124007619Y-94712619D01*
X124007619Y-94712619D02*
X124436190Y-95712619D01*
X123436190Y-94712619D02*
X123340952Y-94712619D01*
X123340952Y-94712619D02*
X123245714Y-94760238D01*
X123245714Y-94760238D02*
X123198095Y-94807857D01*
X123198095Y-94807857D02*
X123150476Y-94903095D01*
X123150476Y-94903095D02*
X123102857Y-95093571D01*
X123102857Y-95093571D02*
X123102857Y-95331666D01*
X123102857Y-95331666D02*
X123150476Y-95522142D01*
X123150476Y-95522142D02*
X123198095Y-95617380D01*
X123198095Y-95617380D02*
X123245714Y-95665000D01*
X123245714Y-95665000D02*
X123340952Y-95712619D01*
X123340952Y-95712619D02*
X123436190Y-95712619D01*
X123436190Y-95712619D02*
X123531428Y-95665000D01*
X123531428Y-95665000D02*
X123579047Y-95617380D01*
X123579047Y-95617380D02*
X123626666Y-95522142D01*
X123626666Y-95522142D02*
X123674285Y-95331666D01*
X123674285Y-95331666D02*
X123674285Y-95093571D01*
X123674285Y-95093571D02*
X123626666Y-94903095D01*
X123626666Y-94903095D02*
X123579047Y-94807857D01*
X123579047Y-94807857D02*
X123531428Y-94760238D01*
X123531428Y-94760238D02*
X123436190Y-94712619D01*
X122483809Y-94712619D02*
X122388571Y-94712619D01*
X122388571Y-94712619D02*
X122293333Y-94760238D01*
X122293333Y-94760238D02*
X122245714Y-94807857D01*
X122245714Y-94807857D02*
X122198095Y-94903095D01*
X122198095Y-94903095D02*
X122150476Y-95093571D01*
X122150476Y-95093571D02*
X122150476Y-95331666D01*
X122150476Y-95331666D02*
X122198095Y-95522142D01*
X122198095Y-95522142D02*
X122245714Y-95617380D01*
X122245714Y-95617380D02*
X122293333Y-95665000D01*
X122293333Y-95665000D02*
X122388571Y-95712619D01*
X122388571Y-95712619D02*
X122483809Y-95712619D01*
X122483809Y-95712619D02*
X122579047Y-95665000D01*
X122579047Y-95665000D02*
X122626666Y-95617380D01*
X122626666Y-95617380D02*
X122674285Y-95522142D01*
X122674285Y-95522142D02*
X122721904Y-95331666D01*
X122721904Y-95331666D02*
X122721904Y-95093571D01*
X122721904Y-95093571D02*
X122674285Y-94903095D01*
X122674285Y-94903095D02*
X122626666Y-94807857D01*
X122626666Y-94807857D02*
X122579047Y-94760238D01*
X122579047Y-94760238D02*
X122483809Y-94712619D01*
X121817142Y-94712619D02*
X121198095Y-94712619D01*
X121198095Y-94712619D02*
X121531428Y-95093571D01*
X121531428Y-95093571D02*
X121388571Y-95093571D01*
X121388571Y-95093571D02*
X121293333Y-95141190D01*
X121293333Y-95141190D02*
X121245714Y-95188809D01*
X121245714Y-95188809D02*
X121198095Y-95284047D01*
X121198095Y-95284047D02*
X121198095Y-95522142D01*
X121198095Y-95522142D02*
X121245714Y-95617380D01*
X121245714Y-95617380D02*
X121293333Y-95665000D01*
X121293333Y-95665000D02*
X121388571Y-95712619D01*
X121388571Y-95712619D02*
X121674285Y-95712619D01*
X121674285Y-95712619D02*
X121769523Y-95665000D01*
X121769523Y-95665000D02*
X121817142Y-95617380D01*
X104362285Y-82504619D02*
X104933713Y-82504619D01*
X104647999Y-82504619D02*
X104647999Y-81504619D01*
X104647999Y-81504619D02*
X104743237Y-81647476D01*
X104743237Y-81647476D02*
X104838475Y-81742714D01*
X104838475Y-81742714D02*
X104933713Y-81790333D01*
X161911904Y-74942619D02*
X161911904Y-75752142D01*
X161911904Y-75752142D02*
X161864285Y-75847380D01*
X161864285Y-75847380D02*
X161816666Y-75895000D01*
X161816666Y-75895000D02*
X161721428Y-75942619D01*
X161721428Y-75942619D02*
X161530952Y-75942619D01*
X161530952Y-75942619D02*
X161435714Y-75895000D01*
X161435714Y-75895000D02*
X161388095Y-75847380D01*
X161388095Y-75847380D02*
X161340476Y-75752142D01*
X161340476Y-75752142D02*
X161340476Y-74942619D01*
X160388095Y-74942619D02*
X160864285Y-74942619D01*
X160864285Y-74942619D02*
X160911904Y-75418809D01*
X160911904Y-75418809D02*
X160864285Y-75371190D01*
X160864285Y-75371190D02*
X160769047Y-75323571D01*
X160769047Y-75323571D02*
X160530952Y-75323571D01*
X160530952Y-75323571D02*
X160435714Y-75371190D01*
X160435714Y-75371190D02*
X160388095Y-75418809D01*
X160388095Y-75418809D02*
X160340476Y-75514047D01*
X160340476Y-75514047D02*
X160340476Y-75752142D01*
X160340476Y-75752142D02*
X160388095Y-75847380D01*
X160388095Y-75847380D02*
X160435714Y-75895000D01*
X160435714Y-75895000D02*
X160530952Y-75942619D01*
X160530952Y-75942619D02*
X160769047Y-75942619D01*
X160769047Y-75942619D02*
X160864285Y-75895000D01*
X160864285Y-75895000D02*
X160911904Y-75847380D01*
D11*
X148590000Y-76200000D02*
X100330000Y-76200000D01*
X148590000Y-114300000D02*
X148590000Y-76200000D01*
X108290000Y-81515000D02*
X108290000Y-87985000D01*
X108290000Y-81515000D02*
X107647530Y-81515000D01*
X108290000Y-87985000D02*
X107647530Y-87985000D01*
X107032470Y-81515000D02*
X106830000Y-81515000D01*
X107032470Y-87985000D02*
X106377530Y-87985000D01*
X106070000Y-81450000D02*
X105120000Y-81450000D01*
X105762470Y-87985000D02*
X105120000Y-87985000D01*
X105310000Y-82845000D02*
X105120000Y-82845000D01*
X105120000Y-81450000D02*
X105120000Y-82210000D01*
X105120000Y-82845000D02*
X105120000Y-87985000D01*
X100330000Y-76200000D02*
X100330000Y-114300000D01*
X100330000Y-114300000D02*
X148590000Y-114300000D01*
D12*
X172830000Y-76272500D02*
X149830000Y-76272500D01*
X149830000Y-76272500D02*
X149830000Y-111272500D01*
X172830000Y-111272500D02*
X172830000Y-76272500D01*
X149830000Y-111272500D02*
X172830000Y-111272500D01*
D13*
X151330000Y-75472500D02*
G75*
G03*
X151330000Y-75472500I-100000J0D01*
G01*
%LPC*%
D10*
X117096190Y-95337619D02*
X117096190Y-96051904D01*
X117096190Y-96051904D02*
X117143809Y-96194761D01*
X117143809Y-96194761D02*
X117239047Y-96290000D01*
X117239047Y-96290000D02*
X117381904Y-96337619D01*
X117381904Y-96337619D02*
X117477142Y-96337619D01*
X116143809Y-96337619D02*
X116619999Y-96337619D01*
X116619999Y-96337619D02*
X116619999Y-95337619D01*
X115239047Y-96242380D02*
X115286666Y-96290000D01*
X115286666Y-96290000D02*
X115429523Y-96337619D01*
X115429523Y-96337619D02*
X115524761Y-96337619D01*
X115524761Y-96337619D02*
X115667618Y-96290000D01*
X115667618Y-96290000D02*
X115762856Y-96194761D01*
X115762856Y-96194761D02*
X115810475Y-96099523D01*
X115810475Y-96099523D02*
X115858094Y-95909047D01*
X115858094Y-95909047D02*
X115858094Y-95766190D01*
X115858094Y-95766190D02*
X115810475Y-95575714D01*
X115810475Y-95575714D02*
X115762856Y-95480476D01*
X115762856Y-95480476D02*
X115667618Y-95385238D01*
X115667618Y-95385238D02*
X115524761Y-95337619D01*
X115524761Y-95337619D02*
X115429523Y-95337619D01*
X115429523Y-95337619D02*
X115286666Y-95385238D01*
X115286666Y-95385238D02*
X115239047Y-95432857D01*
X114524761Y-95337619D02*
X114524761Y-96051904D01*
X114524761Y-96051904D02*
X114572380Y-96194761D01*
X114572380Y-96194761D02*
X114667618Y-96290000D01*
X114667618Y-96290000D02*
X114810475Y-96337619D01*
X114810475Y-96337619D02*
X114905713Y-96337619D01*
X113572380Y-96337619D02*
X114048570Y-96337619D01*
X114048570Y-96337619D02*
X114048570Y-95337619D01*
X112667618Y-96242380D02*
X112715237Y-96290000D01*
X112715237Y-96290000D02*
X112858094Y-96337619D01*
X112858094Y-96337619D02*
X112953332Y-96337619D01*
X112953332Y-96337619D02*
X113096189Y-96290000D01*
X113096189Y-96290000D02*
X113191427Y-96194761D01*
X113191427Y-96194761D02*
X113239046Y-96099523D01*
X113239046Y-96099523D02*
X113286665Y-95909047D01*
X113286665Y-95909047D02*
X113286665Y-95766190D01*
X113286665Y-95766190D02*
X113239046Y-95575714D01*
X113239046Y-95575714D02*
X113191427Y-95480476D01*
X113191427Y-95480476D02*
X113096189Y-95385238D01*
X113096189Y-95385238D02*
X112953332Y-95337619D01*
X112953332Y-95337619D02*
X112858094Y-95337619D01*
X112858094Y-95337619D02*
X112715237Y-95385238D01*
X112715237Y-95385238D02*
X112667618Y-95432857D01*
X111953332Y-95337619D02*
X111953332Y-96051904D01*
X111953332Y-96051904D02*
X112000951Y-96194761D01*
X112000951Y-96194761D02*
X112096189Y-96290000D01*
X112096189Y-96290000D02*
X112239046Y-96337619D01*
X112239046Y-96337619D02*
X112334284Y-96337619D01*
X111000951Y-96337619D02*
X111477141Y-96337619D01*
X111477141Y-96337619D02*
X111477141Y-95337619D01*
X110096189Y-96242380D02*
X110143808Y-96290000D01*
X110143808Y-96290000D02*
X110286665Y-96337619D01*
X110286665Y-96337619D02*
X110381903Y-96337619D01*
X110381903Y-96337619D02*
X110524760Y-96290000D01*
X110524760Y-96290000D02*
X110619998Y-96194761D01*
X110619998Y-96194761D02*
X110667617Y-96099523D01*
X110667617Y-96099523D02*
X110715236Y-95909047D01*
X110715236Y-95909047D02*
X110715236Y-95766190D01*
X110715236Y-95766190D02*
X110667617Y-95575714D01*
X110667617Y-95575714D02*
X110619998Y-95480476D01*
X110619998Y-95480476D02*
X110524760Y-95385238D01*
X110524760Y-95385238D02*
X110381903Y-95337619D01*
X110381903Y-95337619D02*
X110286665Y-95337619D01*
X110286665Y-95337619D02*
X110143808Y-95385238D01*
X110143808Y-95385238D02*
X110096189Y-95432857D01*
X109381903Y-95337619D02*
X109381903Y-96051904D01*
X109381903Y-96051904D02*
X109429522Y-96194761D01*
X109429522Y-96194761D02*
X109524760Y-96290000D01*
X109524760Y-96290000D02*
X109667617Y-96337619D01*
X109667617Y-96337619D02*
X109762855Y-96337619D01*
X108429522Y-96337619D02*
X108905712Y-96337619D01*
X108905712Y-96337619D02*
X108905712Y-95337619D01*
X107524760Y-96242380D02*
X107572379Y-96290000D01*
X107572379Y-96290000D02*
X107715236Y-96337619D01*
X107715236Y-96337619D02*
X107810474Y-96337619D01*
X107810474Y-96337619D02*
X107953331Y-96290000D01*
X107953331Y-96290000D02*
X108048569Y-96194761D01*
X108048569Y-96194761D02*
X108096188Y-96099523D01*
X108096188Y-96099523D02*
X108143807Y-95909047D01*
X108143807Y-95909047D02*
X108143807Y-95766190D01*
X108143807Y-95766190D02*
X108096188Y-95575714D01*
X108096188Y-95575714D02*
X108048569Y-95480476D01*
X108048569Y-95480476D02*
X107953331Y-95385238D01*
X107953331Y-95385238D02*
X107810474Y-95337619D01*
X107810474Y-95337619D02*
X107715236Y-95337619D01*
X107715236Y-95337619D02*
X107572379Y-95385238D01*
X107572379Y-95385238D02*
X107524760Y-95432857D01*
D14*
X106070000Y-82210000D03*
D15*
X107340000Y-82210000D03*
X106070000Y-83480000D03*
X107340000Y-83480000D03*
X106070000Y-84750000D03*
X107340000Y-84750000D03*
X106070000Y-86020000D03*
X107340000Y-86020000D03*
X106070000Y-87290000D03*
X107340000Y-87290000D03*
D16*
X162940000Y-101400000D03*
D17*
X160400000Y-101400000D03*
X157860000Y-101400000D03*
X155320000Y-101400000D03*
D16*
X158950000Y-104882000D03*
D18*
X156410000Y-104882000D03*
X153870000Y-104882000D03*
X151330000Y-104882000D03*
D16*
X162510000Y-112260000D03*
D17*
X162510000Y-109720000D03*
X162510000Y-107180000D03*
D16*
X162510000Y-104640000D03*
D19*
X151230000Y-77672500D03*
D20*
X151230000Y-80212500D03*
X151230000Y-82752500D03*
X151230000Y-85292500D03*
X151230000Y-87832500D03*
X151230000Y-90372500D03*
X151230000Y-92912500D03*
D21*
X124090000Y-82530000D03*
X111370000Y-81230000D03*
X119670000Y-99480000D03*
X121540000Y-103370000D03*
X121440000Y-104360000D03*
X136450000Y-102770000D03*
X100500000Y-96390000D03*
X112900000Y-76250000D03*
X122762273Y-100082273D03*
X140250000Y-79000000D03*
X114300000Y-76200000D03*
X120500000Y-82250000D03*
X145034000Y-96139000D03*
X125500000Y-115000000D03*
X107315000Y-93345000D03*
X116500000Y-85000000D03*
X158750000Y-113250000D03*
X123000000Y-85000000D03*
X113792000Y-92202000D03*
X124968000Y-98425000D03*
X164500000Y-91250000D03*
X103886000Y-83566000D03*
X122000000Y-90250000D03*
X119126000Y-76200000D03*
X104013000Y-100203000D03*
X106631500Y-100251500D03*
X109601000Y-83566000D03*
X142120000Y-89040000D03*
X115010000Y-108410000D03*
X116130000Y-109430000D03*
X142500000Y-94000000D03*
X118764000Y-107471000D03*
X118764000Y-105947000D03*
X127000000Y-96750000D03*
M02*
