%TF.GenerationSoftware,KiCad,Pcbnew,7.0.1*%
%TF.CreationDate,2023-03-22T16:32:41+01:00*%
%TF.ProjectId,iaq_device,6961715f-6465-4766-9963-652e6b696361,rev?*%
%TF.SameCoordinates,Original*%
%TF.FileFunction,Paste,Top*%
%TF.FilePolarity,Positive*%
%FSLAX46Y46*%
G04 Gerber Fmt 4.6, Leading zero omitted, Abs format (unit mm)*
G04 Created by KiCad (PCBNEW 7.0.1) date 2023-03-22 16:32:41*
%MOMM*%
%LPD*%
G01*
G04 APERTURE LIST*
G04 Aperture macros list*
%AMRoundRect*
0 Rectangle with rounded corners*
0 $1 Rounding radius*
0 $2 $3 $4 $5 $6 $7 $8 $9 X,Y pos of 4 corners*
0 Add a 4 corners polygon primitive as box body*
4,1,4,$2,$3,$4,$5,$6,$7,$8,$9,$2,$3,0*
0 Add four circle primitives for the rounded corners*
1,1,$1+$1,$2,$3*
1,1,$1+$1,$4,$5*
1,1,$1+$1,$6,$7*
1,1,$1+$1,$8,$9*
0 Add four rect primitives between the rounded corners*
20,1,$1+$1,$2,$3,$4,$5,0*
20,1,$1+$1,$4,$5,$6,$7,0*
20,1,$1+$1,$6,$7,$8,$9,0*
20,1,$1+$1,$8,$9,$2,$3,0*%
G04 Aperture macros list end*
%ADD10R,1.000000X2.510000*%
%ADD11RoundRect,0.250000X-0.250000X-0.475000X0.250000X-0.475000X0.250000X0.475000X-0.250000X0.475000X0*%
%ADD12R,1.300000X0.700000*%
%ADD13R,1.500000X1.000000*%
%ADD14R,1.550000X1.300000*%
%ADD15R,1.900000X1.000000*%
G04 APERTURE END LIST*
D10*
X126619000Y-77090000D03*
X124079000Y-80390000D03*
X121539000Y-77090000D03*
X118999000Y-80390000D03*
X116459000Y-77090000D03*
X113919000Y-80390000D03*
X111379000Y-77090000D03*
X108839000Y-80390000D03*
X108839000Y-103250000D03*
X111379000Y-99950000D03*
X113919000Y-103250000D03*
X116459000Y-99950000D03*
X118999000Y-103250000D03*
X121539000Y-99950000D03*
X124079000Y-103250000D03*
X126619000Y-99950000D03*
D11*
X111591000Y-106836000D03*
X113491000Y-106836000D03*
D12*
X110872000Y-110064000D03*
X110872000Y-111014000D03*
X110872000Y-111964000D03*
X114172000Y-111964000D03*
X114172000Y-111014000D03*
X114172000Y-110064000D03*
D13*
X118862000Y-109300000D03*
X118862000Y-112500000D03*
X123762000Y-112500000D03*
X123762000Y-109300000D03*
X128252000Y-109300000D03*
X128252000Y-112500000D03*
X133152000Y-112500000D03*
X133152000Y-109300000D03*
X137750000Y-109300000D03*
X137750000Y-112500000D03*
X142650000Y-112500000D03*
X142650000Y-109300000D03*
D11*
X120283500Y-106836000D03*
X122183500Y-106836000D03*
X129576500Y-106836000D03*
X131476500Y-106836000D03*
X139328500Y-106836000D03*
X141228500Y-106836000D03*
D14*
X100535000Y-107700000D03*
X108485000Y-107700000D03*
X100535000Y-112200000D03*
X108485000Y-112200000D03*
D15*
X136462500Y-83693000D03*
X139762500Y-86233000D03*
X136462500Y-88773000D03*
X139762500Y-91313000D03*
X136462500Y-93853000D03*
X139762500Y-96393000D03*
X136462500Y-98933000D03*
X139762500Y-101473000D03*
M02*
