%TF.GenerationSoftware,KiCad,Pcbnew,7.0.1*%
%TF.CreationDate,2023-03-22T16:32:41+01:00*%
%TF.ProjectId,iaq_device,6961715f-6465-4766-9963-652e6b696361,rev?*%
%TF.SameCoordinates,Original*%
%TF.FileFunction,Soldermask,Top*%
%TF.FilePolarity,Negative*%
%FSLAX46Y46*%
G04 Gerber Fmt 4.6, Leading zero omitted, Abs format (unit mm)*
G04 Created by KiCad (PCBNEW 7.0.1) date 2023-03-22 16:32:41*
%MOMM*%
%LPD*%
G01*
G04 APERTURE LIST*
G04 Aperture macros list*
%AMRoundRect*
0 Rectangle with rounded corners*
0 $1 Rounding radius*
0 $2 $3 $4 $5 $6 $7 $8 $9 X,Y pos of 4 corners*
0 Add a 4 corners polygon primitive as box body*
4,1,4,$2,$3,$4,$5,$6,$7,$8,$9,$2,$3,0*
0 Add four circle primitives for the rounded corners*
1,1,$1+$1,$2,$3*
1,1,$1+$1,$4,$5*
1,1,$1+$1,$6,$7*
1,1,$1+$1,$8,$9*
0 Add four rect primitives between the rounded corners*
20,1,$1+$1,$2,$3,$4,$5,0*
20,1,$1+$1,$4,$5,$6,$7,0*
20,1,$1+$1,$6,$7,$8,$9,0*
20,1,$1+$1,$8,$9,$2,$3,0*%
%AMFreePoly0*
4,1,19,0.550000,-0.750000,0.000000,-0.750000,0.000000,-0.744911,-0.071157,-0.744911,-0.207708,-0.704816,-0.327430,-0.627875,-0.420627,-0.520320,-0.479746,-0.390866,-0.500000,-0.250000,-0.500000,0.250000,-0.479746,0.390866,-0.420627,0.520320,-0.327430,0.627875,-0.207708,0.704816,-0.071157,0.744911,0.000000,0.744911,0.000000,0.750000,0.550000,0.750000,0.550000,-0.750000,0.550000,-0.750000,
$1*%
%AMFreePoly1*
4,1,19,0.000000,0.744911,0.071157,0.744911,0.207708,0.704816,0.327430,0.627875,0.420627,0.520320,0.479746,0.390866,0.500000,0.250000,0.500000,-0.250000,0.479746,-0.390866,0.420627,-0.520320,0.327430,-0.627875,0.207708,-0.704816,0.071157,-0.744911,0.000000,-0.744911,0.000000,-0.750000,-0.550000,-0.750000,-0.550000,0.750000,0.000000,0.750000,0.000000,0.744911,0.000000,0.744911,
$1*%
G04 Aperture macros list end*
%ADD10R,1.000000X2.510000*%
%ADD11R,1.000000X1.000000*%
%ADD12O,1.000000X1.000000*%
%ADD13RoundRect,0.250000X-0.250000X-0.475000X0.250000X-0.475000X0.250000X0.475000X-0.250000X0.475000X0*%
%ADD14FreePoly0,90.000000*%
%ADD15R,1.500000X1.000000*%
%ADD16FreePoly1,90.000000*%
%ADD17R,1.200000X0.600000*%
%ADD18R,1.550000X1.300000*%
%ADD19R,1.900000X1.000000*%
%ADD20R,1.700000X1.700000*%
%ADD21C,1.700000*%
%ADD22O,1.700000X1.700000*%
%ADD23R,1.650000X1.650000*%
%ADD24C,1.650000*%
%ADD25C,0.800000*%
G04 APERTURE END LIST*
D10*
X126619000Y-77090000D03*
X124079000Y-80390000D03*
X121539000Y-77090000D03*
X118999000Y-80390000D03*
X116459000Y-77090000D03*
X113919000Y-80390000D03*
X111379000Y-77090000D03*
X108839000Y-80390000D03*
X108839000Y-103250000D03*
X111379000Y-99950000D03*
X113919000Y-103250000D03*
X116459000Y-99950000D03*
X118999000Y-103250000D03*
X121539000Y-99950000D03*
X124079000Y-103250000D03*
X126619000Y-99950000D03*
D11*
X106070000Y-82210000D03*
D12*
X107340000Y-82210000D03*
X106070000Y-83480000D03*
X107340000Y-83480000D03*
X106070000Y-84750000D03*
X107340000Y-84750000D03*
X106070000Y-86020000D03*
X107340000Y-86020000D03*
X106070000Y-87290000D03*
X107340000Y-87290000D03*
D13*
X111591000Y-106836000D03*
X113491000Y-106836000D03*
D14*
X104013000Y-98679000D03*
D15*
X104013000Y-97379000D03*
D16*
X104013000Y-96079000D03*
D17*
X110872000Y-110064000D03*
X110872000Y-111014000D03*
X110872000Y-111964000D03*
X114172000Y-111964000D03*
X114172000Y-111014000D03*
X114172000Y-110064000D03*
D15*
X118862000Y-109300000D03*
X118862000Y-112500000D03*
X123762000Y-112500000D03*
X123762000Y-109300000D03*
X128252000Y-109300000D03*
X128252000Y-112500000D03*
X133152000Y-112500000D03*
X133152000Y-109300000D03*
X137750000Y-109300000D03*
X137750000Y-112500000D03*
X142650000Y-112500000D03*
X142650000Y-109300000D03*
D13*
X120283500Y-106836000D03*
X122183500Y-106836000D03*
X129576500Y-106836000D03*
X131476500Y-106836000D03*
X139328500Y-106836000D03*
X141228500Y-106836000D03*
D18*
X100535000Y-107700000D03*
X108485000Y-107700000D03*
X100535000Y-112200000D03*
X108485000Y-112200000D03*
D19*
X136462500Y-83693000D03*
X139762500Y-86233000D03*
X136462500Y-88773000D03*
X139762500Y-91313000D03*
X136462500Y-93853000D03*
X139762500Y-96393000D03*
X136462500Y-98933000D03*
X139762500Y-101473000D03*
D20*
X162940000Y-101400000D03*
D21*
X160400000Y-101400000D03*
X157860000Y-101400000D03*
X155320000Y-101400000D03*
D20*
X158950000Y-104882000D03*
D22*
X156410000Y-104882000D03*
X153870000Y-104882000D03*
X151330000Y-104882000D03*
D20*
X162510000Y-112260000D03*
D21*
X162510000Y-109720000D03*
X162510000Y-107180000D03*
D20*
X162510000Y-104640000D03*
D23*
X151230000Y-77672500D03*
D24*
X151230000Y-80212500D03*
X151230000Y-82752500D03*
X151230000Y-85292500D03*
X151230000Y-87832500D03*
X151230000Y-90372500D03*
X151230000Y-92912500D03*
D25*
X124090000Y-82530000D03*
X111370000Y-81230000D03*
X119670000Y-99480000D03*
X121540000Y-103370000D03*
X121440000Y-104360000D03*
X136450000Y-102770000D03*
X100500000Y-96390000D03*
X112900000Y-76250000D03*
X122762273Y-100082273D03*
X140250000Y-79000000D03*
X114300000Y-76200000D03*
X120500000Y-82250000D03*
X145034000Y-96139000D03*
X125500000Y-115000000D03*
X107315000Y-93345000D03*
X116500000Y-85000000D03*
X158750000Y-113250000D03*
X123000000Y-85000000D03*
X113792000Y-92202000D03*
X124968000Y-98425000D03*
X164500000Y-91250000D03*
X103886000Y-83566000D03*
X122000000Y-90250000D03*
X119126000Y-76200000D03*
X104013000Y-100203000D03*
X106631500Y-100251500D03*
X109601000Y-83566000D03*
X142120000Y-89040000D03*
X115010000Y-108410000D03*
X116130000Y-109430000D03*
X142500000Y-94000000D03*
X118764000Y-107471000D03*
X118764000Y-105947000D03*
X127000000Y-96750000D03*
M02*
