%TF.GenerationSoftware,KiCad,Pcbnew,7.0.1*%
%TF.CreationDate,2023-03-22T16:32:41+01:00*%
%TF.ProjectId,iaq_device,6961715f-6465-4766-9963-652e6b696361,rev?*%
%TF.SameCoordinates,Original*%
%TF.FileFunction,Legend,Top*%
%TF.FilePolarity,Positive*%
%FSLAX46Y46*%
G04 Gerber Fmt 4.6, Leading zero omitted, Abs format (unit mm)*
G04 Created by KiCad (PCBNEW 7.0.1) date 2023-03-22 16:32:41*
%MOMM*%
%LPD*%
G01*
G04 APERTURE LIST*
G04 Aperture macros list*
%AMRoundRect*
0 Rectangle with rounded corners*
0 $1 Rounding radius*
0 $2 $3 $4 $5 $6 $7 $8 $9 X,Y pos of 4 corners*
0 Add a 4 corners polygon primitive as box body*
4,1,4,$2,$3,$4,$5,$6,$7,$8,$9,$2,$3,0*
0 Add four circle primitives for the rounded corners*
1,1,$1+$1,$2,$3*
1,1,$1+$1,$4,$5*
1,1,$1+$1,$6,$7*
1,1,$1+$1,$8,$9*
0 Add four rect primitives between the rounded corners*
20,1,$1+$1,$2,$3,$4,$5,0*
20,1,$1+$1,$4,$5,$6,$7,0*
20,1,$1+$1,$6,$7,$8,$9,0*
20,1,$1+$1,$8,$9,$2,$3,0*%
%AMFreePoly0*
4,1,19,0.550000,-0.750000,0.000000,-0.750000,0.000000,-0.744911,-0.071157,-0.744911,-0.207708,-0.704816,-0.327430,-0.627875,-0.420627,-0.520320,-0.479746,-0.390866,-0.500000,-0.250000,-0.500000,0.250000,-0.479746,0.390866,-0.420627,0.520320,-0.327430,0.627875,-0.207708,0.704816,-0.071157,0.744911,0.000000,0.744911,0.000000,0.750000,0.550000,0.750000,0.550000,-0.750000,0.550000,-0.750000,
$1*%
%AMFreePoly1*
4,1,19,0.000000,0.744911,0.071157,0.744911,0.207708,0.704816,0.327430,0.627875,0.420627,0.520320,0.479746,0.390866,0.500000,0.250000,0.500000,-0.250000,0.479746,-0.390866,0.420627,-0.520320,0.327430,-0.627875,0.207708,-0.704816,0.071157,-0.744911,0.000000,-0.744911,0.000000,-0.750000,-0.550000,-0.750000,-0.550000,0.750000,0.000000,0.750000,0.000000,0.744911,0.000000,0.744911,
$1*%
G04 Aperture macros list end*
%ADD10C,0.200000*%
%ADD11C,0.150000*%
%ADD12C,0.100000*%
%ADD13C,0.125000*%
%ADD14C,0.120000*%
%ADD15R,1.000000X2.510000*%
%ADD16R,1.000000X1.000000*%
%ADD17O,1.000000X1.000000*%
%ADD18RoundRect,0.250000X-0.250000X-0.475000X0.250000X-0.475000X0.250000X0.475000X-0.250000X0.475000X0*%
%ADD19FreePoly0,90.000000*%
%ADD20R,1.500000X1.000000*%
%ADD21FreePoly1,90.000000*%
%ADD22R,1.200000X0.600000*%
%ADD23R,1.550000X1.300000*%
%ADD24R,1.900000X1.000000*%
%ADD25R,1.700000X1.700000*%
%ADD26C,1.700000*%
%ADD27O,1.700000X1.700000*%
%ADD28R,1.650000X1.650000*%
%ADD29C,1.650000*%
%ADD30C,0.800000*%
G04 APERTURE END LIST*
D10*
G36*
X140161537Y-114091086D02*
G01*
X140172987Y-114091593D01*
X140184240Y-114092473D01*
X140195283Y-114093756D01*
X140206104Y-114095472D01*
X140216693Y-114097649D01*
X140227035Y-114100318D01*
X140237120Y-114103506D01*
X140246935Y-114107245D01*
X140256468Y-114111563D01*
X140265707Y-114116490D01*
X140274641Y-114122055D01*
X140283256Y-114128287D01*
X140291541Y-114135216D01*
X140299484Y-114142872D01*
X140307073Y-114151283D01*
X140314295Y-114160478D01*
X140321139Y-114170489D01*
X140327592Y-114181343D01*
X140333643Y-114193070D01*
X140339279Y-114205699D01*
X140344488Y-114219261D01*
X140349258Y-114233783D01*
X140353578Y-114249297D01*
X140357435Y-114265830D01*
X140360816Y-114283413D01*
X140363711Y-114302074D01*
X140366106Y-114321844D01*
X140367990Y-114342751D01*
X140369351Y-114364825D01*
X140370176Y-114388096D01*
X140370454Y-114412592D01*
X140370192Y-114436603D01*
X140369412Y-114459513D01*
X140368124Y-114481344D01*
X140366336Y-114502119D01*
X140364058Y-114521859D01*
X140361298Y-114540586D01*
X140358065Y-114558324D01*
X140354368Y-114575094D01*
X140350216Y-114590918D01*
X140345619Y-114605818D01*
X140340585Y-114619818D01*
X140335124Y-114632939D01*
X140329243Y-114645203D01*
X140322953Y-114656632D01*
X140316262Y-114667249D01*
X140309179Y-114677076D01*
X140301713Y-114686136D01*
X140293874Y-114694450D01*
X140285670Y-114702040D01*
X140277109Y-114708930D01*
X140268202Y-114715140D01*
X140258957Y-114720694D01*
X140249384Y-114725613D01*
X140239490Y-114729921D01*
X140229285Y-114733638D01*
X140218779Y-114736787D01*
X140207979Y-114739391D01*
X140196896Y-114741472D01*
X140185537Y-114743052D01*
X140173913Y-114744153D01*
X140162032Y-114744797D01*
X140149902Y-114745006D01*
X140099588Y-114745006D01*
X140099588Y-114090924D01*
X140149902Y-114090924D01*
X140161537Y-114091086D01*
G37*
G36*
X142714741Y-115382281D02*
G01*
X137758720Y-115382281D01*
X137758720Y-113919954D01*
X138201577Y-113919954D01*
X138201577Y-114915000D01*
X138844180Y-114915000D01*
X138868604Y-114729131D01*
X138437027Y-114729131D01*
X138437027Y-113919954D01*
X139062289Y-113919954D01*
X139062289Y-114915000D01*
X139713440Y-114915000D01*
X139713440Y-114746472D01*
X139297739Y-114746472D01*
X139297739Y-114492215D01*
X139642366Y-114492215D01*
X139642366Y-114327107D01*
X139297739Y-114327107D01*
X139297739Y-114087993D01*
X139689016Y-114087993D01*
X139712708Y-113919954D01*
X139864138Y-113919954D01*
X139864138Y-114090924D01*
X139864138Y-114915000D01*
X140132805Y-114915000D01*
X140155977Y-114914708D01*
X140179028Y-114913806D01*
X140201918Y-114912257D01*
X140224607Y-114910021D01*
X140247055Y-114907061D01*
X140269221Y-114903337D01*
X140291064Y-114898811D01*
X140312545Y-114893445D01*
X140333623Y-114887200D01*
X140354258Y-114880039D01*
X140374410Y-114871921D01*
X140394037Y-114862810D01*
X140413101Y-114852666D01*
X140431559Y-114841451D01*
X140449373Y-114829126D01*
X140466502Y-114815654D01*
X140482905Y-114800995D01*
X140493541Y-114790191D01*
X141536713Y-114790191D01*
X141544624Y-114798957D01*
X141552740Y-114807484D01*
X141561061Y-114815770D01*
X141569585Y-114823812D01*
X141578311Y-114831607D01*
X141587239Y-114839154D01*
X141596368Y-114846448D01*
X141605697Y-114853488D01*
X141615224Y-114860272D01*
X141624949Y-114866796D01*
X141634872Y-114873058D01*
X141644991Y-114879055D01*
X141655305Y-114884785D01*
X141665814Y-114890245D01*
X141676516Y-114895432D01*
X141687411Y-114900345D01*
X141698498Y-114904980D01*
X141709775Y-114909335D01*
X141721243Y-114913406D01*
X141732899Y-114917193D01*
X141744744Y-114920691D01*
X141756776Y-114923899D01*
X141768995Y-114926814D01*
X141781399Y-114929433D01*
X141793987Y-114931753D01*
X141806760Y-114933773D01*
X141819715Y-114935489D01*
X141832852Y-114936898D01*
X141846170Y-114937999D01*
X141859668Y-114938789D01*
X141873346Y-114939265D01*
X141887202Y-114939424D01*
X141909343Y-114939028D01*
X141930927Y-114937852D01*
X141951943Y-114935916D01*
X141972383Y-114933239D01*
X141992236Y-114929841D01*
X142011494Y-114925739D01*
X142030147Y-114920953D01*
X142048184Y-114915503D01*
X142065598Y-114909408D01*
X142082377Y-114902686D01*
X142098514Y-114895357D01*
X142113997Y-114887440D01*
X142128818Y-114878954D01*
X142142967Y-114869919D01*
X142156434Y-114860353D01*
X142169211Y-114850275D01*
X142181286Y-114839705D01*
X142192652Y-114828662D01*
X142203299Y-114817165D01*
X142213216Y-114805233D01*
X142222394Y-114792886D01*
X142230825Y-114780141D01*
X142238497Y-114767020D01*
X142245403Y-114753540D01*
X142251532Y-114739721D01*
X142256874Y-114725581D01*
X142261421Y-114711141D01*
X142265162Y-114696419D01*
X142268089Y-114681435D01*
X142270191Y-114666207D01*
X142271459Y-114650755D01*
X142271884Y-114635097D01*
X142271600Y-114620302D01*
X142270756Y-114606044D01*
X142269362Y-114592314D01*
X142267429Y-114579106D01*
X142264966Y-114566411D01*
X142261986Y-114554222D01*
X142258498Y-114542529D01*
X142254512Y-114531325D01*
X142250040Y-114520601D01*
X142245093Y-114510351D01*
X142239679Y-114500565D01*
X142233811Y-114491236D01*
X142227498Y-114482356D01*
X142220752Y-114473916D01*
X142213582Y-114465909D01*
X142206000Y-114458326D01*
X142198015Y-114451160D01*
X142189639Y-114444402D01*
X142180882Y-114438045D01*
X142171754Y-114432080D01*
X142162267Y-114426499D01*
X142152430Y-114421294D01*
X142142254Y-114416458D01*
X142131750Y-114411981D01*
X142120928Y-114407857D01*
X142109799Y-114404077D01*
X142098374Y-114400632D01*
X142086662Y-114397516D01*
X142074675Y-114394719D01*
X142062423Y-114392234D01*
X142049917Y-114390053D01*
X142037167Y-114388168D01*
X142048559Y-114384748D01*
X142059695Y-114381082D01*
X142070568Y-114377168D01*
X142081171Y-114373006D01*
X142091498Y-114368593D01*
X142101540Y-114363929D01*
X142111293Y-114359012D01*
X142120747Y-114353840D01*
X142129898Y-114348413D01*
X142138737Y-114342728D01*
X142147257Y-114336785D01*
X142155452Y-114330581D01*
X142163315Y-114324117D01*
X142170839Y-114317389D01*
X142178017Y-114310398D01*
X142184842Y-114303141D01*
X142191307Y-114295617D01*
X142197405Y-114287824D01*
X142203129Y-114279763D01*
X142208473Y-114271430D01*
X142213429Y-114262824D01*
X142217990Y-114253945D01*
X142222150Y-114244791D01*
X142225902Y-114235359D01*
X142229238Y-114225650D01*
X142232151Y-114215662D01*
X142234636Y-114205393D01*
X142236684Y-114194841D01*
X142238289Y-114184006D01*
X142239444Y-114172887D01*
X142240143Y-114161480D01*
X142240377Y-114149787D01*
X142240014Y-114136807D01*
X142238928Y-114123983D01*
X142237127Y-114111332D01*
X142234616Y-114098870D01*
X142231402Y-114086614D01*
X142227490Y-114074580D01*
X142222888Y-114062787D01*
X142217601Y-114051250D01*
X142211636Y-114039986D01*
X142204999Y-114029013D01*
X142197695Y-114018346D01*
X142189733Y-114008004D01*
X142181117Y-113998002D01*
X142171854Y-113988357D01*
X142161950Y-113979086D01*
X142151411Y-113970207D01*
X142140245Y-113961736D01*
X142128456Y-113953689D01*
X142116052Y-113946083D01*
X142103038Y-113938936D01*
X142089421Y-113932264D01*
X142075207Y-113926085D01*
X142060402Y-113920413D01*
X142045013Y-113915268D01*
X142029046Y-113910665D01*
X142012507Y-113906620D01*
X141995402Y-113903152D01*
X141977738Y-113900277D01*
X141959520Y-113898012D01*
X141940756Y-113896373D01*
X141921451Y-113895377D01*
X141901612Y-113895041D01*
X141888816Y-113895178D01*
X141876163Y-113895587D01*
X141863655Y-113896267D01*
X141851289Y-113897217D01*
X141839066Y-113898436D01*
X141826985Y-113899923D01*
X141815045Y-113901677D01*
X141803247Y-113903697D01*
X141791589Y-113905981D01*
X141780072Y-113908530D01*
X141768694Y-113911340D01*
X141757455Y-113914413D01*
X141746355Y-113917746D01*
X141735393Y-113921338D01*
X141724568Y-113925189D01*
X141713881Y-113929296D01*
X141703330Y-113933660D01*
X141692916Y-113938280D01*
X141682637Y-113943153D01*
X141672494Y-113948279D01*
X141662485Y-113953657D01*
X141652610Y-113959285D01*
X141642869Y-113965164D01*
X141633262Y-113971291D01*
X141623787Y-113977666D01*
X141614444Y-113984287D01*
X141605233Y-113991153D01*
X141596153Y-113998265D01*
X141587204Y-114005619D01*
X141578386Y-114013215D01*
X141569697Y-114021053D01*
X141561137Y-114029131D01*
X141677397Y-114149787D01*
X141688133Y-114140084D01*
X141699013Y-114130865D01*
X141710055Y-114122149D01*
X141721277Y-114113955D01*
X141732696Y-114106304D01*
X141744330Y-114099216D01*
X141756198Y-114092708D01*
X141768316Y-114086803D01*
X141780704Y-114081518D01*
X141793379Y-114076874D01*
X141806359Y-114072891D01*
X141819661Y-114069587D01*
X141833304Y-114066984D01*
X141847305Y-114065100D01*
X141861683Y-114063955D01*
X141876455Y-114063569D01*
X141892043Y-114064103D01*
X141906991Y-114065688D01*
X141921248Y-114068299D01*
X141934764Y-114071911D01*
X141947489Y-114076500D01*
X141959372Y-114082039D01*
X141970363Y-114088504D01*
X141980411Y-114095870D01*
X141989466Y-114104112D01*
X141997477Y-114113205D01*
X142004394Y-114123123D01*
X142010166Y-114133842D01*
X142014744Y-114145337D01*
X142018076Y-114157582D01*
X142020113Y-114170553D01*
X142020802Y-114184225D01*
X142020079Y-114200013D01*
X142017945Y-114214772D01*
X142014454Y-114228504D01*
X142009663Y-114241210D01*
X142003625Y-114252891D01*
X141996395Y-114263548D01*
X141988028Y-114273184D01*
X141978579Y-114281800D01*
X141968102Y-114289396D01*
X141956653Y-114295976D01*
X141944285Y-114301539D01*
X141931055Y-114306087D01*
X141917015Y-114309622D01*
X141902222Y-114312145D01*
X141886730Y-114313658D01*
X141870593Y-114314162D01*
X141806113Y-114314162D01*
X141780223Y-114470722D01*
X141870593Y-114470722D01*
X141880489Y-114470848D01*
X141899476Y-114471871D01*
X141917366Y-114473945D01*
X141934137Y-114477097D01*
X141949764Y-114481357D01*
X141964222Y-114486754D01*
X141977488Y-114493315D01*
X141989536Y-114501070D01*
X142000343Y-114510047D01*
X142009884Y-114520275D01*
X142018134Y-114531783D01*
X142025071Y-114544598D01*
X142030668Y-114558750D01*
X142034902Y-114574267D01*
X142037749Y-114591178D01*
X142039184Y-114609512D01*
X142039365Y-114619221D01*
X142038567Y-114636484D01*
X142036213Y-114652727D01*
X142032360Y-114667936D01*
X142027065Y-114682099D01*
X142020386Y-114695203D01*
X142012381Y-114707235D01*
X142003108Y-114718182D01*
X141992623Y-114728032D01*
X141980985Y-114736771D01*
X141968251Y-114744386D01*
X141954478Y-114750866D01*
X141939725Y-114756196D01*
X141924049Y-114760364D01*
X141907508Y-114763357D01*
X141890158Y-114765162D01*
X141872059Y-114765767D01*
X141857480Y-114765430D01*
X141843063Y-114764410D01*
X141828818Y-114762694D01*
X141814757Y-114760268D01*
X141800892Y-114757119D01*
X141787235Y-114753235D01*
X141773798Y-114748601D01*
X141760592Y-114743205D01*
X141747630Y-114737033D01*
X141734922Y-114730073D01*
X141722482Y-114722310D01*
X141710320Y-114713732D01*
X141698449Y-114704325D01*
X141686880Y-114694077D01*
X141675625Y-114682973D01*
X141664696Y-114671001D01*
X141536713Y-114790191D01*
X140493541Y-114790191D01*
X140498542Y-114785111D01*
X140513373Y-114767964D01*
X140527358Y-114749515D01*
X140540455Y-114729726D01*
X140552625Y-114708559D01*
X140563828Y-114685974D01*
X140574022Y-114661933D01*
X140583169Y-114636399D01*
X140591226Y-114609332D01*
X140598155Y-114580694D01*
X140603914Y-114550446D01*
X140608464Y-114518551D01*
X140611764Y-114484969D01*
X140613773Y-114449662D01*
X140614452Y-114412592D01*
X140613744Y-114375056D01*
X140611650Y-114339399D01*
X140608211Y-114305577D01*
X140603470Y-114273545D01*
X140597470Y-114243257D01*
X140590254Y-114214668D01*
X140581864Y-114187733D01*
X140572343Y-114162407D01*
X140561734Y-114138645D01*
X140550079Y-114116402D01*
X140537421Y-114095632D01*
X140523803Y-114076291D01*
X140509267Y-114058333D01*
X140493856Y-114041714D01*
X140477612Y-114026387D01*
X140460579Y-114012308D01*
X140442799Y-113999433D01*
X140424314Y-113987715D01*
X140405168Y-113977109D01*
X140385403Y-113967571D01*
X140365061Y-113959056D01*
X140344186Y-113951518D01*
X140322819Y-113944911D01*
X140301005Y-113939192D01*
X140278784Y-113934315D01*
X140256201Y-113930234D01*
X140233297Y-113926905D01*
X140210115Y-113924282D01*
X140186698Y-113922321D01*
X140163089Y-113920976D01*
X140139330Y-113920202D01*
X140115464Y-113919954D01*
X139864138Y-113919954D01*
X139712708Y-113919954D01*
X139062289Y-113919954D01*
X138437027Y-113919954D01*
X138201577Y-113919954D01*
X137758720Y-113919954D01*
X137758720Y-113452184D01*
X142714741Y-113452184D01*
X142714741Y-115382281D01*
G37*
D11*
X136416119Y-102147594D02*
X135416119Y-102147594D01*
X135416119Y-102147594D02*
X135416119Y-101909499D01*
X135416119Y-101909499D02*
X135463738Y-101766642D01*
X135463738Y-101766642D02*
X135558976Y-101671404D01*
X135558976Y-101671404D02*
X135654214Y-101623785D01*
X135654214Y-101623785D02*
X135844690Y-101576166D01*
X135844690Y-101576166D02*
X135987547Y-101576166D01*
X135987547Y-101576166D02*
X136178023Y-101623785D01*
X136178023Y-101623785D02*
X136273261Y-101671404D01*
X136273261Y-101671404D02*
X136368500Y-101766642D01*
X136368500Y-101766642D02*
X136416119Y-101909499D01*
X136416119Y-101909499D02*
X136416119Y-102147594D01*
X135844690Y-101004737D02*
X135797071Y-101099975D01*
X135797071Y-101099975D02*
X135749452Y-101147594D01*
X135749452Y-101147594D02*
X135654214Y-101195213D01*
X135654214Y-101195213D02*
X135606595Y-101195213D01*
X135606595Y-101195213D02*
X135511357Y-101147594D01*
X135511357Y-101147594D02*
X135463738Y-101099975D01*
X135463738Y-101099975D02*
X135416119Y-101004737D01*
X135416119Y-101004737D02*
X135416119Y-100814261D01*
X135416119Y-100814261D02*
X135463738Y-100719023D01*
X135463738Y-100719023D02*
X135511357Y-100671404D01*
X135511357Y-100671404D02*
X135606595Y-100623785D01*
X135606595Y-100623785D02*
X135654214Y-100623785D01*
X135654214Y-100623785D02*
X135749452Y-100671404D01*
X135749452Y-100671404D02*
X135797071Y-100719023D01*
X135797071Y-100719023D02*
X135844690Y-100814261D01*
X135844690Y-100814261D02*
X135844690Y-101004737D01*
X135844690Y-101004737D02*
X135892309Y-101099975D01*
X135892309Y-101099975D02*
X135939928Y-101147594D01*
X135939928Y-101147594D02*
X136035166Y-101195213D01*
X136035166Y-101195213D02*
X136225642Y-101195213D01*
X136225642Y-101195213D02*
X136320880Y-101147594D01*
X136320880Y-101147594D02*
X136368500Y-101099975D01*
X136368500Y-101099975D02*
X136416119Y-101004737D01*
X136416119Y-101004737D02*
X136416119Y-100814261D01*
X136416119Y-100814261D02*
X136368500Y-100719023D01*
X136368500Y-100719023D02*
X136320880Y-100671404D01*
X136320880Y-100671404D02*
X136225642Y-100623785D01*
X136225642Y-100623785D02*
X136035166Y-100623785D01*
X136035166Y-100623785D02*
X135939928Y-100671404D01*
X135939928Y-100671404D02*
X135892309Y-100719023D01*
X135892309Y-100719023D02*
X135844690Y-100814261D01*
D10*
G36*
X130621537Y-114091086D02*
G01*
X130632987Y-114091593D01*
X130644240Y-114092473D01*
X130655283Y-114093756D01*
X130666104Y-114095472D01*
X130676693Y-114097649D01*
X130687035Y-114100318D01*
X130697120Y-114103506D01*
X130706935Y-114107245D01*
X130716468Y-114111563D01*
X130725707Y-114116490D01*
X130734641Y-114122055D01*
X130743256Y-114128287D01*
X130751541Y-114135216D01*
X130759484Y-114142872D01*
X130767073Y-114151283D01*
X130774295Y-114160478D01*
X130781139Y-114170489D01*
X130787592Y-114181343D01*
X130793643Y-114193070D01*
X130799279Y-114205699D01*
X130804488Y-114219261D01*
X130809258Y-114233783D01*
X130813578Y-114249297D01*
X130817435Y-114265830D01*
X130820816Y-114283413D01*
X130823711Y-114302074D01*
X130826106Y-114321844D01*
X130827990Y-114342751D01*
X130829351Y-114364825D01*
X130830176Y-114388096D01*
X130830454Y-114412592D01*
X130830192Y-114436603D01*
X130829412Y-114459513D01*
X130828124Y-114481344D01*
X130826336Y-114502119D01*
X130824058Y-114521859D01*
X130821298Y-114540586D01*
X130818065Y-114558324D01*
X130814368Y-114575094D01*
X130810216Y-114590918D01*
X130805619Y-114605818D01*
X130800585Y-114619818D01*
X130795124Y-114632939D01*
X130789243Y-114645203D01*
X130782953Y-114656632D01*
X130776262Y-114667249D01*
X130769179Y-114677076D01*
X130761713Y-114686136D01*
X130753874Y-114694450D01*
X130745670Y-114702040D01*
X130737109Y-114708930D01*
X130728202Y-114715140D01*
X130718957Y-114720694D01*
X130709384Y-114725613D01*
X130699490Y-114729921D01*
X130689285Y-114733638D01*
X130678779Y-114736787D01*
X130667979Y-114739391D01*
X130656896Y-114741472D01*
X130645537Y-114743052D01*
X130633913Y-114744153D01*
X130622032Y-114744797D01*
X130609902Y-114745006D01*
X130559588Y-114745006D01*
X130559588Y-114090924D01*
X130609902Y-114090924D01*
X130621537Y-114091086D01*
G37*
G36*
X133176207Y-115357857D02*
G01*
X128218720Y-115357857D01*
X128218720Y-113919954D01*
X128661577Y-113919954D01*
X128661577Y-114915000D01*
X129304180Y-114915000D01*
X129328604Y-114729131D01*
X128897027Y-114729131D01*
X128897027Y-113919954D01*
X129522289Y-113919954D01*
X129522289Y-114915000D01*
X130173440Y-114915000D01*
X130173440Y-114746472D01*
X129757739Y-114746472D01*
X129757739Y-114492215D01*
X130102366Y-114492215D01*
X130102366Y-114327107D01*
X129757739Y-114327107D01*
X129757739Y-114087993D01*
X130149016Y-114087993D01*
X130172708Y-113919954D01*
X130324138Y-113919954D01*
X130324138Y-114090924D01*
X130324138Y-114915000D01*
X130592805Y-114915000D01*
X130615977Y-114914708D01*
X130639028Y-114913806D01*
X130661918Y-114912257D01*
X130684607Y-114910021D01*
X130707055Y-114907061D01*
X130729221Y-114903337D01*
X130751064Y-114898811D01*
X130772545Y-114893445D01*
X130793623Y-114887200D01*
X130814258Y-114880039D01*
X130834410Y-114871921D01*
X130854037Y-114862810D01*
X130873101Y-114852666D01*
X130891559Y-114841451D01*
X130909373Y-114829126D01*
X130926502Y-114815654D01*
X130942905Y-114800995D01*
X130958542Y-114785111D01*
X130973373Y-114767964D01*
X130987358Y-114749515D01*
X131000455Y-114729726D01*
X131012625Y-114708559D01*
X131023828Y-114685974D01*
X131034022Y-114661933D01*
X131043169Y-114636399D01*
X131051226Y-114609332D01*
X131058155Y-114580694D01*
X131063914Y-114550446D01*
X131068464Y-114518551D01*
X131071764Y-114484969D01*
X131073773Y-114449662D01*
X131074452Y-114412592D01*
X131073744Y-114375056D01*
X131071650Y-114339399D01*
X131068211Y-114305577D01*
X131063470Y-114273545D01*
X131057470Y-114243257D01*
X131050254Y-114214668D01*
X131041864Y-114187733D01*
X131032343Y-114162407D01*
X131021734Y-114138645D01*
X131010079Y-114116402D01*
X130997421Y-114095632D01*
X130983803Y-114076291D01*
X130974691Y-114065034D01*
X132027732Y-114065034D01*
X132166950Y-114169815D01*
X132176662Y-114157095D01*
X132186404Y-114145305D01*
X132196210Y-114134430D01*
X132206117Y-114124454D01*
X132216160Y-114115363D01*
X132226374Y-114107141D01*
X132236796Y-114099773D01*
X132247459Y-114093244D01*
X132258400Y-114087540D01*
X132269654Y-114082646D01*
X132281257Y-114078545D01*
X132293243Y-114075224D01*
X132305649Y-114072667D01*
X132318509Y-114070859D01*
X132331860Y-114069785D01*
X132345736Y-114069431D01*
X132361324Y-114070015D01*
X132376020Y-114071750D01*
X132389809Y-114074604D01*
X132402675Y-114078548D01*
X132414602Y-114083553D01*
X132425575Y-114089588D01*
X132435577Y-114096624D01*
X132444593Y-114104632D01*
X132452608Y-114113582D01*
X132459605Y-114123443D01*
X132465569Y-114134187D01*
X132470483Y-114145783D01*
X132474333Y-114158203D01*
X132477103Y-114171415D01*
X132478776Y-114185391D01*
X132479337Y-114200101D01*
X132479028Y-114211214D01*
X132478086Y-114222368D01*
X132476489Y-114233598D01*
X132474217Y-114244941D01*
X132471246Y-114256431D01*
X132467555Y-114268107D01*
X132463123Y-114280002D01*
X132457928Y-114292154D01*
X132451947Y-114304597D01*
X132445160Y-114317370D01*
X132437545Y-114330506D01*
X132429079Y-114344043D01*
X132419742Y-114358016D01*
X132409511Y-114372462D01*
X132398364Y-114387416D01*
X132386281Y-114402914D01*
X132373238Y-114418992D01*
X132359215Y-114435687D01*
X132344190Y-114453034D01*
X132328140Y-114471070D01*
X132311045Y-114489829D01*
X132292882Y-114509349D01*
X132273630Y-114529666D01*
X132253267Y-114550814D01*
X132231772Y-114572831D01*
X132209122Y-114595753D01*
X132185295Y-114619614D01*
X132160271Y-114644452D01*
X132134027Y-114670303D01*
X132106542Y-114697201D01*
X132077793Y-114725184D01*
X132047760Y-114754288D01*
X132047760Y-114915000D01*
X132708925Y-114915000D01*
X132733350Y-114742076D01*
X132308367Y-114742076D01*
X132336124Y-114717112D01*
X132362711Y-114692941D01*
X132388149Y-114669531D01*
X132412456Y-114646850D01*
X132435650Y-114624868D01*
X132457750Y-114603552D01*
X132478776Y-114582871D01*
X132498747Y-114562794D01*
X132517680Y-114543288D01*
X132535596Y-114524322D01*
X132552512Y-114505865D01*
X132568448Y-114487885D01*
X132583423Y-114470350D01*
X132597456Y-114453229D01*
X132610565Y-114436490D01*
X132622769Y-114420102D01*
X132634087Y-114404034D01*
X132644538Y-114388252D01*
X132654141Y-114372727D01*
X132662915Y-114357426D01*
X132670879Y-114342319D01*
X132678051Y-114327372D01*
X132684450Y-114312555D01*
X132690096Y-114297836D01*
X132695006Y-114283184D01*
X132699201Y-114268566D01*
X132702699Y-114253952D01*
X132705518Y-114239310D01*
X132707678Y-114224608D01*
X132709198Y-114209815D01*
X132710096Y-114194899D01*
X132710391Y-114179829D01*
X132710050Y-114165624D01*
X132709030Y-114151554D01*
X132707330Y-114137641D01*
X132704952Y-114123904D01*
X132701897Y-114110364D01*
X132698166Y-114097043D01*
X132693760Y-114083960D01*
X132688680Y-114071137D01*
X132682927Y-114058593D01*
X132676502Y-114046351D01*
X132669406Y-114034430D01*
X132661640Y-114022851D01*
X132653205Y-114011636D01*
X132644103Y-114000804D01*
X132634333Y-113990376D01*
X132623898Y-113980374D01*
X132612798Y-113970817D01*
X132601035Y-113961727D01*
X132588608Y-113953124D01*
X132575521Y-113945029D01*
X132561772Y-113937462D01*
X132547364Y-113930445D01*
X132532297Y-113923998D01*
X132516573Y-113918141D01*
X132500192Y-113912896D01*
X132483155Y-113908284D01*
X132465465Y-113904324D01*
X132447120Y-113901037D01*
X132428124Y-113898445D01*
X132408476Y-113896568D01*
X132388177Y-113895426D01*
X132367230Y-113895041D01*
X132352392Y-113895236D01*
X132337872Y-113895815D01*
X132323664Y-113896775D01*
X132309766Y-113898108D01*
X132296171Y-113899810D01*
X132282876Y-113901876D01*
X132269877Y-113904299D01*
X132257168Y-113907074D01*
X132244745Y-113910196D01*
X132232604Y-113913659D01*
X132220740Y-113917458D01*
X132209149Y-113921587D01*
X132197826Y-113926041D01*
X132186768Y-113930814D01*
X132175968Y-113935900D01*
X132165424Y-113941295D01*
X132155130Y-113946992D01*
X132145082Y-113952987D01*
X132135275Y-113959273D01*
X132125706Y-113965846D01*
X132116369Y-113972699D01*
X132107260Y-113979827D01*
X132098375Y-113987225D01*
X132089709Y-113994887D01*
X132081257Y-114002808D01*
X132073016Y-114010982D01*
X132064980Y-114019404D01*
X132057146Y-114028067D01*
X132049509Y-114036968D01*
X132042063Y-114046100D01*
X132034806Y-114055457D01*
X132027732Y-114065034D01*
X130974691Y-114065034D01*
X130969267Y-114058333D01*
X130953856Y-114041714D01*
X130937612Y-114026387D01*
X130920579Y-114012308D01*
X130902799Y-113999433D01*
X130884314Y-113987715D01*
X130865168Y-113977109D01*
X130845403Y-113967571D01*
X130825061Y-113959056D01*
X130804186Y-113951518D01*
X130782819Y-113944911D01*
X130761005Y-113939192D01*
X130738784Y-113934315D01*
X130716201Y-113930234D01*
X130693297Y-113926905D01*
X130670115Y-113924282D01*
X130646698Y-113922321D01*
X130623089Y-113920976D01*
X130599330Y-113920202D01*
X130575464Y-113919954D01*
X130324138Y-113919954D01*
X130172708Y-113919954D01*
X129522289Y-113919954D01*
X128897027Y-113919954D01*
X128661577Y-113919954D01*
X128218720Y-113919954D01*
X128218720Y-113452184D01*
X133176207Y-113452184D01*
X133176207Y-115357857D01*
G37*
D11*
X105251214Y-82631619D02*
X104679786Y-82631619D01*
X104965500Y-82631619D02*
X104965500Y-81631619D01*
X104965500Y-81631619D02*
X104870262Y-81774476D01*
X104870262Y-81774476D02*
X104775024Y-81869714D01*
X104775024Y-81869714D02*
X104679786Y-81917333D01*
X140813500Y-94813285D02*
X140861119Y-94670428D01*
X140861119Y-94670428D02*
X140861119Y-94432333D01*
X140861119Y-94432333D02*
X140813500Y-94337095D01*
X140813500Y-94337095D02*
X140765880Y-94289476D01*
X140765880Y-94289476D02*
X140670642Y-94241857D01*
X140670642Y-94241857D02*
X140575404Y-94241857D01*
X140575404Y-94241857D02*
X140480166Y-94289476D01*
X140480166Y-94289476D02*
X140432547Y-94337095D01*
X140432547Y-94337095D02*
X140384928Y-94432333D01*
X140384928Y-94432333D02*
X140337309Y-94622809D01*
X140337309Y-94622809D02*
X140289690Y-94718047D01*
X140289690Y-94718047D02*
X140242071Y-94765666D01*
X140242071Y-94765666D02*
X140146833Y-94813285D01*
X140146833Y-94813285D02*
X140051595Y-94813285D01*
X140051595Y-94813285D02*
X139956357Y-94765666D01*
X139956357Y-94765666D02*
X139908738Y-94718047D01*
X139908738Y-94718047D02*
X139861119Y-94622809D01*
X139861119Y-94622809D02*
X139861119Y-94384714D01*
X139861119Y-94384714D02*
X139908738Y-94241857D01*
X140861119Y-93813285D02*
X139861119Y-93813285D01*
X139861119Y-93813285D02*
X139861119Y-93575190D01*
X139861119Y-93575190D02*
X139908738Y-93432333D01*
X139908738Y-93432333D02*
X140003976Y-93337095D01*
X140003976Y-93337095D02*
X140099214Y-93289476D01*
X140099214Y-93289476D02*
X140289690Y-93241857D01*
X140289690Y-93241857D02*
X140432547Y-93241857D01*
X140432547Y-93241857D02*
X140623023Y-93289476D01*
X140623023Y-93289476D02*
X140718261Y-93337095D01*
X140718261Y-93337095D02*
X140813500Y-93432333D01*
X140813500Y-93432333D02*
X140861119Y-93575190D01*
X140861119Y-93575190D02*
X140861119Y-93813285D01*
X140575404Y-92860904D02*
X140575404Y-92384714D01*
X140861119Y-92956142D02*
X139861119Y-92622809D01*
X139861119Y-92622809D02*
X140861119Y-92289476D01*
D10*
G36*
X121221537Y-114071086D02*
G01*
X121232987Y-114071593D01*
X121244240Y-114072473D01*
X121255283Y-114073756D01*
X121266104Y-114075472D01*
X121276693Y-114077649D01*
X121287035Y-114080318D01*
X121297120Y-114083506D01*
X121306935Y-114087245D01*
X121316468Y-114091563D01*
X121325707Y-114096490D01*
X121334641Y-114102055D01*
X121343256Y-114108287D01*
X121351541Y-114115216D01*
X121359484Y-114122872D01*
X121367073Y-114131283D01*
X121374295Y-114140478D01*
X121381139Y-114150489D01*
X121387592Y-114161343D01*
X121393643Y-114173070D01*
X121399279Y-114185699D01*
X121404488Y-114199261D01*
X121409258Y-114213783D01*
X121413578Y-114229297D01*
X121417435Y-114245830D01*
X121420816Y-114263413D01*
X121423711Y-114282074D01*
X121426106Y-114301844D01*
X121427990Y-114322751D01*
X121429351Y-114344825D01*
X121430176Y-114368096D01*
X121430454Y-114392592D01*
X121430192Y-114416603D01*
X121429412Y-114439513D01*
X121428124Y-114461344D01*
X121426336Y-114482119D01*
X121424058Y-114501859D01*
X121421298Y-114520586D01*
X121418065Y-114538324D01*
X121414368Y-114555094D01*
X121410216Y-114570918D01*
X121405619Y-114585818D01*
X121400585Y-114599818D01*
X121395124Y-114612939D01*
X121389243Y-114625203D01*
X121382953Y-114636632D01*
X121376262Y-114647249D01*
X121369179Y-114657076D01*
X121361713Y-114666136D01*
X121353874Y-114674450D01*
X121345670Y-114682040D01*
X121337109Y-114688930D01*
X121328202Y-114695140D01*
X121318957Y-114700694D01*
X121309384Y-114705613D01*
X121299490Y-114709921D01*
X121289285Y-114713638D01*
X121278779Y-114716787D01*
X121267979Y-114719391D01*
X121256896Y-114721472D01*
X121245537Y-114723052D01*
X121233913Y-114724153D01*
X121222032Y-114724797D01*
X121209902Y-114725006D01*
X121159588Y-114725006D01*
X121159588Y-114070924D01*
X121209902Y-114070924D01*
X121221537Y-114071086D01*
G37*
G36*
X123805027Y-115337857D02*
G01*
X118818720Y-115337857D01*
X118818720Y-113899954D01*
X119261577Y-113899954D01*
X119261577Y-114895000D01*
X119904180Y-114895000D01*
X119928604Y-114709131D01*
X119497027Y-114709131D01*
X119497027Y-113899954D01*
X120122289Y-113899954D01*
X120122289Y-114895000D01*
X120773440Y-114895000D01*
X120773440Y-114726472D01*
X120357739Y-114726472D01*
X120357739Y-114472215D01*
X120702366Y-114472215D01*
X120702366Y-114307107D01*
X120357739Y-114307107D01*
X120357739Y-114067993D01*
X120749016Y-114067993D01*
X120772708Y-113899954D01*
X120924138Y-113899954D01*
X120924138Y-114070924D01*
X120924138Y-114895000D01*
X121192805Y-114895000D01*
X121215977Y-114894708D01*
X121239028Y-114893806D01*
X121261918Y-114892257D01*
X121284607Y-114890021D01*
X121307055Y-114887061D01*
X121329221Y-114883337D01*
X121351064Y-114878811D01*
X121372545Y-114873445D01*
X121393623Y-114867200D01*
X121414258Y-114860039D01*
X121434410Y-114851921D01*
X121454037Y-114842810D01*
X121473101Y-114832666D01*
X121491559Y-114821451D01*
X121509373Y-114809126D01*
X121526502Y-114795654D01*
X121542905Y-114780995D01*
X121558542Y-114765111D01*
X121573373Y-114747964D01*
X121587358Y-114729515D01*
X121600455Y-114709726D01*
X121612625Y-114688559D01*
X121623828Y-114665974D01*
X121634022Y-114641933D01*
X121643169Y-114616399D01*
X121651226Y-114589332D01*
X121658155Y-114560694D01*
X121663914Y-114530446D01*
X121668464Y-114498551D01*
X121671764Y-114464969D01*
X121673773Y-114429662D01*
X121674452Y-114392592D01*
X121673744Y-114355056D01*
X121671650Y-114319399D01*
X121668211Y-114285577D01*
X121663470Y-114253545D01*
X121657470Y-114223257D01*
X121650254Y-114194668D01*
X121641864Y-114167733D01*
X121632343Y-114142407D01*
X121621734Y-114118645D01*
X121610079Y-114096402D01*
X121609437Y-114095348D01*
X122654110Y-114095348D01*
X122750342Y-114251175D01*
X122955017Y-114123436D01*
X122955017Y-114723541D01*
X122715171Y-114723541D01*
X122715171Y-114895000D01*
X123362170Y-114895000D01*
X123362170Y-114723541D01*
X123176057Y-114723541D01*
X123176057Y-113899954D01*
X122975045Y-113899954D01*
X122654110Y-114095348D01*
X121609437Y-114095348D01*
X121597421Y-114075632D01*
X121583803Y-114056291D01*
X121569267Y-114038333D01*
X121553856Y-114021714D01*
X121537612Y-114006387D01*
X121520579Y-113992308D01*
X121502799Y-113979433D01*
X121484314Y-113967715D01*
X121465168Y-113957109D01*
X121445403Y-113947571D01*
X121425061Y-113939056D01*
X121404186Y-113931518D01*
X121382819Y-113924911D01*
X121361005Y-113919192D01*
X121338784Y-113914315D01*
X121316201Y-113910234D01*
X121293297Y-113906905D01*
X121270115Y-113904282D01*
X121246698Y-113902321D01*
X121223089Y-113900976D01*
X121199330Y-113900202D01*
X121175464Y-113899954D01*
X120924138Y-113899954D01*
X120772708Y-113899954D01*
X120122289Y-113899954D01*
X119497027Y-113899954D01*
X119261577Y-113899954D01*
X118818720Y-113899954D01*
X118818720Y-113457097D01*
X123805027Y-113457097D01*
X123805027Y-115337857D01*
G37*
D11*
X136241500Y-92122475D02*
X136289119Y-91979618D01*
X136289119Y-91979618D02*
X136289119Y-91741523D01*
X136289119Y-91741523D02*
X136241500Y-91646285D01*
X136241500Y-91646285D02*
X136193880Y-91598666D01*
X136193880Y-91598666D02*
X136098642Y-91551047D01*
X136098642Y-91551047D02*
X136003404Y-91551047D01*
X136003404Y-91551047D02*
X135908166Y-91598666D01*
X135908166Y-91598666D02*
X135860547Y-91646285D01*
X135860547Y-91646285D02*
X135812928Y-91741523D01*
X135812928Y-91741523D02*
X135765309Y-91931999D01*
X135765309Y-91931999D02*
X135717690Y-92027237D01*
X135717690Y-92027237D02*
X135670071Y-92074856D01*
X135670071Y-92074856D02*
X135574833Y-92122475D01*
X135574833Y-92122475D02*
X135479595Y-92122475D01*
X135479595Y-92122475D02*
X135384357Y-92074856D01*
X135384357Y-92074856D02*
X135336738Y-92027237D01*
X135336738Y-92027237D02*
X135289119Y-91931999D01*
X135289119Y-91931999D02*
X135289119Y-91693904D01*
X135289119Y-91693904D02*
X135336738Y-91551047D01*
X136193880Y-90551047D02*
X136241500Y-90598666D01*
X136241500Y-90598666D02*
X136289119Y-90741523D01*
X136289119Y-90741523D02*
X136289119Y-90836761D01*
X136289119Y-90836761D02*
X136241500Y-90979618D01*
X136241500Y-90979618D02*
X136146261Y-91074856D01*
X136146261Y-91074856D02*
X136051023Y-91122475D01*
X136051023Y-91122475D02*
X135860547Y-91170094D01*
X135860547Y-91170094D02*
X135717690Y-91170094D01*
X135717690Y-91170094D02*
X135527214Y-91122475D01*
X135527214Y-91122475D02*
X135431976Y-91074856D01*
X135431976Y-91074856D02*
X135336738Y-90979618D01*
X135336738Y-90979618D02*
X135289119Y-90836761D01*
X135289119Y-90836761D02*
X135289119Y-90741523D01*
X135289119Y-90741523D02*
X135336738Y-90598666D01*
X135336738Y-90598666D02*
X135384357Y-90551047D01*
X136289119Y-89646285D02*
X136289119Y-90122475D01*
X136289119Y-90122475D02*
X135289119Y-90122475D01*
X136003404Y-96853285D02*
X136003404Y-96377095D01*
X136289119Y-96948523D02*
X135289119Y-96615190D01*
X135289119Y-96615190D02*
X136289119Y-96281857D01*
X135289119Y-95758047D02*
X135289119Y-95662809D01*
X135289119Y-95662809D02*
X135336738Y-95567571D01*
X135336738Y-95567571D02*
X135384357Y-95519952D01*
X135384357Y-95519952D02*
X135479595Y-95472333D01*
X135479595Y-95472333D02*
X135670071Y-95424714D01*
X135670071Y-95424714D02*
X135908166Y-95424714D01*
X135908166Y-95424714D02*
X136098642Y-95472333D01*
X136098642Y-95472333D02*
X136193880Y-95519952D01*
X136193880Y-95519952D02*
X136241500Y-95567571D01*
X136241500Y-95567571D02*
X136289119Y-95662809D01*
X136289119Y-95662809D02*
X136289119Y-95758047D01*
X136289119Y-95758047D02*
X136241500Y-95853285D01*
X136241500Y-95853285D02*
X136193880Y-95900904D01*
X136193880Y-95900904D02*
X136098642Y-95948523D01*
X136098642Y-95948523D02*
X135908166Y-95996142D01*
X135908166Y-95996142D02*
X135670071Y-95996142D01*
X135670071Y-95996142D02*
X135479595Y-95948523D01*
X135479595Y-95948523D02*
X135384357Y-95900904D01*
X135384357Y-95900904D02*
X135336738Y-95853285D01*
X135336738Y-95853285D02*
X135289119Y-95758047D01*
X139861119Y-84915189D02*
X139861119Y-84296142D01*
X139861119Y-84296142D02*
X140242071Y-84629475D01*
X140242071Y-84629475D02*
X140242071Y-84486618D01*
X140242071Y-84486618D02*
X140289690Y-84391380D01*
X140289690Y-84391380D02*
X140337309Y-84343761D01*
X140337309Y-84343761D02*
X140432547Y-84296142D01*
X140432547Y-84296142D02*
X140670642Y-84296142D01*
X140670642Y-84296142D02*
X140765880Y-84343761D01*
X140765880Y-84343761D02*
X140813500Y-84391380D01*
X140813500Y-84391380D02*
X140861119Y-84486618D01*
X140861119Y-84486618D02*
X140861119Y-84772332D01*
X140861119Y-84772332D02*
X140813500Y-84867570D01*
X140813500Y-84867570D02*
X140765880Y-84915189D01*
X140765880Y-83867570D02*
X140813500Y-83819951D01*
X140813500Y-83819951D02*
X140861119Y-83867570D01*
X140861119Y-83867570D02*
X140813500Y-83915189D01*
X140813500Y-83915189D02*
X140765880Y-83867570D01*
X140765880Y-83867570D02*
X140861119Y-83867570D01*
X139861119Y-83486618D02*
X139861119Y-82867571D01*
X139861119Y-82867571D02*
X140242071Y-83200904D01*
X140242071Y-83200904D02*
X140242071Y-83058047D01*
X140242071Y-83058047D02*
X140289690Y-82962809D01*
X140289690Y-82962809D02*
X140337309Y-82915190D01*
X140337309Y-82915190D02*
X140432547Y-82867571D01*
X140432547Y-82867571D02*
X140670642Y-82867571D01*
X140670642Y-82867571D02*
X140765880Y-82915190D01*
X140765880Y-82915190D02*
X140813500Y-82962809D01*
X140813500Y-82962809D02*
X140861119Y-83058047D01*
X140861119Y-83058047D02*
X140861119Y-83343761D01*
X140861119Y-83343761D02*
X140813500Y-83438999D01*
X140813500Y-83438999D02*
X140765880Y-83486618D01*
X139861119Y-82581856D02*
X140861119Y-82248523D01*
X140861119Y-82248523D02*
X139861119Y-81915190D01*
X139908738Y-89280904D02*
X139861119Y-89376142D01*
X139861119Y-89376142D02*
X139861119Y-89518999D01*
X139861119Y-89518999D02*
X139908738Y-89661856D01*
X139908738Y-89661856D02*
X140003976Y-89757094D01*
X140003976Y-89757094D02*
X140099214Y-89804713D01*
X140099214Y-89804713D02*
X140289690Y-89852332D01*
X140289690Y-89852332D02*
X140432547Y-89852332D01*
X140432547Y-89852332D02*
X140623023Y-89804713D01*
X140623023Y-89804713D02*
X140718261Y-89757094D01*
X140718261Y-89757094D02*
X140813500Y-89661856D01*
X140813500Y-89661856D02*
X140861119Y-89518999D01*
X140861119Y-89518999D02*
X140861119Y-89423761D01*
X140861119Y-89423761D02*
X140813500Y-89280904D01*
X140813500Y-89280904D02*
X140765880Y-89233285D01*
X140765880Y-89233285D02*
X140432547Y-89233285D01*
X140432547Y-89233285D02*
X140432547Y-89423761D01*
X140861119Y-88804713D02*
X139861119Y-88804713D01*
X139861119Y-88804713D02*
X140861119Y-88233285D01*
X140861119Y-88233285D02*
X139861119Y-88233285D01*
X140861119Y-87757094D02*
X139861119Y-87757094D01*
X139861119Y-87757094D02*
X139861119Y-87518999D01*
X139861119Y-87518999D02*
X139908738Y-87376142D01*
X139908738Y-87376142D02*
X140003976Y-87280904D01*
X140003976Y-87280904D02*
X140099214Y-87233285D01*
X140099214Y-87233285D02*
X140289690Y-87185666D01*
X140289690Y-87185666D02*
X140432547Y-87185666D01*
X140432547Y-87185666D02*
X140623023Y-87233285D01*
X140623023Y-87233285D02*
X140718261Y-87280904D01*
X140718261Y-87280904D02*
X140813500Y-87376142D01*
X140813500Y-87376142D02*
X140861119Y-87518999D01*
X140861119Y-87518999D02*
X140861119Y-87757094D01*
X140861119Y-99544094D02*
X139861119Y-99544094D01*
X139861119Y-99544094D02*
X139861119Y-99305999D01*
X139861119Y-99305999D02*
X139908738Y-99163142D01*
X139908738Y-99163142D02*
X140003976Y-99067904D01*
X140003976Y-99067904D02*
X140099214Y-99020285D01*
X140099214Y-99020285D02*
X140289690Y-98972666D01*
X140289690Y-98972666D02*
X140432547Y-98972666D01*
X140432547Y-98972666D02*
X140623023Y-99020285D01*
X140623023Y-99020285D02*
X140718261Y-99067904D01*
X140718261Y-99067904D02*
X140813500Y-99163142D01*
X140813500Y-99163142D02*
X140861119Y-99305999D01*
X140861119Y-99305999D02*
X140861119Y-99544094D01*
X139861119Y-98639332D02*
X139861119Y-98020285D01*
X139861119Y-98020285D02*
X140242071Y-98353618D01*
X140242071Y-98353618D02*
X140242071Y-98210761D01*
X140242071Y-98210761D02*
X140289690Y-98115523D01*
X140289690Y-98115523D02*
X140337309Y-98067904D01*
X140337309Y-98067904D02*
X140432547Y-98020285D01*
X140432547Y-98020285D02*
X140670642Y-98020285D01*
X140670642Y-98020285D02*
X140765880Y-98067904D01*
X140765880Y-98067904D02*
X140813500Y-98115523D01*
X140813500Y-98115523D02*
X140861119Y-98210761D01*
X140861119Y-98210761D02*
X140861119Y-98496475D01*
X140861119Y-98496475D02*
X140813500Y-98591713D01*
X140813500Y-98591713D02*
X140765880Y-98639332D01*
X135416119Y-86042476D02*
X135416119Y-86518666D01*
X135416119Y-86518666D02*
X135892309Y-86566285D01*
X135892309Y-86566285D02*
X135844690Y-86518666D01*
X135844690Y-86518666D02*
X135797071Y-86423428D01*
X135797071Y-86423428D02*
X135797071Y-86185333D01*
X135797071Y-86185333D02*
X135844690Y-86090095D01*
X135844690Y-86090095D02*
X135892309Y-86042476D01*
X135892309Y-86042476D02*
X135987547Y-85994857D01*
X135987547Y-85994857D02*
X136225642Y-85994857D01*
X136225642Y-85994857D02*
X136320880Y-86042476D01*
X136320880Y-86042476D02*
X136368500Y-86090095D01*
X136368500Y-86090095D02*
X136416119Y-86185333D01*
X136416119Y-86185333D02*
X136416119Y-86423428D01*
X136416119Y-86423428D02*
X136368500Y-86518666D01*
X136368500Y-86518666D02*
X136320880Y-86566285D01*
X135416119Y-85709142D02*
X136416119Y-85375809D01*
X136416119Y-85375809D02*
X135416119Y-85042476D01*
X99081619Y-101501904D02*
X99891142Y-101501904D01*
X99891142Y-101501904D02*
X99986380Y-101454285D01*
X99986380Y-101454285D02*
X100034000Y-101406666D01*
X100034000Y-101406666D02*
X100081619Y-101311428D01*
X100081619Y-101311428D02*
X100081619Y-101120952D01*
X100081619Y-101120952D02*
X100034000Y-101025714D01*
X100034000Y-101025714D02*
X99986380Y-100978095D01*
X99986380Y-100978095D02*
X99891142Y-100930476D01*
X99891142Y-100930476D02*
X99081619Y-100930476D01*
X100081619Y-99930476D02*
X100081619Y-100501904D01*
X100081619Y-100216190D02*
X99081619Y-100216190D01*
X99081619Y-100216190D02*
X99224476Y-100311428D01*
X99224476Y-100311428D02*
X99319714Y-100406666D01*
X99319714Y-100406666D02*
X99367333Y-100501904D01*
X115921619Y-95860475D02*
X116921619Y-95622380D01*
X116921619Y-95622380D02*
X116207333Y-95431904D01*
X116207333Y-95431904D02*
X116921619Y-95241428D01*
X116921619Y-95241428D02*
X115921619Y-95003333D01*
X116397809Y-94622380D02*
X116397809Y-94289047D01*
X116921619Y-94146190D02*
X116921619Y-94622380D01*
X116921619Y-94622380D02*
X115921619Y-94622380D01*
X115921619Y-94622380D02*
X115921619Y-94146190D01*
X116921619Y-93717618D02*
X115921619Y-93717618D01*
X115921619Y-93717618D02*
X116635904Y-93384285D01*
X116635904Y-93384285D02*
X115921619Y-93050952D01*
X115921619Y-93050952D02*
X116921619Y-93050952D01*
X115921619Y-92384285D02*
X115921619Y-92193809D01*
X115921619Y-92193809D02*
X115969238Y-92098571D01*
X115969238Y-92098571D02*
X116064476Y-92003333D01*
X116064476Y-92003333D02*
X116254952Y-91955714D01*
X116254952Y-91955714D02*
X116588285Y-91955714D01*
X116588285Y-91955714D02*
X116778761Y-92003333D01*
X116778761Y-92003333D02*
X116874000Y-92098571D01*
X116874000Y-92098571D02*
X116921619Y-92193809D01*
X116921619Y-92193809D02*
X116921619Y-92384285D01*
X116921619Y-92384285D02*
X116874000Y-92479523D01*
X116874000Y-92479523D02*
X116778761Y-92574761D01*
X116778761Y-92574761D02*
X116588285Y-92622380D01*
X116588285Y-92622380D02*
X116254952Y-92622380D01*
X116254952Y-92622380D02*
X116064476Y-92574761D01*
X116064476Y-92574761D02*
X115969238Y-92479523D01*
X115969238Y-92479523D02*
X115921619Y-92384285D01*
X116874000Y-91574761D02*
X116921619Y-91431904D01*
X116921619Y-91431904D02*
X116921619Y-91193809D01*
X116921619Y-91193809D02*
X116874000Y-91098571D01*
X116874000Y-91098571D02*
X116826380Y-91050952D01*
X116826380Y-91050952D02*
X116731142Y-91003333D01*
X116731142Y-91003333D02*
X116635904Y-91003333D01*
X116635904Y-91003333D02*
X116540666Y-91050952D01*
X116540666Y-91050952D02*
X116493047Y-91098571D01*
X116493047Y-91098571D02*
X116445428Y-91193809D01*
X116445428Y-91193809D02*
X116397809Y-91384285D01*
X116397809Y-91384285D02*
X116350190Y-91479523D01*
X116350190Y-91479523D02*
X116302571Y-91527142D01*
X116302571Y-91527142D02*
X116207333Y-91574761D01*
X116207333Y-91574761D02*
X116112095Y-91574761D01*
X116112095Y-91574761D02*
X116016857Y-91527142D01*
X116016857Y-91527142D02*
X115969238Y-91479523D01*
X115969238Y-91479523D02*
X115921619Y-91384285D01*
X115921619Y-91384285D02*
X115921619Y-91146190D01*
X115921619Y-91146190D02*
X115969238Y-91003333D01*
X116921619Y-89812856D02*
X115921619Y-89812856D01*
X115921619Y-89812856D02*
X115921619Y-89574761D01*
X115921619Y-89574761D02*
X115969238Y-89431904D01*
X115969238Y-89431904D02*
X116064476Y-89336666D01*
X116064476Y-89336666D02*
X116159714Y-89289047D01*
X116159714Y-89289047D02*
X116350190Y-89241428D01*
X116350190Y-89241428D02*
X116493047Y-89241428D01*
X116493047Y-89241428D02*
X116683523Y-89289047D01*
X116683523Y-89289047D02*
X116778761Y-89336666D01*
X116778761Y-89336666D02*
X116874000Y-89431904D01*
X116874000Y-89431904D02*
X116921619Y-89574761D01*
X116921619Y-89574761D02*
X116921619Y-89812856D01*
X116921619Y-88289047D02*
X116921619Y-88860475D01*
X116921619Y-88574761D02*
X115921619Y-88574761D01*
X115921619Y-88574761D02*
X116064476Y-88669999D01*
X116064476Y-88669999D02*
X116159714Y-88765237D01*
X116159714Y-88765237D02*
X116207333Y-88860475D01*
X116921619Y-87098570D02*
X115921619Y-87098570D01*
X115921619Y-87098570D02*
X116635904Y-86765237D01*
X116635904Y-86765237D02*
X115921619Y-86431904D01*
X115921619Y-86431904D02*
X116921619Y-86431904D01*
X116921619Y-85955713D02*
X116254952Y-85955713D01*
X115921619Y-85955713D02*
X115969238Y-86003332D01*
X115969238Y-86003332D02*
X116016857Y-85955713D01*
X116016857Y-85955713D02*
X115969238Y-85908094D01*
X115969238Y-85908094D02*
X115921619Y-85955713D01*
X115921619Y-85955713D02*
X116016857Y-85955713D01*
X116254952Y-85479523D02*
X116921619Y-85479523D01*
X116350190Y-85479523D02*
X116302571Y-85431904D01*
X116302571Y-85431904D02*
X116254952Y-85336666D01*
X116254952Y-85336666D02*
X116254952Y-85193809D01*
X116254952Y-85193809D02*
X116302571Y-85098571D01*
X116302571Y-85098571D02*
X116397809Y-85050952D01*
X116397809Y-85050952D02*
X116921619Y-85050952D01*
X116921619Y-84574761D02*
X116254952Y-84574761D01*
X115921619Y-84574761D02*
X115969238Y-84622380D01*
X115969238Y-84622380D02*
X116016857Y-84574761D01*
X116016857Y-84574761D02*
X115969238Y-84527142D01*
X115969238Y-84527142D02*
X115921619Y-84574761D01*
X115921619Y-84574761D02*
X116016857Y-84574761D01*
X112283833Y-105552380D02*
X112236214Y-105600000D01*
X112236214Y-105600000D02*
X112093357Y-105647619D01*
X112093357Y-105647619D02*
X111998119Y-105647619D01*
X111998119Y-105647619D02*
X111855262Y-105600000D01*
X111855262Y-105600000D02*
X111760024Y-105504761D01*
X111760024Y-105504761D02*
X111712405Y-105409523D01*
X111712405Y-105409523D02*
X111664786Y-105219047D01*
X111664786Y-105219047D02*
X111664786Y-105076190D01*
X111664786Y-105076190D02*
X111712405Y-104885714D01*
X111712405Y-104885714D02*
X111760024Y-104790476D01*
X111760024Y-104790476D02*
X111855262Y-104695238D01*
X111855262Y-104695238D02*
X111998119Y-104647619D01*
X111998119Y-104647619D02*
X112093357Y-104647619D01*
X112093357Y-104647619D02*
X112236214Y-104695238D01*
X112236214Y-104695238D02*
X112283833Y-104742857D01*
X113236214Y-105647619D02*
X112664786Y-105647619D01*
X112950500Y-105647619D02*
X112950500Y-104647619D01*
X112950500Y-104647619D02*
X112855262Y-104790476D01*
X112855262Y-104790476D02*
X112760024Y-104885714D01*
X112760024Y-104885714D02*
X112664786Y-104933333D01*
X101512619Y-98063333D02*
X102226904Y-98063333D01*
X102226904Y-98063333D02*
X102369761Y-98110952D01*
X102369761Y-98110952D02*
X102465000Y-98206190D01*
X102465000Y-98206190D02*
X102512619Y-98349047D01*
X102512619Y-98349047D02*
X102512619Y-98444285D01*
X102512619Y-97587142D02*
X101512619Y-97587142D01*
X101512619Y-97587142D02*
X101512619Y-97206190D01*
X101512619Y-97206190D02*
X101560238Y-97110952D01*
X101560238Y-97110952D02*
X101607857Y-97063333D01*
X101607857Y-97063333D02*
X101703095Y-97015714D01*
X101703095Y-97015714D02*
X101845952Y-97015714D01*
X101845952Y-97015714D02*
X101941190Y-97063333D01*
X101941190Y-97063333D02*
X101988809Y-97110952D01*
X101988809Y-97110952D02*
X102036428Y-97206190D01*
X102036428Y-97206190D02*
X102036428Y-97587142D01*
X102512619Y-96063333D02*
X102512619Y-96634761D01*
X102512619Y-96349047D02*
X101512619Y-96349047D01*
X101512619Y-96349047D02*
X101655476Y-96444285D01*
X101655476Y-96444285D02*
X101750714Y-96539523D01*
X101750714Y-96539523D02*
X101798333Y-96634761D01*
X102773810Y-100702619D02*
X103392857Y-100702619D01*
X103392857Y-100702619D02*
X103059524Y-101083571D01*
X103059524Y-101083571D02*
X103202381Y-101083571D01*
X103202381Y-101083571D02*
X103297619Y-101131190D01*
X103297619Y-101131190D02*
X103345238Y-101178809D01*
X103345238Y-101178809D02*
X103392857Y-101274047D01*
X103392857Y-101274047D02*
X103392857Y-101512142D01*
X103392857Y-101512142D02*
X103345238Y-101607380D01*
X103345238Y-101607380D02*
X103297619Y-101655000D01*
X103297619Y-101655000D02*
X103202381Y-101702619D01*
X103202381Y-101702619D02*
X102916667Y-101702619D01*
X102916667Y-101702619D02*
X102821429Y-101655000D01*
X102821429Y-101655000D02*
X102773810Y-101607380D01*
X103821429Y-101607380D02*
X103869048Y-101655000D01*
X103869048Y-101655000D02*
X103821429Y-101702619D01*
X103821429Y-101702619D02*
X103773810Y-101655000D01*
X103773810Y-101655000D02*
X103821429Y-101607380D01*
X103821429Y-101607380D02*
X103821429Y-101702619D01*
X104202381Y-100702619D02*
X104821428Y-100702619D01*
X104821428Y-100702619D02*
X104488095Y-101083571D01*
X104488095Y-101083571D02*
X104630952Y-101083571D01*
X104630952Y-101083571D02*
X104726190Y-101131190D01*
X104726190Y-101131190D02*
X104773809Y-101178809D01*
X104773809Y-101178809D02*
X104821428Y-101274047D01*
X104821428Y-101274047D02*
X104821428Y-101512142D01*
X104821428Y-101512142D02*
X104773809Y-101607380D01*
X104773809Y-101607380D02*
X104726190Y-101655000D01*
X104726190Y-101655000D02*
X104630952Y-101702619D01*
X104630952Y-101702619D02*
X104345238Y-101702619D01*
X104345238Y-101702619D02*
X104250000Y-101655000D01*
X104250000Y-101655000D02*
X104202381Y-101607380D01*
X105107143Y-100702619D02*
X105440476Y-101702619D01*
X105440476Y-101702619D02*
X105773809Y-100702619D01*
X106372619Y-98184285D02*
X106372619Y-98755713D01*
X106372619Y-98469999D02*
X105372619Y-98469999D01*
X105372619Y-98469999D02*
X105515476Y-98565237D01*
X105515476Y-98565237D02*
X105610714Y-98660475D01*
X105610714Y-98660475D02*
X105658333Y-98755713D01*
X105332619Y-96393332D02*
X105332619Y-95774285D01*
X105332619Y-95774285D02*
X105713571Y-96107618D01*
X105713571Y-96107618D02*
X105713571Y-95964761D01*
X105713571Y-95964761D02*
X105761190Y-95869523D01*
X105761190Y-95869523D02*
X105808809Y-95821904D01*
X105808809Y-95821904D02*
X105904047Y-95774285D01*
X105904047Y-95774285D02*
X106142142Y-95774285D01*
X106142142Y-95774285D02*
X106237380Y-95821904D01*
X106237380Y-95821904D02*
X106285000Y-95869523D01*
X106285000Y-95869523D02*
X106332619Y-95964761D01*
X106332619Y-95964761D02*
X106332619Y-96250475D01*
X106332619Y-96250475D02*
X106285000Y-96345713D01*
X106285000Y-96345713D02*
X106237380Y-96393332D01*
X103268095Y-94000238D02*
X103172857Y-93952619D01*
X103172857Y-93952619D02*
X103030000Y-93952619D01*
X103030000Y-93952619D02*
X102887143Y-94000238D01*
X102887143Y-94000238D02*
X102791905Y-94095476D01*
X102791905Y-94095476D02*
X102744286Y-94190714D01*
X102744286Y-94190714D02*
X102696667Y-94381190D01*
X102696667Y-94381190D02*
X102696667Y-94524047D01*
X102696667Y-94524047D02*
X102744286Y-94714523D01*
X102744286Y-94714523D02*
X102791905Y-94809761D01*
X102791905Y-94809761D02*
X102887143Y-94905000D01*
X102887143Y-94905000D02*
X103030000Y-94952619D01*
X103030000Y-94952619D02*
X103125238Y-94952619D01*
X103125238Y-94952619D02*
X103268095Y-94905000D01*
X103268095Y-94905000D02*
X103315714Y-94857380D01*
X103315714Y-94857380D02*
X103315714Y-94524047D01*
X103315714Y-94524047D02*
X103125238Y-94524047D01*
X103744286Y-94952619D02*
X103744286Y-93952619D01*
X103744286Y-93952619D02*
X104315714Y-94952619D01*
X104315714Y-94952619D02*
X104315714Y-93952619D01*
X104791905Y-94952619D02*
X104791905Y-93952619D01*
X104791905Y-93952619D02*
X105030000Y-93952619D01*
X105030000Y-93952619D02*
X105172857Y-94000238D01*
X105172857Y-94000238D02*
X105268095Y-94095476D01*
X105268095Y-94095476D02*
X105315714Y-94190714D01*
X105315714Y-94190714D02*
X105363333Y-94381190D01*
X105363333Y-94381190D02*
X105363333Y-94524047D01*
X105363333Y-94524047D02*
X105315714Y-94714523D01*
X105315714Y-94714523D02*
X105268095Y-94809761D01*
X105268095Y-94809761D02*
X105172857Y-94905000D01*
X105172857Y-94905000D02*
X105030000Y-94952619D01*
X105030000Y-94952619D02*
X104791905Y-94952619D01*
D12*
X111950476Y-110634095D02*
X111950476Y-111281714D01*
X111950476Y-111281714D02*
X111988571Y-111357904D01*
X111988571Y-111357904D02*
X112026666Y-111396000D01*
X112026666Y-111396000D02*
X112102857Y-111434095D01*
X112102857Y-111434095D02*
X112255238Y-111434095D01*
X112255238Y-111434095D02*
X112331428Y-111396000D01*
X112331428Y-111396000D02*
X112369523Y-111357904D01*
X112369523Y-111357904D02*
X112407619Y-111281714D01*
X112407619Y-111281714D02*
X112407619Y-110634095D01*
X112712380Y-110634095D02*
X113245714Y-110634095D01*
X113245714Y-110634095D02*
X112902856Y-111434095D01*
D10*
G36*
X114647302Y-115392281D02*
G01*
X110559076Y-115392281D01*
X110559076Y-113929954D01*
X111001933Y-113929954D01*
X111001933Y-114925000D01*
X111644536Y-114925000D01*
X111668960Y-114739131D01*
X111237383Y-114739131D01*
X111237383Y-113929954D01*
X111789372Y-113929954D01*
X111789372Y-114592096D01*
X111789730Y-114611817D01*
X111790804Y-114631127D01*
X111792595Y-114650012D01*
X111795105Y-114668459D01*
X111798332Y-114686452D01*
X111802279Y-114703979D01*
X111806947Y-114721024D01*
X111812335Y-114737574D01*
X111818444Y-114753614D01*
X111825277Y-114769131D01*
X111832832Y-114784110D01*
X111841111Y-114798537D01*
X111850115Y-114812398D01*
X111859844Y-114825679D01*
X111870300Y-114838366D01*
X111881482Y-114850444D01*
X111893392Y-114861900D01*
X111906031Y-114872719D01*
X111919399Y-114882888D01*
X111933497Y-114892391D01*
X111948325Y-114901216D01*
X111963886Y-114909347D01*
X111980178Y-114916771D01*
X111997204Y-114923473D01*
X112014963Y-114929440D01*
X112033457Y-114934657D01*
X112052686Y-114939110D01*
X112072651Y-114942785D01*
X112093353Y-114945668D01*
X112114793Y-114947745D01*
X112136971Y-114949002D01*
X112159888Y-114949424D01*
X112182677Y-114948977D01*
X112204742Y-114947649D01*
X112226085Y-114945458D01*
X112246705Y-114942425D01*
X112266602Y-114938567D01*
X112285776Y-114933903D01*
X112304227Y-114928454D01*
X112314076Y-114925000D01*
X112614913Y-114925000D01*
X112816657Y-114925000D01*
X112823985Y-114502948D01*
X112824236Y-114488225D01*
X112824440Y-114473901D01*
X112824598Y-114459957D01*
X112824709Y-114446371D01*
X112824775Y-114433125D01*
X112824795Y-114420198D01*
X112824769Y-114407570D01*
X112824698Y-114395221D01*
X112824583Y-114383132D01*
X112824423Y-114371281D01*
X112824219Y-114359649D01*
X112823972Y-114348216D01*
X112823681Y-114336962D01*
X112823347Y-114325867D01*
X112822969Y-114314911D01*
X112822550Y-114304073D01*
X112822088Y-114293334D01*
X112821584Y-114282674D01*
X112821039Y-114272073D01*
X112820452Y-114261510D01*
X112819825Y-114250966D01*
X112819156Y-114240420D01*
X112818448Y-114229853D01*
X112817699Y-114219245D01*
X112816911Y-114208574D01*
X112816083Y-114197823D01*
X112815216Y-114186969D01*
X112814311Y-114175994D01*
X112813367Y-114164878D01*
X112812385Y-114153599D01*
X112811365Y-114142139D01*
X112810307Y-114130478D01*
X112930963Y-114755739D01*
X113109016Y-114755739D01*
X113220879Y-114130478D01*
X113219951Y-114142756D01*
X113219046Y-114154742D01*
X113218165Y-114166458D01*
X113217309Y-114177931D01*
X113216480Y-114189183D01*
X113215678Y-114200240D01*
X113214905Y-114211127D01*
X113214163Y-114221866D01*
X113213452Y-114232484D01*
X113212773Y-114243004D01*
X113212129Y-114253451D01*
X113211520Y-114263850D01*
X113210947Y-114274224D01*
X113210412Y-114284599D01*
X113209917Y-114294998D01*
X113209461Y-114305447D01*
X113209047Y-114315969D01*
X113208676Y-114326590D01*
X113208348Y-114337333D01*
X113208066Y-114348223D01*
X113207831Y-114359285D01*
X113207643Y-114370543D01*
X113207504Y-114382021D01*
X113207415Y-114393745D01*
X113207378Y-114405737D01*
X113207394Y-114418024D01*
X113207464Y-114430629D01*
X113207589Y-114443576D01*
X113207771Y-114456891D01*
X113208010Y-114470598D01*
X113208309Y-114484721D01*
X113208667Y-114499284D01*
X113220879Y-114925000D01*
X113426288Y-114925000D01*
X113370356Y-113929954D01*
X113558179Y-113929954D01*
X113558179Y-114102390D01*
X113763587Y-114102390D01*
X113763587Y-114752076D01*
X113558179Y-114752076D01*
X113558179Y-114925000D01*
X114204445Y-114925000D01*
X114204445Y-114752076D01*
X113999037Y-114752076D01*
X113999037Y-114102390D01*
X114204445Y-114102390D01*
X114204445Y-113929954D01*
X113558179Y-113929954D01*
X113370356Y-113929954D01*
X113128311Y-113929954D01*
X113023531Y-114573290D01*
X112912889Y-113929954D01*
X112671089Y-113929954D01*
X112614913Y-114925000D01*
X112314076Y-114925000D01*
X112321955Y-114922237D01*
X112338960Y-114915271D01*
X112355242Y-114907576D01*
X112370801Y-114899170D01*
X112385636Y-114890073D01*
X112399748Y-114880303D01*
X112413137Y-114869879D01*
X112425803Y-114858821D01*
X112437745Y-114847147D01*
X112448964Y-114834876D01*
X112459459Y-114822028D01*
X112469231Y-114808620D01*
X112478279Y-114794673D01*
X112486604Y-114780205D01*
X112494205Y-114765235D01*
X112501083Y-114749781D01*
X112507236Y-114733864D01*
X112512666Y-114717502D01*
X112517372Y-114700713D01*
X112521354Y-114683518D01*
X112524612Y-114665934D01*
X112527146Y-114647981D01*
X112528957Y-114629678D01*
X112530043Y-114611043D01*
X112530405Y-114592096D01*
X112530405Y-113929954D01*
X112294222Y-113929954D01*
X112294222Y-114504413D01*
X112294161Y-114520917D01*
X112293969Y-114536907D01*
X112293633Y-114552382D01*
X112293138Y-114567341D01*
X112292472Y-114581784D01*
X112291620Y-114595710D01*
X112290570Y-114609118D01*
X112289307Y-114622009D01*
X112287817Y-114634380D01*
X112286089Y-114646232D01*
X112284106Y-114657564D01*
X112281857Y-114668376D01*
X112279328Y-114678666D01*
X112276504Y-114688434D01*
X112269920Y-114706402D01*
X112261996Y-114722275D01*
X112252624Y-114736048D01*
X112241695Y-114747716D01*
X112229101Y-114757273D01*
X112214731Y-114764716D01*
X112198479Y-114770038D01*
X112180234Y-114773235D01*
X112170331Y-114774035D01*
X112159888Y-114774302D01*
X112149468Y-114774035D01*
X112139583Y-114773235D01*
X112121368Y-114770038D01*
X112105136Y-114764716D01*
X112090779Y-114757273D01*
X112078190Y-114747716D01*
X112067260Y-114736048D01*
X112057882Y-114722275D01*
X112049949Y-114706402D01*
X112043352Y-114688434D01*
X112040521Y-114678666D01*
X112037984Y-114668376D01*
X112035727Y-114657564D01*
X112033738Y-114646232D01*
X112032001Y-114634380D01*
X112030505Y-114622009D01*
X112029235Y-114609118D01*
X112028178Y-114595710D01*
X112027320Y-114581784D01*
X112026649Y-114567341D01*
X112026150Y-114552382D01*
X112025810Y-114536907D01*
X112025617Y-114520917D01*
X112025555Y-114504413D01*
X112025555Y-113929954D01*
X111789372Y-113929954D01*
X111237383Y-113929954D01*
X111001933Y-113929954D01*
X110559076Y-113929954D01*
X110559076Y-113487097D01*
X114647302Y-113487097D01*
X114647302Y-115392281D01*
G37*
D11*
X120581905Y-111342619D02*
X120581905Y-110342619D01*
X120581905Y-110342619D02*
X120820000Y-110342619D01*
X120820000Y-110342619D02*
X120962857Y-110390238D01*
X120962857Y-110390238D02*
X121058095Y-110485476D01*
X121058095Y-110485476D02*
X121105714Y-110580714D01*
X121105714Y-110580714D02*
X121153333Y-110771190D01*
X121153333Y-110771190D02*
X121153333Y-110914047D01*
X121153333Y-110914047D02*
X121105714Y-111104523D01*
X121105714Y-111104523D02*
X121058095Y-111199761D01*
X121058095Y-111199761D02*
X120962857Y-111295000D01*
X120962857Y-111295000D02*
X120820000Y-111342619D01*
X120820000Y-111342619D02*
X120581905Y-111342619D01*
X122105714Y-111342619D02*
X121534286Y-111342619D01*
X121820000Y-111342619D02*
X121820000Y-110342619D01*
X121820000Y-110342619D02*
X121724762Y-110485476D01*
X121724762Y-110485476D02*
X121629524Y-110580714D01*
X121629524Y-110580714D02*
X121534286Y-110628333D01*
X129931905Y-111322619D02*
X129931905Y-110322619D01*
X129931905Y-110322619D02*
X130170000Y-110322619D01*
X130170000Y-110322619D02*
X130312857Y-110370238D01*
X130312857Y-110370238D02*
X130408095Y-110465476D01*
X130408095Y-110465476D02*
X130455714Y-110560714D01*
X130455714Y-110560714D02*
X130503333Y-110751190D01*
X130503333Y-110751190D02*
X130503333Y-110894047D01*
X130503333Y-110894047D02*
X130455714Y-111084523D01*
X130455714Y-111084523D02*
X130408095Y-111179761D01*
X130408095Y-111179761D02*
X130312857Y-111275000D01*
X130312857Y-111275000D02*
X130170000Y-111322619D01*
X130170000Y-111322619D02*
X129931905Y-111322619D01*
X130884286Y-110417857D02*
X130931905Y-110370238D01*
X130931905Y-110370238D02*
X131027143Y-110322619D01*
X131027143Y-110322619D02*
X131265238Y-110322619D01*
X131265238Y-110322619D02*
X131360476Y-110370238D01*
X131360476Y-110370238D02*
X131408095Y-110417857D01*
X131408095Y-110417857D02*
X131455714Y-110513095D01*
X131455714Y-110513095D02*
X131455714Y-110608333D01*
X131455714Y-110608333D02*
X131408095Y-110751190D01*
X131408095Y-110751190D02*
X130836667Y-111322619D01*
X130836667Y-111322619D02*
X131455714Y-111322619D01*
X139441905Y-111342619D02*
X139441905Y-110342619D01*
X139441905Y-110342619D02*
X139680000Y-110342619D01*
X139680000Y-110342619D02*
X139822857Y-110390238D01*
X139822857Y-110390238D02*
X139918095Y-110485476D01*
X139918095Y-110485476D02*
X139965714Y-110580714D01*
X139965714Y-110580714D02*
X140013333Y-110771190D01*
X140013333Y-110771190D02*
X140013333Y-110914047D01*
X140013333Y-110914047D02*
X139965714Y-111104523D01*
X139965714Y-111104523D02*
X139918095Y-111199761D01*
X139918095Y-111199761D02*
X139822857Y-111295000D01*
X139822857Y-111295000D02*
X139680000Y-111342619D01*
X139680000Y-111342619D02*
X139441905Y-111342619D01*
X140346667Y-110342619D02*
X140965714Y-110342619D01*
X140965714Y-110342619D02*
X140632381Y-110723571D01*
X140632381Y-110723571D02*
X140775238Y-110723571D01*
X140775238Y-110723571D02*
X140870476Y-110771190D01*
X140870476Y-110771190D02*
X140918095Y-110818809D01*
X140918095Y-110818809D02*
X140965714Y-110914047D01*
X140965714Y-110914047D02*
X140965714Y-111152142D01*
X140965714Y-111152142D02*
X140918095Y-111247380D01*
X140918095Y-111247380D02*
X140870476Y-111295000D01*
X140870476Y-111295000D02*
X140775238Y-111342619D01*
X140775238Y-111342619D02*
X140489524Y-111342619D01*
X140489524Y-111342619D02*
X140394286Y-111295000D01*
X140394286Y-111295000D02*
X140346667Y-111247380D01*
X121066833Y-105553380D02*
X121019214Y-105601000D01*
X121019214Y-105601000D02*
X120876357Y-105648619D01*
X120876357Y-105648619D02*
X120781119Y-105648619D01*
X120781119Y-105648619D02*
X120638262Y-105601000D01*
X120638262Y-105601000D02*
X120543024Y-105505761D01*
X120543024Y-105505761D02*
X120495405Y-105410523D01*
X120495405Y-105410523D02*
X120447786Y-105220047D01*
X120447786Y-105220047D02*
X120447786Y-105077190D01*
X120447786Y-105077190D02*
X120495405Y-104886714D01*
X120495405Y-104886714D02*
X120543024Y-104791476D01*
X120543024Y-104791476D02*
X120638262Y-104696238D01*
X120638262Y-104696238D02*
X120781119Y-104648619D01*
X120781119Y-104648619D02*
X120876357Y-104648619D01*
X120876357Y-104648619D02*
X121019214Y-104696238D01*
X121019214Y-104696238D02*
X121066833Y-104743857D01*
X121447786Y-104743857D02*
X121495405Y-104696238D01*
X121495405Y-104696238D02*
X121590643Y-104648619D01*
X121590643Y-104648619D02*
X121828738Y-104648619D01*
X121828738Y-104648619D02*
X121923976Y-104696238D01*
X121923976Y-104696238D02*
X121971595Y-104743857D01*
X121971595Y-104743857D02*
X122019214Y-104839095D01*
X122019214Y-104839095D02*
X122019214Y-104934333D01*
X122019214Y-104934333D02*
X121971595Y-105077190D01*
X121971595Y-105077190D02*
X121400167Y-105648619D01*
X121400167Y-105648619D02*
X122019214Y-105648619D01*
X130359833Y-105553380D02*
X130312214Y-105601000D01*
X130312214Y-105601000D02*
X130169357Y-105648619D01*
X130169357Y-105648619D02*
X130074119Y-105648619D01*
X130074119Y-105648619D02*
X129931262Y-105601000D01*
X129931262Y-105601000D02*
X129836024Y-105505761D01*
X129836024Y-105505761D02*
X129788405Y-105410523D01*
X129788405Y-105410523D02*
X129740786Y-105220047D01*
X129740786Y-105220047D02*
X129740786Y-105077190D01*
X129740786Y-105077190D02*
X129788405Y-104886714D01*
X129788405Y-104886714D02*
X129836024Y-104791476D01*
X129836024Y-104791476D02*
X129931262Y-104696238D01*
X129931262Y-104696238D02*
X130074119Y-104648619D01*
X130074119Y-104648619D02*
X130169357Y-104648619D01*
X130169357Y-104648619D02*
X130312214Y-104696238D01*
X130312214Y-104696238D02*
X130359833Y-104743857D01*
X130693167Y-104648619D02*
X131312214Y-104648619D01*
X131312214Y-104648619D02*
X130978881Y-105029571D01*
X130978881Y-105029571D02*
X131121738Y-105029571D01*
X131121738Y-105029571D02*
X131216976Y-105077190D01*
X131216976Y-105077190D02*
X131264595Y-105124809D01*
X131264595Y-105124809D02*
X131312214Y-105220047D01*
X131312214Y-105220047D02*
X131312214Y-105458142D01*
X131312214Y-105458142D02*
X131264595Y-105553380D01*
X131264595Y-105553380D02*
X131216976Y-105601000D01*
X131216976Y-105601000D02*
X131121738Y-105648619D01*
X131121738Y-105648619D02*
X130836024Y-105648619D01*
X130836024Y-105648619D02*
X130740786Y-105601000D01*
X130740786Y-105601000D02*
X130693167Y-105553380D01*
X140111833Y-105553380D02*
X140064214Y-105601000D01*
X140064214Y-105601000D02*
X139921357Y-105648619D01*
X139921357Y-105648619D02*
X139826119Y-105648619D01*
X139826119Y-105648619D02*
X139683262Y-105601000D01*
X139683262Y-105601000D02*
X139588024Y-105505761D01*
X139588024Y-105505761D02*
X139540405Y-105410523D01*
X139540405Y-105410523D02*
X139492786Y-105220047D01*
X139492786Y-105220047D02*
X139492786Y-105077190D01*
X139492786Y-105077190D02*
X139540405Y-104886714D01*
X139540405Y-104886714D02*
X139588024Y-104791476D01*
X139588024Y-104791476D02*
X139683262Y-104696238D01*
X139683262Y-104696238D02*
X139826119Y-104648619D01*
X139826119Y-104648619D02*
X139921357Y-104648619D01*
X139921357Y-104648619D02*
X140064214Y-104696238D01*
X140064214Y-104696238D02*
X140111833Y-104743857D01*
X140968976Y-104981952D02*
X140968976Y-105648619D01*
X140730881Y-104601000D02*
X140492786Y-105315285D01*
X140492786Y-105315285D02*
X141111833Y-105315285D01*
D13*
X103266667Y-110205000D02*
X103409524Y-110252619D01*
X103409524Y-110252619D02*
X103647619Y-110252619D01*
X103647619Y-110252619D02*
X103742857Y-110205000D01*
X103742857Y-110205000D02*
X103790476Y-110157380D01*
X103790476Y-110157380D02*
X103838095Y-110062142D01*
X103838095Y-110062142D02*
X103838095Y-109966904D01*
X103838095Y-109966904D02*
X103790476Y-109871666D01*
X103790476Y-109871666D02*
X103742857Y-109824047D01*
X103742857Y-109824047D02*
X103647619Y-109776428D01*
X103647619Y-109776428D02*
X103457143Y-109728809D01*
X103457143Y-109728809D02*
X103361905Y-109681190D01*
X103361905Y-109681190D02*
X103314286Y-109633571D01*
X103314286Y-109633571D02*
X103266667Y-109538333D01*
X103266667Y-109538333D02*
X103266667Y-109443095D01*
X103266667Y-109443095D02*
X103314286Y-109347857D01*
X103314286Y-109347857D02*
X103361905Y-109300238D01*
X103361905Y-109300238D02*
X103457143Y-109252619D01*
X103457143Y-109252619D02*
X103695238Y-109252619D01*
X103695238Y-109252619D02*
X103838095Y-109300238D01*
X104171429Y-109252619D02*
X104409524Y-110252619D01*
X104409524Y-110252619D02*
X104600000Y-109538333D01*
X104600000Y-109538333D02*
X104790476Y-110252619D01*
X104790476Y-110252619D02*
X105028572Y-109252619D01*
X105933333Y-110252619D02*
X105361905Y-110252619D01*
X105647619Y-110252619D02*
X105647619Y-109252619D01*
X105647619Y-109252619D02*
X105552381Y-109395476D01*
X105552381Y-109395476D02*
X105457143Y-109490714D01*
X105457143Y-109490714D02*
X105361905Y-109538333D01*
D10*
G36*
X106273597Y-115402281D02*
G01*
X102883172Y-115402281D01*
X102883172Y-114816053D01*
X103326029Y-114816053D01*
X103333952Y-114823663D01*
X103342107Y-114831147D01*
X103350500Y-114838497D01*
X103359135Y-114845705D01*
X103368018Y-114852765D01*
X103377153Y-114859668D01*
X103386545Y-114866406D01*
X103396200Y-114872973D01*
X103406122Y-114879361D01*
X103416316Y-114885562D01*
X103426787Y-114891569D01*
X103437540Y-114897373D01*
X103448581Y-114902968D01*
X103459913Y-114908347D01*
X103471543Y-114913500D01*
X103483475Y-114918422D01*
X103495713Y-114923103D01*
X103508264Y-114927538D01*
X103521131Y-114931717D01*
X103534320Y-114935634D01*
X103547837Y-114939282D01*
X103561685Y-114942651D01*
X103575869Y-114945736D01*
X103590396Y-114948528D01*
X103605269Y-114951020D01*
X103620494Y-114953204D01*
X103636075Y-114955073D01*
X103652018Y-114956619D01*
X103668327Y-114957835D01*
X103685008Y-114958713D01*
X103702066Y-114959245D01*
X103719505Y-114959424D01*
X103742951Y-114959047D01*
X103765792Y-114957927D01*
X103788019Y-114956077D01*
X103809624Y-114953509D01*
X103830597Y-114950237D01*
X103850928Y-114946275D01*
X103870610Y-114941635D01*
X103889631Y-114936331D01*
X103907984Y-114930377D01*
X103925659Y-114923785D01*
X103942648Y-114916568D01*
X103958940Y-114908741D01*
X103974526Y-114900316D01*
X103989398Y-114891307D01*
X104003546Y-114881726D01*
X104016962Y-114871588D01*
X104029635Y-114860905D01*
X104041558Y-114849691D01*
X104052720Y-114837959D01*
X104063112Y-114825722D01*
X104072726Y-114812994D01*
X104081551Y-114799788D01*
X104089580Y-114786117D01*
X104096803Y-114771994D01*
X104103210Y-114757433D01*
X104108792Y-114742447D01*
X104113541Y-114727050D01*
X104117447Y-114711253D01*
X104120501Y-114695072D01*
X104122694Y-114678519D01*
X104124017Y-114661607D01*
X104124459Y-114644351D01*
X104124134Y-114627478D01*
X104123163Y-114611197D01*
X104121551Y-114595493D01*
X104119306Y-114580351D01*
X104116434Y-114565756D01*
X104112941Y-114551692D01*
X104108834Y-114538145D01*
X104104119Y-114525099D01*
X104098801Y-114512540D01*
X104092888Y-114500452D01*
X104086387Y-114488821D01*
X104079302Y-114477632D01*
X104071641Y-114466869D01*
X104063410Y-114456517D01*
X104054616Y-114446562D01*
X104045264Y-114436988D01*
X104035361Y-114427781D01*
X104024913Y-114418925D01*
X104013927Y-114410405D01*
X104002409Y-114402207D01*
X103990366Y-114394314D01*
X103977804Y-114386713D01*
X103964728Y-114379389D01*
X103951146Y-114372325D01*
X103937064Y-114365508D01*
X103922488Y-114358921D01*
X103907425Y-114352551D01*
X103891880Y-114346382D01*
X103875861Y-114340399D01*
X103859373Y-114334587D01*
X103842423Y-114328931D01*
X103825018Y-114323415D01*
X103810465Y-114318839D01*
X103796565Y-114314398D01*
X103783305Y-114310081D01*
X103770674Y-114305876D01*
X103758657Y-114301771D01*
X103747244Y-114297754D01*
X103736421Y-114293814D01*
X103726176Y-114289939D01*
X103716496Y-114286117D01*
X103707368Y-114282335D01*
X103690722Y-114274849D01*
X103676137Y-114267386D01*
X103663512Y-114259851D01*
X103652748Y-114252150D01*
X103643744Y-114244189D01*
X103636400Y-114235873D01*
X103630616Y-114227107D01*
X103626291Y-114217798D01*
X103623326Y-114207850D01*
X103621621Y-114197170D01*
X103621075Y-114185662D01*
X103621766Y-114174020D01*
X103623811Y-114163092D01*
X103627167Y-114152884D01*
X103631791Y-114143401D01*
X103637640Y-114134648D01*
X103644671Y-114126629D01*
X103652841Y-114119351D01*
X103662108Y-114112817D01*
X103672427Y-114107033D01*
X103683757Y-114102004D01*
X103696055Y-114097736D01*
X103709277Y-114094232D01*
X103723381Y-114091498D01*
X103738323Y-114089539D01*
X103754061Y-114088359D01*
X103770551Y-114087965D01*
X103785599Y-114088286D01*
X103800597Y-114089250D01*
X103815531Y-114090858D01*
X103830387Y-114093113D01*
X103845150Y-114096017D01*
X103859806Y-114099570D01*
X103874339Y-114103775D01*
X103888734Y-114108634D01*
X103902979Y-114114149D01*
X103917057Y-114120320D01*
X103930953Y-114127151D01*
X103944655Y-114134642D01*
X103958145Y-114142796D01*
X103971411Y-114151615D01*
X103984437Y-114161100D01*
X103997209Y-114171252D01*
X104108584Y-114043513D01*
X104100410Y-114035946D01*
X104092056Y-114028587D01*
X104083519Y-114021438D01*
X104074798Y-114014501D01*
X104065893Y-114007779D01*
X104056802Y-114001274D01*
X104047524Y-113994987D01*
X104038058Y-113988921D01*
X104028404Y-113983078D01*
X104018560Y-113977460D01*
X104008524Y-113972069D01*
X103998296Y-113966907D01*
X103987876Y-113961977D01*
X103977261Y-113957280D01*
X103966450Y-113952818D01*
X103955443Y-113948594D01*
X103944239Y-113944610D01*
X103932836Y-113940868D01*
X103929805Y-113939954D01*
X104303001Y-113939954D01*
X104303001Y-114935000D01*
X104954152Y-114935000D01*
X104954152Y-114766472D01*
X104538451Y-114766472D01*
X104538451Y-114512215D01*
X104883078Y-114512215D01*
X104883078Y-114347107D01*
X104538451Y-114347107D01*
X104538451Y-114107993D01*
X104929728Y-114107993D01*
X104953420Y-113939954D01*
X105163713Y-113939954D01*
X105163713Y-114935000D01*
X105806316Y-114935000D01*
X105830740Y-114749131D01*
X105399163Y-114749131D01*
X105399163Y-113939954D01*
X105163713Y-113939954D01*
X104953420Y-113939954D01*
X104303001Y-113939954D01*
X103929805Y-113939954D01*
X103921234Y-113937369D01*
X103909430Y-113934117D01*
X103897425Y-113931112D01*
X103885217Y-113928358D01*
X103872805Y-113925856D01*
X103860189Y-113923609D01*
X103847366Y-113921618D01*
X103834336Y-113919886D01*
X103821097Y-113918414D01*
X103807650Y-113917206D01*
X103793992Y-113916262D01*
X103780122Y-113915585D01*
X103766040Y-113915178D01*
X103751745Y-113915041D01*
X103732555Y-113915352D01*
X103713606Y-113916279D01*
X103694924Y-113917818D01*
X103676531Y-113919962D01*
X103658452Y-113922708D01*
X103640711Y-113926047D01*
X103623333Y-113929976D01*
X103606340Y-113934489D01*
X103589758Y-113939580D01*
X103573611Y-113945244D01*
X103557922Y-113951474D01*
X103542715Y-113958267D01*
X103528016Y-113965615D01*
X103513847Y-113973513D01*
X103500234Y-113981957D01*
X103487199Y-113990940D01*
X103474768Y-114000457D01*
X103462964Y-114010501D01*
X103451812Y-114021069D01*
X103441335Y-114032154D01*
X103431557Y-114043750D01*
X103422504Y-114055853D01*
X103414198Y-114068456D01*
X103406664Y-114081554D01*
X103399926Y-114095141D01*
X103394009Y-114109213D01*
X103388935Y-114123762D01*
X103384730Y-114138785D01*
X103381418Y-114154275D01*
X103379022Y-114170226D01*
X103377567Y-114186634D01*
X103377076Y-114203492D01*
X103377338Y-114217506D01*
X103378132Y-114231158D01*
X103379466Y-114244458D01*
X103381351Y-114257414D01*
X103383797Y-114270034D01*
X103386815Y-114282327D01*
X103390414Y-114294301D01*
X103394604Y-114305963D01*
X103399396Y-114317324D01*
X103404800Y-114328391D01*
X103410824Y-114339172D01*
X103417481Y-114349676D01*
X103424779Y-114359911D01*
X103432729Y-114369885D01*
X103441340Y-114379608D01*
X103450624Y-114389086D01*
X103460589Y-114398329D01*
X103471247Y-114407345D01*
X103482606Y-114416143D01*
X103494678Y-114424730D01*
X103507472Y-114433115D01*
X103520997Y-114441307D01*
X103535266Y-114449313D01*
X103550286Y-114457142D01*
X103566069Y-114464803D01*
X103582625Y-114472304D01*
X103599963Y-114479653D01*
X103618094Y-114486858D01*
X103637027Y-114493929D01*
X103656773Y-114500872D01*
X103677342Y-114507698D01*
X103698744Y-114514413D01*
X103711447Y-114518350D01*
X103723596Y-114522242D01*
X103735200Y-114526099D01*
X103746271Y-114529929D01*
X103756817Y-114533742D01*
X103766849Y-114537547D01*
X103776376Y-114541351D01*
X103785408Y-114545165D01*
X103802029Y-114552855D01*
X103816789Y-114560687D01*
X103829769Y-114568732D01*
X103841046Y-114577062D01*
X103850701Y-114585746D01*
X103858811Y-114594856D01*
X103865457Y-114604463D01*
X103870718Y-114614637D01*
X103874672Y-114625449D01*
X103877398Y-114636971D01*
X103878975Y-114649272D01*
X103879484Y-114662424D01*
X103878703Y-114676552D01*
X103876395Y-114689891D01*
X103872614Y-114702423D01*
X103867413Y-114714131D01*
X103860845Y-114725000D01*
X103852964Y-114735012D01*
X103843823Y-114744150D01*
X103833475Y-114752397D01*
X103821973Y-114759738D01*
X103809371Y-114766154D01*
X103795723Y-114771629D01*
X103781081Y-114776146D01*
X103765498Y-114779689D01*
X103749029Y-114782240D01*
X103731726Y-114783784D01*
X103713643Y-114784302D01*
X103703733Y-114784197D01*
X103693925Y-114783883D01*
X103674610Y-114782633D01*
X103655697Y-114780563D01*
X103637183Y-114777684D01*
X103619066Y-114774007D01*
X103601342Y-114769541D01*
X103584010Y-114764299D01*
X103567067Y-114758290D01*
X103550510Y-114751525D01*
X103534337Y-114744016D01*
X103518545Y-114735772D01*
X103503132Y-114726805D01*
X103488096Y-114717126D01*
X103473433Y-114706744D01*
X103459142Y-114695671D01*
X103445220Y-114683918D01*
X103326029Y-114816053D01*
X102883172Y-114816053D01*
X102883172Y-113472184D01*
X106273597Y-113472184D01*
X106273597Y-115402281D01*
G37*
D11*
X164618095Y-100742619D02*
X164618095Y-101552142D01*
X164618095Y-101552142D02*
X164665714Y-101647380D01*
X164665714Y-101647380D02*
X164713333Y-101695000D01*
X164713333Y-101695000D02*
X164808571Y-101742619D01*
X164808571Y-101742619D02*
X164999047Y-101742619D01*
X164999047Y-101742619D02*
X165094285Y-101695000D01*
X165094285Y-101695000D02*
X165141904Y-101647380D01*
X165141904Y-101647380D02*
X165189523Y-101552142D01*
X165189523Y-101552142D02*
X165189523Y-100742619D01*
X165570476Y-100742619D02*
X166189523Y-100742619D01*
X166189523Y-100742619D02*
X165856190Y-101123571D01*
X165856190Y-101123571D02*
X165999047Y-101123571D01*
X165999047Y-101123571D02*
X166094285Y-101171190D01*
X166094285Y-101171190D02*
X166141904Y-101218809D01*
X166141904Y-101218809D02*
X166189523Y-101314047D01*
X166189523Y-101314047D02*
X166189523Y-101552142D01*
X166189523Y-101552142D02*
X166141904Y-101647380D01*
X166141904Y-101647380D02*
X166094285Y-101695000D01*
X166094285Y-101695000D02*
X165999047Y-101742619D01*
X165999047Y-101742619D02*
X165713333Y-101742619D01*
X165713333Y-101742619D02*
X165618095Y-101695000D01*
X165618095Y-101695000D02*
X165570476Y-101647380D01*
X155735000Y-99566285D02*
X155782619Y-99423428D01*
X155782619Y-99423428D02*
X155782619Y-99185333D01*
X155782619Y-99185333D02*
X155735000Y-99090095D01*
X155735000Y-99090095D02*
X155687380Y-99042476D01*
X155687380Y-99042476D02*
X155592142Y-98994857D01*
X155592142Y-98994857D02*
X155496904Y-98994857D01*
X155496904Y-98994857D02*
X155401666Y-99042476D01*
X155401666Y-99042476D02*
X155354047Y-99090095D01*
X155354047Y-99090095D02*
X155306428Y-99185333D01*
X155306428Y-99185333D02*
X155258809Y-99375809D01*
X155258809Y-99375809D02*
X155211190Y-99471047D01*
X155211190Y-99471047D02*
X155163571Y-99518666D01*
X155163571Y-99518666D02*
X155068333Y-99566285D01*
X155068333Y-99566285D02*
X154973095Y-99566285D01*
X154973095Y-99566285D02*
X154877857Y-99518666D01*
X154877857Y-99518666D02*
X154830238Y-99471047D01*
X154830238Y-99471047D02*
X154782619Y-99375809D01*
X154782619Y-99375809D02*
X154782619Y-99137714D01*
X154782619Y-99137714D02*
X154830238Y-98994857D01*
X155782619Y-98566285D02*
X154782619Y-98566285D01*
X154782619Y-98566285D02*
X154782619Y-98328190D01*
X154782619Y-98328190D02*
X154830238Y-98185333D01*
X154830238Y-98185333D02*
X154925476Y-98090095D01*
X154925476Y-98090095D02*
X155020714Y-98042476D01*
X155020714Y-98042476D02*
X155211190Y-97994857D01*
X155211190Y-97994857D02*
X155354047Y-97994857D01*
X155354047Y-97994857D02*
X155544523Y-98042476D01*
X155544523Y-98042476D02*
X155639761Y-98090095D01*
X155639761Y-98090095D02*
X155735000Y-98185333D01*
X155735000Y-98185333D02*
X155782619Y-98328190D01*
X155782619Y-98328190D02*
X155782619Y-98566285D01*
X155496904Y-97613904D02*
X155496904Y-97137714D01*
X155782619Y-97709142D02*
X154782619Y-97375809D01*
X154782619Y-97375809D02*
X155782619Y-97042476D01*
X158275000Y-99542475D02*
X158322619Y-99399618D01*
X158322619Y-99399618D02*
X158322619Y-99161523D01*
X158322619Y-99161523D02*
X158275000Y-99066285D01*
X158275000Y-99066285D02*
X158227380Y-99018666D01*
X158227380Y-99018666D02*
X158132142Y-98971047D01*
X158132142Y-98971047D02*
X158036904Y-98971047D01*
X158036904Y-98971047D02*
X157941666Y-99018666D01*
X157941666Y-99018666D02*
X157894047Y-99066285D01*
X157894047Y-99066285D02*
X157846428Y-99161523D01*
X157846428Y-99161523D02*
X157798809Y-99351999D01*
X157798809Y-99351999D02*
X157751190Y-99447237D01*
X157751190Y-99447237D02*
X157703571Y-99494856D01*
X157703571Y-99494856D02*
X157608333Y-99542475D01*
X157608333Y-99542475D02*
X157513095Y-99542475D01*
X157513095Y-99542475D02*
X157417857Y-99494856D01*
X157417857Y-99494856D02*
X157370238Y-99447237D01*
X157370238Y-99447237D02*
X157322619Y-99351999D01*
X157322619Y-99351999D02*
X157322619Y-99113904D01*
X157322619Y-99113904D02*
X157370238Y-98971047D01*
X158227380Y-97971047D02*
X158275000Y-98018666D01*
X158275000Y-98018666D02*
X158322619Y-98161523D01*
X158322619Y-98161523D02*
X158322619Y-98256761D01*
X158322619Y-98256761D02*
X158275000Y-98399618D01*
X158275000Y-98399618D02*
X158179761Y-98494856D01*
X158179761Y-98494856D02*
X158084523Y-98542475D01*
X158084523Y-98542475D02*
X157894047Y-98590094D01*
X157894047Y-98590094D02*
X157751190Y-98590094D01*
X157751190Y-98590094D02*
X157560714Y-98542475D01*
X157560714Y-98542475D02*
X157465476Y-98494856D01*
X157465476Y-98494856D02*
X157370238Y-98399618D01*
X157370238Y-98399618D02*
X157322619Y-98256761D01*
X157322619Y-98256761D02*
X157322619Y-98161523D01*
X157322619Y-98161523D02*
X157370238Y-98018666D01*
X157370238Y-98018666D02*
X157417857Y-97971047D01*
X158322619Y-97066285D02*
X158322619Y-97542475D01*
X158322619Y-97542475D02*
X157322619Y-97542475D01*
X159862619Y-99685332D02*
X160862619Y-99351999D01*
X160862619Y-99351999D02*
X159862619Y-99018666D01*
X160767380Y-98113904D02*
X160815000Y-98161523D01*
X160815000Y-98161523D02*
X160862619Y-98304380D01*
X160862619Y-98304380D02*
X160862619Y-98399618D01*
X160862619Y-98399618D02*
X160815000Y-98542475D01*
X160815000Y-98542475D02*
X160719761Y-98637713D01*
X160719761Y-98637713D02*
X160624523Y-98685332D01*
X160624523Y-98685332D02*
X160434047Y-98732951D01*
X160434047Y-98732951D02*
X160291190Y-98732951D01*
X160291190Y-98732951D02*
X160100714Y-98685332D01*
X160100714Y-98685332D02*
X160005476Y-98637713D01*
X160005476Y-98637713D02*
X159910238Y-98542475D01*
X159910238Y-98542475D02*
X159862619Y-98399618D01*
X159862619Y-98399618D02*
X159862619Y-98304380D01*
X159862619Y-98304380D02*
X159910238Y-98161523D01*
X159910238Y-98161523D02*
X159957857Y-98113904D01*
X160767380Y-97113904D02*
X160815000Y-97161523D01*
X160815000Y-97161523D02*
X160862619Y-97304380D01*
X160862619Y-97304380D02*
X160862619Y-97399618D01*
X160862619Y-97399618D02*
X160815000Y-97542475D01*
X160815000Y-97542475D02*
X160719761Y-97637713D01*
X160719761Y-97637713D02*
X160624523Y-97685332D01*
X160624523Y-97685332D02*
X160434047Y-97732951D01*
X160434047Y-97732951D02*
X160291190Y-97732951D01*
X160291190Y-97732951D02*
X160100714Y-97685332D01*
X160100714Y-97685332D02*
X160005476Y-97637713D01*
X160005476Y-97637713D02*
X159910238Y-97542475D01*
X159910238Y-97542475D02*
X159862619Y-97399618D01*
X159862619Y-97399618D02*
X159862619Y-97304380D01*
X159862619Y-97304380D02*
X159910238Y-97161523D01*
X159910238Y-97161523D02*
X159957857Y-97113904D01*
X162450238Y-99113904D02*
X162402619Y-99209142D01*
X162402619Y-99209142D02*
X162402619Y-99351999D01*
X162402619Y-99351999D02*
X162450238Y-99494856D01*
X162450238Y-99494856D02*
X162545476Y-99590094D01*
X162545476Y-99590094D02*
X162640714Y-99637713D01*
X162640714Y-99637713D02*
X162831190Y-99685332D01*
X162831190Y-99685332D02*
X162974047Y-99685332D01*
X162974047Y-99685332D02*
X163164523Y-99637713D01*
X163164523Y-99637713D02*
X163259761Y-99590094D01*
X163259761Y-99590094D02*
X163355000Y-99494856D01*
X163355000Y-99494856D02*
X163402619Y-99351999D01*
X163402619Y-99351999D02*
X163402619Y-99256761D01*
X163402619Y-99256761D02*
X163355000Y-99113904D01*
X163355000Y-99113904D02*
X163307380Y-99066285D01*
X163307380Y-99066285D02*
X162974047Y-99066285D01*
X162974047Y-99066285D02*
X162974047Y-99256761D01*
X163402619Y-98637713D02*
X162402619Y-98637713D01*
X162402619Y-98637713D02*
X163402619Y-98066285D01*
X163402619Y-98066285D02*
X162402619Y-98066285D01*
X163402619Y-97590094D02*
X162402619Y-97590094D01*
X162402619Y-97590094D02*
X162402619Y-97351999D01*
X162402619Y-97351999D02*
X162450238Y-97209142D01*
X162450238Y-97209142D02*
X162545476Y-97113904D01*
X162545476Y-97113904D02*
X162640714Y-97066285D01*
X162640714Y-97066285D02*
X162831190Y-97018666D01*
X162831190Y-97018666D02*
X162974047Y-97018666D01*
X162974047Y-97018666D02*
X163164523Y-97066285D01*
X163164523Y-97066285D02*
X163259761Y-97113904D01*
X163259761Y-97113904D02*
X163355000Y-97209142D01*
X163355000Y-97209142D02*
X163402619Y-97351999D01*
X163402619Y-97351999D02*
X163402619Y-97590094D01*
X148115000Y-102050095D02*
X148162619Y-101907238D01*
X148162619Y-101907238D02*
X148162619Y-101669143D01*
X148162619Y-101669143D02*
X148115000Y-101573905D01*
X148115000Y-101573905D02*
X148067380Y-101526286D01*
X148067380Y-101526286D02*
X147972142Y-101478667D01*
X147972142Y-101478667D02*
X147876904Y-101478667D01*
X147876904Y-101478667D02*
X147781666Y-101526286D01*
X147781666Y-101526286D02*
X147734047Y-101573905D01*
X147734047Y-101573905D02*
X147686428Y-101669143D01*
X147686428Y-101669143D02*
X147638809Y-101859619D01*
X147638809Y-101859619D02*
X147591190Y-101954857D01*
X147591190Y-101954857D02*
X147543571Y-102002476D01*
X147543571Y-102002476D02*
X147448333Y-102050095D01*
X147448333Y-102050095D02*
X147353095Y-102050095D01*
X147353095Y-102050095D02*
X147257857Y-102002476D01*
X147257857Y-102002476D02*
X147210238Y-101954857D01*
X147210238Y-101954857D02*
X147162619Y-101859619D01*
X147162619Y-101859619D02*
X147162619Y-101621524D01*
X147162619Y-101621524D02*
X147210238Y-101478667D01*
X148115000Y-101097714D02*
X148162619Y-100954857D01*
X148162619Y-100954857D02*
X148162619Y-100716762D01*
X148162619Y-100716762D02*
X148115000Y-100621524D01*
X148115000Y-100621524D02*
X148067380Y-100573905D01*
X148067380Y-100573905D02*
X147972142Y-100526286D01*
X147972142Y-100526286D02*
X147876904Y-100526286D01*
X147876904Y-100526286D02*
X147781666Y-100573905D01*
X147781666Y-100573905D02*
X147734047Y-100621524D01*
X147734047Y-100621524D02*
X147686428Y-100716762D01*
X147686428Y-100716762D02*
X147638809Y-100907238D01*
X147638809Y-100907238D02*
X147591190Y-101002476D01*
X147591190Y-101002476D02*
X147543571Y-101050095D01*
X147543571Y-101050095D02*
X147448333Y-101097714D01*
X147448333Y-101097714D02*
X147353095Y-101097714D01*
X147353095Y-101097714D02*
X147257857Y-101050095D01*
X147257857Y-101050095D02*
X147210238Y-101002476D01*
X147210238Y-101002476D02*
X147162619Y-100907238D01*
X147162619Y-100907238D02*
X147162619Y-100669143D01*
X147162619Y-100669143D02*
X147210238Y-100526286D01*
X148162619Y-100097714D02*
X147162619Y-100097714D01*
X147162619Y-100097714D02*
X147162619Y-99859619D01*
X147162619Y-99859619D02*
X147210238Y-99716762D01*
X147210238Y-99716762D02*
X147305476Y-99621524D01*
X147305476Y-99621524D02*
X147400714Y-99573905D01*
X147400714Y-99573905D02*
X147591190Y-99526286D01*
X147591190Y-99526286D02*
X147734047Y-99526286D01*
X147734047Y-99526286D02*
X147924523Y-99573905D01*
X147924523Y-99573905D02*
X148019761Y-99621524D01*
X148019761Y-99621524D02*
X148115000Y-99716762D01*
X148115000Y-99716762D02*
X148162619Y-99859619D01*
X148162619Y-99859619D02*
X148162619Y-100097714D01*
X148162619Y-98573905D02*
X148162619Y-99145333D01*
X148162619Y-98859619D02*
X147162619Y-98859619D01*
X147162619Y-98859619D02*
X147305476Y-98954857D01*
X147305476Y-98954857D02*
X147400714Y-99050095D01*
X147400714Y-99050095D02*
X147448333Y-99145333D01*
X147162619Y-98240571D02*
X147162619Y-97621524D01*
X147162619Y-97621524D02*
X147543571Y-97954857D01*
X147543571Y-97954857D02*
X147543571Y-97812000D01*
X147543571Y-97812000D02*
X147591190Y-97716762D01*
X147591190Y-97716762D02*
X147638809Y-97669143D01*
X147638809Y-97669143D02*
X147734047Y-97621524D01*
X147734047Y-97621524D02*
X147972142Y-97621524D01*
X147972142Y-97621524D02*
X148067380Y-97669143D01*
X148067380Y-97669143D02*
X148115000Y-97716762D01*
X148115000Y-97716762D02*
X148162619Y-97812000D01*
X148162619Y-97812000D02*
X148162619Y-98097714D01*
X148162619Y-98097714D02*
X148115000Y-98192952D01*
X148115000Y-98192952D02*
X148067380Y-98240571D01*
X147162619Y-97002476D02*
X147162619Y-96907238D01*
X147162619Y-96907238D02*
X147210238Y-96812000D01*
X147210238Y-96812000D02*
X147257857Y-96764381D01*
X147257857Y-96764381D02*
X147353095Y-96716762D01*
X147353095Y-96716762D02*
X147543571Y-96669143D01*
X147543571Y-96669143D02*
X147781666Y-96669143D01*
X147781666Y-96669143D02*
X147972142Y-96716762D01*
X147972142Y-96716762D02*
X148067380Y-96764381D01*
X148067380Y-96764381D02*
X148115000Y-96812000D01*
X148115000Y-96812000D02*
X148162619Y-96907238D01*
X148162619Y-96907238D02*
X148162619Y-97002476D01*
X148162619Y-97002476D02*
X148115000Y-97097714D01*
X148115000Y-97097714D02*
X148067380Y-97145333D01*
X148067380Y-97145333D02*
X147972142Y-97192952D01*
X147972142Y-97192952D02*
X147781666Y-97240571D01*
X147781666Y-97240571D02*
X147543571Y-97240571D01*
X147543571Y-97240571D02*
X147353095Y-97192952D01*
X147353095Y-97192952D02*
X147257857Y-97145333D01*
X147257857Y-97145333D02*
X147210238Y-97097714D01*
X147210238Y-97097714D02*
X147162619Y-97002476D01*
X147162619Y-95812000D02*
X147162619Y-96002476D01*
X147162619Y-96002476D02*
X147210238Y-96097714D01*
X147210238Y-96097714D02*
X147257857Y-96145333D01*
X147257857Y-96145333D02*
X147400714Y-96240571D01*
X147400714Y-96240571D02*
X147591190Y-96288190D01*
X147591190Y-96288190D02*
X147972142Y-96288190D01*
X147972142Y-96288190D02*
X148067380Y-96240571D01*
X148067380Y-96240571D02*
X148115000Y-96192952D01*
X148115000Y-96192952D02*
X148162619Y-96097714D01*
X148162619Y-96097714D02*
X148162619Y-95907238D01*
X148162619Y-95907238D02*
X148115000Y-95812000D01*
X148115000Y-95812000D02*
X148067380Y-95764381D01*
X148067380Y-95764381D02*
X147972142Y-95716762D01*
X147972142Y-95716762D02*
X147734047Y-95716762D01*
X147734047Y-95716762D02*
X147638809Y-95764381D01*
X147638809Y-95764381D02*
X147591190Y-95812000D01*
X147591190Y-95812000D02*
X147543571Y-95907238D01*
X147543571Y-95907238D02*
X147543571Y-96097714D01*
X147543571Y-96097714D02*
X147591190Y-96192952D01*
X147591190Y-96192952D02*
X147638809Y-96240571D01*
X147638809Y-96240571D02*
X147734047Y-96288190D01*
X148162619Y-94526285D02*
X147162619Y-94526285D01*
X147162619Y-94526285D02*
X147162619Y-94288190D01*
X147162619Y-94288190D02*
X147210238Y-94145333D01*
X147210238Y-94145333D02*
X147305476Y-94050095D01*
X147305476Y-94050095D02*
X147400714Y-94002476D01*
X147400714Y-94002476D02*
X147591190Y-93954857D01*
X147591190Y-93954857D02*
X147734047Y-93954857D01*
X147734047Y-93954857D02*
X147924523Y-94002476D01*
X147924523Y-94002476D02*
X148019761Y-94050095D01*
X148019761Y-94050095D02*
X148115000Y-94145333D01*
X148115000Y-94145333D02*
X148162619Y-94288190D01*
X148162619Y-94288190D02*
X148162619Y-94526285D01*
X148162619Y-93526285D02*
X147495952Y-93526285D01*
X147162619Y-93526285D02*
X147210238Y-93573904D01*
X147210238Y-93573904D02*
X147257857Y-93526285D01*
X147257857Y-93526285D02*
X147210238Y-93478666D01*
X147210238Y-93478666D02*
X147162619Y-93526285D01*
X147162619Y-93526285D02*
X147257857Y-93526285D01*
X148115000Y-93097714D02*
X148162619Y-93002476D01*
X148162619Y-93002476D02*
X148162619Y-92812000D01*
X148162619Y-92812000D02*
X148115000Y-92716762D01*
X148115000Y-92716762D02*
X148019761Y-92669143D01*
X148019761Y-92669143D02*
X147972142Y-92669143D01*
X147972142Y-92669143D02*
X147876904Y-92716762D01*
X147876904Y-92716762D02*
X147829285Y-92812000D01*
X147829285Y-92812000D02*
X147829285Y-92954857D01*
X147829285Y-92954857D02*
X147781666Y-93050095D01*
X147781666Y-93050095D02*
X147686428Y-93097714D01*
X147686428Y-93097714D02*
X147638809Y-93097714D01*
X147638809Y-93097714D02*
X147543571Y-93050095D01*
X147543571Y-93050095D02*
X147495952Y-92954857D01*
X147495952Y-92954857D02*
X147495952Y-92812000D01*
X147495952Y-92812000D02*
X147543571Y-92716762D01*
X147495952Y-92240571D02*
X148495952Y-92240571D01*
X147543571Y-92240571D02*
X147495952Y-92145333D01*
X147495952Y-92145333D02*
X147495952Y-91954857D01*
X147495952Y-91954857D02*
X147543571Y-91859619D01*
X147543571Y-91859619D02*
X147591190Y-91812000D01*
X147591190Y-91812000D02*
X147686428Y-91764381D01*
X147686428Y-91764381D02*
X147972142Y-91764381D01*
X147972142Y-91764381D02*
X148067380Y-91812000D01*
X148067380Y-91812000D02*
X148115000Y-91859619D01*
X148115000Y-91859619D02*
X148162619Y-91954857D01*
X148162619Y-91954857D02*
X148162619Y-92145333D01*
X148162619Y-92145333D02*
X148115000Y-92240571D01*
X148162619Y-91192952D02*
X148115000Y-91288190D01*
X148115000Y-91288190D02*
X148019761Y-91335809D01*
X148019761Y-91335809D02*
X147162619Y-91335809D01*
X148162619Y-90383428D02*
X147638809Y-90383428D01*
X147638809Y-90383428D02*
X147543571Y-90431047D01*
X147543571Y-90431047D02*
X147495952Y-90526285D01*
X147495952Y-90526285D02*
X147495952Y-90716761D01*
X147495952Y-90716761D02*
X147543571Y-90811999D01*
X148115000Y-90383428D02*
X148162619Y-90478666D01*
X148162619Y-90478666D02*
X148162619Y-90716761D01*
X148162619Y-90716761D02*
X148115000Y-90811999D01*
X148115000Y-90811999D02*
X148019761Y-90859618D01*
X148019761Y-90859618D02*
X147924523Y-90859618D01*
X147924523Y-90859618D02*
X147829285Y-90811999D01*
X147829285Y-90811999D02*
X147781666Y-90716761D01*
X147781666Y-90716761D02*
X147781666Y-90478666D01*
X147781666Y-90478666D02*
X147734047Y-90383428D01*
X147495952Y-90002475D02*
X148162619Y-89764380D01*
X147495952Y-89526285D02*
X148162619Y-89764380D01*
X148162619Y-89764380D02*
X148400714Y-89859618D01*
X148400714Y-89859618D02*
X148448333Y-89907237D01*
X148448333Y-89907237D02*
X148495952Y-90002475D01*
X148760619Y-105627904D02*
X149570142Y-105627904D01*
X149570142Y-105627904D02*
X149665380Y-105580285D01*
X149665380Y-105580285D02*
X149713000Y-105532666D01*
X149713000Y-105532666D02*
X149760619Y-105437428D01*
X149760619Y-105437428D02*
X149760619Y-105246952D01*
X149760619Y-105246952D02*
X149713000Y-105151714D01*
X149713000Y-105151714D02*
X149665380Y-105104095D01*
X149665380Y-105104095D02*
X149570142Y-105056476D01*
X149570142Y-105056476D02*
X148760619Y-105056476D01*
X149093952Y-104151714D02*
X149760619Y-104151714D01*
X148713000Y-104389809D02*
X149427285Y-104627904D01*
X149427285Y-104627904D02*
X149427285Y-104008857D01*
X151745000Y-109144285D02*
X151792619Y-109001428D01*
X151792619Y-109001428D02*
X151792619Y-108763333D01*
X151792619Y-108763333D02*
X151745000Y-108668095D01*
X151745000Y-108668095D02*
X151697380Y-108620476D01*
X151697380Y-108620476D02*
X151602142Y-108572857D01*
X151602142Y-108572857D02*
X151506904Y-108572857D01*
X151506904Y-108572857D02*
X151411666Y-108620476D01*
X151411666Y-108620476D02*
X151364047Y-108668095D01*
X151364047Y-108668095D02*
X151316428Y-108763333D01*
X151316428Y-108763333D02*
X151268809Y-108953809D01*
X151268809Y-108953809D02*
X151221190Y-109049047D01*
X151221190Y-109049047D02*
X151173571Y-109096666D01*
X151173571Y-109096666D02*
X151078333Y-109144285D01*
X151078333Y-109144285D02*
X150983095Y-109144285D01*
X150983095Y-109144285D02*
X150887857Y-109096666D01*
X150887857Y-109096666D02*
X150840238Y-109049047D01*
X150840238Y-109049047D02*
X150792619Y-108953809D01*
X150792619Y-108953809D02*
X150792619Y-108715714D01*
X150792619Y-108715714D02*
X150840238Y-108572857D01*
X151792619Y-108144285D02*
X150792619Y-108144285D01*
X150792619Y-108144285D02*
X150792619Y-107906190D01*
X150792619Y-107906190D02*
X150840238Y-107763333D01*
X150840238Y-107763333D02*
X150935476Y-107668095D01*
X150935476Y-107668095D02*
X151030714Y-107620476D01*
X151030714Y-107620476D02*
X151221190Y-107572857D01*
X151221190Y-107572857D02*
X151364047Y-107572857D01*
X151364047Y-107572857D02*
X151554523Y-107620476D01*
X151554523Y-107620476D02*
X151649761Y-107668095D01*
X151649761Y-107668095D02*
X151745000Y-107763333D01*
X151745000Y-107763333D02*
X151792619Y-107906190D01*
X151792619Y-107906190D02*
X151792619Y-108144285D01*
X151506904Y-107191904D02*
X151506904Y-106715714D01*
X151792619Y-107287142D02*
X150792619Y-106953809D01*
X150792619Y-106953809D02*
X151792619Y-106620476D01*
X158412619Y-109120475D02*
X159412619Y-108787142D01*
X159412619Y-108787142D02*
X158412619Y-108453809D01*
X159365000Y-107691904D02*
X159412619Y-107787142D01*
X159412619Y-107787142D02*
X159412619Y-107977618D01*
X159412619Y-107977618D02*
X159365000Y-108072856D01*
X159365000Y-108072856D02*
X159317380Y-108120475D01*
X159317380Y-108120475D02*
X159222142Y-108168094D01*
X159222142Y-108168094D02*
X158936428Y-108168094D01*
X158936428Y-108168094D02*
X158841190Y-108120475D01*
X158841190Y-108120475D02*
X158793571Y-108072856D01*
X158793571Y-108072856D02*
X158745952Y-107977618D01*
X158745952Y-107977618D02*
X158745952Y-107787142D01*
X158745952Y-107787142D02*
X158793571Y-107691904D01*
X159365000Y-106834761D02*
X159412619Y-106929999D01*
X159412619Y-106929999D02*
X159412619Y-107120475D01*
X159412619Y-107120475D02*
X159365000Y-107215713D01*
X159365000Y-107215713D02*
X159317380Y-107263332D01*
X159317380Y-107263332D02*
X159222142Y-107310951D01*
X159222142Y-107310951D02*
X158936428Y-107310951D01*
X158936428Y-107310951D02*
X158841190Y-107263332D01*
X158841190Y-107263332D02*
X158793571Y-107215713D01*
X158793571Y-107215713D02*
X158745952Y-107120475D01*
X158745952Y-107120475D02*
X158745952Y-106929999D01*
X158745952Y-106929999D02*
X158793571Y-106834761D01*
X155920238Y-108691904D02*
X155872619Y-108787142D01*
X155872619Y-108787142D02*
X155872619Y-108929999D01*
X155872619Y-108929999D02*
X155920238Y-109072856D01*
X155920238Y-109072856D02*
X156015476Y-109168094D01*
X156015476Y-109168094D02*
X156110714Y-109215713D01*
X156110714Y-109215713D02*
X156301190Y-109263332D01*
X156301190Y-109263332D02*
X156444047Y-109263332D01*
X156444047Y-109263332D02*
X156634523Y-109215713D01*
X156634523Y-109215713D02*
X156729761Y-109168094D01*
X156729761Y-109168094D02*
X156825000Y-109072856D01*
X156825000Y-109072856D02*
X156872619Y-108929999D01*
X156872619Y-108929999D02*
X156872619Y-108834761D01*
X156872619Y-108834761D02*
X156825000Y-108691904D01*
X156825000Y-108691904D02*
X156777380Y-108644285D01*
X156777380Y-108644285D02*
X156444047Y-108644285D01*
X156444047Y-108644285D02*
X156444047Y-108834761D01*
X156872619Y-108215713D02*
X155872619Y-108215713D01*
X155872619Y-108215713D02*
X156872619Y-107644285D01*
X156872619Y-107644285D02*
X155872619Y-107644285D01*
X156872619Y-107168094D02*
X155872619Y-107168094D01*
X155872619Y-107168094D02*
X155872619Y-106929999D01*
X155872619Y-106929999D02*
X155920238Y-106787142D01*
X155920238Y-106787142D02*
X156015476Y-106691904D01*
X156015476Y-106691904D02*
X156110714Y-106644285D01*
X156110714Y-106644285D02*
X156301190Y-106596666D01*
X156301190Y-106596666D02*
X156444047Y-106596666D01*
X156444047Y-106596666D02*
X156634523Y-106644285D01*
X156634523Y-106644285D02*
X156729761Y-106691904D01*
X156729761Y-106691904D02*
X156825000Y-106787142D01*
X156825000Y-106787142D02*
X156872619Y-106929999D01*
X156872619Y-106929999D02*
X156872619Y-107168094D01*
X147712809Y-109199333D02*
X147760428Y-109056476D01*
X147760428Y-109056476D02*
X147808047Y-109008857D01*
X147808047Y-109008857D02*
X147903285Y-108961238D01*
X147903285Y-108961238D02*
X148046142Y-108961238D01*
X148046142Y-108961238D02*
X148141380Y-109008857D01*
X148141380Y-109008857D02*
X148189000Y-109056476D01*
X148189000Y-109056476D02*
X148236619Y-109151714D01*
X148236619Y-109151714D02*
X148236619Y-109532666D01*
X148236619Y-109532666D02*
X147236619Y-109532666D01*
X147236619Y-109532666D02*
X147236619Y-109199333D01*
X147236619Y-109199333D02*
X147284238Y-109104095D01*
X147284238Y-109104095D02*
X147331857Y-109056476D01*
X147331857Y-109056476D02*
X147427095Y-109008857D01*
X147427095Y-109008857D02*
X147522333Y-109008857D01*
X147522333Y-109008857D02*
X147617571Y-109056476D01*
X147617571Y-109056476D02*
X147665190Y-109104095D01*
X147665190Y-109104095D02*
X147712809Y-109199333D01*
X147712809Y-109199333D02*
X147712809Y-109532666D01*
X148236619Y-108532666D02*
X147236619Y-108532666D01*
X147236619Y-108532666D02*
X147950904Y-108199333D01*
X147950904Y-108199333D02*
X147236619Y-107866000D01*
X147236619Y-107866000D02*
X148236619Y-107866000D01*
X147712809Y-107389809D02*
X147712809Y-107056476D01*
X148236619Y-106913619D02*
X148236619Y-107389809D01*
X148236619Y-107389809D02*
X147236619Y-107389809D01*
X147236619Y-107389809D02*
X147236619Y-106913619D01*
X147331857Y-106532666D02*
X147284238Y-106485047D01*
X147284238Y-106485047D02*
X147236619Y-106389809D01*
X147236619Y-106389809D02*
X147236619Y-106151714D01*
X147236619Y-106151714D02*
X147284238Y-106056476D01*
X147284238Y-106056476D02*
X147331857Y-106008857D01*
X147331857Y-106008857D02*
X147427095Y-105961238D01*
X147427095Y-105961238D02*
X147522333Y-105961238D01*
X147522333Y-105961238D02*
X147665190Y-106008857D01*
X147665190Y-106008857D02*
X148236619Y-106580285D01*
X148236619Y-106580285D02*
X148236619Y-105961238D01*
X147665190Y-105389809D02*
X147617571Y-105485047D01*
X147617571Y-105485047D02*
X147569952Y-105532666D01*
X147569952Y-105532666D02*
X147474714Y-105580285D01*
X147474714Y-105580285D02*
X147427095Y-105580285D01*
X147427095Y-105580285D02*
X147331857Y-105532666D01*
X147331857Y-105532666D02*
X147284238Y-105485047D01*
X147284238Y-105485047D02*
X147236619Y-105389809D01*
X147236619Y-105389809D02*
X147236619Y-105199333D01*
X147236619Y-105199333D02*
X147284238Y-105104095D01*
X147284238Y-105104095D02*
X147331857Y-105056476D01*
X147331857Y-105056476D02*
X147427095Y-105008857D01*
X147427095Y-105008857D02*
X147474714Y-105008857D01*
X147474714Y-105008857D02*
X147569952Y-105056476D01*
X147569952Y-105056476D02*
X147617571Y-105104095D01*
X147617571Y-105104095D02*
X147665190Y-105199333D01*
X147665190Y-105199333D02*
X147665190Y-105389809D01*
X147665190Y-105389809D02*
X147712809Y-105485047D01*
X147712809Y-105485047D02*
X147760428Y-105532666D01*
X147760428Y-105532666D02*
X147855666Y-105580285D01*
X147855666Y-105580285D02*
X148046142Y-105580285D01*
X148046142Y-105580285D02*
X148141380Y-105532666D01*
X148141380Y-105532666D02*
X148189000Y-105485047D01*
X148189000Y-105485047D02*
X148236619Y-105389809D01*
X148236619Y-105389809D02*
X148236619Y-105199333D01*
X148236619Y-105199333D02*
X148189000Y-105104095D01*
X148189000Y-105104095D02*
X148141380Y-105056476D01*
X148141380Y-105056476D02*
X148046142Y-105008857D01*
X148046142Y-105008857D02*
X147855666Y-105008857D01*
X147855666Y-105008857D02*
X147760428Y-105056476D01*
X147760428Y-105056476D02*
X147712809Y-105104095D01*
X147712809Y-105104095D02*
X147665190Y-105199333D01*
X147236619Y-104389809D02*
X147236619Y-104294571D01*
X147236619Y-104294571D02*
X147284238Y-104199333D01*
X147284238Y-104199333D02*
X147331857Y-104151714D01*
X147331857Y-104151714D02*
X147427095Y-104104095D01*
X147427095Y-104104095D02*
X147617571Y-104056476D01*
X147617571Y-104056476D02*
X147855666Y-104056476D01*
X147855666Y-104056476D02*
X148046142Y-104104095D01*
X148046142Y-104104095D02*
X148141380Y-104151714D01*
X148141380Y-104151714D02*
X148189000Y-104199333D01*
X148189000Y-104199333D02*
X148236619Y-104294571D01*
X148236619Y-104294571D02*
X148236619Y-104389809D01*
X148236619Y-104389809D02*
X148189000Y-104485047D01*
X148189000Y-104485047D02*
X148141380Y-104532666D01*
X148141380Y-104532666D02*
X148046142Y-104580285D01*
X148046142Y-104580285D02*
X147855666Y-104627904D01*
X147855666Y-104627904D02*
X147617571Y-104627904D01*
X147617571Y-104627904D02*
X147427095Y-104580285D01*
X147427095Y-104580285D02*
X147331857Y-104532666D01*
X147331857Y-104532666D02*
X147284238Y-104485047D01*
X147284238Y-104485047D02*
X147236619Y-104389809D01*
X154285000Y-109120475D02*
X154332619Y-108977618D01*
X154332619Y-108977618D02*
X154332619Y-108739523D01*
X154332619Y-108739523D02*
X154285000Y-108644285D01*
X154285000Y-108644285D02*
X154237380Y-108596666D01*
X154237380Y-108596666D02*
X154142142Y-108549047D01*
X154142142Y-108549047D02*
X154046904Y-108549047D01*
X154046904Y-108549047D02*
X153951666Y-108596666D01*
X153951666Y-108596666D02*
X153904047Y-108644285D01*
X153904047Y-108644285D02*
X153856428Y-108739523D01*
X153856428Y-108739523D02*
X153808809Y-108929999D01*
X153808809Y-108929999D02*
X153761190Y-109025237D01*
X153761190Y-109025237D02*
X153713571Y-109072856D01*
X153713571Y-109072856D02*
X153618333Y-109120475D01*
X153618333Y-109120475D02*
X153523095Y-109120475D01*
X153523095Y-109120475D02*
X153427857Y-109072856D01*
X153427857Y-109072856D02*
X153380238Y-109025237D01*
X153380238Y-109025237D02*
X153332619Y-108929999D01*
X153332619Y-108929999D02*
X153332619Y-108691904D01*
X153332619Y-108691904D02*
X153380238Y-108549047D01*
X154237380Y-107549047D02*
X154285000Y-107596666D01*
X154285000Y-107596666D02*
X154332619Y-107739523D01*
X154332619Y-107739523D02*
X154332619Y-107834761D01*
X154332619Y-107834761D02*
X154285000Y-107977618D01*
X154285000Y-107977618D02*
X154189761Y-108072856D01*
X154189761Y-108072856D02*
X154094523Y-108120475D01*
X154094523Y-108120475D02*
X153904047Y-108168094D01*
X153904047Y-108168094D02*
X153761190Y-108168094D01*
X153761190Y-108168094D02*
X153570714Y-108120475D01*
X153570714Y-108120475D02*
X153475476Y-108072856D01*
X153475476Y-108072856D02*
X153380238Y-107977618D01*
X153380238Y-107977618D02*
X153332619Y-107834761D01*
X153332619Y-107834761D02*
X153332619Y-107739523D01*
X153332619Y-107739523D02*
X153380238Y-107596666D01*
X153380238Y-107596666D02*
X153427857Y-107549047D01*
X154332619Y-106644285D02*
X154332619Y-107120475D01*
X154332619Y-107120475D02*
X153332619Y-107120475D01*
X172132619Y-106671904D02*
X172942142Y-106671904D01*
X172942142Y-106671904D02*
X173037380Y-106624285D01*
X173037380Y-106624285D02*
X173085000Y-106576666D01*
X173085000Y-106576666D02*
X173132619Y-106481428D01*
X173132619Y-106481428D02*
X173132619Y-106290952D01*
X173132619Y-106290952D02*
X173085000Y-106195714D01*
X173085000Y-106195714D02*
X173037380Y-106148095D01*
X173037380Y-106148095D02*
X172942142Y-106100476D01*
X172942142Y-106100476D02*
X172132619Y-106100476D01*
X172132619Y-105195714D02*
X172132619Y-105386190D01*
X172132619Y-105386190D02*
X172180238Y-105481428D01*
X172180238Y-105481428D02*
X172227857Y-105529047D01*
X172227857Y-105529047D02*
X172370714Y-105624285D01*
X172370714Y-105624285D02*
X172561190Y-105671904D01*
X172561190Y-105671904D02*
X172942142Y-105671904D01*
X172942142Y-105671904D02*
X173037380Y-105624285D01*
X173037380Y-105624285D02*
X173085000Y-105576666D01*
X173085000Y-105576666D02*
X173132619Y-105481428D01*
X173132619Y-105481428D02*
X173132619Y-105290952D01*
X173132619Y-105290952D02*
X173085000Y-105195714D01*
X173085000Y-105195714D02*
X173037380Y-105148095D01*
X173037380Y-105148095D02*
X172942142Y-105100476D01*
X172942142Y-105100476D02*
X172704047Y-105100476D01*
X172704047Y-105100476D02*
X172608809Y-105148095D01*
X172608809Y-105148095D02*
X172561190Y-105195714D01*
X172561190Y-105195714D02*
X172513571Y-105290952D01*
X172513571Y-105290952D02*
X172513571Y-105481428D01*
X172513571Y-105481428D02*
X172561190Y-105576666D01*
X172561190Y-105576666D02*
X172608809Y-105624285D01*
X172608809Y-105624285D02*
X172704047Y-105671904D01*
X164343714Y-105055000D02*
X164486571Y-105102619D01*
X164486571Y-105102619D02*
X164724666Y-105102619D01*
X164724666Y-105102619D02*
X164819904Y-105055000D01*
X164819904Y-105055000D02*
X164867523Y-105007380D01*
X164867523Y-105007380D02*
X164915142Y-104912142D01*
X164915142Y-104912142D02*
X164915142Y-104816904D01*
X164915142Y-104816904D02*
X164867523Y-104721666D01*
X164867523Y-104721666D02*
X164819904Y-104674047D01*
X164819904Y-104674047D02*
X164724666Y-104626428D01*
X164724666Y-104626428D02*
X164534190Y-104578809D01*
X164534190Y-104578809D02*
X164438952Y-104531190D01*
X164438952Y-104531190D02*
X164391333Y-104483571D01*
X164391333Y-104483571D02*
X164343714Y-104388333D01*
X164343714Y-104388333D02*
X164343714Y-104293095D01*
X164343714Y-104293095D02*
X164391333Y-104197857D01*
X164391333Y-104197857D02*
X164438952Y-104150238D01*
X164438952Y-104150238D02*
X164534190Y-104102619D01*
X164534190Y-104102619D02*
X164772285Y-104102619D01*
X164772285Y-104102619D02*
X164915142Y-104150238D01*
X165343714Y-105102619D02*
X165343714Y-104102619D01*
X165343714Y-104102619D02*
X165581809Y-104102619D01*
X165581809Y-104102619D02*
X165724666Y-104150238D01*
X165724666Y-104150238D02*
X165819904Y-104245476D01*
X165819904Y-104245476D02*
X165867523Y-104340714D01*
X165867523Y-104340714D02*
X165915142Y-104531190D01*
X165915142Y-104531190D02*
X165915142Y-104674047D01*
X165915142Y-104674047D02*
X165867523Y-104864523D01*
X165867523Y-104864523D02*
X165819904Y-104959761D01*
X165819904Y-104959761D02*
X165724666Y-105055000D01*
X165724666Y-105055000D02*
X165581809Y-105102619D01*
X165581809Y-105102619D02*
X165343714Y-105102619D01*
X166296095Y-104816904D02*
X166772285Y-104816904D01*
X166200857Y-105102619D02*
X166534190Y-104102619D01*
X166534190Y-104102619D02*
X166867523Y-105102619D01*
X164534191Y-111722619D02*
X164867524Y-112722619D01*
X164867524Y-112722619D02*
X165200857Y-111722619D01*
X165534191Y-112722619D02*
X165534191Y-112055952D01*
X165534191Y-111722619D02*
X165486572Y-111770238D01*
X165486572Y-111770238D02*
X165534191Y-111817857D01*
X165534191Y-111817857D02*
X165581810Y-111770238D01*
X165581810Y-111770238D02*
X165534191Y-111722619D01*
X165534191Y-111722619D02*
X165534191Y-111817857D01*
X166010381Y-112055952D02*
X166010381Y-112722619D01*
X166010381Y-112151190D02*
X166058000Y-112103571D01*
X166058000Y-112103571D02*
X166153238Y-112055952D01*
X166153238Y-112055952D02*
X166296095Y-112055952D01*
X166296095Y-112055952D02*
X166391333Y-112103571D01*
X166391333Y-112103571D02*
X166438952Y-112198809D01*
X166438952Y-112198809D02*
X166438952Y-112722619D01*
X164367524Y-107595000D02*
X164510381Y-107642619D01*
X164510381Y-107642619D02*
X164748476Y-107642619D01*
X164748476Y-107642619D02*
X164843714Y-107595000D01*
X164843714Y-107595000D02*
X164891333Y-107547380D01*
X164891333Y-107547380D02*
X164938952Y-107452142D01*
X164938952Y-107452142D02*
X164938952Y-107356904D01*
X164938952Y-107356904D02*
X164891333Y-107261666D01*
X164891333Y-107261666D02*
X164843714Y-107214047D01*
X164843714Y-107214047D02*
X164748476Y-107166428D01*
X164748476Y-107166428D02*
X164558000Y-107118809D01*
X164558000Y-107118809D02*
X164462762Y-107071190D01*
X164462762Y-107071190D02*
X164415143Y-107023571D01*
X164415143Y-107023571D02*
X164367524Y-106928333D01*
X164367524Y-106928333D02*
X164367524Y-106833095D01*
X164367524Y-106833095D02*
X164415143Y-106737857D01*
X164415143Y-106737857D02*
X164462762Y-106690238D01*
X164462762Y-106690238D02*
X164558000Y-106642619D01*
X164558000Y-106642619D02*
X164796095Y-106642619D01*
X164796095Y-106642619D02*
X164938952Y-106690238D01*
X165938952Y-107547380D02*
X165891333Y-107595000D01*
X165891333Y-107595000D02*
X165748476Y-107642619D01*
X165748476Y-107642619D02*
X165653238Y-107642619D01*
X165653238Y-107642619D02*
X165510381Y-107595000D01*
X165510381Y-107595000D02*
X165415143Y-107499761D01*
X165415143Y-107499761D02*
X165367524Y-107404523D01*
X165367524Y-107404523D02*
X165319905Y-107214047D01*
X165319905Y-107214047D02*
X165319905Y-107071190D01*
X165319905Y-107071190D02*
X165367524Y-106880714D01*
X165367524Y-106880714D02*
X165415143Y-106785476D01*
X165415143Y-106785476D02*
X165510381Y-106690238D01*
X165510381Y-106690238D02*
X165653238Y-106642619D01*
X165653238Y-106642619D02*
X165748476Y-106642619D01*
X165748476Y-106642619D02*
X165891333Y-106690238D01*
X165891333Y-106690238D02*
X165938952Y-106737857D01*
X166843714Y-107642619D02*
X166367524Y-107642619D01*
X166367524Y-107642619D02*
X166367524Y-106642619D01*
X173085000Y-113228094D02*
X173132619Y-113085237D01*
X173132619Y-113085237D02*
X173132619Y-112847142D01*
X173132619Y-112847142D02*
X173085000Y-112751904D01*
X173085000Y-112751904D02*
X173037380Y-112704285D01*
X173037380Y-112704285D02*
X172942142Y-112656666D01*
X172942142Y-112656666D02*
X172846904Y-112656666D01*
X172846904Y-112656666D02*
X172751666Y-112704285D01*
X172751666Y-112704285D02*
X172704047Y-112751904D01*
X172704047Y-112751904D02*
X172656428Y-112847142D01*
X172656428Y-112847142D02*
X172608809Y-113037618D01*
X172608809Y-113037618D02*
X172561190Y-113132856D01*
X172561190Y-113132856D02*
X172513571Y-113180475D01*
X172513571Y-113180475D02*
X172418333Y-113228094D01*
X172418333Y-113228094D02*
X172323095Y-113228094D01*
X172323095Y-113228094D02*
X172227857Y-113180475D01*
X172227857Y-113180475D02*
X172180238Y-113132856D01*
X172180238Y-113132856D02*
X172132619Y-113037618D01*
X172132619Y-113037618D02*
X172132619Y-112799523D01*
X172132619Y-112799523D02*
X172180238Y-112656666D01*
X172180238Y-111704285D02*
X172132619Y-111799523D01*
X172132619Y-111799523D02*
X172132619Y-111942380D01*
X172132619Y-111942380D02*
X172180238Y-112085237D01*
X172180238Y-112085237D02*
X172275476Y-112180475D01*
X172275476Y-112180475D02*
X172370714Y-112228094D01*
X172370714Y-112228094D02*
X172561190Y-112275713D01*
X172561190Y-112275713D02*
X172704047Y-112275713D01*
X172704047Y-112275713D02*
X172894523Y-112228094D01*
X172894523Y-112228094D02*
X172989761Y-112180475D01*
X172989761Y-112180475D02*
X173085000Y-112085237D01*
X173085000Y-112085237D02*
X173132619Y-111942380D01*
X173132619Y-111942380D02*
X173132619Y-111847142D01*
X173132619Y-111847142D02*
X173085000Y-111704285D01*
X173085000Y-111704285D02*
X173037380Y-111656666D01*
X173037380Y-111656666D02*
X172704047Y-111656666D01*
X172704047Y-111656666D02*
X172704047Y-111847142D01*
X173132619Y-111228094D02*
X172132619Y-111228094D01*
X172132619Y-111228094D02*
X172132619Y-110847142D01*
X172132619Y-110847142D02*
X172180238Y-110751904D01*
X172180238Y-110751904D02*
X172227857Y-110704285D01*
X172227857Y-110704285D02*
X172323095Y-110656666D01*
X172323095Y-110656666D02*
X172465952Y-110656666D01*
X172465952Y-110656666D02*
X172561190Y-110704285D01*
X172561190Y-110704285D02*
X172608809Y-110751904D01*
X172608809Y-110751904D02*
X172656428Y-110847142D01*
X172656428Y-110847142D02*
X172656428Y-111228094D01*
X172132619Y-110323332D02*
X172132619Y-109704285D01*
X172132619Y-109704285D02*
X172513571Y-110037618D01*
X172513571Y-110037618D02*
X172513571Y-109894761D01*
X172513571Y-109894761D02*
X172561190Y-109799523D01*
X172561190Y-109799523D02*
X172608809Y-109751904D01*
X172608809Y-109751904D02*
X172704047Y-109704285D01*
X172704047Y-109704285D02*
X172942142Y-109704285D01*
X172942142Y-109704285D02*
X173037380Y-109751904D01*
X173037380Y-109751904D02*
X173085000Y-109799523D01*
X173085000Y-109799523D02*
X173132619Y-109894761D01*
X173132619Y-109894761D02*
X173132619Y-110180475D01*
X173132619Y-110180475D02*
X173085000Y-110275713D01*
X173085000Y-110275713D02*
X173037380Y-110323332D01*
X172132619Y-109085237D02*
X172132619Y-108989999D01*
X172132619Y-108989999D02*
X172180238Y-108894761D01*
X172180238Y-108894761D02*
X172227857Y-108847142D01*
X172227857Y-108847142D02*
X172323095Y-108799523D01*
X172323095Y-108799523D02*
X172513571Y-108751904D01*
X172513571Y-108751904D02*
X172751666Y-108751904D01*
X172751666Y-108751904D02*
X172942142Y-108799523D01*
X172942142Y-108799523D02*
X173037380Y-108847142D01*
X173037380Y-108847142D02*
X173085000Y-108894761D01*
X173085000Y-108894761D02*
X173132619Y-108989999D01*
X173132619Y-108989999D02*
X173132619Y-109085237D01*
X173132619Y-109085237D02*
X173085000Y-109180475D01*
X173085000Y-109180475D02*
X173037380Y-109228094D01*
X173037380Y-109228094D02*
X172942142Y-109275713D01*
X172942142Y-109275713D02*
X172751666Y-109323332D01*
X172751666Y-109323332D02*
X172513571Y-109323332D01*
X172513571Y-109323332D02*
X172323095Y-109275713D01*
X172323095Y-109275713D02*
X172227857Y-109228094D01*
X172227857Y-109228094D02*
X172180238Y-109180475D01*
X172180238Y-109180475D02*
X172132619Y-109085237D01*
X164796095Y-109230238D02*
X164700857Y-109182619D01*
X164700857Y-109182619D02*
X164558000Y-109182619D01*
X164558000Y-109182619D02*
X164415143Y-109230238D01*
X164415143Y-109230238D02*
X164319905Y-109325476D01*
X164319905Y-109325476D02*
X164272286Y-109420714D01*
X164272286Y-109420714D02*
X164224667Y-109611190D01*
X164224667Y-109611190D02*
X164224667Y-109754047D01*
X164224667Y-109754047D02*
X164272286Y-109944523D01*
X164272286Y-109944523D02*
X164319905Y-110039761D01*
X164319905Y-110039761D02*
X164415143Y-110135000D01*
X164415143Y-110135000D02*
X164558000Y-110182619D01*
X164558000Y-110182619D02*
X164653238Y-110182619D01*
X164653238Y-110182619D02*
X164796095Y-110135000D01*
X164796095Y-110135000D02*
X164843714Y-110087380D01*
X164843714Y-110087380D02*
X164843714Y-109754047D01*
X164843714Y-109754047D02*
X164653238Y-109754047D01*
X165272286Y-110182619D02*
X165272286Y-109182619D01*
X165272286Y-109182619D02*
X165843714Y-110182619D01*
X165843714Y-110182619D02*
X165843714Y-109182619D01*
X166319905Y-110182619D02*
X166319905Y-109182619D01*
X166319905Y-109182619D02*
X166558000Y-109182619D01*
X166558000Y-109182619D02*
X166700857Y-109230238D01*
X166700857Y-109230238D02*
X166796095Y-109325476D01*
X166796095Y-109325476D02*
X166843714Y-109420714D01*
X166843714Y-109420714D02*
X166891333Y-109611190D01*
X166891333Y-109611190D02*
X166891333Y-109754047D01*
X166891333Y-109754047D02*
X166843714Y-109944523D01*
X166843714Y-109944523D02*
X166796095Y-110039761D01*
X166796095Y-110039761D02*
X166700857Y-110135000D01*
X166700857Y-110135000D02*
X166558000Y-110182619D01*
X166558000Y-110182619D02*
X166319905Y-110182619D01*
D14*
X117411500Y-77216000D02*
X120523000Y-77216000D01*
X122491500Y-77216000D02*
X125666500Y-77216000D01*
X107406440Y-77243940D02*
X110332520Y-77243940D01*
X125044200Y-103124000D02*
X132816600Y-103124000D01*
X109804200Y-103124000D02*
X112953800Y-103124000D01*
X119964200Y-103124000D02*
X123113800Y-103124000D01*
X112334040Y-77238860D02*
X115478560Y-77238860D01*
X134959000Y-100980000D02*
X134959000Y-79370000D01*
X107823000Y-103124000D02*
X100507800Y-103124000D01*
X107399000Y-79780000D02*
X100499000Y-79780000D01*
X100499000Y-79780000D02*
X100499000Y-103100000D01*
X107399000Y-77240000D02*
X107399000Y-79780000D01*
X127571500Y-77216000D02*
X133096000Y-77216000D01*
X114884200Y-103124000D02*
X118033800Y-103124000D01*
X134959000Y-79370000D02*
G75*
G03*
X132829000Y-77240000I-2130002J-2D01*
G01*
X132829000Y-103100000D02*
G75*
G03*
X134959000Y-100970000I0J2130000D01*
G01*
X112279748Y-106101000D02*
X112802252Y-106101000D01*
X112279748Y-107571000D02*
X112802252Y-107571000D01*
X104313000Y-99429000D02*
X103713000Y-99429000D01*
X103013000Y-98779000D02*
X103013000Y-95979000D01*
X105013000Y-95979000D02*
X105013000Y-98779000D01*
X103713000Y-95329000D02*
X104313000Y-95329000D01*
X103013000Y-98729000D02*
G75*
G03*
X103713000Y-99429000I699999J-1D01*
G01*
X104313000Y-99429000D02*
G75*
G03*
X105013000Y-98729000I1J699999D01*
G01*
X103713000Y-95329000D02*
G75*
G03*
X103013000Y-96029000I0J-700000D01*
G01*
X105013000Y-96029000D02*
G75*
G03*
X104313000Y-95329000I-700000J0D01*
G01*
X110622000Y-109664000D02*
X114422000Y-109664000D01*
X110622000Y-110464000D02*
X110622000Y-110589000D01*
X110622000Y-110589000D02*
X110622000Y-110614000D01*
X110622000Y-111414000D02*
X110622000Y-111564000D01*
X114422000Y-110464000D02*
X114422000Y-110614000D01*
X114422000Y-111414000D02*
X114422000Y-111564000D01*
X114422000Y-112364000D02*
X110622000Y-112364000D01*
X118692000Y-108280000D02*
X123812000Y-108280000D01*
X118692000Y-108600000D02*
X118692000Y-108280000D01*
X118812000Y-113520000D02*
X123812000Y-113520000D01*
X128082000Y-108280000D02*
X133202000Y-108280000D01*
X128082000Y-108600000D02*
X128082000Y-108280000D01*
X128202000Y-113520000D02*
X133202000Y-113520000D01*
X137580000Y-108280000D02*
X142700000Y-108280000D01*
X137580000Y-108600000D02*
X137580000Y-108280000D01*
X137700000Y-113520000D02*
X142700000Y-113520000D01*
X120972248Y-106101000D02*
X121494752Y-106101000D01*
X120972248Y-107571000D02*
X121494752Y-107571000D01*
X130265248Y-106101000D02*
X130787752Y-106101000D01*
X130265248Y-107571000D02*
X130787752Y-107571000D01*
X140017248Y-106101000D02*
X140539752Y-106101000D01*
X140017248Y-107571000D02*
X140539752Y-107571000D01*
X101360000Y-106500000D02*
X107660000Y-106500000D01*
X101360000Y-106750000D02*
X101360000Y-106500000D01*
X101360000Y-111250000D02*
X101360000Y-108650000D01*
X101360000Y-113400000D02*
X101360000Y-113150000D01*
X107660000Y-106500000D02*
X107660000Y-106750000D01*
X107660000Y-108650000D02*
X107660000Y-111250000D01*
X107660000Y-113150000D02*
X107660000Y-113400000D01*
X107660000Y-113400000D02*
X101360000Y-113400000D01*
X135572500Y-82933000D02*
X136782500Y-82933000D01*
X136782500Y-82263000D02*
X136782500Y-82933000D01*
X136782500Y-82263000D02*
X139442500Y-82263000D01*
X136782500Y-84453000D02*
X136782500Y-88013000D01*
X136782500Y-89533000D02*
X136782500Y-93093000D01*
X136782500Y-94613000D02*
X136782500Y-98173000D01*
X136782500Y-99693000D02*
X136782500Y-102903000D01*
X136782500Y-102903000D02*
X139442500Y-102903000D01*
X139442500Y-82263000D02*
X139442500Y-85473000D01*
X139442500Y-86993000D02*
X139442500Y-90553000D01*
X139442500Y-92073000D02*
X139442500Y-95633000D01*
X139442500Y-97153000D02*
X139442500Y-100713000D01*
X139442500Y-102233000D02*
X139442500Y-102903000D01*
X172846000Y-74730000D02*
X146430000Y-74730000D01*
X172846000Y-102670000D02*
X172846000Y-74730000D01*
X159130000Y-102670000D02*
X172846000Y-102670000D01*
X159130000Y-102670000D02*
X146430000Y-102670000D01*
X146430000Y-102670000D02*
X146430000Y-74730000D01*
X172140000Y-76650000D02*
G75*
G03*
X172140000Y-76650000I-1000000J0D01*
G01*
X172140000Y-100650000D02*
G75*
G03*
X172140000Y-100650000I-1000000J0D01*
G01*
X160474000Y-103358000D02*
X160474000Y-115042000D01*
X144726000Y-103358000D02*
X160474000Y-103358000D01*
X160474000Y-115042000D02*
X144726000Y-115042000D01*
X144726000Y-115042000D02*
X144726000Y-103358000D01*
X174448000Y-103370000D02*
X174448000Y-113784000D01*
X160986000Y-113784000D02*
X174448000Y-113784000D01*
X160986000Y-113784000D02*
X160986000Y-103370000D01*
X160986000Y-103370000D02*
X174448000Y-103370000D01*
%LPC*%
D15*
X126619000Y-77090000D03*
X124079000Y-80390000D03*
X121539000Y-77090000D03*
X118999000Y-80390000D03*
X116459000Y-77090000D03*
X113919000Y-80390000D03*
X111379000Y-77090000D03*
X108839000Y-80390000D03*
X108839000Y-103250000D03*
X111379000Y-99950000D03*
X113919000Y-103250000D03*
X116459000Y-99950000D03*
X118999000Y-103250000D03*
X121539000Y-99950000D03*
X124079000Y-103250000D03*
X126619000Y-99950000D03*
D16*
X106070000Y-82210000D03*
D17*
X107340000Y-82210000D03*
X106070000Y-83480000D03*
X107340000Y-83480000D03*
X106070000Y-84750000D03*
X107340000Y-84750000D03*
X106070000Y-86020000D03*
X107340000Y-86020000D03*
X106070000Y-87290000D03*
X107340000Y-87290000D03*
D18*
X111591000Y-106836000D03*
X113491000Y-106836000D03*
D19*
X104013000Y-98679000D03*
D20*
X104013000Y-97379000D03*
D21*
X104013000Y-96079000D03*
D22*
X110872000Y-110064000D03*
X110872000Y-111014000D03*
X110872000Y-111964000D03*
X114172000Y-111964000D03*
X114172000Y-111014000D03*
X114172000Y-110064000D03*
D20*
X118862000Y-109300000D03*
X118862000Y-112500000D03*
X123762000Y-112500000D03*
X123762000Y-109300000D03*
X128252000Y-109300000D03*
X128252000Y-112500000D03*
X133152000Y-112500000D03*
X133152000Y-109300000D03*
X137750000Y-109300000D03*
X137750000Y-112500000D03*
X142650000Y-112500000D03*
X142650000Y-109300000D03*
D18*
X120283500Y-106836000D03*
X122183500Y-106836000D03*
X129576500Y-106836000D03*
X131476500Y-106836000D03*
X139328500Y-106836000D03*
X141228500Y-106836000D03*
D23*
X100535000Y-107700000D03*
X108485000Y-107700000D03*
X100535000Y-112200000D03*
X108485000Y-112200000D03*
D24*
X136462500Y-83693000D03*
X139762500Y-86233000D03*
X136462500Y-88773000D03*
X139762500Y-91313000D03*
X136462500Y-93853000D03*
X139762500Y-96393000D03*
X136462500Y-98933000D03*
X139762500Y-101473000D03*
D25*
X162940000Y-101400000D03*
D26*
X160400000Y-101400000D03*
X157860000Y-101400000D03*
X155320000Y-101400000D03*
D25*
X158950000Y-104882000D03*
D27*
X156410000Y-104882000D03*
X153870000Y-104882000D03*
X151330000Y-104882000D03*
D25*
X162510000Y-112260000D03*
D26*
X162510000Y-109720000D03*
X162510000Y-107180000D03*
D25*
X162510000Y-104640000D03*
D28*
X151230000Y-77672500D03*
D29*
X151230000Y-80212500D03*
X151230000Y-82752500D03*
X151230000Y-85292500D03*
X151230000Y-87832500D03*
X151230000Y-90372500D03*
X151230000Y-92912500D03*
D30*
X124090000Y-82530000D03*
X111370000Y-81230000D03*
X119670000Y-99480000D03*
X121540000Y-103370000D03*
X121440000Y-104360000D03*
X136450000Y-102770000D03*
X100500000Y-96390000D03*
X112900000Y-76250000D03*
X122762273Y-100082273D03*
X140250000Y-79000000D03*
X114300000Y-76200000D03*
X120500000Y-82250000D03*
X145034000Y-96139000D03*
X125500000Y-115000000D03*
X107315000Y-93345000D03*
X116500000Y-85000000D03*
X158750000Y-113250000D03*
X123000000Y-85000000D03*
X113792000Y-92202000D03*
X124968000Y-98425000D03*
X164500000Y-91250000D03*
X103886000Y-83566000D03*
X122000000Y-90250000D03*
X119126000Y-76200000D03*
X104013000Y-100203000D03*
X106631500Y-100251500D03*
X109601000Y-83566000D03*
X142120000Y-89040000D03*
X115010000Y-108410000D03*
X116130000Y-109430000D03*
X142500000Y-94000000D03*
X118764000Y-107471000D03*
X118764000Y-105947000D03*
X127000000Y-96750000D03*
M02*
